  0
SECTION
  2
HEADER
  9
$ACADVER
  1
AC1009
  9
$INSBASE
 10
0.0
 20
0.0
 30
0.0
  9
$EXTMIN
 10
0.0
 20
0.0
 30
0.0
  9
$EXTMAX
 10
0.0
 20
0.0
 30
0.0
  0
ENDSEC
  0
SECTION
  2
TABLES
  0
TABLE
  2
VPORT
 70
0
  0
ENDTAB
  0
TABLE
  2
LTYPE
 70
1
  0
LTYPE
  2
CONTINUOUS
 70
0
  3
Solid line
 72
65
 73
0
 40
0.0
  0
ENDTAB
  0
TABLE
  2
LAYER
 70
1
  0
LAYER
  2
0
 70
64
 62
7
  6
continuous
  0
ENDTAB
  0
TABLE
  2
STYLE
 70
1
  0
STYLE
  2
STANDARD
 70
0
 40
0
 41
1.0
 50
0.0
 71
0
 42
1
 3
ARIAL.TTF
 4

  0
ENDTAB
  0
TABLE
  2
VIEW
 70
0
  0
ENDTAB
  0
ENDSEC
  0
SECTION
  2
BLOCKS
  0
BLOCK
  8
0
  2
FACEFEAT
 70
0
 10
0.0
 20
0.0
 30
0.0
  3
FACEFEAT
  0
LINE
  8
0
 62
0
 10
-120.0
 20
-120.0
 30
0.0
 11
120.0
 21
-120.0
 31
0.0
  0
LINE
  8
0
 62
0
 10
-120.0
 20
120.0
 30
0.0
 11
-120.0
 21
-120.0
 31
0.0
  0
LINE
  8
0
 62
0
 10
120.0
 20
-120.0
 30
0.0
 11
120.0
 21
120.0
 31
0.0
  0
LINE
  8
0
 62
0
 10
120.0
 20
120.0
 30
0.0
 11
-120.0
 21
120.0
 31
0.0
  0
LINE
  8
0
 62
0
 10
-55.502628326416016
 20
-67.19999694824219
 30
0.0
 11
-52.98167037963867
 21
-67.19999694824219
 31
0.0
  0
LINE
  8
0
 62
0
 10
-55.502628326416016
 20
-67.19999694824219
 30
0.0
 11
-56.58604049682617
 21
-70.80003356933594
 31
0.0
  0
LINE
  8
0
 62
0
 10
-54.129940032958984
 20
-70.94129943847656
 30
0.0
 11
-52.98167037963867
 21
-67.19999694824219
 31
0.0
  0
LINE
  8
0
 62
0
 10
-56.58604049682617
 20
-70.80003356933594
 30
0.0
 11
-57.557281494140625
 21
-74.43192291259766
 31
0.0
  0
LINE
  8
0
 62
0
 10
-55.154361724853516
 20
-74.71839141845703
 30
0.0
 11
-54.129940032958984
 21
-70.94129943847656
 31
0.0
  0
LINE
  8
0
 62
0
 10
-57.557281494140625
 20
-74.43192291259766
 30
0.0
 11
-58.415401458740234
 21
-78.09219360351562
 31
0.0
  0
LINE
  8
0
 62
0
 10
-56.0538215637207
 20
-78.52716827392578
 30
0.0
 11
-55.154361724853516
 21
-74.71839141845703
 31
0.0
  0
LINE
  8
0
 62
0
 10
-58.415401458740234
 20
-78.09219360351562
 30
0.0
 11
-59.15958023071289
 21
-81.7773208618164
 31
0.0
  0
LINE
  8
0
 62
0
 10
-56.82733917236328
 20
-82.36351013183594
 30
0.0
 11
-56.0538215637207
 21
-78.52716827392578
 31
0.0
  0
LINE
  8
0
 62
0
 10
-59.15958023071289
 20
-81.7773208618164
 30
0.0
 11
-59.789119720458984
 21
-85.48374938964844
 31
0.0
  0
LINE
  8
0
 62
0
 10
-57.47407150268555
 20
-86.22325134277344
 30
0.0
 11
-56.82733917236328
 21
-82.36351013183594
 31
0.0
  0
LINE
  8
0
 62
0
 10
-59.789119720458984
 20
-85.48374938964844
 30
0.0
 11
-60.30339050292969
 21
-89.20793151855469
 31
0.0
  0
LINE
  8
0
 62
0
 10
-57.99332046508789
 20
-90.10218811035156
 30
0.0
 11
-57.47407150268555
 21
-86.22325134277344
 31
0.0
  0
LINE
  8
0
 62
0
 10
-60.30339050292969
 20
-89.20793151855469
 30
0.0
 11
-60.701908111572266
 21
-92.94625854492188
 31
0.0
  0
LINE
  8
0
 62
0
 10
-58.38452911376953
 20
-93.99613189697266
 30
0.0
 11
-57.99332046508789
 21
-90.10218811035156
 31
0.0
  0
LINE
  8
0
 62
0
 10
-60.701908111572266
 20
-92.94625854492188
 30
0.0
 11
-60.984291076660156
 21
-96.69515991210938
 31
0.0
  0
LINE
  8
0
 62
0
 10
-58.64725875854492
 20
-97.90084838867188
 30
0.0
 11
-58.38452911376953
 21
-93.99613189697266
 31
0.0
  0
LINE
  8
0
 62
0
 10
-60.984291076660156
 20
-96.69515991210938
 30
0.0
 11
-61.15026092529297
 21
-100.45099639892578
 31
0.0
  0
LINE
  8
0
 62
0
 10
-58.7812385559082
 20
-101.81210327148438
 30
0.0
 11
-58.64725875854492
 21
-97.90084838867188
 31
0.0
  0
LINE
  8
0
 62
0
 10
-61.15026092529297
 20
-100.45099639892578
 30
0.0
 11
-64.09149169921875
 21
-98.60041046142578
 31
0.0
  0
LINE
  8
0
 62
0
 10
-55.704559326171875
 20
-99.89762878417969
 30
0.0
 11
-58.7812385559082
 21
-101.81210327148438
 31
0.0
  0
LINE
  8
0
 62
0
 10
-64.09149169921875
 20
-98.60041046142578
 30
0.0
 11
-66.97675323486328
 21
-96.6637191772461
 31
0.0
  0
LINE
  8
0
 62
0
 10
-52.68769836425781
 20
-97.89021301269531
 30
0.0
 11
-55.704559326171875
 21
-99.89762878417969
 31
0.0
  0
LINE
  8
0
 62
0
 10
-66.97675323486328
 20
-96.6637191772461
 30
0.0
 11
-69.80354309082031
 21
-94.64261627197266
 31
0.0
  0
LINE
  8
0
 62
0
 10
-49.73345947265625
 20
-95.79171752929688
 30
0.0
 11
-52.68769836425781
 21
-97.89021301269531
 31
0.0
  0
LINE
  8
0
 62
0
 10
-69.80354309082031
 20
-94.64261627197266
 30
0.0
 11
-72.56936645507812
 21
-92.53888702392578
 31
0.0
  0
LINE
  8
0
 62
0
 10
-46.844600677490234
 20
-93.6041030883789
 30
0.0
 11
-49.73345947265625
 21
-95.79171752929688
 31
0.0
  0
LINE
  8
0
 62
0
 10
-72.56936645507812
 20
-92.53888702392578
 30
0.0
 11
-75.27184295654297
 21
-90.35436248779297
 31
0.0
  0
LINE
  8
0
 62
0
 10
-44.023799896240234
 20
-91.32939147949219
 30
0.0
 11
-46.844600677490234
 21
-93.6041030883789
 31
0.0
  0
LINE
  8
0
 62
0
 10
-75.27184295654297
 20
-90.35436248779297
 30
0.0
 11
-77.9085922241211
 21
-88.09092712402344
 31
0.0
  0
LINE
  8
0
 62
0
 10
-41.27370071411133
 20
-88.96971130371094
 30
0.0
 11
-44.023799896240234
 21
-91.32939147949219
 31
0.0
  0
LINE
  8
0
 62
0
 10
-79.60877227783203
 20
-89.79110717773438
 30
0.0
 11
-77.9085922241211
 21
-88.09092712402344
 31
0.0
  0
LINE
  8
0
 62
0
 10
-38.596839904785156
 20
-86.52725219726562
 30
0.0
 11
-41.27370071411133
 21
-88.96971130371094
 31
0.0
  0
LINE
  8
0
 62
0
 10
-76.7229232788086
 20
-92.26912689208984
 30
0.0
 11
-79.60877227783203
 21
-89.79110717773438
 31
0.0
  0
LINE
  8
0
 62
0
 10
-35.99570846557617
 20
-84.00428771972656
 30
0.0
 11
-38.596839904785156
 21
-86.52725219726562
 31
0.0
  0
LINE
  8
0
 62
0
 10
-73.75997924804688
 20
-94.65444946289062
 30
0.0
 11
-76.7229232788086
 21
-92.26912689208984
 31
0.0
  0
LINE
  8
0
 62
0
 10
-35.99570846557617
 20
-84.00428771972656
 30
0.0
 11
-34.29866027832031
 21
-85.70133972167969
 31
0.0
  0
LINE
  8
0
 62
0
 10
-70.72293090820312
 20
-96.94465637207031
 30
0.0
 11
-73.75997924804688
 21
-94.65444946289062
 31
0.0
  0
LINE
  8
0
 62
0
 10
-37.200111389160156
 20
-88.50772857666016
 30
0.0
 11
-34.29866027832031
 21
-85.70133972167969
 31
0.0
  0
LINE
  8
0
 62
0
 10
-67.61482238769531
 20
-99.13745880126953
 30
0.0
 11
-70.72293090820312
 21
-96.94465637207031
 31
0.0
  0
LINE
  8
0
 62
0
 10
-40.19340133666992
 20
-91.2159423828125
 30
0.0
 11
-37.200111389160156
 21
-88.50772857666016
 31
0.0
  0
LINE
  8
0
 62
0
 10
-64.43876647949219
 20
-101.23069763183594
 30
0.0
 11
-67.61482238769531
 21
-99.13745880126953
 31
0.0
  0
LINE
  8
0
 62
0
 10
-43.275230407714844
 20
-93.82296752929688
 30
0.0
 11
-40.19340133666992
 21
-91.2159423828125
 31
0.0
  0
LINE
  8
0
 62
0
 10
-61.19797134399414
 20
-103.22209930419922
 30
0.0
 11
-64.43876647949219
 21
-101.23069763183594
 31
0.0
  0
LINE
  8
0
 62
0
 10
-46.4421501159668
 20
-96.32592010498047
 30
0.0
 11
-43.275230407714844
 21
-93.82296752929688
 31
0.0
  0
LINE
  8
0
 62
0
 10
-61.19797134399414
 20
-103.22209930419922
 30
0.0
 11
-61.198001861572266
 21
-103.22679901123047
 31
0.0
  0
LINE
  8
0
 62
0
 10
-49.69068145751953
 20
-98.72203063964844
 30
0.0
 11
-46.4421501159668
 21
-96.32592010498047
 31
0.0
  0
LINE
  8
0
 62
0
 10
-61.198001861572266
 20
-103.22679901123047
 30
0.0
 11
-64.64678192138672
 21
-105.11640167236328
 31
0.0
  0
LINE
  8
0
 62
0
 10
-53.017189025878906
 20
-101.00859832763672
 30
0.0
 11
-49.69068145751953
 21
-98.72203063964844
 31
0.0
  0
LINE
  8
0
 62
0
 10
-64.64678192138672
 20
-105.11640167236328
 30
0.0
 11
-68.15621185302734
 21
-106.89089965820312
 31
0.0
  0
LINE
  8
0
 62
0
 10
-56.417999267578125
 20
-103.18319702148438
 30
0.0
 11
-53.017189025878906
 21
-101.00859832763672
 31
0.0
  0
LINE
  8
0
 62
0
 10
-68.15621185302734
 20
-106.89089965820312
 30
0.0
 11
-71.72245025634766
 21
-108.54820251464844
 31
0.0
  0
LINE
  8
0
 62
0
 10
-53.24263000488281
 20
-104.85700225830078
 30
0.0
 11
-56.417999267578125
 21
-103.18319702148438
 31
0.0
  0
LINE
  8
0
 62
0
 10
-71.72245025634766
 20
-108.54820251464844
 30
0.0
 11
-75.34159088134766
 21
-110.08660125732422
 31
0.0
  0
LINE
  8
0
 62
0
 10
-50.01765823364258
 20
-106.43299865722656
 30
0.0
 11
-53.24263000488281
 21
-104.85700225830078
 31
0.0
  0
LINE
  8
0
 62
0
 10
-75.34159088134766
 20
-110.08660125732422
 30
0.0
 11
-79.0096664428711
 21
-111.50440216064453
 31
0.0
  0
LINE
  8
0
 62
0
 10
-46.746089935302734
 20
-107.91000366210938
 30
0.0
 11
-50.01765823364258
 21
-106.43299865722656
 31
0.0
  0
LINE
  8
0
 62
0
 10
-79.0096664428711
 20
-111.50440216064453
 30
0.0
 11
-82.72265625
 21
-112.80000305175781
 31
0.0
  0
LINE
  8
0
 62
0
 10
-43.43096923828125
 20
-109.2863998413086
 30
0.0
 11
-46.746089935302734
 21
-107.91000366210938
 31
0.0
  0
LINE
  8
0
 62
0
 10
-75.66490936279297
 20
-112.80000305175781
 30
0.0
 11
-82.72265625
 21
-112.80000305175781
 31
0.0
  0
LINE
  8
0
 62
0
 10
-40.07538986206055
 20
-110.56089782714844
 30
0.0
 11
-43.43096923828125
 21
-109.2863998413086
 31
0.0
  0
LINE
  8
0
 62
0
 10
-75.66490936279297
 20
-112.80000305175781
 30
0.0
 11
-71.96167755126953
 21
-111.27339935302734
 31
0.0
  0
LINE
  8
0
 62
0
 10
-36.68246841430664
 20
-111.73249816894531
 30
0.0
 11
-40.07538986206055
 21
-110.56089782714844
 31
0.0
  0
LINE
  8
0
 62
0
 10
-71.96167755126953
 20
-111.27339935302734
 30
0.0
 11
-68.31092071533203
 21
-109.62519836425781
 31
0.0
  0
LINE
  8
0
 62
0
 10
-33.25537872314453
 20
-112.80000305175781
 30
0.0
 11
-36.68246841430664
 21
-111.73249816894531
 31
0.0
  0
LINE
  8
0
 62
0
 10
-68.31092071533203
 20
-109.62519836425781
 30
0.0
 11
-64.71661376953125
 21
-107.8572998046875
 31
0.0
  0
LINE
  8
0
 62
0
 10
-33.25537872314453
 20
-112.80000305175781
 30
0.0
 11
-40.9409294128418
 21
-112.80000305175781
 31
0.0
  0
LINE
  8
0
 62
0
 10
-64.71661376953125
 20
-107.8572998046875
 30
0.0
 11
-61.18268966674805
 21
-105.97149658203125
 31
0.0
  0
LINE
  8
0
 62
0
 10
-44.615108489990234
 20
-111.39790344238281
 30
0.0
 11
-40.9409294128418
 21
-112.80000305175781
 31
0.0
  0
LINE
  8
0
 62
0
 10
-61.18268966674805
 20
-105.97149658203125
 30
0.0
 11
-61.12276077270508
 21
-108.24949645996094
 31
0.0
  0
LINE
  8
0
 62
0
 10
-48.241371154785156
 20
-109.8761978149414
 30
0.0
 11
-44.615108489990234
 21
-111.39790344238281
 31
0.0
  0
LINE
  8
0
 62
0
 10
-61.12276077270508
 20
-108.24949645996094
 30
0.0
 11
-61.02001190185547
 21
-110.5259017944336
 31
0.0
  0
LINE
  8
0
 62
0
 10
-51.81583023071289
 20
-108.23639678955078
 30
0.0
 11
-48.241371154785156
 21
-109.8761978149414
 31
0.0
  0
LINE
  8
0
 62
0
 10
-61.02001190185547
 20
-110.5259017944336
 30
0.0
 11
-60.874481201171875
 21
-112.80000305175781
 31
0.0
  0
LINE
  8
0
 62
0
 10
-55.33462905883789
 20
-106.48040008544922
 30
0.0
 11
-51.81583023071289
 21
-108.23639678955078
 31
0.0
  0
LINE
  8
0
 62
0
 10
-58.46788024902344
 20
-112.80000305175781
 30
0.0
 11
-60.874481201171875
 21
-112.80000305175781
 31
0.0
  0
LINE
  8
0
 62
0
 10
-58.79399871826172
 20
-104.61009979248047
 30
0.0
 11
-55.33462905883789
 21
-106.48040008544922
 31
0.0
  0
LINE
  8
0
 62
0
 10
-58.46788024902344
 20
-112.80000305175781
 30
0.0
 11
-58.64067840576172
 21
-110.07360076904297
 31
0.0
  0
LINE
  8
0
 62
0
 10
-58.79800033569336
 20
-104.61239624023438
 30
0.0
 11
-58.79399871826172
 21
-104.61009979248047
 31
0.0
  0
LINE
  8
0
 62
0
 10
-58.64067840576172
 20
-110.07360076904297
 30
0.0
 11
-58.75074005126953
 21
-107.34390258789062
 31
0.0
  0
LINE
  8
0
 62
0
 10
-58.75074005126953
 20
-107.34390258789062
 30
0.0
 11
-58.79800033569336
 21
-104.61239624023438
 31
0.0
  0
LINE
  8
0
 62
0
 10
-88.09092712402344
 20
-77.9085922241211
 30
0.0
 11
-89.79110717773438
 21
-79.60877227783203
 31
0.0
  0
LINE
  8
0
 62
0
 10
-88.09092712402344
 20
-77.9085922241211
 30
0.0
 11
-90.6621322631836
 21
-74.90084838867188
 31
0.0
  0
LINE
  8
0
 62
0
 10
-89.79110717773438
 20
-79.60877227783203
 30
0.0
 11
-92.24868774414062
 21
-76.74751281738281
 31
0.0
  0
LINE
  8
0
 62
0
 10
-90.6621322631836
 20
-74.90084838867188
 30
0.0
 11
-93.13069152832031
 21
-71.80831909179688
 31
0.0
  0
LINE
  8
0
 62
0
 10
-92.24868774414062
 20
-76.74751281738281
 30
0.0
 11
-94.61512756347656
 21
-73.81041717529297
 31
0.0
  0
LINE
  8
0
 62
0
 10
-93.13069152832031
 20
-71.80831909179688
 30
0.0
 11
-95.49381256103516
 21
-68.63448333740234
 31
0.0
  0
LINE
  8
0
 62
0
 10
-94.61512756347656
 20
-73.81041717529297
 30
0.0
 11
-96.88809204101562
 21
-70.80040740966797
 31
0.0
  0
LINE
  8
0
 62
0
 10
-95.49381256103516
 20
-68.63448333740234
 30
0.0
 11
-97.74881744384766
 21
-65.38294219970703
 31
0.0
  0
LINE
  8
0
 62
0
 10
-96.88809204101562
 20
-70.80040740966797
 30
0.0
 11
-99.0653305053711
 21
-67.72045135498047
 31
0.0
  0
LINE
  8
0
 62
0
 10
-97.74881744384766
 20
-65.38294219970703
 30
0.0
 11
-99.89315032958984
 21
-62.057369232177734
 31
0.0
  0
LINE
  8
0
 62
0
 10
-99.0653305053711
 20
-67.72045135498047
 30
0.0
 11
-101.14469909667969
 21
-64.57359313964844
 31
0.0
  0
LINE
  8
0
 62
0
 10
-99.89315032958984
 20
-62.057369232177734
 30
0.0
 11
-101.92440032958984
 21
-58.66154861450195
 31
0.0
  0
LINE
  8
0
 62
0
 10
-101.14469909667969
 20
-64.57359313964844
 30
0.0
 11
-103.12409973144531
 21
-61.36294174194336
 31
0.0
  0
LINE
  8
0
 62
0
 10
-101.92440032958984
 20
-58.66154861450195
 30
0.0
 11
-103.84020233154297
 21
-55.199310302734375
 31
0.0
  0
LINE
  8
0
 62
0
 10
-103.12409973144531
 20
-61.36294174194336
 30
0.0
 11
-105.00170135498047
 21
-58.09165954589844
 31
0.0
  0
LINE
  8
0
 62
0
 10
-103.84020233154297
 20
-55.199310302734375
 30
0.0
 11
-105.63849639892578
 21
-51.67457962036133
 31
0.0
  0
LINE
  8
0
 62
0
 10
-105.00170135498047
 20
-58.09165954589844
 30
0.0
 11
-106.77549743652344
 21
-54.76298904418945
 31
0.0
  0
LINE
  8
0
 62
0
 10
-105.63849639892578
 20
-51.67457962036133
 30
0.0
 11
-107.31719970703125
 21
-48.091339111328125
 31
0.0
  0
LINE
  8
0
 62
0
 10
-106.77549743652344
 20
-54.76298904418945
 30
0.0
 11
-108.44390106201172
 21
-51.380210876464844
 31
0.0
  0
LINE
  8
0
 62
0
 10
-107.31719970703125
 20
-48.091339111328125
 30
0.0
 11
-108.87439727783203
 21
-44.453651428222656
 31
0.0
  0
LINE
  8
0
 62
0
 10
-108.44390106201172
 20
-51.380210876464844
 30
0.0
 11
-110.00509643554688
 21
-47.94667053222656
 31
0.0
  0
LINE
  8
0
 62
0
 10
-108.87439727783203
 20
-44.453651428222656
 30
0.0
 11
-110.30829620361328
 21
-40.76564025878906
 31
0.0
  0
LINE
  8
0
 62
0
 10
-110.00509643554688
 20
-47.94667053222656
 30
0.0
 11
-111.45760345458984
 21
-44.46577072143555
 31
0.0
  0
LINE
  8
0
 62
0
 10
-110.30829620361328
 20
-40.76564025878906
 30
0.0
 11
-111.61730194091797
 21
-37.031471252441406
 31
0.0
  0
LINE
  8
0
 62
0
 10
-111.45760345458984
 20
-44.46577072143555
 30
0.0
 11
-112.80000305175781
 21
-40.9409294128418
 31
0.0
  0
LINE
  8
0
 62
0
 10
-111.61730194091797
 20
-37.031471252441406
 30
0.0
 11
-112.80000305175781
 21
-33.25537872314453
 31
0.0
  0
LINE
  8
0
 62
0
 10
-112.80000305175781
 20
-40.9409294128418
 30
0.0
 11
-112.80000305175781
 21
-33.25537872314453
 31
0.0
  0
LINE
  8
0
 62
0
 10
-112.80000305175781
 20
33.25537872314453
 30
0.0
 11
-112.80000305175781
 21
40.9409294128418
 31
0.0
  0
LINE
  8
0
 62
0
 10
-112.80000305175781
 20
33.25537872314453
 30
0.0
 11
-111.61730194091797
 21
37.031471252441406
 31
0.0
  0
LINE
  8
0
 62
0
 10
-112.80000305175781
 20
40.9409294128418
 30
0.0
 11
-111.45760345458984
 21
44.46577072143555
 31
0.0
  0
LINE
  8
0
 62
0
 10
-111.61730194091797
 20
37.031471252441406
 30
0.0
 11
-110.30829620361328
 21
40.76564025878906
 31
0.0
  0
LINE
  8
0
 62
0
 10
-111.45760345458984
 20
44.46577072143555
 30
0.0
 11
-110.00509643554688
 21
47.94667053222656
 31
0.0
  0
LINE
  8
0
 62
0
 10
-110.30829620361328
 20
40.76564025878906
 30
0.0
 11
-108.87439727783203
 21
44.453651428222656
 31
0.0
  0
LINE
  8
0
 62
0
 10
-110.00509643554688
 20
47.94667053222656
 30
0.0
 11
-108.44390106201172
 21
51.380210876464844
 31
0.0
  0
LINE
  8
0
 62
0
 10
-108.87439727783203
 20
44.453651428222656
 30
0.0
 11
-107.31719970703125
 21
48.091339111328125
 31
0.0
  0
LINE
  8
0
 62
0
 10
-108.44390106201172
 20
51.380210876464844
 30
0.0
 11
-106.77549743652344
 21
54.76298904418945
 31
0.0
  0
LINE
  8
0
 62
0
 10
-107.31719970703125
 20
48.091339111328125
 30
0.0
 11
-105.63849639892578
 21
51.67457962036133
 31
0.0
  0
LINE
  8
0
 62
0
 10
-106.77549743652344
 20
54.76298904418945
 30
0.0
 11
-105.00170135498047
 21
58.09165954589844
 31
0.0
  0
LINE
  8
0
 62
0
 10
-105.63849639892578
 20
51.67457962036133
 30
0.0
 11
-103.84020233154297
 21
55.199310302734375
 31
0.0
  0
LINE
  8
0
 62
0
 10
-105.00170135498047
 20
58.09165954589844
 30
0.0
 11
-103.12409973144531
 21
61.36294174194336
 31
0.0
  0
LINE
  8
0
 62
0
 10
-103.84020233154297
 20
55.199310302734375
 30
0.0
 11
-101.92440032958984
 21
58.66154861450195
 31
0.0
  0
LINE
  8
0
 62
0
 10
-103.12409973144531
 20
61.36294174194336
 30
0.0
 11
-101.14469909667969
 21
64.57359313964844
 31
0.0
  0
LINE
  8
0
 62
0
 10
-101.92440032958984
 20
58.66154861450195
 30
0.0
 11
-99.89315032958984
 21
62.057369232177734
 31
0.0
  0
LINE
  8
0
 62
0
 10
-101.14469909667969
 20
64.57359313964844
 30
0.0
 11
-99.0653305053711
 21
67.72045135498047
 31
0.0
  0
LINE
  8
0
 62
0
 10
-99.89315032958984
 20
62.057369232177734
 30
0.0
 11
-97.74881744384766
 21
65.38294219970703
 31
0.0
  0
LINE
  8
0
 62
0
 10
-99.0653305053711
 20
67.72045135498047
 30
0.0
 11
-96.88809204101562
 21
70.80040740966797
 31
0.0
  0
LINE
  8
0
 62
0
 10
-97.74881744384766
 20
65.38294219970703
 30
0.0
 11
-95.49381256103516
 21
68.63448333740234
 31
0.0
  0
LINE
  8
0
 62
0
 10
-96.88809204101562
 20
70.80040740966797
 30
0.0
 11
-94.61512756347656
 21
73.81041717529297
 31
0.0
  0
LINE
  8
0
 62
0
 10
-95.49381256103516
 20
68.63448333740234
 30
0.0
 11
-93.13069152832031
 21
71.80831909179688
 31
0.0
  0
LINE
  8
0
 62
0
 10
-94.61512756347656
 20
73.81041717529297
 30
0.0
 11
-92.24868774414062
 21
76.74751281738281
 31
0.0
  0
LINE
  8
0
 62
0
 10
-93.13069152832031
 20
71.80831909179688
 30
0.0
 11
-90.6621322631836
 21
74.90084838867188
 31
0.0
  0
LINE
  8
0
 62
0
 10
-92.24868774414062
 20
76.74751281738281
 30
0.0
 11
-89.79110717773438
 21
79.60877227783203
 31
0.0
  0
LINE
  8
0
 62
0
 10
-90.6621322631836
 20
74.90084838867188
 30
0.0
 11
-88.09092712402344
 21
77.9085922241211
 31
0.0
  0
LINE
  8
0
 62
0
 10
-89.79110717773438
 20
79.60877227783203
 30
0.0
 11
-88.09092712402344
 21
77.9085922241211
 31
0.0
  0
LINE
  8
0
 62
0
 10
-34.29866027832031
 20
85.70133972167969
 30
0.0
 11
-35.99570846557617
 21
84.00428771972656
 31
0.0
  0
LINE
  8
0
 62
0
 10
-38.596839904785156
 20
86.52725219726562
 30
0.0
 11
-35.99570846557617
 21
84.00428771972656
 31
0.0
  0
LINE
  8
0
 62
0
 10
-34.29866027832031
 20
85.70133972167969
 30
0.0
 11
-37.200111389160156
 21
88.50772857666016
 31
0.0
  0
LINE
  8
0
 62
0
 10
-41.27370071411133
 20
88.96971130371094
 30
0.0
 11
-38.596839904785156
 21
86.52725219726562
 31
0.0
  0
LINE
  8
0
 62
0
 10
-37.200111389160156
 20
88.50772857666016
 30
0.0
 11
-40.19340133666992
 21
91.2159423828125
 31
0.0
  0
LINE
  8
0
 62
0
 10
-44.023799896240234
 20
91.32939147949219
 30
0.0
 11
-41.27370071411133
 21
88.96971130371094
 31
0.0
  0
LINE
  8
0
 62
0
 10
-40.19340133666992
 20
91.2159423828125
 30
0.0
 11
-43.275230407714844
 21
93.82296752929688
 31
0.0
  0
LINE
  8
0
 62
0
 10
-46.844600677490234
 20
93.6041030883789
 30
0.0
 11
-44.023799896240234
 21
91.32939147949219
 31
0.0
  0
LINE
  8
0
 62
0
 10
-43.275230407714844
 20
93.82296752929688
 30
0.0
 11
-46.4421501159668
 21
96.32592010498047
 31
0.0
  0
LINE
  8
0
 62
0
 10
-49.73345947265625
 20
95.79171752929688
 30
0.0
 11
-46.844600677490234
 21
93.6041030883789
 31
0.0
  0
LINE
  8
0
 62
0
 10
-46.4421501159668
 20
96.32592010498047
 30
0.0
 11
-49.69068145751953
 21
98.72203063964844
 31
0.0
  0
LINE
  8
0
 62
0
 10
-52.68769836425781
 20
97.89021301269531
 30
0.0
 11
-49.73345947265625
 21
95.79171752929688
 31
0.0
  0
LINE
  8
0
 62
0
 10
-49.69068145751953
 20
98.72203063964844
 30
0.0
 11
-53.017189025878906
 21
101.00859832763672
 31
0.0
  0
LINE
  8
0
 62
0
 10
-55.704559326171875
 20
99.89762878417969
 30
0.0
 11
-52.68769836425781
 21
97.89021301269531
 31
0.0
  0
LINE
  8
0
 62
0
 10
-53.017189025878906
 20
101.00859832763672
 30
0.0
 11
-56.417999267578125
 21
103.18319702148438
 31
0.0
  0
LINE
  8
0
 62
0
 10
-58.7812385559082
 20
101.81210327148438
 30
0.0
 11
-55.704559326171875
 21
99.89762878417969
 31
0.0
  0
LINE
  8
0
 62
0
 10
-56.417999267578125
 20
103.18319702148438
 30
0.0
 11
-53.24263000488281
 21
104.85700225830078
 31
0.0
  0
LINE
  8
0
 62
0
 10
-58.64725875854492
 20
97.90084838867188
 30
0.0
 11
-58.7812385559082
 21
101.81210327148438
 31
0.0
  0
LINE
  8
0
 62
0
 10
-53.24263000488281
 20
104.85700225830078
 30
0.0
 11
-50.01765823364258
 21
106.43299865722656
 31
0.0
  0
LINE
  8
0
 62
0
 10
-58.38452911376953
 20
93.99613189697266
 30
0.0
 11
-58.64725875854492
 21
97.90084838867188
 31
0.0
  0
LINE
  8
0
 62
0
 10
-50.01765823364258
 20
106.43299865722656
 30
0.0
 11
-46.746089935302734
 21
107.91000366210938
 31
0.0
  0
LINE
  8
0
 62
0
 10
-57.99332046508789
 20
90.10218811035156
 30
0.0
 11
-58.38452911376953
 21
93.99613189697266
 31
0.0
  0
LINE
  8
0
 62
0
 10
-46.746089935302734
 20
107.91000366210938
 30
0.0
 11
-43.43096923828125
 21
109.2863998413086
 31
0.0
  0
LINE
  8
0
 62
0
 10
-57.47407150268555
 20
86.22325134277344
 30
0.0
 11
-57.99332046508789
 21
90.10218811035156
 31
0.0
  0
LINE
  8
0
 62
0
 10
-43.43096923828125
 20
109.2863998413086
 30
0.0
 11
-40.07538986206055
 21
110.56089782714844
 31
0.0
  0
LINE
  8
0
 62
0
 10
-56.82733917236328
 20
82.36351013183594
 30
0.0
 11
-57.47407150268555
 21
86.22325134277344
 31
0.0
  0
LINE
  8
0
 62
0
 10
-40.07538986206055
 20
110.56089782714844
 30
0.0
 11
-36.68246841430664
 21
111.73249816894531
 31
0.0
  0
LINE
  8
0
 62
0
 10
-56.0538215637207
 20
78.52716827392578
 30
0.0
 11
-56.82733917236328
 21
82.36351013183594
 31
0.0
  0
LINE
  8
0
 62
0
 10
-36.68246841430664
 20
111.73249816894531
 30
0.0
 11
-33.25537872314453
 21
112.80000305175781
 31
0.0
  0
LINE
  8
0
 62
0
 10
-55.154361724853516
 20
74.71839141845703
 30
0.0
 11
-56.0538215637207
 21
78.52716827392578
 31
0.0
  0
LINE
  8
0
 62
0
 10
-40.9409294128418
 20
112.80000305175781
 30
0.0
 11
-33.25537872314453
 21
112.80000305175781
 31
0.0
  0
LINE
  8
0
 62
0
 10
-54.129940032958984
 20
70.94129943847656
 30
0.0
 11
-55.154361724853516
 21
74.71839141845703
 31
0.0
  0
LINE
  8
0
 62
0
 10
-40.9409294128418
 20
112.80000305175781
 30
0.0
 11
-44.615108489990234
 21
111.39790344238281
 31
0.0
  0
LINE
  8
0
 62
0
 10
-52.98167037963867
 20
67.19999694824219
 30
0.0
 11
-54.129940032958984
 21
70.94129943847656
 31
0.0
  0
LINE
  8
0
 62
0
 10
-44.615108489990234
 20
111.39790344238281
 30
0.0
 11
-48.241371154785156
 21
109.8761978149414
 31
0.0
  0
LINE
  8
0
 62
0
 10
-52.98167037963867
 20
67.19999694824219
 30
0.0
 11
-55.502628326416016
 21
67.19999694824219
 31
0.0
  0
LINE
  8
0
 62
0
 10
-48.241371154785156
 20
109.8761978149414
 30
0.0
 11
-51.81583023071289
 21
108.23639678955078
 31
0.0
  0
LINE
  8
0
 62
0
 10
-56.58604049682617
 20
70.80003356933594
 30
0.0
 11
-55.502628326416016
 21
67.19999694824219
 31
0.0
  0
LINE
  8
0
 62
0
 10
-51.81583023071289
 20
108.23639678955078
 30
0.0
 11
-55.33462905883789
 21
106.48040008544922
 31
0.0
  0
LINE
  8
0
 62
0
 10
-57.557281494140625
 20
74.43192291259766
 30
0.0
 11
-56.58604049682617
 21
70.80003356933594
 31
0.0
  0
LINE
  8
0
 62
0
 10
-55.33462905883789
 20
106.48040008544922
 30
0.0
 11
-58.79399871826172
 21
104.61009979248047
 31
0.0
  0
LINE
  8
0
 62
0
 10
-58.415401458740234
 20
78.09219360351562
 30
0.0
 11
-57.557281494140625
 21
74.43192291259766
 31
0.0
  0
LINE
  8
0
 62
0
 10
-58.79399871826172
 20
104.61009979248047
 30
0.0
 11
-58.79800033569336
 21
104.61239624023438
 31
0.0
  0
LINE
  8
0
 62
0
 10
-59.15958023071289
 20
81.7773208618164
 30
0.0
 11
-58.415401458740234
 21
78.09219360351562
 31
0.0
  0
LINE
  8
0
 62
0
 10
-58.79800033569336
 20
104.61239624023438
 30
0.0
 11
-58.75074005126953
 21
107.34390258789062
 31
0.0
  0
LINE
  8
0
 62
0
 10
-59.789119720458984
 20
85.48374938964844
 30
0.0
 11
-59.15958023071289
 21
81.7773208618164
 31
0.0
  0
LINE
  8
0
 62
0
 10
-58.75074005126953
 20
107.34390258789062
 30
0.0
 11
-58.64067840576172
 21
110.07360076904297
 31
0.0
  0
LINE
  8
0
 62
0
 10
-60.30339050292969
 20
89.20793151855469
 30
0.0
 11
-59.789119720458984
 21
85.48374938964844
 31
0.0
  0
LINE
  8
0
 62
0
 10
-58.64067840576172
 20
110.07360076904297
 30
0.0
 11
-58.46788024902344
 21
112.80000305175781
 31
0.0
  0
LINE
  8
0
 62
0
 10
-60.701908111572266
 20
92.94625854492188
 30
0.0
 11
-60.30339050292969
 21
89.20793151855469
 31
0.0
  0
LINE
  8
0
 62
0
 10
-60.874481201171875
 20
112.80000305175781
 30
0.0
 11
-58.46788024902344
 21
112.80000305175781
 31
0.0
  0
LINE
  8
0
 62
0
 10
-60.984291076660156
 20
96.69515991210938
 30
0.0
 11
-60.701908111572266
 21
92.94625854492188
 31
0.0
  0
LINE
  8
0
 62
0
 10
-61.02001190185547
 20
110.5259017944336
 30
0.0
 11
-60.874481201171875
 21
112.80000305175781
 31
0.0
  0
LINE
  8
0
 62
0
 10
-61.15026092529297
 20
100.45099639892578
 30
0.0
 11
-60.984291076660156
 21
96.69515991210938
 31
0.0
  0
LINE
  8
0
 62
0
 10
-61.12276077270508
 20
108.24949645996094
 30
0.0
 11
-61.02001190185547
 21
110.5259017944336
 31
0.0
  0
LINE
  8
0
 62
0
 10
-64.09149169921875
 20
98.60041046142578
 30
0.0
 11
-61.15026092529297
 21
100.45099639892578
 31
0.0
  0
LINE
  8
0
 62
0
 10
-61.18268966674805
 20
105.97149658203125
 30
0.0
 11
-61.12276077270508
 21
108.24949645996094
 31
0.0
  0
LINE
  8
0
 62
0
 10
-66.97675323486328
 20
96.6637191772461
 30
0.0
 11
-64.09149169921875
 21
98.60041046142578
 31
0.0
  0
LINE
  8
0
 62
0
 10
-64.71661376953125
 20
107.8572998046875
 30
0.0
 11
-61.18268966674805
 21
105.97149658203125
 31
0.0
  0
LINE
  8
0
 62
0
 10
-69.80354309082031
 20
94.64261627197266
 30
0.0
 11
-66.97675323486328
 21
96.6637191772461
 31
0.0
  0
LINE
  8
0
 62
0
 10
-68.31092071533203
 20
109.62519836425781
 30
0.0
 11
-64.71661376953125
 21
107.8572998046875
 31
0.0
  0
LINE
  8
0
 62
0
 10
-72.56936645507812
 20
92.53888702392578
 30
0.0
 11
-69.80354309082031
 21
94.64261627197266
 31
0.0
  0
LINE
  8
0
 62
0
 10
-71.96167755126953
 20
111.27339935302734
 30
0.0
 11
-68.31092071533203
 21
109.62519836425781
 31
0.0
  0
LINE
  8
0
 62
0
 10
-75.27184295654297
 20
90.35436248779297
 30
0.0
 11
-72.56936645507812
 21
92.53888702392578
 31
0.0
  0
LINE
  8
0
 62
0
 10
-75.66490936279297
 20
112.80000305175781
 30
0.0
 11
-71.96167755126953
 21
111.27339935302734
 31
0.0
  0
LINE
  8
0
 62
0
 10
-77.9085922241211
 20
88.09092712402344
 30
0.0
 11
-75.27184295654297
 21
90.35436248779297
 31
0.0
  0
LINE
  8
0
 62
0
 10
-82.72265625
 20
112.80000305175781
 30
0.0
 11
-75.66490936279297
 21
112.80000305175781
 31
0.0
  0
LINE
  8
0
 62
0
 10
-77.9085922241211
 20
88.09092712402344
 30
0.0
 11
-79.60877227783203
 21
89.79110717773438
 31
0.0
  0
LINE
  8
0
 62
0
 10
-79.0096664428711
 20
111.50440216064453
 30
0.0
 11
-82.72265625
 21
112.80000305175781
 31
0.0
  0
LINE
  8
0
 62
0
 10
-79.60877227783203
 20
89.79110717773438
 30
0.0
 11
-76.7229232788086
 21
92.26912689208984
 31
0.0
  0
LINE
  8
0
 62
0
 10
-75.34159088134766
 20
110.08660125732422
 30
0.0
 11
-79.0096664428711
 21
111.50440216064453
 31
0.0
  0
LINE
  8
0
 62
0
 10
-76.7229232788086
 20
92.26912689208984
 30
0.0
 11
-73.75997924804688
 21
94.65444946289062
 31
0.0
  0
LINE
  8
0
 62
0
 10
-71.72245025634766
 20
108.54820251464844
 30
0.0
 11
-75.34159088134766
 21
110.08660125732422
 31
0.0
  0
LINE
  8
0
 62
0
 10
-73.75997924804688
 20
94.65444946289062
 30
0.0
 11
-70.72293090820312
 21
96.94465637207031
 31
0.0
  0
LINE
  8
0
 62
0
 10
-68.15621185302734
 20
106.89089965820312
 30
0.0
 11
-71.72245025634766
 21
108.54820251464844
 31
0.0
  0
LINE
  8
0
 62
0
 10
-70.72293090820312
 20
96.94465637207031
 30
0.0
 11
-67.61482238769531
 21
99.13745880126953
 31
0.0
  0
LINE
  8
0
 62
0
 10
-64.64678192138672
 20
105.11640167236328
 30
0.0
 11
-68.15621185302734
 21
106.89089965820312
 31
0.0
  0
LINE
  8
0
 62
0
 10
-67.61482238769531
 20
99.13745880126953
 30
0.0
 11
-64.43876647949219
 21
101.23069763183594
 31
0.0
  0
LINE
  8
0
 62
0
 10
-61.198001861572266
 20
103.22679901123047
 30
0.0
 11
-64.64678192138672
 21
105.11640167236328
 31
0.0
  0
LINE
  8
0
 62
0
 10
-64.43876647949219
 20
101.23069763183594
 30
0.0
 11
-61.19797134399414
 21
103.22209930419922
 31
0.0
  0
LINE
  8
0
 62
0
 10
-61.19797134399414
 20
103.22209930419922
 30
0.0
 11
-61.198001861572266
 21
103.22679901123047
 31
0.0
  0
LINE
  8
0
 62
0
 10
112.80000305175781
 20
-40.9409294128418
 30
0.0
 11
111.45760345458984
 21
-44.46577072143555
 31
0.0
  0
LINE
  8
0
 62
0
 10
111.45760345458984
 20
-44.46577072143555
 30
0.0
 11
110.00509643554688
 21
-47.94667053222656
 31
0.0
  0
LINE
  8
0
 62
0
 10
112.80000305175781
 20
-33.25537872314453
 30
0.0
 11
112.80000305175781
 21
-40.9409294128418
 31
0.0
  0
LINE
  8
0
 62
0
 10
110.00509643554688
 20
-47.94667053222656
 30
0.0
 11
108.44390106201172
 21
-51.380210876464844
 31
0.0
  0
LINE
  8
0
 62
0
 10
112.80000305175781
 20
-33.25537872314453
 30
0.0
 11
111.61730194091797
 21
-37.031471252441406
 31
0.0
  0
LINE
  8
0
 62
0
 10
108.44390106201172
 20
-51.380210876464844
 30
0.0
 11
106.77549743652344
 21
-54.76298904418945
 31
0.0
  0
LINE
  8
0
 62
0
 10
111.61730194091797
 20
-37.031471252441406
 30
0.0
 11
110.30829620361328
 21
-40.76564025878906
 31
0.0
  0
LINE
  8
0
 62
0
 10
106.77549743652344
 20
-54.76298904418945
 30
0.0
 11
105.00170135498047
 21
-58.09165954589844
 31
0.0
  0
LINE
  8
0
 62
0
 10
110.30829620361328
 20
-40.76564025878906
 30
0.0
 11
108.87439727783203
 21
-44.453651428222656
 31
0.0
  0
LINE
  8
0
 62
0
 10
105.00170135498047
 20
-58.09165954589844
 30
0.0
 11
103.12409973144531
 21
-61.36294174194336
 31
0.0
  0
LINE
  8
0
 62
0
 10
108.87439727783203
 20
-44.453651428222656
 30
0.0
 11
107.31719970703125
 21
-48.091339111328125
 31
0.0
  0
LINE
  8
0
 62
0
 10
103.12409973144531
 20
-61.36294174194336
 30
0.0
 11
101.14469909667969
 21
-64.57359313964844
 31
0.0
  0
LINE
  8
0
 62
0
 10
107.31719970703125
 20
-48.091339111328125
 30
0.0
 11
105.63849639892578
 21
-51.67457962036133
 31
0.0
  0
LINE
  8
0
 62
0
 10
101.14469909667969
 20
-64.57359313964844
 30
0.0
 11
99.0653305053711
 21
-67.72045135498047
 31
0.0
  0
LINE
  8
0
 62
0
 10
105.63849639892578
 20
-51.67457962036133
 30
0.0
 11
103.84020233154297
 21
-55.199310302734375
 31
0.0
  0
LINE
  8
0
 62
0
 10
99.0653305053711
 20
-67.72045135498047
 30
0.0
 11
96.88809204101562
 21
-70.80040740966797
 31
0.0
  0
LINE
  8
0
 62
0
 10
103.84020233154297
 20
-55.199310302734375
 30
0.0
 11
101.92440032958984
 21
-58.66154861450195
 31
0.0
  0
LINE
  8
0
 62
0
 10
96.88809204101562
 20
-70.80040740966797
 30
0.0
 11
94.61512756347656
 21
-73.81041717529297
 31
0.0
  0
LINE
  8
0
 62
0
 10
101.92440032958984
 20
-58.66154861450195
 30
0.0
 11
99.89315032958984
 21
-62.057369232177734
 31
0.0
  0
LINE
  8
0
 62
0
 10
94.61512756347656
 20
-73.81041717529297
 30
0.0
 11
92.24868774414062
 21
-76.74751281738281
 31
0.0
  0
LINE
  8
0
 62
0
 10
99.89315032958984
 20
-62.057369232177734
 30
0.0
 11
97.74881744384766
 21
-65.38294219970703
 31
0.0
  0
LINE
  8
0
 62
0
 10
92.24868774414062
 20
-76.74751281738281
 30
0.0
 11
89.79110717773438
 21
-79.60877227783203
 31
0.0
  0
LINE
  8
0
 62
0
 10
97.74881744384766
 20
-65.38294219970703
 30
0.0
 11
95.49381256103516
 21
-68.63448333740234
 31
0.0
  0
LINE
  8
0
 62
0
 10
89.79110717773438
 20
-79.60877227783203
 30
0.0
 11
88.09092712402344
 21
-77.9085922241211
 31
0.0
  0
LINE
  8
0
 62
0
 10
95.49381256103516
 20
-68.63448333740234
 30
0.0
 11
93.13069152832031
 21
-71.80831909179688
 31
0.0
  0
LINE
  8
0
 62
0
 10
90.6621322631836
 20
-74.90084838867188
 30
0.0
 11
88.09092712402344
 21
-77.9085922241211
 31
0.0
  0
LINE
  8
0
 62
0
 10
93.13069152832031
 20
-71.80831909179688
 30
0.0
 11
90.6621322631836
 21
-74.90084838867188
 31
0.0
  0
LINE
  8
0
 62
0
 10
34.29866027832031
 20
-85.70133972167969
 30
0.0
 11
35.99570846557617
 21
-84.00428771972656
 31
0.0
  0
LINE
  8
0
 62
0
 10
38.596839904785156
 20
-86.52725219726562
 30
0.0
 11
35.99570846557617
 21
-84.00428771972656
 31
0.0
  0
LINE
  8
0
 62
0
 10
34.29866027832031
 20
-85.70133972167969
 30
0.0
 11
37.200111389160156
 21
-88.50772857666016
 31
0.0
  0
LINE
  8
0
 62
0
 10
41.27370071411133
 20
-88.96971130371094
 30
0.0
 11
38.596839904785156
 21
-86.52725219726562
 31
0.0
  0
LINE
  8
0
 62
0
 10
37.200111389160156
 20
-88.50772857666016
 30
0.0
 11
40.19340133666992
 21
-91.2159423828125
 31
0.0
  0
LINE
  8
0
 62
0
 10
44.023799896240234
 20
-91.32939147949219
 30
0.0
 11
41.27370071411133
 21
-88.96971130371094
 31
0.0
  0
LINE
  8
0
 62
0
 10
40.19340133666992
 20
-91.2159423828125
 30
0.0
 11
43.275230407714844
 21
-93.82296752929688
 31
0.0
  0
LINE
  8
0
 62
0
 10
46.844600677490234
 20
-93.6041030883789
 30
0.0
 11
44.023799896240234
 21
-91.32939147949219
 31
0.0
  0
LINE
  8
0
 62
0
 10
43.275230407714844
 20
-93.82296752929688
 30
0.0
 11
46.4421501159668
 21
-96.32592010498047
 31
0.0
  0
LINE
  8
0
 62
0
 10
49.73345947265625
 20
-95.79171752929688
 30
0.0
 11
46.844600677490234
 21
-93.6041030883789
 31
0.0
  0
LINE
  8
0
 62
0
 10
46.4421501159668
 20
-96.32592010498047
 30
0.0
 11
49.69068145751953
 21
-98.72203063964844
 31
0.0
  0
LINE
  8
0
 62
0
 10
52.68769836425781
 20
-97.89021301269531
 30
0.0
 11
49.73345947265625
 21
-95.79171752929688
 31
0.0
  0
LINE
  8
0
 62
0
 10
49.69068145751953
 20
-98.72203063964844
 30
0.0
 11
53.017189025878906
 21
-101.00859832763672
 31
0.0
  0
LINE
  8
0
 62
0
 10
55.704559326171875
 20
-99.89762878417969
 30
0.0
 11
52.68769836425781
 21
-97.89021301269531
 31
0.0
  0
LINE
  8
0
 62
0
 10
53.017189025878906
 20
-101.00859832763672
 30
0.0
 11
56.417999267578125
 21
-103.18319702148438
 31
0.0
  0
LINE
  8
0
 62
0
 10
58.7812385559082
 20
-101.81210327148438
 30
0.0
 11
55.704559326171875
 21
-99.89762878417969
 31
0.0
  0
LINE
  8
0
 62
0
 10
56.417999267578125
 20
-103.18319702148438
 30
0.0
 11
53.24263000488281
 21
-104.85700225830078
 31
0.0
  0
LINE
  8
0
 62
0
 10
58.64725875854492
 20
-97.90084838867188
 30
0.0
 11
58.7812385559082
 21
-101.81210327148438
 31
0.0
  0
LINE
  8
0
 62
0
 10
53.24263000488281
 20
-104.85700225830078
 30
0.0
 11
50.01765823364258
 21
-106.43299865722656
 31
0.0
  0
LINE
  8
0
 62
0
 10
58.38452911376953
 20
-93.99613189697266
 30
0.0
 11
58.64725875854492
 21
-97.90084838867188
 31
0.0
  0
LINE
  8
0
 62
0
 10
50.01765823364258
 20
-106.43299865722656
 30
0.0
 11
46.746089935302734
 21
-107.91000366210938
 31
0.0
  0
LINE
  8
0
 62
0
 10
57.99332046508789
 20
-90.10218811035156
 30
0.0
 11
58.38452911376953
 21
-93.99613189697266
 31
0.0
  0
LINE
  8
0
 62
0
 10
46.746089935302734
 20
-107.91000366210938
 30
0.0
 11
43.43096923828125
 21
-109.2863998413086
 31
0.0
  0
LINE
  8
0
 62
0
 10
57.47407150268555
 20
-86.22325134277344
 30
0.0
 11
57.99332046508789
 21
-90.10218811035156
 31
0.0
  0
LINE
  8
0
 62
0
 10
43.43096923828125
 20
-109.2863998413086
 30
0.0
 11
40.07538986206055
 21
-110.56089782714844
 31
0.0
  0
LINE
  8
0
 62
0
 10
56.82733917236328
 20
-82.36351013183594
 30
0.0
 11
57.47407150268555
 21
-86.22325134277344
 31
0.0
  0
LINE
  8
0
 62
0
 10
40.07538986206055
 20
-110.56089782714844
 30
0.0
 11
36.68246841430664
 21
-111.73249816894531
 31
0.0
  0
LINE
  8
0
 62
0
 10
56.0538215637207
 20
-78.52716827392578
 30
0.0
 11
56.82733917236328
 21
-82.36351013183594
 31
0.0
  0
LINE
  8
0
 62
0
 10
36.68246841430664
 20
-111.73249816894531
 30
0.0
 11
33.25537872314453
 21
-112.80000305175781
 31
0.0
  0
LINE
  8
0
 62
0
 10
55.154361724853516
 20
-74.71839141845703
 30
0.0
 11
56.0538215637207
 21
-78.52716827392578
 31
0.0
  0
LINE
  8
0
 62
0
 10
40.9409294128418
 20
-112.80000305175781
 30
0.0
 11
33.25537872314453
 21
-112.80000305175781
 31
0.0
  0
LINE
  8
0
 62
0
 10
54.129940032958984
 20
-70.94129943847656
 30
0.0
 11
55.154361724853516
 21
-74.71839141845703
 31
0.0
  0
LINE
  8
0
 62
0
 10
40.9409294128418
 20
-112.80000305175781
 30
0.0
 11
44.615108489990234
 21
-111.39790344238281
 31
0.0
  0
LINE
  8
0
 62
0
 10
52.98167037963867
 20
-67.19999694824219
 30
0.0
 11
54.129940032958984
 21
-70.94129943847656
 31
0.0
  0
LINE
  8
0
 62
0
 10
44.615108489990234
 20
-111.39790344238281
 30
0.0
 11
48.241371154785156
 21
-109.8761978149414
 31
0.0
  0
LINE
  8
0
 62
0
 10
52.98167037963867
 20
-67.19999694824219
 30
0.0
 11
55.502628326416016
 21
-67.19999694824219
 31
0.0
  0
LINE
  8
0
 62
0
 10
48.241371154785156
 20
-109.8761978149414
 30
0.0
 11
51.81583023071289
 21
-108.23639678955078
 31
0.0
  0
LINE
  8
0
 62
0
 10
56.58604049682617
 20
-70.80003356933594
 30
0.0
 11
55.502628326416016
 21
-67.19999694824219
 31
0.0
  0
LINE
  8
0
 62
0
 10
51.81583023071289
 20
-108.23639678955078
 30
0.0
 11
55.33462905883789
 21
-106.48040008544922
 31
0.0
  0
LINE
  8
0
 62
0
 10
57.557281494140625
 20
-74.43192291259766
 30
0.0
 11
56.58604049682617
 21
-70.80003356933594
 31
0.0
  0
LINE
  8
0
 62
0
 10
55.33462905883789
 20
-106.48040008544922
 30
0.0
 11
58.79399871826172
 21
-104.61009979248047
 31
0.0
  0
LINE
  8
0
 62
0
 10
58.415401458740234
 20
-78.09219360351562
 30
0.0
 11
57.557281494140625
 21
-74.43192291259766
 31
0.0
  0
LINE
  8
0
 62
0
 10
58.79399871826172
 20
-104.61009979248047
 30
0.0
 11
58.79800033569336
 21
-104.61239624023438
 31
0.0
  0
LINE
  8
0
 62
0
 10
59.15958023071289
 20
-81.7773208618164
 30
0.0
 11
58.415401458740234
 21
-78.09219360351562
 31
0.0
  0
LINE
  8
0
 62
0
 10
58.79800033569336
 20
-104.61239624023438
 30
0.0
 11
58.75074005126953
 21
-107.34390258789062
 31
0.0
  0
LINE
  8
0
 62
0
 10
59.789119720458984
 20
-85.48374938964844
 30
0.0
 11
59.15958023071289
 21
-81.7773208618164
 31
0.0
  0
LINE
  8
0
 62
0
 10
58.75074005126953
 20
-107.34390258789062
 30
0.0
 11
58.64067840576172
 21
-110.07360076904297
 31
0.0
  0
LINE
  8
0
 62
0
 10
60.30339050292969
 20
-89.20793151855469
 30
0.0
 11
59.789119720458984
 21
-85.48374938964844
 31
0.0
  0
LINE
  8
0
 62
0
 10
58.64067840576172
 20
-110.07360076904297
 30
0.0
 11
58.46788024902344
 21
-112.80000305175781
 31
0.0
  0
LINE
  8
0
 62
0
 10
60.701908111572266
 20
-92.94625854492188
 30
0.0
 11
60.30339050292969
 21
-89.20793151855469
 31
0.0
  0
LINE
  8
0
 62
0
 10
60.874481201171875
 20
-112.80000305175781
 30
0.0
 11
58.46788024902344
 21
-112.80000305175781
 31
0.0
  0
LINE
  8
0
 62
0
 10
60.984291076660156
 20
-96.69515991210938
 30
0.0
 11
60.701908111572266
 21
-92.94625854492188
 31
0.0
  0
LINE
  8
0
 62
0
 10
60.874481201171875
 20
-112.80000305175781
 30
0.0
 11
61.02001190185547
 21
-110.5259017944336
 31
0.0
  0
LINE
  8
0
 62
0
 10
61.15026092529297
 20
-100.45099639892578
 30
0.0
 11
60.984291076660156
 21
-96.69515991210938
 31
0.0
  0
LINE
  8
0
 62
0
 10
61.02001190185547
 20
-110.5259017944336
 30
0.0
 11
61.12276077270508
 21
-108.24949645996094
 31
0.0
  0
LINE
  8
0
 62
0
 10
64.09149169921875
 20
-98.60041046142578
 30
0.0
 11
61.15026092529297
 21
-100.45099639892578
 31
0.0
  0
LINE
  8
0
 62
0
 10
61.12276077270508
 20
-108.24949645996094
 30
0.0
 11
61.18268966674805
 21
-105.97149658203125
 31
0.0
  0
LINE
  8
0
 62
0
 10
66.97675323486328
 20
-96.6637191772461
 30
0.0
 11
64.09149169921875
 21
-98.60041046142578
 31
0.0
  0
LINE
  8
0
 62
0
 10
61.18268966674805
 20
-105.97149658203125
 30
0.0
 11
64.71661376953125
 21
-107.8572998046875
 31
0.0
  0
LINE
  8
0
 62
0
 10
69.80354309082031
 20
-94.64261627197266
 30
0.0
 11
66.97675323486328
 21
-96.6637191772461
 31
0.0
  0
LINE
  8
0
 62
0
 10
64.71661376953125
 20
-107.8572998046875
 30
0.0
 11
68.31092071533203
 21
-109.62519836425781
 31
0.0
  0
LINE
  8
0
 62
0
 10
72.56936645507812
 20
-92.53888702392578
 30
0.0
 11
69.80354309082031
 21
-94.64261627197266
 31
0.0
  0
LINE
  8
0
 62
0
 10
68.31092071533203
 20
-109.62519836425781
 30
0.0
 11
71.96167755126953
 21
-111.27339935302734
 31
0.0
  0
LINE
  8
0
 62
0
 10
75.27184295654297
 20
-90.35436248779297
 30
0.0
 11
72.56936645507812
 21
-92.53888702392578
 31
0.0
  0
LINE
  8
0
 62
0
 10
71.96167755126953
 20
-111.27339935302734
 30
0.0
 11
75.66490936279297
 21
-112.80000305175781
 31
0.0
  0
LINE
  8
0
 62
0
 10
77.9085922241211
 20
-88.09092712402344
 30
0.0
 11
75.27184295654297
 21
-90.35436248779297
 31
0.0
  0
LINE
  8
0
 62
0
 10
82.72265625
 20
-112.80000305175781
 30
0.0
 11
75.66490936279297
 21
-112.80000305175781
 31
0.0
  0
LINE
  8
0
 62
0
 10
77.9085922241211
 20
-88.09092712402344
 30
0.0
 11
79.60877227783203
 21
-89.79110717773438
 31
0.0
  0
LINE
  8
0
 62
0
 10
82.72265625
 20
-112.80000305175781
 30
0.0
 11
79.0096664428711
 21
-111.50440216064453
 31
0.0
  0
LINE
  8
0
 62
0
 10
79.60877227783203
 20
-89.79110717773438
 30
0.0
 11
76.7229232788086
 21
-92.26912689208984
 31
0.0
  0
LINE
  8
0
 62
0
 10
79.0096664428711
 20
-111.50440216064453
 30
0.0
 11
75.34159088134766
 21
-110.08660125732422
 31
0.0
  0
LINE
  8
0
 62
0
 10
76.7229232788086
 20
-92.26912689208984
 30
0.0
 11
73.75997924804688
 21
-94.65444946289062
 31
0.0
  0
LINE
  8
0
 62
0
 10
75.34159088134766
 20
-110.08660125732422
 30
0.0
 11
71.72245025634766
 21
-108.54820251464844
 31
0.0
  0
LINE
  8
0
 62
0
 10
73.75997924804688
 20
-94.65444946289062
 30
0.0
 11
70.72293090820312
 21
-96.94465637207031
 31
0.0
  0
LINE
  8
0
 62
0
 10
71.72245025634766
 20
-108.54820251464844
 30
0.0
 11
68.15621185302734
 21
-106.89089965820312
 31
0.0
  0
LINE
  8
0
 62
0
 10
70.72293090820312
 20
-96.94465637207031
 30
0.0
 11
67.61482238769531
 21
-99.13745880126953
 31
0.0
  0
LINE
  8
0
 62
0
 10
68.15621185302734
 20
-106.89089965820312
 30
0.0
 11
64.64678192138672
 21
-105.11640167236328
 31
0.0
  0
LINE
  8
0
 62
0
 10
67.61482238769531
 20
-99.13745880126953
 30
0.0
 11
64.43876647949219
 21
-101.23069763183594
 31
0.0
  0
LINE
  8
0
 62
0
 10
64.64678192138672
 20
-105.11640167236328
 30
0.0
 11
61.198001861572266
 21
-103.22679901123047
 31
0.0
  0
LINE
  8
0
 62
0
 10
64.43876647949219
 20
-101.23069763183594
 30
0.0
 11
61.19797134399414
 21
-103.22209930419922
 31
0.0
  0
LINE
  8
0
 62
0
 10
61.198001861572266
 20
-103.22679901123047
 30
0.0
 11
61.19797134399414
 21
-103.22209930419922
 31
0.0
  0
CIRCLE
  8
0
 62
0
 10
4.525164343074285e-16
 20
-1.8572028658034045e-15
 30
0.0
 40
14.994335688249977
  0
LINE
  8
0
 62
0
 10
88.09092712402344
 20
77.9085922241211
 30
0.0
 11
89.79110717773438
 21
79.60877227783203
 31
0.0
  0
LINE
  8
0
 62
0
 10
88.09092712402344
 20
77.9085922241211
 30
0.0
 11
90.6621322631836
 21
74.90084838867188
 31
0.0
  0
LINE
  8
0
 62
0
 10
89.79110717773438
 20
79.60877227783203
 30
0.0
 11
92.24868774414062
 21
76.74751281738281
 31
0.0
  0
LINE
  8
0
 62
0
 10
90.6621322631836
 20
74.90084838867188
 30
0.0
 11
93.13069152832031
 21
71.80831909179688
 31
0.0
  0
LINE
  8
0
 62
0
 10
92.24868774414062
 20
76.74751281738281
 30
0.0
 11
94.61512756347656
 21
73.81041717529297
 31
0.0
  0
LINE
  8
0
 62
0
 10
93.13069152832031
 20
71.80831909179688
 30
0.0
 11
95.49381256103516
 21
68.63448333740234
 31
0.0
  0
LINE
  8
0
 62
0
 10
94.61512756347656
 20
73.81041717529297
 30
0.0
 11
96.88809204101562
 21
70.80040740966797
 31
0.0
  0
LINE
  8
0
 62
0
 10
95.49381256103516
 20
68.63448333740234
 30
0.0
 11
97.74881744384766
 21
65.38294219970703
 31
0.0
  0
LINE
  8
0
 62
0
 10
96.88809204101562
 20
70.80040740966797
 30
0.0
 11
99.0653305053711
 21
67.72045135498047
 31
0.0
  0
LINE
  8
0
 62
0
 10
97.74881744384766
 20
65.38294219970703
 30
0.0
 11
99.89315032958984
 21
62.057369232177734
 31
0.0
  0
LINE
  8
0
 62
0
 10
99.0653305053711
 20
67.72045135498047
 30
0.0
 11
101.14469909667969
 21
64.57359313964844
 31
0.0
  0
LINE
  8
0
 62
0
 10
99.89315032958984
 20
62.057369232177734
 30
0.0
 11
101.92440032958984
 21
58.66154861450195
 31
0.0
  0
LINE
  8
0
 62
0
 10
101.14469909667969
 20
64.57359313964844
 30
0.0
 11
103.12409973144531
 21
61.36294174194336
 31
0.0
  0
LINE
  8
0
 62
0
 10
101.92440032958984
 20
58.66154861450195
 30
0.0
 11
103.84020233154297
 21
55.199310302734375
 31
0.0
  0
LINE
  8
0
 62
0
 10
103.12409973144531
 20
61.36294174194336
 30
0.0
 11
105.00170135498047
 21
58.09165954589844
 31
0.0
  0
LINE
  8
0
 62
0
 10
103.84020233154297
 20
55.199310302734375
 30
0.0
 11
105.63849639892578
 21
51.67457962036133
 31
0.0
  0
LINE
  8
0
 62
0
 10
105.00170135498047
 20
58.09165954589844
 30
0.0
 11
106.77549743652344
 21
54.76298904418945
 31
0.0
  0
LINE
  8
0
 62
0
 10
105.63849639892578
 20
51.67457962036133
 30
0.0
 11
107.31719970703125
 21
48.091339111328125
 31
0.0
  0
LINE
  8
0
 62
0
 10
106.77549743652344
 20
54.76298904418945
 30
0.0
 11
108.44390106201172
 21
51.380210876464844
 31
0.0
  0
LINE
  8
0
 62
0
 10
107.31719970703125
 20
48.091339111328125
 30
0.0
 11
108.87439727783203
 21
44.453651428222656
 31
0.0
  0
LINE
  8
0
 62
0
 10
108.44390106201172
 20
51.380210876464844
 30
0.0
 11
110.00509643554688
 21
47.94667053222656
 31
0.0
  0
LINE
  8
0
 62
0
 10
108.87439727783203
 20
44.453651428222656
 30
0.0
 11
110.30829620361328
 21
40.76564025878906
 31
0.0
  0
LINE
  8
0
 62
0
 10
110.00509643554688
 20
47.94667053222656
 30
0.0
 11
111.45760345458984
 21
44.46577072143555
 31
0.0
  0
LINE
  8
0
 62
0
 10
110.30829620361328
 20
40.76564025878906
 30
0.0
 11
111.61730194091797
 21
37.031471252441406
 31
0.0
  0
LINE
  8
0
 62
0
 10
111.45760345458984
 20
44.46577072143555
 30
0.0
 11
112.80000305175781
 21
40.9409294128418
 31
0.0
  0
LINE
  8
0
 62
0
 10
111.61730194091797
 20
37.031471252441406
 30
0.0
 11
112.80000305175781
 21
33.25537872314453
 31
0.0
  0
LINE
  8
0
 62
0
 10
112.80000305175781
 20
40.9409294128418
 30
0.0
 11
112.80000305175781
 21
33.25537872314453
 31
0.0
  0
LINE
  8
0
 62
0
 10
55.502628326416016
 20
67.19999694824219
 30
0.0
 11
52.98167037963867
 21
67.19999694824219
 31
0.0
  0
LINE
  8
0
 62
0
 10
55.502628326416016
 20
67.19999694824219
 30
0.0
 11
56.58604049682617
 21
70.80003356933594
 31
0.0
  0
LINE
  8
0
 62
0
 10
54.129940032958984
 20
70.94129943847656
 30
0.0
 11
52.98167037963867
 21
67.19999694824219
 31
0.0
  0
LINE
  8
0
 62
0
 10
56.58604049682617
 20
70.80003356933594
 30
0.0
 11
57.557281494140625
 21
74.43192291259766
 31
0.0
  0
LINE
  8
0
 62
0
 10
55.154361724853516
 20
74.71839141845703
 30
0.0
 11
54.129940032958984
 21
70.94129943847656
 31
0.0
  0
LINE
  8
0
 62
0
 10
57.557281494140625
 20
74.43192291259766
 30
0.0
 11
58.415401458740234
 21
78.09219360351562
 31
0.0
  0
LINE
  8
0
 62
0
 10
56.0538215637207
 20
78.52716827392578
 30
0.0
 11
55.154361724853516
 21
74.71839141845703
 31
0.0
  0
LINE
  8
0
 62
0
 10
58.415401458740234
 20
78.09219360351562
 30
0.0
 11
59.15958023071289
 21
81.7773208618164
 31
0.0
  0
LINE
  8
0
 62
0
 10
56.82733917236328
 20
82.36351013183594
 30
0.0
 11
56.0538215637207
 21
78.52716827392578
 31
0.0
  0
LINE
  8
0
 62
0
 10
59.15958023071289
 20
81.7773208618164
 30
0.0
 11
59.789119720458984
 21
85.48374938964844
 31
0.0
  0
LINE
  8
0
 62
0
 10
57.47407150268555
 20
86.22325134277344
 30
0.0
 11
56.82733917236328
 21
82.36351013183594
 31
0.0
  0
LINE
  8
0
 62
0
 10
59.789119720458984
 20
85.48374938964844
 30
0.0
 11
60.30339050292969
 21
89.20793151855469
 31
0.0
  0
LINE
  8
0
 62
0
 10
57.99332046508789
 20
90.10218811035156
 30
0.0
 11
57.47407150268555
 21
86.22325134277344
 31
0.0
  0
LINE
  8
0
 62
0
 10
60.30339050292969
 20
89.20793151855469
 30
0.0
 11
60.701908111572266
 21
92.94625854492188
 31
0.0
  0
LINE
  8
0
 62
0
 10
58.38452911376953
 20
93.99613189697266
 30
0.0
 11
57.99332046508789
 21
90.10218811035156
 31
0.0
  0
LINE
  8
0
 62
0
 10
60.701908111572266
 20
92.94625854492188
 30
0.0
 11
60.984291076660156
 21
96.69515991210938
 31
0.0
  0
LINE
  8
0
 62
0
 10
58.64725875854492
 20
97.90084838867188
 30
0.0
 11
58.38452911376953
 21
93.99613189697266
 31
0.0
  0
LINE
  8
0
 62
0
 10
60.984291076660156
 20
96.69515991210938
 30
0.0
 11
61.15026092529297
 21
100.45099639892578
 31
0.0
  0
LINE
  8
0
 62
0
 10
58.7812385559082
 20
101.81210327148438
 30
0.0
 11
58.64725875854492
 21
97.90084838867188
 31
0.0
  0
LINE
  8
0
 62
0
 10
61.15026092529297
 20
100.45099639892578
 30
0.0
 11
64.09149169921875
 21
98.60041046142578
 31
0.0
  0
LINE
  8
0
 62
0
 10
55.704559326171875
 20
99.89762878417969
 30
0.0
 11
58.7812385559082
 21
101.81210327148438
 31
0.0
  0
LINE
  8
0
 62
0
 10
64.09149169921875
 20
98.60041046142578
 30
0.0
 11
66.97675323486328
 21
96.6637191772461
 31
0.0
  0
LINE
  8
0
 62
0
 10
52.68769836425781
 20
97.89021301269531
 30
0.0
 11
55.704559326171875
 21
99.89762878417969
 31
0.0
  0
LINE
  8
0
 62
0
 10
66.97675323486328
 20
96.6637191772461
 30
0.0
 11
69.80354309082031
 21
94.64261627197266
 31
0.0
  0
LINE
  8
0
 62
0
 10
49.73345947265625
 20
95.79171752929688
 30
0.0
 11
52.68769836425781
 21
97.89021301269531
 31
0.0
  0
LINE
  8
0
 62
0
 10
69.80354309082031
 20
94.64261627197266
 30
0.0
 11
72.56936645507812
 21
92.53888702392578
 31
0.0
  0
LINE
  8
0
 62
0
 10
46.844600677490234
 20
93.6041030883789
 30
0.0
 11
49.73345947265625
 21
95.79171752929688
 31
0.0
  0
LINE
  8
0
 62
0
 10
72.56936645507812
 20
92.53888702392578
 30
0.0
 11
75.27184295654297
 21
90.35436248779297
 31
0.0
  0
LINE
  8
0
 62
0
 10
44.023799896240234
 20
91.32939147949219
 30
0.0
 11
46.844600677490234
 21
93.6041030883789
 31
0.0
  0
LINE
  8
0
 62
0
 10
75.27184295654297
 20
90.35436248779297
 30
0.0
 11
77.9085922241211
 21
88.09092712402344
 31
0.0
  0
LINE
  8
0
 62
0
 10
41.27370071411133
 20
88.96971130371094
 30
0.0
 11
44.023799896240234
 21
91.32939147949219
 31
0.0
  0
LINE
  8
0
 62
0
 10
79.60877227783203
 20
89.79110717773438
 30
0.0
 11
77.9085922241211
 21
88.09092712402344
 31
0.0
  0
LINE
  8
0
 62
0
 10
38.596839904785156
 20
86.52725219726562
 30
0.0
 11
41.27370071411133
 21
88.96971130371094
 31
0.0
  0
LINE
  8
0
 62
0
 10
76.7229232788086
 20
92.26912689208984
 30
0.0
 11
79.60877227783203
 21
89.79110717773438
 31
0.0
  0
LINE
  8
0
 62
0
 10
35.99570846557617
 20
84.00428771972656
 30
0.0
 11
38.596839904785156
 21
86.52725219726562
 31
0.0
  0
LINE
  8
0
 62
0
 10
73.75997924804688
 20
94.65444946289062
 30
0.0
 11
76.7229232788086
 21
92.26912689208984
 31
0.0
  0
LINE
  8
0
 62
0
 10
35.99570846557617
 20
84.00428771972656
 30
0.0
 11
34.29866027832031
 21
85.70133972167969
 31
0.0
  0
LINE
  8
0
 62
0
 10
70.72293090820312
 20
96.94465637207031
 30
0.0
 11
73.75997924804688
 21
94.65444946289062
 31
0.0
  0
LINE
  8
0
 62
0
 10
37.200111389160156
 20
88.50772857666016
 30
0.0
 11
34.29866027832031
 21
85.70133972167969
 31
0.0
  0
LINE
  8
0
 62
0
 10
67.61482238769531
 20
99.13745880126953
 30
0.0
 11
70.72293090820312
 21
96.94465637207031
 31
0.0
  0
LINE
  8
0
 62
0
 10
40.19340133666992
 20
91.2159423828125
 30
0.0
 11
37.200111389160156
 21
88.50772857666016
 31
0.0
  0
LINE
  8
0
 62
0
 10
64.43876647949219
 20
101.23069763183594
 30
0.0
 11
67.61482238769531
 21
99.13745880126953
 31
0.0
  0
LINE
  8
0
 62
0
 10
43.275230407714844
 20
93.82296752929688
 30
0.0
 11
40.19340133666992
 21
91.2159423828125
 31
0.0
  0
LINE
  8
0
 62
0
 10
61.19797134399414
 20
103.22209930419922
 30
0.0
 11
64.43876647949219
 21
101.23069763183594
 31
0.0
  0
LINE
  8
0
 62
0
 10
46.4421501159668
 20
96.32592010498047
 30
0.0
 11
43.275230407714844
 21
93.82296752929688
 31
0.0
  0
LINE
  8
0
 62
0
 10
61.19797134399414
 20
103.22209930419922
 30
0.0
 11
61.198001861572266
 21
103.22679901123047
 31
0.0
  0
LINE
  8
0
 62
0
 10
49.69068145751953
 20
98.72203063964844
 30
0.0
 11
46.4421501159668
 21
96.32592010498047
 31
0.0
  0
LINE
  8
0
 62
0
 10
61.198001861572266
 20
103.22679901123047
 30
0.0
 11
64.64678192138672
 21
105.11640167236328
 31
0.0
  0
LINE
  8
0
 62
0
 10
53.017189025878906
 20
101.00859832763672
 30
0.0
 11
49.69068145751953
 21
98.72203063964844
 31
0.0
  0
LINE
  8
0
 62
0
 10
64.64678192138672
 20
105.11640167236328
 30
0.0
 11
68.15621185302734
 21
106.89089965820312
 31
0.0
  0
LINE
  8
0
 62
0
 10
56.417999267578125
 20
103.18319702148438
 30
0.0
 11
53.017189025878906
 21
101.00859832763672
 31
0.0
  0
LINE
  8
0
 62
0
 10
68.15621185302734
 20
106.89089965820312
 30
0.0
 11
71.72245025634766
 21
108.54820251464844
 31
0.0
  0
LINE
  8
0
 62
0
 10
53.24263000488281
 20
104.85700225830078
 30
0.0
 11
56.417999267578125
 21
103.18319702148438
 31
0.0
  0
LINE
  8
0
 62
0
 10
71.72245025634766
 20
108.54820251464844
 30
0.0
 11
75.34159088134766
 21
110.08660125732422
 31
0.0
  0
LINE
  8
0
 62
0
 10
50.01765823364258
 20
106.43299865722656
 30
0.0
 11
53.24263000488281
 21
104.85700225830078
 31
0.0
  0
LINE
  8
0
 62
0
 10
75.34159088134766
 20
110.08660125732422
 30
0.0
 11
79.0096664428711
 21
111.50440216064453
 31
0.0
  0
LINE
  8
0
 62
0
 10
46.746089935302734
 20
107.91000366210938
 30
0.0
 11
50.01765823364258
 21
106.43299865722656
 31
0.0
  0
LINE
  8
0
 62
0
 10
79.0096664428711
 20
111.50440216064453
 30
0.0
 11
82.72265625
 21
112.80000305175781
 31
0.0
  0
LINE
  8
0
 62
0
 10
43.43096923828125
 20
109.2863998413086
 30
0.0
 11
46.746089935302734
 21
107.91000366210938
 31
0.0
  0
LINE
  8
0
 62
0
 10
75.66490936279297
 20
112.80000305175781
 30
0.0
 11
82.72265625
 21
112.80000305175781
 31
0.0
  0
LINE
  8
0
 62
0
 10
40.07538986206055
 20
110.56089782714844
 30
0.0
 11
43.43096923828125
 21
109.2863998413086
 31
0.0
  0
LINE
  8
0
 62
0
 10
71.96167755126953
 20
111.27339935302734
 30
0.0
 11
75.66490936279297
 21
112.80000305175781
 31
0.0
  0
LINE
  8
0
 62
0
 10
36.68246841430664
 20
111.73249816894531
 30
0.0
 11
40.07538986206055
 21
110.56089782714844
 31
0.0
  0
LINE
  8
0
 62
0
 10
68.31092071533203
 20
109.62519836425781
 30
0.0
 11
71.96167755126953
 21
111.27339935302734
 31
0.0
  0
LINE
  8
0
 62
0
 10
33.25537872314453
 20
112.80000305175781
 30
0.0
 11
36.68246841430664
 21
111.73249816894531
 31
0.0
  0
LINE
  8
0
 62
0
 10
64.71661376953125
 20
107.8572998046875
 30
0.0
 11
68.31092071533203
 21
109.62519836425781
 31
0.0
  0
LINE
  8
0
 62
0
 10
33.25537872314453
 20
112.80000305175781
 30
0.0
 11
40.9409294128418
 21
112.80000305175781
 31
0.0
  0
LINE
  8
0
 62
0
 10
61.18268966674805
 20
105.97149658203125
 30
0.0
 11
64.71661376953125
 21
107.8572998046875
 31
0.0
  0
LINE
  8
0
 62
0
 10
40.9409294128418
 20
112.80000305175781
 30
0.0
 11
44.615108489990234
 21
111.39790344238281
 31
0.0
  0
LINE
  8
0
 62
0
 10
61.12276077270508
 20
108.24949645996094
 30
0.0
 11
61.18268966674805
 21
105.97149658203125
 31
0.0
  0
LINE
  8
0
 62
0
 10
44.615108489990234
 20
111.39790344238281
 30
0.0
 11
48.241371154785156
 21
109.8761978149414
 31
0.0
  0
LINE
  8
0
 62
0
 10
61.02001190185547
 20
110.5259017944336
 30
0.0
 11
61.12276077270508
 21
108.24949645996094
 31
0.0
  0
LINE
  8
0
 62
0
 10
48.241371154785156
 20
109.8761978149414
 30
0.0
 11
51.81583023071289
 21
108.23639678955078
 31
0.0
  0
LINE
  8
0
 62
0
 10
60.874481201171875
 20
112.80000305175781
 30
0.0
 11
61.02001190185547
 21
110.5259017944336
 31
0.0
  0
LINE
  8
0
 62
0
 10
51.81583023071289
 20
108.23639678955078
 30
0.0
 11
55.33462905883789
 21
106.48040008544922
 31
0.0
  0
LINE
  8
0
 62
0
 10
58.46788024902344
 20
112.80000305175781
 30
0.0
 11
60.874481201171875
 21
112.80000305175781
 31
0.0
  0
LINE
  8
0
 62
0
 10
55.33462905883789
 20
106.48040008544922
 30
0.0
 11
58.79399871826172
 21
104.61009979248047
 31
0.0
  0
LINE
  8
0
 62
0
 10
58.46788024902344
 20
112.80000305175781
 30
0.0
 11
58.64067840576172
 21
110.07360076904297
 31
0.0
  0
LINE
  8
0
 62
0
 10
58.79800033569336
 20
104.61239624023438
 30
0.0
 11
58.79399871826172
 21
104.61009979248047
 31
0.0
  0
LINE
  8
0
 62
0
 10
58.64067840576172
 20
110.07360076904297
 30
0.0
 11
58.75074005126953
 21
107.34390258789062
 31
0.0
  0
LINE
  8
0
 62
0
 10
58.75074005126953
 20
107.34390258789062
 30
0.0
 11
58.79800033569336
 21
104.61239624023438
 31
0.0
  0
ENDBLK
  0
ENDSEC
  0
SECTION
  2
ENTITIES
  0
INSERT
  2
FACEFEAT
  8
0
 62
0
 10
0.0
 20
0.0
 30
0.0
  0
ENDSEC
  0
EOF
