  0
SECTION
  2
HEADER
  9
$ACADVER
  1
AC1009
  9
$INSBASE
 10
0.0
 20
0.0
 30
0.0
  9
$EXTMIN
 10
0.0
 20
0.0
 30
0.0
  9
$EXTMAX
 10
0.0
 20
0.0
 30
0.0
  0
ENDSEC
  0
SECTION
  2
TABLES
  0
TABLE
  2
VPORT
 70
0
  0
ENDTAB
  0
TABLE
  2
LTYPE
 70
1
  0
LTYPE
  2
CONTINUOUS
 70
0
  3
Solid line
 72
65
 73
0
 40
0.0
  0
ENDTAB
  0
TABLE
  2
LAYER
 70
1
  0
LAYER
  2
0
 70
64
 62
7
  6
continuous
  0
ENDTAB
  0
TABLE
  2
STYLE
 70
1
  0
STYLE
  2
STANDARD
 70
0
 40
0
 41
1.0
 50
0.0
 71
0
 42
1
 3
ARIAL.TTF
 4

  0
ENDTAB
  0
TABLE
  2
VIEW
 70
0
  0
ENDTAB
  0
ENDSEC
  0
SECTION
  2
BLOCKS
  0
BLOCK
  8
0
  2
FACEFEAT
 70
0
 10
0.0
 20
0.0
 30
0.0
  3
FACEFEAT
  0
LINE
  8
0
 62
0
 10
-120.0
 20
120.0
 30
0.0
 11
-120.0
 21
-120.0
 31
0.0
  0
LINE
  8
0
 62
0
 10
120.0
 20
120.0
 30
0.0
 11
-120.0
 21
120.0
 31
0.0
  0
LINE
  8
0
 62
0
 10
-120.0
 20
-120.0
 30
0.0
 11
120.0
 21
-120.0
 31
0.0
  0
LINE
  8
0
 62
0
 10
120.0
 20
-120.0
 30
0.0
 11
120.0
 21
120.0
 31
0.0
  0
LINE
  8
0
 62
0
 10
-36.84423828125
 20
-83.15576171875
 30
0.0
 11
-33.450130462646484
 21
-86.54987335205078
 31
0.0
  0
LINE
  8
0
 62
0
 10
-36.02042007446289
 20
-89.0459976196289
 30
0.0
 11
-33.450130462646484
 21
-86.54987335205078
 31
0.0
  0
LINE
  8
0
 62
0
 10
-36.84423828125
 20
-83.15576171875
 30
0.0
 11
-39.563140869140625
 21
-85.78852844238281
 31
0.0
  0
LINE
  8
0
 62
0
 10
-38.66267013549805
 20
-91.4658432006836
 30
0.0
 11
-36.02042007446289
 21
-89.0459976196289
 31
0.0
  0
LINE
  8
0
 62
0
 10
-39.563140869140625
 20
-85.78852844238281
 30
0.0
 11
-42.36534881591797
 21
-88.33245086669922
 31
0.0
  0
LINE
  8
0
 62
0
 10
-41.37461853027344
 20
-93.80729675292969
 30
0.0
 11
-38.66267013549805
 21
-91.4658432006836
 31
0.0
  0
LINE
  8
0
 62
0
 10
-42.36534881591797
 20
-88.33245086669922
 30
0.0
 11
-45.24797058105469
 21
-90.78488159179688
 31
0.0
  0
LINE
  8
0
 62
0
 10
-44.1539306640625
 20
-96.0683822631836
 30
0.0
 11
-41.37461853027344
 21
-93.80729675292969
 31
0.0
  0
LINE
  8
0
 62
0
 10
-45.24797058105469
 20
-90.78488159179688
 30
0.0
 11
-48.208011627197266
 21
-93.14328002929688
 31
0.0
  0
LINE
  8
0
 62
0
 10
-46.99822998046875
 20
-98.24714660644531
 30
0.0
 11
-44.1539306640625
 21
-96.0683822631836
 31
0.0
  0
LINE
  8
0
 62
0
 10
-48.208011627197266
 20
-93.14328002929688
 30
0.0
 11
-51.242408752441406
 21
-95.40521240234375
 31
0.0
  0
LINE
  8
0
 62
0
 10
-49.90509033203125
 20
-100.3416976928711
 30
0.0
 11
-46.99822998046875
 21
-98.24714660644531
 31
0.0
  0
LINE
  8
0
 62
0
 10
-51.242408752441406
 20
-95.40521240234375
 30
0.0
 11
-54.348018646240234
 21
-97.56832122802734
 31
0.0
  0
LINE
  8
0
 62
0
 10
-52.87200164794922
 20
-102.35030364990234
 30
0.0
 11
-49.90509033203125
 21
-100.3416976928711
 31
0.0
  0
LINE
  8
0
 62
0
 10
-54.348018646240234
 20
-97.56832122802734
 30
0.0
 11
-57.521629333496094
 21
-99.63037872314453
 31
0.0
  0
LINE
  8
0
 62
0
 10
-49.44171905517578
 20
-104.05069732666016
 30
0.0
 11
-52.87200164794922
 21
-102.35030364990234
 31
0.0
  0
LINE
  8
0
 62
0
 10
-57.521629333496094
 20
-99.63037872314453
 30
0.0
 11
-57.336700439453125
 21
-96.05793762207031
 31
0.0
  0
LINE
  8
0
 62
0
 10
-45.95682907104492
 20
-105.63619995117188
 30
0.0
 11
-49.44171905517578
 21
-104.05069732666016
 31
0.0
  0
LINE
  8
0
 62
0
 10
-57.336700439453125
 20
-96.05793762207031
 30
0.0
 11
-57.043190002441406
 21
-92.49278259277344
 31
0.0
  0
LINE
  8
0
 62
0
 10
-42.421180725097656
 20
-107.1050033569336
 30
0.0
 11
-45.95682907104492
 21
-105.63619995117188
 31
0.0
  0
LINE
  8
0
 62
0
 10
-57.043190002441406
 20
-92.49278259277344
 30
0.0
 11
-56.64139175415039
 21
-88.93820190429688
 31
0.0
  0
LINE
  8
0
 62
0
 10
-38.83866882324219
 20
-108.45549774169922
 30
0.0
 11
-42.421180725097656
 21
-107.1050033569336
 31
0.0
  0
LINE
  8
0
 62
0
 10
-56.64139175415039
 20
-88.93820190429688
 30
0.0
 11
-56.13166046142578
 21
-85.39747619628906
 31
0.0
  0
LINE
  8
0
 62
0
 10
-35.2132682800293
 20
-109.68620300292969
 30
0.0
 11
-38.83866882324219
 21
-108.45549774169922
 31
0.0
  0
LINE
  8
0
 62
0
 10
-56.13166046142578
 20
-85.39747619628906
 30
0.0
 11
-55.51448059082031
 21
-81.8739013671875
 31
0.0
  0
LINE
  8
0
 62
0
 10
-31.548969268798828
 20
-110.7957992553711
 30
0.0
 11
-35.2132682800293
 21
-109.68620300292969
 31
0.0
  0
LINE
  8
0
 62
0
 10
-55.51448059082031
 20
-81.8739013671875
 30
0.0
 11
-54.790409088134766
 21
-78.37071990966797
 31
0.0
  0
LINE
  8
0
 62
0
 10
-27.84981918334961
 20
-111.78289794921875
 30
0.0
 11
-31.548969268798828
 21
-110.7957992553711
 31
0.0
  0
LINE
  8
0
 62
0
 10
-54.790409088134766
 20
-78.37071990966797
 30
0.0
 11
-53.96012878417969
 21
-74.89118957519531
 31
0.0
  0
LINE
  8
0
 62
0
 10
-24.11992073059082
 20
-112.64669799804688
 30
0.0
 11
-27.84981918334961
 21
-111.78289794921875
 31
0.0
  0
LINE
  8
0
 62
0
 10
-53.96012878417969
 20
-74.89118957519531
 30
0.0
 11
-53.02439880371094
 21
-71.43852233886719
 31
0.0
  0
LINE
  8
0
 62
0
 10
-20.363370895385742
 20
-113.38590240478516
 30
0.0
 11
-24.11992073059082
 21
-112.64669799804688
 31
0.0
  0
LINE
  8
0
 62
0
 10
-53.02439880371094
 20
-71.43852233886719
 30
0.0
 11
-51.98408889770508
 21
-68.01590728759766
 31
0.0
  0
LINE
  8
0
 62
0
 10
-16.58432960510254
 20
-114.0
 30
0.0
 11
-20.363370895385742
 21
-113.38590240478516
 31
0.0
  0
LINE
  8
0
 62
0
 10
-54.0
 20
-66.0
 30
0.0
 11
-51.98408889770508
 21
-68.01590728759766
 31
0.0
  0
LINE
  8
0
 62
0
 10
-16.58432960510254
 20
-114.0
 30
0.0
 11
-37.46998977661133
 21
-114.0
 31
0.0
  0
LINE
  8
0
 62
0
 10
-56.37697982788086
 20
-66.0
 30
0.0
 11
-54.0
 21
-66.0
 31
0.0
  0
LINE
  8
0
 62
0
 10
-37.46998977661133
 20
-114.0
 30
0.0
 11
-40.926509857177734
 21
-112.8051986694336
 31
0.0
  0
LINE
  8
0
 62
0
 10
-56.37697982788086
 20
-66.0
 30
0.0
 11
-57.53981018066406
 21
-69.77406311035156
 31
0.0
  0
LINE
  8
0
 62
0
 10
-40.926509857177734
 20
-112.8051986694336
 30
0.0
 11
-44.34502029418945
 21
-111.50569915771484
 31
0.0
  0
LINE
  8
0
 62
0
 10
-57.53981018066406
 20
-69.77406311035156
 30
0.0
 11
-58.58028030395508
 21
-73.58365631103516
 31
0.0
  0
LINE
  8
0
 62
0
 10
-44.34502029418945
 20
-111.50569915771484
 30
0.0
 11
-47.722328186035156
 21
-110.10260009765625
 31
0.0
  0
LINE
  8
0
 62
0
 10
-58.58028030395508
 20
-73.58365631103516
 30
0.0
 11
-59.49729919433594
 21
-77.42485046386719
 31
0.0
  0
LINE
  8
0
 62
0
 10
-47.722328186035156
 20
-110.10260009765625
 30
0.0
 11
-51.055328369140625
 21
-108.59719848632812
 31
0.0
  0
LINE
  8
0
 62
0
 10
-59.49729919433594
 20
-77.42485046386719
 30
0.0
 11
-60.289939880371094
 21
-81.29361724853516
 31
0.0
  0
LINE
  8
0
 62
0
 10
-51.055328369140625
 20
-108.59719848632812
 30
0.0
 11
-54.34090042114258
 21
-106.99099731445312
 31
0.0
  0
LINE
  8
0
 62
0
 10
-60.289939880371094
 20
-81.29361724853516
 30
0.0
 11
-60.95735168457031
 21
-85.18595123291016
 31
0.0
  0
LINE
  8
0
 62
0
 10
-54.34090042114258
 20
-106.99099731445312
 30
0.0
 11
-57.57600021362305
 21
-105.2853012084961
 31
0.0
  0
LINE
  8
0
 62
0
 10
-60.95735168457031
 20
-85.18595123291016
 30
0.0
 11
-61.49885177612305
 21
-89.09779357910156
 31
0.0
  0
LINE
  8
0
 62
0
 10
-57.59199905395508
 20
-105.2947998046875
 30
0.0
 11
-57.57600021362305
 21
-105.2853012084961
 31
0.0
  0
LINE
  8
0
 62
0
 10
-61.49885177612305
 20
-89.09779357910156
 30
0.0
 11
-61.91387939453125
 21
-93.0250473022461
 31
0.0
  0
LINE
  8
0
 62
0
 10
-57.52220916748047
 20
-108.19979858398438
 30
0.0
 11
-57.59199905395508
 21
-105.2947998046875
 31
0.0
  0
LINE
  8
0
 62
0
 10
-61.91387939453125
 20
-93.0250473022461
 30
0.0
 11
-62.201988220214844
 21
-96.96366119384766
 31
0.0
  0
LINE
  8
0
 62
0
 10
-57.38066864013672
 20
-111.10209655761719
 30
0.0
 11
-57.52220916748047
 21
-108.19979858398438
 31
0.0
  0
LINE
  8
0
 62
0
 10
-62.201988220214844
 20
-96.96366119384766
 30
0.0
 11
-65.32781219482422
 21
-94.88581085205078
 31
0.0
  0
LINE
  8
0
 62
0
 10
-57.1674690246582
 20
-114.0
 30
0.0
 11
-57.38066864013672
 21
-111.10209655761719
 31
0.0
  0
LINE
  8
0
 62
0
 10
-65.32781219482422
 20
-94.88581085205078
 30
0.0
 11
-68.38426971435547
 21
-92.70723724365234
 31
0.0
  0
LINE
  8
0
 62
0
 10
-57.1674690246582
 20
-114.0
 30
0.0
 11
-61.98448944091797
 21
-114.0
 31
0.0
  0
LINE
  8
0
 62
0
 10
-68.38426971435547
 20
-92.70723724365234
 30
0.0
 11
-71.3681411743164
 21
-90.43023681640625
 31
0.0
  0
LINE
  8
0
 62
0
 10
-62.13386917114258
 20
-111.99009704589844
 30
0.0
 11
-61.98448944091797
 21
-114.0
 31
0.0
  0
LINE
  8
0
 62
0
 10
-71.3681411743164
 20
-90.43023681640625
 30
0.0
 11
-74.27623748779297
 21
-88.0572509765625
 31
0.0
  0
LINE
  8
0
 62
0
 10
-62.25014114379883
 20
-109.97810363769531
 30
0.0
 11
-62.13386917114258
 21
-111.99009704589844
 31
0.0
  0
LINE
  8
0
 62
0
 10
-74.27623748779297
 20
-88.0572509765625
 30
0.0
 11
-77.10549926757812
 21
-85.59078216552734
 31
0.0
  0
LINE
  8
0
 62
0
 10
-62.33325958251953
 20
-107.96440124511719
 30
0.0
 11
-62.25014114379883
 21
-109.97810363769531
 31
0.0
  0
LINE
  8
0
 62
0
 10
-80.50404357910156
 20
-88.98931884765625
 30
0.0
 11
-77.10549926757812
 21
-85.59078216552734
 31
0.0
  0
LINE
  8
0
 62
0
 10
-65.54131317138672
 20
-109.61759948730469
 30
0.0
 11
-62.33325958251953
 21
-107.96440124511719
 31
0.0
  0
LINE
  8
0
 62
0
 10
-77.66739654541016
 20
-91.47554016113281
 30
0.0
 11
-80.50404357910156
 21
-88.98931884765625
 31
0.0
  0
LINE
  8
0
 62
0
 10
-68.79669189453125
 20
-111.17549896240234
 30
0.0
 11
-65.54131317138672
 21
-109.61759948730469
 31
0.0
  0
LINE
  8
0
 62
0
 10
-74.7540283203125
 20
-93.87138366699219
 30
0.0
 11
-77.66739654541016
 21
-91.47554016113281
 31
0.0
  0
LINE
  8
0
 62
0
 10
-72.09658813476562
 20
-112.63670349121094
 30
0.0
 11
-68.79669189453125
 21
-111.17549896240234
 31
0.0
  0
LINE
  8
0
 62
0
 10
-71.76679229736328
 20
-96.1744613647461
 30
0.0
 11
-74.7540283203125
 21
-93.87138366699219
 31
0.0
  0
LINE
  8
0
 62
0
 10
-75.4381332397461
 20
-114.0
 30
0.0
 11
-72.09658813476562
 21
-112.63670349121094
 31
0.0
  0
LINE
  8
0
 62
0
 10
-68.70864868164062
 20
-98.38253021240234
 30
0.0
 11
-71.76679229736328
 21
-96.1744613647461
 31
0.0
  0
LINE
  8
0
 62
0
 10
-75.4381332397461
 20
-114.0
 30
0.0
 11
-91.1250991821289
 21
-114.0
 31
0.0
  0
LINE
  8
0
 62
0
 10
-65.58261108398438
 20
-100.49340057373047
 30
0.0
 11
-68.70864868164062
 21
-98.38253021240234
 31
0.0
  0
LINE
  8
0
 62
0
 10
-87.3814468383789
 20
-112.98580169677734
 30
0.0
 11
-91.1250991821289
 21
-114.0
 31
0.0
  0
LINE
  8
0
 62
0
 10
-62.391780853271484
 20
-102.50499725341797
 30
0.0
 11
-65.58261108398438
 21
-100.49340057373047
 31
0.0
  0
LINE
  8
0
 62
0
 10
-83.67327880859375
 20
-111.84870147705078
 30
0.0
 11
-87.3814468383789
 21
-112.98580169677734
 31
0.0
  0
LINE
  8
0
 62
0
 10
-62.391780853271484
 20
-102.50499725341797
 30
0.0
 11
-62.391998291015625
 21
-102.52349853515625
 31
0.0
  0
LINE
  8
0
 62
0
 10
-80.00462341308594
 20
-110.58989715576172
 30
0.0
 11
-83.67327880859375
 21
-111.84870147705078
 31
0.0
  0
LINE
  8
0
 62
0
 10
-62.391998291015625
 20
-102.52349853515625
 30
0.0
 11
-65.80422973632812
 21
-104.36750030517578
 31
0.0
  0
LINE
  8
0
 62
0
 10
-76.37947082519531
 20
-109.21080017089844
 30
0.0
 11
-80.00462341308594
 21
-110.58989715576172
 31
0.0
  0
LINE
  8
0
 62
0
 10
-65.80422973632812
 20
-104.36750030517578
 30
0.0
 11
-69.2754135131836
 21
-106.0979995727539
 31
0.0
  0
LINE
  8
0
 62
0
 10
-72.80177307128906
 20
-107.71299743652344
 30
0.0
 11
-76.37947082519531
 21
-109.21080017089844
 31
0.0
  0
LINE
  8
0
 62
0
 10
-69.2754135131836
 20
-106.0979995727539
 30
0.0
 11
-72.80177307128906
 21
-107.71299743652344
 31
0.0
  0
LINE
  8
0
 62
0
 10
-111.82649993896484
 20
-27.674320220947266
 30
0.0
 11
-112.67179870605469
 21
-24.00201988220215
 31
0.0
  0
LINE
  8
0
 62
0
 10
-112.67179870605469
 20
-24.00201988220215
 30
0.0
 11
-113.39659881591797
 21
-20.304040908813477
 31
0.0
  0
LINE
  8
0
 62
0
 10
-110.86160278320312
 20
-31.316999435424805
 30
0.0
 11
-111.82649993896484
 21
-27.674320220947266
 31
0.0
  0
LINE
  8
0
 62
0
 10
-113.39659881591797
 20
-20.304040908813477
 30
0.0
 11
-114.0
 21
-16.58432960510254
 31
0.0
  0
LINE
  8
0
 62
0
 10
-109.77799987792969
 20
-34.92618179321289
 30
0.0
 11
-110.86160278320312
 21
-31.316999435424805
 31
0.0
  0
LINE
  8
0
 62
0
 10
-114.0
 20
-37.46998977661133
 30
0.0
 11
-114.0
 21
-16.58432960510254
 31
0.0
  0
LINE
  8
0
 62
0
 10
-108.57689666748047
 20
-38.49797821044922
 30
0.0
 11
-109.77799987792969
 21
-34.92618179321289
 31
0.0
  0
LINE
  8
0
 62
0
 10
-112.73709869384766
 20
-41.11394119262695
 30
0.0
 11
-114.0
 21
-37.46998977661133
 31
0.0
  0
LINE
  8
0
 62
0
 10
-107.25969696044922
 20
-42.02859115600586
 30
0.0
 11
-108.57689666748047
 21
-38.49797821044922
 31
0.0
  0
LINE
  8
0
 62
0
 10
-111.35769653320312
 20
-44.71541976928711
 30
0.0
 11
-112.73709869384766
 21
-41.11394119262695
 31
0.0
  0
LINE
  8
0
 62
0
 10
-105.82769775390625
 20
-45.51422882080078
 30
0.0
 11
-107.25969696044922
 21
-42.02859115600586
 31
0.0
  0
LINE
  8
0
 62
0
 10
-109.86329650878906
 20
-48.270721435546875
 30
0.0
 11
-111.35769653320312
 21
-44.71541976928711
 31
0.0
  0
LINE
  8
0
 62
0
 10
-104.28240203857422
 20
-48.951171875
 30
0.0
 11
-105.82769775390625
 21
-45.51422882080078
 31
0.0
  0
LINE
  8
0
 62
0
 10
-108.25540161132812
 20
-51.77616882324219
 30
0.0
 11
-109.86329650878906
 21
-48.270721435546875
 31
0.0
  0
LINE
  8
0
 62
0
 10
-102.62560272216797
 20
-52.335731506347656
 30
0.0
 11
-104.28240203857422
 21
-48.951171875
 31
0.0
  0
LINE
  8
0
 62
0
 10
-106.53569793701172
 20
-55.22813034057617
 30
0.0
 11
-108.25540161132812
 21
-51.77616882324219
 31
0.0
  0
LINE
  8
0
 62
0
 10
-100.85890197753906
 20
-55.66429138183594
 30
0.0
 11
-102.62560272216797
 21
-52.335731506347656
 31
0.0
  0
LINE
  8
0
 62
0
 10
-104.70600128173828
 20
-58.623050689697266
 30
0.0
 11
-106.53569793701172
 21
-55.22813034057617
 31
0.0
  0
LINE
  8
0
 62
0
 10
-98.98438262939453
 20
-58.93328094482422
 30
0.0
 11
-100.85890197753906
 21
-55.66429138183594
 31
0.0
  0
LINE
  8
0
 62
0
 10
-102.76809692382812
 20
-61.957420349121094
 30
0.0
 11
-104.70600128173828
 21
-58.623050689697266
 31
0.0
  0
LINE
  8
0
 62
0
 10
-97.00389862060547
 20
-62.13922119140625
 30
0.0
 11
-98.98438262939453
 21
-58.93328094482422
 31
0.0
  0
LINE
  8
0
 62
0
 10
-100.7240982055664
 20
-65.22779846191406
 30
0.0
 11
-102.76809692382812
 21
-61.957420349121094
 31
0.0
  0
LINE
  8
0
 62
0
 10
-94.91963195800781
 20
-65.2786636352539
 30
0.0
 11
-97.00389862060547
 21
-62.13922119140625
 31
0.0
  0
LINE
  8
0
 62
0
 10
-98.57598876953125
 20
-68.43080139160156
 30
0.0
 11
-100.7240982055664
 21
-65.22779846191406
 31
0.0
  0
LINE
  8
0
 62
0
 10
-92.7337875366211
 20
-68.34825897216797
 30
0.0
 11
-94.91963195800781
 21
-65.2786636352539
 31
0.0
  0
LINE
  8
0
 62
0
 10
-96.32611083984375
 20
-71.56311798095703
 30
0.0
 11
-98.57598876953125
 21
-68.43080139160156
 31
0.0
  0
LINE
  8
0
 62
0
 10
-90.44872283935547
 20
-71.34471893310547
 30
0.0
 11
-92.7337875366211
 21
-68.34825897216797
 31
0.0
  0
LINE
  8
0
 62
0
 10
-93.97673797607422
 20
-74.62152862548828
 30
0.0
 11
-96.32611083984375
 21
-71.56311798095703
 31
0.0
  0
LINE
  8
0
 62
0
 10
-88.0668716430664
 20
-74.26483917236328
 30
0.0
 11
-90.44872283935547
 21
-71.34471893310547
 31
0.0
  0
LINE
  8
0
 62
0
 10
-91.5302963256836
 20
-77.60285949707031
 30
0.0
 11
-93.97673797607422
 21
-74.62152862548828
 31
0.0
  0
LINE
  8
0
 62
0
 10
-85.59078216552734
 20
-77.10549926757812
 30
0.0
 11
-88.0668716430664
 21
-74.26483917236328
 31
0.0
  0
LINE
  8
0
 62
0
 10
-88.98931884765625
 20
-80.50404357910156
 30
0.0
 11
-91.5302963256836
 21
-77.60285949707031
 31
0.0
  0
LINE
  8
0
 62
0
 10
-85.59078216552734
 20
-77.10549926757812
 30
0.0
 11
-88.98931884765625
 21
-80.50404357910156
 31
0.0
  0
LINE
  8
0
 62
0
 10
54.0
 20
-66.0
 30
0.0
 11
56.37697982788086
 21
-66.0
 31
0.0
  0
LINE
  8
0
 62
0
 10
51.98408889770508
 20
-68.01590728759766
 30
0.0
 11
54.0
 21
-66.0
 31
0.0
  0
LINE
  8
0
 62
0
 10
57.53981018066406
 20
-69.77406311035156
 30
0.0
 11
56.37697982788086
 21
-66.0
 31
0.0
  0
LINE
  8
0
 62
0
 10
51.98408889770508
 20
-68.01590728759766
 30
0.0
 11
53.02439880371094
 21
-71.43852233886719
 31
0.0
  0
LINE
  8
0
 62
0
 10
58.58028030395508
 20
-73.58365631103516
 30
0.0
 11
57.53981018066406
 21
-69.77406311035156
 31
0.0
  0
LINE
  8
0
 62
0
 10
53.02439880371094
 20
-71.43852233886719
 30
0.0
 11
53.96012878417969
 21
-74.89118957519531
 31
0.0
  0
LINE
  8
0
 62
0
 10
59.49729919433594
 20
-77.42485046386719
 30
0.0
 11
58.58028030395508
 21
-73.58365631103516
 31
0.0
  0
LINE
  8
0
 62
0
 10
53.96012878417969
 20
-74.89118957519531
 30
0.0
 11
54.790409088134766
 21
-78.37071990966797
 31
0.0
  0
LINE
  8
0
 62
0
 10
60.289939880371094
 20
-81.29361724853516
 30
0.0
 11
59.49729919433594
 21
-77.42485046386719
 31
0.0
  0
LINE
  8
0
 62
0
 10
54.790409088134766
 20
-78.37071990966797
 30
0.0
 11
55.51448059082031
 21
-81.8739013671875
 31
0.0
  0
LINE
  8
0
 62
0
 10
60.95735168457031
 20
-85.18595123291016
 30
0.0
 11
60.289939880371094
 21
-81.29361724853516
 31
0.0
  0
LINE
  8
0
 62
0
 10
55.51448059082031
 20
-81.8739013671875
 30
0.0
 11
56.13166046142578
 21
-85.39747619628906
 31
0.0
  0
LINE
  8
0
 62
0
 10
61.49885177612305
 20
-89.09779357910156
 30
0.0
 11
60.95735168457031
 21
-85.18595123291016
 31
0.0
  0
LINE
  8
0
 62
0
 10
56.13166046142578
 20
-85.39747619628906
 30
0.0
 11
56.64139175415039
 21
-88.93820190429688
 31
0.0
  0
LINE
  8
0
 62
0
 10
61.91387939453125
 20
-93.0250473022461
 30
0.0
 11
61.49885177612305
 21
-89.09779357910156
 31
0.0
  0
LINE
  8
0
 62
0
 10
56.64139175415039
 20
-88.93820190429688
 30
0.0
 11
57.043190002441406
 21
-92.49278259277344
 31
0.0
  0
LINE
  8
0
 62
0
 10
62.201988220214844
 20
-96.96366119384766
 30
0.0
 11
61.91387939453125
 21
-93.0250473022461
 31
0.0
  0
LINE
  8
0
 62
0
 10
57.043190002441406
 20
-92.49278259277344
 30
0.0
 11
57.336700439453125
 21
-96.05793762207031
 31
0.0
  0
LINE
  8
0
 62
0
 10
65.32781219482422
 20
-94.88581085205078
 30
0.0
 11
62.201988220214844
 21
-96.96366119384766
 31
0.0
  0
LINE
  8
0
 62
0
 10
57.336700439453125
 20
-96.05793762207031
 30
0.0
 11
57.521629333496094
 21
-99.63037872314453
 31
0.0
  0
LINE
  8
0
 62
0
 10
68.38426971435547
 20
-92.70723724365234
 30
0.0
 11
65.32781219482422
 21
-94.88581085205078
 31
0.0
  0
LINE
  8
0
 62
0
 10
57.521629333496094
 20
-99.63037872314453
 30
0.0
 11
54.348018646240234
 21
-97.56832122802734
 31
0.0
  0
LINE
  8
0
 62
0
 10
71.3681411743164
 20
-90.43023681640625
 30
0.0
 11
68.38426971435547
 21
-92.70723724365234
 31
0.0
  0
LINE
  8
0
 62
0
 10
54.348018646240234
 20
-97.56832122802734
 30
0.0
 11
51.242408752441406
 21
-95.40521240234375
 31
0.0
  0
LINE
  8
0
 62
0
 10
74.27623748779297
 20
-88.0572509765625
 30
0.0
 11
71.3681411743164
 21
-90.43023681640625
 31
0.0
  0
LINE
  8
0
 62
0
 10
51.242408752441406
 20
-95.40521240234375
 30
0.0
 11
48.208011627197266
 21
-93.14328002929688
 31
0.0
  0
LINE
  8
0
 62
0
 10
77.10549926757812
 20
-85.59078216552734
 30
0.0
 11
74.27623748779297
 21
-88.0572509765625
 31
0.0
  0
LINE
  8
0
 62
0
 10
48.208011627197266
 20
-93.14328002929688
 30
0.0
 11
45.24797058105469
 21
-90.78488159179688
 31
0.0
  0
LINE
  8
0
 62
0
 10
77.10549926757812
 20
-85.59078216552734
 30
0.0
 11
80.50404357910156
 21
-88.98931884765625
 31
0.0
  0
LINE
  8
0
 62
0
 10
45.24797058105469
 20
-90.78488159179688
 30
0.0
 11
42.36534881591797
 21
-88.33245086669922
 31
0.0
  0
LINE
  8
0
 62
0
 10
80.50404357910156
 20
-88.98931884765625
 30
0.0
 11
77.66739654541016
 21
-91.47554016113281
 31
0.0
  0
LINE
  8
0
 62
0
 10
42.36534881591797
 20
-88.33245086669922
 30
0.0
 11
39.563140869140625
 21
-85.78852844238281
 31
0.0
  0
LINE
  8
0
 62
0
 10
77.66739654541016
 20
-91.47554016113281
 30
0.0
 11
74.7540283203125
 21
-93.87138366699219
 31
0.0
  0
LINE
  8
0
 62
0
 10
39.563140869140625
 20
-85.78852844238281
 30
0.0
 11
36.84423828125
 21
-83.15576171875
 31
0.0
  0
LINE
  8
0
 62
0
 10
74.7540283203125
 20
-93.87138366699219
 30
0.0
 11
71.76679229736328
 21
-96.1744613647461
 31
0.0
  0
LINE
  8
0
 62
0
 10
36.84423828125
 20
-83.15576171875
 30
0.0
 11
33.450130462646484
 21
-86.54987335205078
 31
0.0
  0
LINE
  8
0
 62
0
 10
71.76679229736328
 20
-96.1744613647461
 30
0.0
 11
68.70864868164062
 21
-98.38253021240234
 31
0.0
  0
LINE
  8
0
 62
0
 10
33.450130462646484
 20
-86.54987335205078
 30
0.0
 11
36.02042007446289
 21
-89.0459976196289
 31
0.0
  0
LINE
  8
0
 62
0
 10
68.70864868164062
 20
-98.38253021240234
 30
0.0
 11
65.58261108398438
 21
-100.49340057373047
 31
0.0
  0
LINE
  8
0
 62
0
 10
36.02042007446289
 20
-89.0459976196289
 30
0.0
 11
38.66267013549805
 21
-91.4658432006836
 31
0.0
  0
LINE
  8
0
 62
0
 10
65.58261108398438
 20
-100.49340057373047
 30
0.0
 11
62.391780853271484
 21
-102.50499725341797
 31
0.0
  0
LINE
  8
0
 62
0
 10
38.66267013549805
 20
-91.4658432006836
 30
0.0
 11
41.37461853027344
 21
-93.80729675292969
 31
0.0
  0
LINE
  8
0
 62
0
 10
62.391998291015625
 20
-102.52349853515625
 30
0.0
 11
62.391780853271484
 21
-102.50499725341797
 31
0.0
  0
LINE
  8
0
 62
0
 10
41.37461853027344
 20
-93.80729675292969
 30
0.0
 11
44.1539306640625
 21
-96.0683822631836
 31
0.0
  0
LINE
  8
0
 62
0
 10
65.80422973632812
 20
-104.36750030517578
 30
0.0
 11
62.391998291015625
 21
-102.52349853515625
 31
0.0
  0
LINE
  8
0
 62
0
 10
44.1539306640625
 20
-96.0683822631836
 30
0.0
 11
46.99822998046875
 21
-98.24714660644531
 31
0.0
  0
LINE
  8
0
 62
0
 10
69.2754135131836
 20
-106.0979995727539
 30
0.0
 11
65.80422973632812
 21
-104.36750030517578
 31
0.0
  0
LINE
  8
0
 62
0
 10
46.99822998046875
 20
-98.24714660644531
 30
0.0
 11
49.90509033203125
 21
-100.3416976928711
 31
0.0
  0
LINE
  8
0
 62
0
 10
72.80177307128906
 20
-107.71299743652344
 30
0.0
 11
69.2754135131836
 21
-106.0979995727539
 31
0.0
  0
LINE
  8
0
 62
0
 10
49.90509033203125
 20
-100.3416976928711
 30
0.0
 11
52.87200164794922
 21
-102.35030364990234
 31
0.0
  0
LINE
  8
0
 62
0
 10
76.37947082519531
 20
-109.21080017089844
 30
0.0
 11
72.80177307128906
 21
-107.71299743652344
 31
0.0
  0
LINE
  8
0
 62
0
 10
52.87200164794922
 20
-102.35030364990234
 30
0.0
 11
49.44171905517578
 21
-104.05069732666016
 31
0.0
  0
LINE
  8
0
 62
0
 10
80.00462341308594
 20
-110.58989715576172
 30
0.0
 11
76.37947082519531
 21
-109.21080017089844
 31
0.0
  0
LINE
  8
0
 62
0
 10
49.44171905517578
 20
-104.05069732666016
 30
0.0
 11
45.95682907104492
 21
-105.63619995117188
 31
0.0
  0
LINE
  8
0
 62
0
 10
83.67327880859375
 20
-111.84870147705078
 30
0.0
 11
80.00462341308594
 21
-110.58989715576172
 31
0.0
  0
LINE
  8
0
 62
0
 10
45.95682907104492
 20
-105.63619995117188
 30
0.0
 11
42.421180725097656
 21
-107.1050033569336
 31
0.0
  0
LINE
  8
0
 62
0
 10
87.3814468383789
 20
-112.98580169677734
 30
0.0
 11
83.67327880859375
 21
-111.84870147705078
 31
0.0
  0
LINE
  8
0
 62
0
 10
42.421180725097656
 20
-107.1050033569336
 30
0.0
 11
38.83866882324219
 21
-108.45549774169922
 31
0.0
  0
LINE
  8
0
 62
0
 10
91.1250991821289
 20
-114.0
 30
0.0
 11
87.3814468383789
 21
-112.98580169677734
 31
0.0
  0
LINE
  8
0
 62
0
 10
38.83866882324219
 20
-108.45549774169922
 30
0.0
 11
35.2132682800293
 21
-109.68620300292969
 31
0.0
  0
LINE
  8
0
 62
0
 10
91.1250991821289
 20
-114.0
 30
0.0
 11
75.4381332397461
 21
-114.0
 31
0.0
  0
LINE
  8
0
 62
0
 10
35.2132682800293
 20
-109.68620300292969
 30
0.0
 11
31.548969268798828
 21
-110.7957992553711
 31
0.0
  0
LINE
  8
0
 62
0
 10
72.09658813476562
 20
-112.63670349121094
 30
0.0
 11
75.4381332397461
 21
-114.0
 31
0.0
  0
LINE
  8
0
 62
0
 10
31.548969268798828
 20
-110.7957992553711
 30
0.0
 11
27.84981918334961
 21
-111.78289794921875
 31
0.0
  0
LINE
  8
0
 62
0
 10
68.79669189453125
 20
-111.17549896240234
 30
0.0
 11
72.09658813476562
 21
-112.63670349121094
 31
0.0
  0
LINE
  8
0
 62
0
 10
27.84981918334961
 20
-111.78289794921875
 30
0.0
 11
24.11992073059082
 21
-112.64669799804688
 31
0.0
  0
LINE
  8
0
 62
0
 10
65.54131317138672
 20
-109.61759948730469
 30
0.0
 11
68.79669189453125
 21
-111.17549896240234
 31
0.0
  0
LINE
  8
0
 62
0
 10
24.11992073059082
 20
-112.64669799804688
 30
0.0
 11
20.363370895385742
 21
-113.38590240478516
 31
0.0
  0
LINE
  8
0
 62
0
 10
62.33325958251953
 20
-107.96440124511719
 30
0.0
 11
65.54131317138672
 21
-109.61759948730469
 31
0.0
  0
LINE
  8
0
 62
0
 10
20.363370895385742
 20
-113.38590240478516
 30
0.0
 11
16.58432960510254
 21
-114.0
 31
0.0
  0
LINE
  8
0
 62
0
 10
62.25014114379883
 20
-109.97810363769531
 30
0.0
 11
62.33325958251953
 21
-107.96440124511719
 31
0.0
  0
LINE
  8
0
 62
0
 10
37.46998977661133
 20
-114.0
 30
0.0
 11
16.58432960510254
 21
-114.0
 31
0.0
  0
LINE
  8
0
 62
0
 10
62.13386917114258
 20
-111.99009704589844
 30
0.0
 11
62.25014114379883
 21
-109.97810363769531
 31
0.0
  0
LINE
  8
0
 62
0
 10
40.926509857177734
 20
-112.8051986694336
 30
0.0
 11
37.46998977661133
 21
-114.0
 31
0.0
  0
LINE
  8
0
 62
0
 10
61.98448944091797
 20
-114.0
 30
0.0
 11
62.13386917114258
 21
-111.99009704589844
 31
0.0
  0
LINE
  8
0
 62
0
 10
44.34502029418945
 20
-111.50569915771484
 30
0.0
 11
40.926509857177734
 21
-112.8051986694336
 31
0.0
  0
LINE
  8
0
 62
0
 10
61.98448944091797
 20
-114.0
 30
0.0
 11
57.1674690246582
 21
-114.0
 31
0.0
  0
LINE
  8
0
 62
0
 10
47.722328186035156
 20
-110.10260009765625
 30
0.0
 11
44.34502029418945
 21
-111.50569915771484
 31
0.0
  0
LINE
  8
0
 62
0
 10
57.38066864013672
 20
-111.10209655761719
 30
0.0
 11
57.1674690246582
 21
-114.0
 31
0.0
  0
LINE
  8
0
 62
0
 10
51.055328369140625
 20
-108.59719848632812
 30
0.0
 11
47.722328186035156
 21
-110.10260009765625
 31
0.0
  0
LINE
  8
0
 62
0
 10
57.52220916748047
 20
-108.19979858398438
 30
0.0
 11
57.38066864013672
 21
-111.10209655761719
 31
0.0
  0
LINE
  8
0
 62
0
 10
54.34090042114258
 20
-106.99099731445312
 30
0.0
 11
51.055328369140625
 21
-108.59719848632812
 31
0.0
  0
LINE
  8
0
 62
0
 10
57.59199905395508
 20
-105.2947998046875
 30
0.0
 11
57.52220916748047
 21
-108.19979858398438
 31
0.0
  0
LINE
  8
0
 62
0
 10
57.57600021362305
 20
-105.2853012084961
 30
0.0
 11
54.34090042114258
 21
-106.99099731445312
 31
0.0
  0
LINE
  8
0
 62
0
 10
57.57600021362305
 20
-105.2853012084961
 30
0.0
 11
57.59199905395508
 21
-105.2947998046875
 31
0.0
  0
LINE
  8
0
 62
0
 10
114.0
 20
-16.58432960510254
 30
0.0
 11
113.39659881591797
 21
-20.304040908813477
 31
0.0
  0
LINE
  8
0
 62
0
 10
113.39659881591797
 20
-20.304040908813477
 30
0.0
 11
112.67179870605469
 21
-24.00201988220215
 31
0.0
  0
LINE
  8
0
 62
0
 10
114.0
 20
-16.58432960510254
 30
0.0
 11
114.0
 21
-37.46998977661133
 31
0.0
  0
LINE
  8
0
 62
0
 10
112.67179870605469
 20
-24.00201988220215
 30
0.0
 11
111.82649993896484
 21
-27.674320220947266
 31
0.0
  0
LINE
  8
0
 62
0
 10
114.0
 20
-37.46998977661133
 30
0.0
 11
112.73709869384766
 21
-41.11394119262695
 31
0.0
  0
LINE
  8
0
 62
0
 10
111.82649993896484
 20
-27.674320220947266
 30
0.0
 11
110.86160278320312
 21
-31.316999435424805
 31
0.0
  0
LINE
  8
0
 62
0
 10
112.73709869384766
 20
-41.11394119262695
 30
0.0
 11
111.35769653320312
 21
-44.71541976928711
 31
0.0
  0
LINE
  8
0
 62
0
 10
110.86160278320312
 20
-31.316999435424805
 30
0.0
 11
109.77799987792969
 21
-34.92618179321289
 31
0.0
  0
LINE
  8
0
 62
0
 10
111.35769653320312
 20
-44.71541976928711
 30
0.0
 11
109.86329650878906
 21
-48.270721435546875
 31
0.0
  0
LINE
  8
0
 62
0
 10
109.77799987792969
 20
-34.92618179321289
 30
0.0
 11
108.57689666748047
 21
-38.49797821044922
 31
0.0
  0
LINE
  8
0
 62
0
 10
109.86329650878906
 20
-48.270721435546875
 30
0.0
 11
108.25540161132812
 21
-51.77616882324219
 31
0.0
  0
LINE
  8
0
 62
0
 10
108.57689666748047
 20
-38.49797821044922
 30
0.0
 11
107.25969696044922
 21
-42.02859115600586
 31
0.0
  0
LINE
  8
0
 62
0
 10
108.25540161132812
 20
-51.77616882324219
 30
0.0
 11
106.53569793701172
 21
-55.22813034057617
 31
0.0
  0
LINE
  8
0
 62
0
 10
107.25969696044922
 20
-42.02859115600586
 30
0.0
 11
105.82769775390625
 21
-45.51422882080078
 31
0.0
  0
LINE
  8
0
 62
0
 10
106.53569793701172
 20
-55.22813034057617
 30
0.0
 11
104.70600128173828
 21
-58.623050689697266
 31
0.0
  0
LINE
  8
0
 62
0
 10
105.82769775390625
 20
-45.51422882080078
 30
0.0
 11
104.28240203857422
 21
-48.951171875
 31
0.0
  0
LINE
  8
0
 62
0
 10
104.70600128173828
 20
-58.623050689697266
 30
0.0
 11
102.76809692382812
 21
-61.957420349121094
 31
0.0
  0
LINE
  8
0
 62
0
 10
104.28240203857422
 20
-48.951171875
 30
0.0
 11
102.62560272216797
 21
-52.335731506347656
 31
0.0
  0
LINE
  8
0
 62
0
 10
102.76809692382812
 20
-61.957420349121094
 30
0.0
 11
100.7240982055664
 21
-65.22779846191406
 31
0.0
  0
LINE
  8
0
 62
0
 10
102.62560272216797
 20
-52.335731506347656
 30
0.0
 11
100.85890197753906
 21
-55.66429138183594
 31
0.0
  0
LINE
  8
0
 62
0
 10
100.7240982055664
 20
-65.22779846191406
 30
0.0
 11
98.57598876953125
 21
-68.43080139160156
 31
0.0
  0
LINE
  8
0
 62
0
 10
100.85890197753906
 20
-55.66429138183594
 30
0.0
 11
98.98438262939453
 21
-58.93328094482422
 31
0.0
  0
LINE
  8
0
 62
0
 10
98.57598876953125
 20
-68.43080139160156
 30
0.0
 11
96.32611083984375
 21
-71.56311798095703
 31
0.0
  0
LINE
  8
0
 62
0
 10
98.98438262939453
 20
-58.93328094482422
 30
0.0
 11
97.00389862060547
 21
-62.13922119140625
 31
0.0
  0
LINE
  8
0
 62
0
 10
96.32611083984375
 20
-71.56311798095703
 30
0.0
 11
93.97673797607422
 21
-74.62152862548828
 31
0.0
  0
LINE
  8
0
 62
0
 10
97.00389862060547
 20
-62.13922119140625
 30
0.0
 11
94.91963195800781
 21
-65.2786636352539
 31
0.0
  0
LINE
  8
0
 62
0
 10
93.97673797607422
 20
-74.62152862548828
 30
0.0
 11
91.5302963256836
 21
-77.60285949707031
 31
0.0
  0
LINE
  8
0
 62
0
 10
94.91963195800781
 20
-65.2786636352539
 30
0.0
 11
92.7337875366211
 21
-68.34825897216797
 31
0.0
  0
LINE
  8
0
 62
0
 10
91.5302963256836
 20
-77.60285949707031
 30
0.0
 11
88.98931884765625
 21
-80.50404357910156
 31
0.0
  0
LINE
  8
0
 62
0
 10
92.7337875366211
 20
-68.34825897216797
 30
0.0
 11
90.44872283935547
 21
-71.34471893310547
 31
0.0
  0
LINE
  8
0
 62
0
 10
88.98931884765625
 20
-80.50404357910156
 30
0.0
 11
85.59078216552734
 21
-77.10549926757812
 31
0.0
  0
LINE
  8
0
 62
0
 10
90.44872283935547
 20
-71.34471893310547
 30
0.0
 11
88.0668716430664
 21
-74.26483917236328
 31
0.0
  0
LINE
  8
0
 62
0
 10
88.0668716430664
 20
-74.26483917236328
 30
0.0
 11
85.59078216552734
 21
-77.10549926757812
 31
0.0
  0
LINE
  8
0
 62
0
 10
111.82649993896484
 20
27.674320220947266
 30
0.0
 11
112.67179870605469
 21
24.00201988220215
 31
0.0
  0
LINE
  8
0
 62
0
 10
112.67179870605469
 20
24.00201988220215
 30
0.0
 11
113.39659881591797
 21
20.304040908813477
 31
0.0
  0
LINE
  8
0
 62
0
 10
110.86160278320312
 20
31.316999435424805
 30
0.0
 11
111.82649993896484
 21
27.674320220947266
 31
0.0
  0
LINE
  8
0
 62
0
 10
113.39659881591797
 20
20.304040908813477
 30
0.0
 11
114.0
 21
16.58432960510254
 31
0.0
  0
LINE
  8
0
 62
0
 10
109.77799987792969
 20
34.92618179321289
 30
0.0
 11
110.86160278320312
 21
31.316999435424805
 31
0.0
  0
LINE
  8
0
 62
0
 10
114.0
 20
37.46998977661133
 30
0.0
 11
114.0
 21
16.58432960510254
 31
0.0
  0
LINE
  8
0
 62
0
 10
108.57689666748047
 20
38.49797821044922
 30
0.0
 11
109.77799987792969
 21
34.92618179321289
 31
0.0
  0
LINE
  8
0
 62
0
 10
112.73709869384766
 20
41.11394119262695
 30
0.0
 11
114.0
 21
37.46998977661133
 31
0.0
  0
LINE
  8
0
 62
0
 10
107.25969696044922
 20
42.02859115600586
 30
0.0
 11
108.57689666748047
 21
38.49797821044922
 31
0.0
  0
LINE
  8
0
 62
0
 10
111.35769653320312
 20
44.71541976928711
 30
0.0
 11
112.73709869384766
 21
41.11394119262695
 31
0.0
  0
LINE
  8
0
 62
0
 10
105.82769775390625
 20
45.51422882080078
 30
0.0
 11
107.25969696044922
 21
42.02859115600586
 31
0.0
  0
LINE
  8
0
 62
0
 10
109.86329650878906
 20
48.270721435546875
 30
0.0
 11
111.35769653320312
 21
44.71541976928711
 31
0.0
  0
LINE
  8
0
 62
0
 10
104.28240203857422
 20
48.951171875
 30
0.0
 11
105.82769775390625
 21
45.51422882080078
 31
0.0
  0
LINE
  8
0
 62
0
 10
108.25540161132812
 20
51.77616882324219
 30
0.0
 11
109.86329650878906
 21
48.270721435546875
 31
0.0
  0
LINE
  8
0
 62
0
 10
102.62560272216797
 20
52.335731506347656
 30
0.0
 11
104.28240203857422
 21
48.951171875
 31
0.0
  0
LINE
  8
0
 62
0
 10
106.53569793701172
 20
55.22813034057617
 30
0.0
 11
108.25540161132812
 21
51.77616882324219
 31
0.0
  0
LINE
  8
0
 62
0
 10
100.85890197753906
 20
55.66429138183594
 30
0.0
 11
102.62560272216797
 21
52.335731506347656
 31
0.0
  0
LINE
  8
0
 62
0
 10
104.70600128173828
 20
58.623050689697266
 30
0.0
 11
106.53569793701172
 21
55.22813034057617
 31
0.0
  0
LINE
  8
0
 62
0
 10
98.98438262939453
 20
58.93328094482422
 30
0.0
 11
100.85890197753906
 21
55.66429138183594
 31
0.0
  0
LINE
  8
0
 62
0
 10
102.76809692382812
 20
61.957420349121094
 30
0.0
 11
104.70600128173828
 21
58.623050689697266
 31
0.0
  0
LINE
  8
0
 62
0
 10
97.00389862060547
 20
62.13922119140625
 30
0.0
 11
98.98438262939453
 21
58.93328094482422
 31
0.0
  0
LINE
  8
0
 62
0
 10
100.7240982055664
 20
65.22779846191406
 30
0.0
 11
102.76809692382812
 21
61.957420349121094
 31
0.0
  0
LINE
  8
0
 62
0
 10
94.91963195800781
 20
65.2786636352539
 30
0.0
 11
97.00389862060547
 21
62.13922119140625
 31
0.0
  0
LINE
  8
0
 62
0
 10
98.57598876953125
 20
68.43080139160156
 30
0.0
 11
100.7240982055664
 21
65.22779846191406
 31
0.0
  0
LINE
  8
0
 62
0
 10
92.7337875366211
 20
68.34825897216797
 30
0.0
 11
94.91963195800781
 21
65.2786636352539
 31
0.0
  0
LINE
  8
0
 62
0
 10
96.32611083984375
 20
71.56311798095703
 30
0.0
 11
98.57598876953125
 21
68.43080139160156
 31
0.0
  0
LINE
  8
0
 62
0
 10
90.44872283935547
 20
71.34471893310547
 30
0.0
 11
92.7337875366211
 21
68.34825897216797
 31
0.0
  0
LINE
  8
0
 62
0
 10
93.97673797607422
 20
74.62152862548828
 30
0.0
 11
96.32611083984375
 21
71.56311798095703
 31
0.0
  0
LINE
  8
0
 62
0
 10
88.0668716430664
 20
74.26483917236328
 30
0.0
 11
90.44872283935547
 21
71.34471893310547
 31
0.0
  0
LINE
  8
0
 62
0
 10
91.5302963256836
 20
77.60285949707031
 30
0.0
 11
93.97673797607422
 21
74.62152862548828
 31
0.0
  0
LINE
  8
0
 62
0
 10
85.59078216552734
 20
77.10549926757812
 30
0.0
 11
88.0668716430664
 21
74.26483917236328
 31
0.0
  0
LINE
  8
0
 62
0
 10
88.98931884765625
 20
80.50404357910156
 30
0.0
 11
91.5302963256836
 21
77.60285949707031
 31
0.0
  0
LINE
  8
0
 62
0
 10
85.59078216552734
 20
77.10549926757812
 30
0.0
 11
88.98931884765625
 21
80.50404357910156
 31
0.0
  0
LINE
  8
0
 62
0
 10
54.0
 20
66.0
 30
0.0
 11
51.98408889770508
 21
68.01590728759766
 31
0.0
  0
LINE
  8
0
 62
0
 10
53.02439880371094
 20
71.43852233886719
 30
0.0
 11
51.98408889770508
 21
68.01590728759766
 31
0.0
  0
LINE
  8
0
 62
0
 10
56.37697982788086
 20
66.0
 30
0.0
 11
54.0
 21
66.0
 31
0.0
  0
LINE
  8
0
 62
0
 10
53.96012878417969
 20
74.89118957519531
 30
0.0
 11
53.02439880371094
 21
71.43852233886719
 31
0.0
  0
LINE
  8
0
 62
0
 10
56.37697982788086
 20
66.0
 30
0.0
 11
57.53981018066406
 21
69.77406311035156
 31
0.0
  0
LINE
  8
0
 62
0
 10
54.790409088134766
 20
78.37071990966797
 30
0.0
 11
53.96012878417969
 21
74.89118957519531
 31
0.0
  0
LINE
  8
0
 62
0
 10
57.53981018066406
 20
69.77406311035156
 30
0.0
 11
58.58028030395508
 21
73.58365631103516
 31
0.0
  0
LINE
  8
0
 62
0
 10
55.51448059082031
 20
81.8739013671875
 30
0.0
 11
54.790409088134766
 21
78.37071990966797
 31
0.0
  0
LINE
  8
0
 62
0
 10
58.58028030395508
 20
73.58365631103516
 30
0.0
 11
59.49729919433594
 21
77.42485046386719
 31
0.0
  0
LINE
  8
0
 62
0
 10
56.13166046142578
 20
85.39747619628906
 30
0.0
 11
55.51448059082031
 21
81.8739013671875
 31
0.0
  0
LINE
  8
0
 62
0
 10
59.49729919433594
 20
77.42485046386719
 30
0.0
 11
60.289939880371094
 21
81.29361724853516
 31
0.0
  0
LINE
  8
0
 62
0
 10
56.64139175415039
 20
88.93820190429688
 30
0.0
 11
56.13166046142578
 21
85.39747619628906
 31
0.0
  0
LINE
  8
0
 62
0
 10
60.289939880371094
 20
81.29361724853516
 30
0.0
 11
60.95735168457031
 21
85.18595123291016
 31
0.0
  0
LINE
  8
0
 62
0
 10
57.043190002441406
 20
92.49278259277344
 30
0.0
 11
56.64139175415039
 21
88.93820190429688
 31
0.0
  0
LINE
  8
0
 62
0
 10
60.95735168457031
 20
85.18595123291016
 30
0.0
 11
61.49885177612305
 21
89.09779357910156
 31
0.0
  0
LINE
  8
0
 62
0
 10
57.336700439453125
 20
96.05793762207031
 30
0.0
 11
57.043190002441406
 21
92.49278259277344
 31
0.0
  0
LINE
  8
0
 62
0
 10
61.49885177612305
 20
89.09779357910156
 30
0.0
 11
61.91387939453125
 21
93.0250473022461
 31
0.0
  0
LINE
  8
0
 62
0
 10
57.521629333496094
 20
99.63037872314453
 30
0.0
 11
57.336700439453125
 21
96.05793762207031
 31
0.0
  0
LINE
  8
0
 62
0
 10
61.91387939453125
 20
93.0250473022461
 30
0.0
 11
62.201988220214844
 21
96.96366119384766
 31
0.0
  0
LINE
  8
0
 62
0
 10
54.348018646240234
 20
97.56832122802734
 30
0.0
 11
57.521629333496094
 21
99.63037872314453
 31
0.0
  0
LINE
  8
0
 62
0
 10
62.201988220214844
 20
96.96366119384766
 30
0.0
 11
65.32781219482422
 21
94.88581085205078
 31
0.0
  0
LINE
  8
0
 62
0
 10
51.242408752441406
 20
95.40521240234375
 30
0.0
 11
54.348018646240234
 21
97.56832122802734
 31
0.0
  0
LINE
  8
0
 62
0
 10
65.32781219482422
 20
94.88581085205078
 30
0.0
 11
68.38426971435547
 21
92.70723724365234
 31
0.0
  0
LINE
  8
0
 62
0
 10
48.208011627197266
 20
93.14328002929688
 30
0.0
 11
51.242408752441406
 21
95.40521240234375
 31
0.0
  0
LINE
  8
0
 62
0
 10
68.38426971435547
 20
92.70723724365234
 30
0.0
 11
71.3681411743164
 21
90.43023681640625
 31
0.0
  0
LINE
  8
0
 62
0
 10
45.24797058105469
 20
90.78488159179688
 30
0.0
 11
48.208011627197266
 21
93.14328002929688
 31
0.0
  0
LINE
  8
0
 62
0
 10
71.3681411743164
 20
90.43023681640625
 30
0.0
 11
74.27623748779297
 21
88.0572509765625
 31
0.0
  0
LINE
  8
0
 62
0
 10
42.36534881591797
 20
88.33245086669922
 30
0.0
 11
45.24797058105469
 21
90.78488159179688
 31
0.0
  0
LINE
  8
0
 62
0
 10
74.27623748779297
 20
88.0572509765625
 30
0.0
 11
77.10549926757812
 21
85.59078216552734
 31
0.0
  0
LINE
  8
0
 62
0
 10
39.563140869140625
 20
85.78852844238281
 30
0.0
 11
42.36534881591797
 21
88.33245086669922
 31
0.0
  0
LINE
  8
0
 62
0
 10
80.50404357910156
 20
88.98931884765625
 30
0.0
 11
77.10549926757812
 21
85.59078216552734
 31
0.0
  0
LINE
  8
0
 62
0
 10
36.84423828125
 20
83.15576171875
 30
0.0
 11
39.563140869140625
 21
85.78852844238281
 31
0.0
  0
LINE
  8
0
 62
0
 10
77.66739654541016
 20
91.47554016113281
 30
0.0
 11
80.50404357910156
 21
88.98931884765625
 31
0.0
  0
LINE
  8
0
 62
0
 10
36.84423828125
 20
83.15576171875
 30
0.0
 11
33.450130462646484
 21
86.54987335205078
 31
0.0
  0
LINE
  8
0
 62
0
 10
74.7540283203125
 20
93.87138366699219
 30
0.0
 11
77.66739654541016
 21
91.47554016113281
 31
0.0
  0
LINE
  8
0
 62
0
 10
36.02042007446289
 20
89.0459976196289
 30
0.0
 11
33.450130462646484
 21
86.54987335205078
 31
0.0
  0
LINE
  8
0
 62
0
 10
71.76679229736328
 20
96.1744613647461
 30
0.0
 11
74.7540283203125
 21
93.87138366699219
 31
0.0
  0
LINE
  8
0
 62
0
 10
38.66267013549805
 20
91.4658432006836
 30
0.0
 11
36.02042007446289
 21
89.0459976196289
 31
0.0
  0
LINE
  8
0
 62
0
 10
68.70864868164062
 20
98.38253021240234
 30
0.0
 11
71.76679229736328
 21
96.1744613647461
 31
0.0
  0
LINE
  8
0
 62
0
 10
41.37461853027344
 20
93.80729675292969
 30
0.0
 11
38.66267013549805
 21
91.4658432006836
 31
0.0
  0
LINE
  8
0
 62
0
 10
65.58261108398438
 20
100.49340057373047
 30
0.0
 11
68.70864868164062
 21
98.38253021240234
 31
0.0
  0
LINE
  8
0
 62
0
 10
44.1539306640625
 20
96.0683822631836
 30
0.0
 11
41.37461853027344
 21
93.80729675292969
 31
0.0
  0
LINE
  8
0
 62
0
 10
62.391780853271484
 20
102.50499725341797
 30
0.0
 11
65.58261108398438
 21
100.49340057373047
 31
0.0
  0
LINE
  8
0
 62
0
 10
46.99822998046875
 20
98.24714660644531
 30
0.0
 11
44.1539306640625
 21
96.0683822631836
 31
0.0
  0
LINE
  8
0
 62
0
 10
62.391780853271484
 20
102.50499725341797
 30
0.0
 11
62.391998291015625
 21
102.52349853515625
 31
0.0
  0
LINE
  8
0
 62
0
 10
49.90509033203125
 20
100.3416976928711
 30
0.0
 11
46.99822998046875
 21
98.24714660644531
 31
0.0
  0
LINE
  8
0
 62
0
 10
62.391998291015625
 20
102.52349853515625
 30
0.0
 11
65.80422973632812
 21
104.36750030517578
 31
0.0
  0
LINE
  8
0
 62
0
 10
52.87200164794922
 20
102.35030364990234
 30
0.0
 11
49.90509033203125
 21
100.3416976928711
 31
0.0
  0
LINE
  8
0
 62
0
 10
65.80422973632812
 20
104.36750030517578
 30
0.0
 11
69.2754135131836
 21
106.0979995727539
 31
0.0
  0
LINE
  8
0
 62
0
 10
49.44171905517578
 20
104.05069732666016
 30
0.0
 11
52.87200164794922
 21
102.35030364990234
 31
0.0
  0
LINE
  8
0
 62
0
 10
69.2754135131836
 20
106.0979995727539
 30
0.0
 11
72.80177307128906
 21
107.71299743652344
 31
0.0
  0
LINE
  8
0
 62
0
 10
45.95682907104492
 20
105.63619995117188
 30
0.0
 11
49.44171905517578
 21
104.05069732666016
 31
0.0
  0
LINE
  8
0
 62
0
 10
72.80177307128906
 20
107.71299743652344
 30
0.0
 11
76.37947082519531
 21
109.21080017089844
 31
0.0
  0
LINE
  8
0
 62
0
 10
42.421180725097656
 20
107.1050033569336
 30
0.0
 11
45.95682907104492
 21
105.63619995117188
 31
0.0
  0
LINE
  8
0
 62
0
 10
76.37947082519531
 20
109.21080017089844
 30
0.0
 11
80.00462341308594
 21
110.58989715576172
 31
0.0
  0
LINE
  8
0
 62
0
 10
38.83866882324219
 20
108.45549774169922
 30
0.0
 11
42.421180725097656
 21
107.1050033569336
 31
0.0
  0
LINE
  8
0
 62
0
 10
80.00462341308594
 20
110.58989715576172
 30
0.0
 11
83.67327880859375
 21
111.84870147705078
 31
0.0
  0
LINE
  8
0
 62
0
 10
35.2132682800293
 20
109.68620300292969
 30
0.0
 11
38.83866882324219
 21
108.45549774169922
 31
0.0
  0
LINE
  8
0
 62
0
 10
83.67327880859375
 20
111.84870147705078
 30
0.0
 11
87.3814468383789
 21
112.98580169677734
 31
0.0
  0
LINE
  8
0
 62
0
 10
31.548969268798828
 20
110.7957992553711
 30
0.0
 11
35.2132682800293
 21
109.68620300292969
 31
0.0
  0
LINE
  8
0
 62
0
 10
87.3814468383789
 20
112.98580169677734
 30
0.0
 11
91.1250991821289
 21
114.0
 31
0.0
  0
LINE
  8
0
 62
0
 10
27.84981918334961
 20
111.78289794921875
 30
0.0
 11
31.548969268798828
 21
110.7957992553711
 31
0.0
  0
LINE
  8
0
 62
0
 10
75.4381332397461
 20
114.0
 30
0.0
 11
91.1250991821289
 21
114.0
 31
0.0
  0
LINE
  8
0
 62
0
 10
24.11992073059082
 20
112.64669799804688
 30
0.0
 11
27.84981918334961
 21
111.78289794921875
 31
0.0
  0
LINE
  8
0
 62
0
 10
72.09658813476562
 20
112.63670349121094
 30
0.0
 11
75.4381332397461
 21
114.0
 31
0.0
  0
LINE
  8
0
 62
0
 10
20.363370895385742
 20
113.38590240478516
 30
0.0
 11
24.11992073059082
 21
112.64669799804688
 31
0.0
  0
LINE
  8
0
 62
0
 10
68.79669189453125
 20
111.17549896240234
 30
0.0
 11
72.09658813476562
 21
112.63670349121094
 31
0.0
  0
LINE
  8
0
 62
0
 10
16.58432960510254
 20
114.0
 30
0.0
 11
20.363370895385742
 21
113.38590240478516
 31
0.0
  0
LINE
  8
0
 62
0
 10
65.54131317138672
 20
109.61759948730469
 30
0.0
 11
68.79669189453125
 21
111.17549896240234
 31
0.0
  0
LINE
  8
0
 62
0
 10
16.58432960510254
 20
114.0
 30
0.0
 11
37.46998977661133
 21
114.0
 31
0.0
  0
LINE
  8
0
 62
0
 10
62.33325958251953
 20
107.96440124511719
 30
0.0
 11
65.54131317138672
 21
109.61759948730469
 31
0.0
  0
LINE
  8
0
 62
0
 10
37.46998977661133
 20
114.0
 30
0.0
 11
40.926509857177734
 21
112.8051986694336
 31
0.0
  0
LINE
  8
0
 62
0
 10
62.25014114379883
 20
109.97810363769531
 30
0.0
 11
62.33325958251953
 21
107.96440124511719
 31
0.0
  0
LINE
  8
0
 62
0
 10
40.926509857177734
 20
112.8051986694336
 30
0.0
 11
44.34502029418945
 21
111.50569915771484
 31
0.0
  0
LINE
  8
0
 62
0
 10
62.13386917114258
 20
111.99009704589844
 30
0.0
 11
62.25014114379883
 21
109.97810363769531
 31
0.0
  0
LINE
  8
0
 62
0
 10
44.34502029418945
 20
111.50569915771484
 30
0.0
 11
47.722328186035156
 21
110.10260009765625
 31
0.0
  0
LINE
  8
0
 62
0
 10
61.98448944091797
 20
114.0
 30
0.0
 11
62.13386917114258
 21
111.99009704589844
 31
0.0
  0
LINE
  8
0
 62
0
 10
47.722328186035156
 20
110.10260009765625
 30
0.0
 11
51.055328369140625
 21
108.59719848632812
 31
0.0
  0
LINE
  8
0
 62
0
 10
57.1674690246582
 20
114.0
 30
0.0
 11
61.98448944091797
 21
114.0
 31
0.0
  0
LINE
  8
0
 62
0
 10
51.055328369140625
 20
108.59719848632812
 30
0.0
 11
54.34090042114258
 21
106.99099731445312
 31
0.0
  0
LINE
  8
0
 62
0
 10
57.1674690246582
 20
114.0
 30
0.0
 11
57.38066864013672
 21
111.10209655761719
 31
0.0
  0
LINE
  8
0
 62
0
 10
54.34090042114258
 20
106.99099731445312
 30
0.0
 11
57.57600021362305
 21
105.2853012084961
 31
0.0
  0
LINE
  8
0
 62
0
 10
57.38066864013672
 20
111.10209655761719
 30
0.0
 11
57.52220916748047
 21
108.19979858398438
 31
0.0
  0
LINE
  8
0
 62
0
 10
57.59199905395508
 20
105.2947998046875
 30
0.0
 11
57.57600021362305
 21
105.2853012084961
 31
0.0
  0
LINE
  8
0
 62
0
 10
57.52220916748047
 20
108.19979858398438
 30
0.0
 11
57.59199905395508
 21
105.2947998046875
 31
0.0
  0
LINE
  8
0
 62
0
 10
-87.3814468383789
 20
112.98580169677734
 30
0.0
 11
-91.1250991821289
 21
114.0
 31
0.0
  0
LINE
  8
0
 62
0
 10
-83.67327880859375
 20
111.84870147705078
 30
0.0
 11
-87.3814468383789
 21
112.98580169677734
 31
0.0
  0
LINE
  8
0
 62
0
 10
-91.1250991821289
 20
114.0
 30
0.0
 11
-75.4381332397461
 21
114.0
 31
0.0
  0
LINE
  8
0
 62
0
 10
-80.00462341308594
 20
110.58989715576172
 30
0.0
 11
-83.67327880859375
 21
111.84870147705078
 31
0.0
  0
LINE
  8
0
 62
0
 10
-75.4381332397461
 20
114.0
 30
0.0
 11
-72.09658813476562
 21
112.63670349121094
 31
0.0
  0
LINE
  8
0
 62
0
 10
-76.37947082519531
 20
109.21080017089844
 30
0.0
 11
-80.00462341308594
 21
110.58989715576172
 31
0.0
  0
LINE
  8
0
 62
0
 10
-72.09658813476562
 20
112.63670349121094
 30
0.0
 11
-68.79669189453125
 21
111.17549896240234
 31
0.0
  0
LINE
  8
0
 62
0
 10
-72.80177307128906
 20
107.71299743652344
 30
0.0
 11
-76.37947082519531
 21
109.21080017089844
 31
0.0
  0
LINE
  8
0
 62
0
 10
-68.79669189453125
 20
111.17549896240234
 30
0.0
 11
-65.54131317138672
 21
109.61759948730469
 31
0.0
  0
LINE
  8
0
 62
0
 10
-69.2754135131836
 20
106.0979995727539
 30
0.0
 11
-72.80177307128906
 21
107.71299743652344
 31
0.0
  0
LINE
  8
0
 62
0
 10
-65.54131317138672
 20
109.61759948730469
 30
0.0
 11
-62.33325958251953
 21
107.96440124511719
 31
0.0
  0
LINE
  8
0
 62
0
 10
-65.80422973632812
 20
104.36750030517578
 30
0.0
 11
-69.2754135131836
 21
106.0979995727539
 31
0.0
  0
LINE
  8
0
 62
0
 10
-62.33325958251953
 20
107.96440124511719
 30
0.0
 11
-62.25014114379883
 21
109.97810363769531
 31
0.0
  0
LINE
  8
0
 62
0
 10
-62.391998291015625
 20
102.52349853515625
 30
0.0
 11
-65.80422973632812
 21
104.36750030517578
 31
0.0
  0
LINE
  8
0
 62
0
 10
-62.25014114379883
 20
109.97810363769531
 30
0.0
 11
-62.13386917114258
 21
111.99009704589844
 31
0.0
  0
LINE
  8
0
 62
0
 10
-62.391780853271484
 20
102.50499725341797
 30
0.0
 11
-62.391998291015625
 21
102.52349853515625
 31
0.0
  0
LINE
  8
0
 62
0
 10
-62.13386917114258
 20
111.99009704589844
 30
0.0
 11
-61.98448944091797
 21
114.0
 31
0.0
  0
LINE
  8
0
 62
0
 10
-65.58261108398438
 20
100.49340057373047
 30
0.0
 11
-62.391780853271484
 21
102.50499725341797
 31
0.0
  0
LINE
  8
0
 62
0
 10
-61.98448944091797
 20
114.0
 30
0.0
 11
-57.1674690246582
 21
114.0
 31
0.0
  0
LINE
  8
0
 62
0
 10
-68.70864868164062
 20
98.38253021240234
 30
0.0
 11
-65.58261108398438
 21
100.49340057373047
 31
0.0
  0
LINE
  8
0
 62
0
 10
-57.38066864013672
 20
111.10209655761719
 30
0.0
 11
-57.1674690246582
 21
114.0
 31
0.0
  0
LINE
  8
0
 62
0
 10
-71.76679229736328
 20
96.1744613647461
 30
0.0
 11
-68.70864868164062
 21
98.38253021240234
 31
0.0
  0
LINE
  8
0
 62
0
 10
-57.52220916748047
 20
108.19979858398438
 30
0.0
 11
-57.38066864013672
 21
111.10209655761719
 31
0.0
  0
LINE
  8
0
 62
0
 10
-74.7540283203125
 20
93.87138366699219
 30
0.0
 11
-71.76679229736328
 21
96.1744613647461
 31
0.0
  0
LINE
  8
0
 62
0
 10
-57.59199905395508
 20
105.2947998046875
 30
0.0
 11
-57.52220916748047
 21
108.19979858398438
 31
0.0
  0
LINE
  8
0
 62
0
 10
-77.66739654541016
 20
91.47554016113281
 30
0.0
 11
-74.7540283203125
 21
93.87138366699219
 31
0.0
  0
LINE
  8
0
 62
0
 10
-57.57600021362305
 20
105.2853012084961
 30
0.0
 11
-57.59199905395508
 21
105.2947998046875
 31
0.0
  0
LINE
  8
0
 62
0
 10
-80.50404357910156
 20
88.98931884765625
 30
0.0
 11
-77.66739654541016
 21
91.47554016113281
 31
0.0
  0
LINE
  8
0
 62
0
 10
-57.57600021362305
 20
105.2853012084961
 30
0.0
 11
-54.34090042114258
 21
106.99099731445312
 31
0.0
  0
LINE
  8
0
 62
0
 10
-77.10549926757812
 20
85.59078216552734
 30
0.0
 11
-80.50404357910156
 21
88.98931884765625
 31
0.0
  0
LINE
  8
0
 62
0
 10
-54.34090042114258
 20
106.99099731445312
 30
0.0
 11
-51.055328369140625
 21
108.59719848632812
 31
0.0
  0
LINE
  8
0
 62
0
 10
-77.10549926757812
 20
85.59078216552734
 30
0.0
 11
-74.27623748779297
 21
88.0572509765625
 31
0.0
  0
LINE
  8
0
 62
0
 10
-51.055328369140625
 20
108.59719848632812
 30
0.0
 11
-47.722328186035156
 21
110.10260009765625
 31
0.0
  0
LINE
  8
0
 62
0
 10
-74.27623748779297
 20
88.0572509765625
 30
0.0
 11
-71.3681411743164
 21
90.43023681640625
 31
0.0
  0
LINE
  8
0
 62
0
 10
-47.722328186035156
 20
110.10260009765625
 30
0.0
 11
-44.34502029418945
 21
111.50569915771484
 31
0.0
  0
LINE
  8
0
 62
0
 10
-71.3681411743164
 20
90.43023681640625
 30
0.0
 11
-68.38426971435547
 21
92.70723724365234
 31
0.0
  0
LINE
  8
0
 62
0
 10
-44.34502029418945
 20
111.50569915771484
 30
0.0
 11
-40.926509857177734
 21
112.8051986694336
 31
0.0
  0
LINE
  8
0
 62
0
 10
-68.38426971435547
 20
92.70723724365234
 30
0.0
 11
-65.32781219482422
 21
94.88581085205078
 31
0.0
  0
LINE
  8
0
 62
0
 10
-40.926509857177734
 20
112.8051986694336
 30
0.0
 11
-37.46998977661133
 21
114.0
 31
0.0
  0
LINE
  8
0
 62
0
 10
-65.32781219482422
 20
94.88581085205078
 30
0.0
 11
-62.201988220214844
 21
96.96366119384766
 31
0.0
  0
LINE
  8
0
 62
0
 10
-37.46998977661133
 20
114.0
 30
0.0
 11
-16.58432960510254
 21
114.0
 31
0.0
  0
LINE
  8
0
 62
0
 10
-62.201988220214844
 20
96.96366119384766
 30
0.0
 11
-61.91387939453125
 21
93.0250473022461
 31
0.0
  0
LINE
  8
0
 62
0
 10
-20.363370895385742
 20
113.38590240478516
 30
0.0
 11
-16.58432960510254
 21
114.0
 31
0.0
  0
LINE
  8
0
 62
0
 10
-61.91387939453125
 20
93.0250473022461
 30
0.0
 11
-61.49885177612305
 21
89.09779357910156
 31
0.0
  0
LINE
  8
0
 62
0
 10
-24.11992073059082
 20
112.64669799804688
 30
0.0
 11
-20.363370895385742
 21
113.38590240478516
 31
0.0
  0
LINE
  8
0
 62
0
 10
-61.49885177612305
 20
89.09779357910156
 30
0.0
 11
-60.95735168457031
 21
85.18595123291016
 31
0.0
  0
LINE
  8
0
 62
0
 10
-27.84981918334961
 20
111.78289794921875
 30
0.0
 11
-24.11992073059082
 21
112.64669799804688
 31
0.0
  0
LINE
  8
0
 62
0
 10
-60.95735168457031
 20
85.18595123291016
 30
0.0
 11
-60.289939880371094
 21
81.29361724853516
 31
0.0
  0
LINE
  8
0
 62
0
 10
-31.548969268798828
 20
110.7957992553711
 30
0.0
 11
-27.84981918334961
 21
111.78289794921875
 31
0.0
  0
LINE
  8
0
 62
0
 10
-60.289939880371094
 20
81.29361724853516
 30
0.0
 11
-59.49729919433594
 21
77.42485046386719
 31
0.0
  0
LINE
  8
0
 62
0
 10
-35.2132682800293
 20
109.68620300292969
 30
0.0
 11
-31.548969268798828
 21
110.7957992553711
 31
0.0
  0
LINE
  8
0
 62
0
 10
-59.49729919433594
 20
77.42485046386719
 30
0.0
 11
-58.58028030395508
 21
73.58365631103516
 31
0.0
  0
LINE
  8
0
 62
0
 10
-38.83866882324219
 20
108.45549774169922
 30
0.0
 11
-35.2132682800293
 21
109.68620300292969
 31
0.0
  0
LINE
  8
0
 62
0
 10
-58.58028030395508
 20
73.58365631103516
 30
0.0
 11
-57.53981018066406
 21
69.77406311035156
 31
0.0
  0
LINE
  8
0
 62
0
 10
-42.421180725097656
 20
107.1050033569336
 30
0.0
 11
-38.83866882324219
 21
108.45549774169922
 31
0.0
  0
LINE
  8
0
 62
0
 10
-57.53981018066406
 20
69.77406311035156
 30
0.0
 11
-56.37697982788086
 21
66.0
 31
0.0
  0
LINE
  8
0
 62
0
 10
-45.95682907104492
 20
105.63619995117188
 30
0.0
 11
-42.421180725097656
 21
107.1050033569336
 31
0.0
  0
LINE
  8
0
 62
0
 10
-54.0
 20
66.0
 30
0.0
 11
-56.37697982788086
 21
66.0
 31
0.0
  0
LINE
  8
0
 62
0
 10
-49.44171905517578
 20
104.05069732666016
 30
0.0
 11
-45.95682907104492
 21
105.63619995117188
 31
0.0
  0
LINE
  8
0
 62
0
 10
-51.98408889770508
 20
68.01590728759766
 30
0.0
 11
-54.0
 21
66.0
 31
0.0
  0
LINE
  8
0
 62
0
 10
-52.87200164794922
 20
102.35030364990234
 30
0.0
 11
-49.44171905517578
 21
104.05069732666016
 31
0.0
  0
LINE
  8
0
 62
0
 10
-51.98408889770508
 20
68.01590728759766
 30
0.0
 11
-53.02439880371094
 21
71.43852233886719
 31
0.0
  0
LINE
  8
0
 62
0
 10
-49.90509033203125
 20
100.3416976928711
 30
0.0
 11
-52.87200164794922
 21
102.35030364990234
 31
0.0
  0
LINE
  8
0
 62
0
 10
-53.02439880371094
 20
71.43852233886719
 30
0.0
 11
-53.96012878417969
 21
74.89118957519531
 31
0.0
  0
LINE
  8
0
 62
0
 10
-46.99822998046875
 20
98.24714660644531
 30
0.0
 11
-49.90509033203125
 21
100.3416976928711
 31
0.0
  0
LINE
  8
0
 62
0
 10
-53.96012878417969
 20
74.89118957519531
 30
0.0
 11
-54.790409088134766
 21
78.37071990966797
 31
0.0
  0
LINE
  8
0
 62
0
 10
-44.1539306640625
 20
96.0683822631836
 30
0.0
 11
-46.99822998046875
 21
98.24714660644531
 31
0.0
  0
LINE
  8
0
 62
0
 10
-54.790409088134766
 20
78.37071990966797
 30
0.0
 11
-55.51448059082031
 21
81.8739013671875
 31
0.0
  0
LINE
  8
0
 62
0
 10
-41.37461853027344
 20
93.80729675292969
 30
0.0
 11
-44.1539306640625
 21
96.0683822631836
 31
0.0
  0
LINE
  8
0
 62
0
 10
-55.51448059082031
 20
81.8739013671875
 30
0.0
 11
-56.13166046142578
 21
85.39747619628906
 31
0.0
  0
LINE
  8
0
 62
0
 10
-38.66267013549805
 20
91.4658432006836
 30
0.0
 11
-41.37461853027344
 21
93.80729675292969
 31
0.0
  0
LINE
  8
0
 62
0
 10
-56.13166046142578
 20
85.39747619628906
 30
0.0
 11
-56.64139175415039
 21
88.93820190429688
 31
0.0
  0
LINE
  8
0
 62
0
 10
-36.02042007446289
 20
89.0459976196289
 30
0.0
 11
-38.66267013549805
 21
91.4658432006836
 31
0.0
  0
LINE
  8
0
 62
0
 10
-56.64139175415039
 20
88.93820190429688
 30
0.0
 11
-57.043190002441406
 21
92.49278259277344
 31
0.0
  0
LINE
  8
0
 62
0
 10
-33.450130462646484
 20
86.54987335205078
 30
0.0
 11
-36.02042007446289
 21
89.0459976196289
 31
0.0
  0
LINE
  8
0
 62
0
 10
-57.043190002441406
 20
92.49278259277344
 30
0.0
 11
-57.336700439453125
 21
96.05793762207031
 31
0.0
  0
LINE
  8
0
 62
0
 10
-36.84423828125
 20
83.15576171875
 30
0.0
 11
-33.450130462646484
 21
86.54987335205078
 31
0.0
  0
LINE
  8
0
 62
0
 10
-57.336700439453125
 20
96.05793762207031
 30
0.0
 11
-57.521629333496094
 21
99.63037872314453
 31
0.0
  0
LINE
  8
0
 62
0
 10
-39.563140869140625
 20
85.78852844238281
 30
0.0
 11
-36.84423828125
 21
83.15576171875
 31
0.0
  0
LINE
  8
0
 62
0
 10
-57.521629333496094
 20
99.63037872314453
 30
0.0
 11
-54.348018646240234
 21
97.56832122802734
 31
0.0
  0
LINE
  8
0
 62
0
 10
-42.36534881591797
 20
88.33245086669922
 30
0.0
 11
-39.563140869140625
 21
85.78852844238281
 31
0.0
  0
LINE
  8
0
 62
0
 10
-54.348018646240234
 20
97.56832122802734
 30
0.0
 11
-51.242408752441406
 21
95.40521240234375
 31
0.0
  0
LINE
  8
0
 62
0
 10
-45.24797058105469
 20
90.78488159179688
 30
0.0
 11
-42.36534881591797
 21
88.33245086669922
 31
0.0
  0
LINE
  8
0
 62
0
 10
-51.242408752441406
 20
95.40521240234375
 30
0.0
 11
-48.208011627197266
 21
93.14328002929688
 31
0.0
  0
LINE
  8
0
 62
0
 10
-48.208011627197266
 20
93.14328002929688
 30
0.0
 11
-45.24797058105469
 21
90.78488159179688
 31
0.0
  0
LINE
  8
0
 62
0
 10
-114.0
 20
16.58432960510254
 30
0.0
 11
-114.0
 21
37.46998977661133
 31
0.0
  0
LINE
  8
0
 62
0
 10
-114.0
 20
16.58432960510254
 30
0.0
 11
-113.39659881591797
 21
20.304040908813477
 31
0.0
  0
LINE
  8
0
 62
0
 10
-114.0
 20
37.46998977661133
 30
0.0
 11
-112.73709869384766
 21
41.11394119262695
 31
0.0
  0
LINE
  8
0
 62
0
 10
-113.39659881591797
 20
20.304040908813477
 30
0.0
 11
-112.67179870605469
 21
24.00201988220215
 31
0.0
  0
LINE
  8
0
 62
0
 10
-112.73709869384766
 20
41.11394119262695
 30
0.0
 11
-111.35769653320312
 21
44.71541976928711
 31
0.0
  0
LINE
  8
0
 62
0
 10
-112.67179870605469
 20
24.00201988220215
 30
0.0
 11
-111.82649993896484
 21
27.674320220947266
 31
0.0
  0
LINE
  8
0
 62
0
 10
-111.35769653320312
 20
44.71541976928711
 30
0.0
 11
-109.86329650878906
 21
48.270721435546875
 31
0.0
  0
LINE
  8
0
 62
0
 10
-111.82649993896484
 20
27.674320220947266
 30
0.0
 11
-110.86160278320312
 21
31.316999435424805
 31
0.0
  0
LINE
  8
0
 62
0
 10
-109.86329650878906
 20
48.270721435546875
 30
0.0
 11
-108.25540161132812
 21
51.77616882324219
 31
0.0
  0
LINE
  8
0
 62
0
 10
-110.86160278320312
 20
31.316999435424805
 30
0.0
 11
-109.77799987792969
 21
34.92618179321289
 31
0.0
  0
LINE
  8
0
 62
0
 10
-108.25540161132812
 20
51.77616882324219
 30
0.0
 11
-106.53569793701172
 21
55.22813034057617
 31
0.0
  0
LINE
  8
0
 62
0
 10
-109.77799987792969
 20
34.92618179321289
 30
0.0
 11
-108.57689666748047
 21
38.49797821044922
 31
0.0
  0
LINE
  8
0
 62
0
 10
-106.53569793701172
 20
55.22813034057617
 30
0.0
 11
-104.70600128173828
 21
58.623050689697266
 31
0.0
  0
LINE
  8
0
 62
0
 10
-108.57689666748047
 20
38.49797821044922
 30
0.0
 11
-107.25969696044922
 21
42.02859115600586
 31
0.0
  0
LINE
  8
0
 62
0
 10
-104.70600128173828
 20
58.623050689697266
 30
0.0
 11
-102.76809692382812
 21
61.957420349121094
 31
0.0
  0
LINE
  8
0
 62
0
 10
-107.25969696044922
 20
42.02859115600586
 30
0.0
 11
-105.82769775390625
 21
45.51422882080078
 31
0.0
  0
LINE
  8
0
 62
0
 10
-102.76809692382812
 20
61.957420349121094
 30
0.0
 11
-100.7240982055664
 21
65.22779846191406
 31
0.0
  0
LINE
  8
0
 62
0
 10
-105.82769775390625
 20
45.51422882080078
 30
0.0
 11
-104.28240203857422
 21
48.951171875
 31
0.0
  0
LINE
  8
0
 62
0
 10
-100.7240982055664
 20
65.22779846191406
 30
0.0
 11
-98.57598876953125
 21
68.43080139160156
 31
0.0
  0
LINE
  8
0
 62
0
 10
-104.28240203857422
 20
48.951171875
 30
0.0
 11
-102.62560272216797
 21
52.335731506347656
 31
0.0
  0
LINE
  8
0
 62
0
 10
-98.57598876953125
 20
68.43080139160156
 30
0.0
 11
-96.32611083984375
 21
71.56311798095703
 31
0.0
  0
LINE
  8
0
 62
0
 10
-102.62560272216797
 20
52.335731506347656
 30
0.0
 11
-100.85890197753906
 21
55.66429138183594
 31
0.0
  0
LINE
  8
0
 62
0
 10
-96.32611083984375
 20
71.56311798095703
 30
0.0
 11
-93.97673797607422
 21
74.62152862548828
 31
0.0
  0
LINE
  8
0
 62
0
 10
-100.85890197753906
 20
55.66429138183594
 30
0.0
 11
-98.98438262939453
 21
58.93328094482422
 31
0.0
  0
LINE
  8
0
 62
0
 10
-93.97673797607422
 20
74.62152862548828
 30
0.0
 11
-91.5302963256836
 21
77.60285949707031
 31
0.0
  0
LINE
  8
0
 62
0
 10
-98.98438262939453
 20
58.93328094482422
 30
0.0
 11
-97.00389862060547
 21
62.13922119140625
 31
0.0
  0
LINE
  8
0
 62
0
 10
-91.5302963256836
 20
77.60285949707031
 30
0.0
 11
-88.98931884765625
 21
80.50404357910156
 31
0.0
  0
LINE
  8
0
 62
0
 10
-97.00389862060547
 20
62.13922119140625
 30
0.0
 11
-94.91963195800781
 21
65.2786636352539
 31
0.0
  0
LINE
  8
0
 62
0
 10
-88.98931884765625
 20
80.50404357910156
 30
0.0
 11
-85.59078216552734
 21
77.10549926757812
 31
0.0
  0
LINE
  8
0
 62
0
 10
-94.91963195800781
 20
65.2786636352539
 30
0.0
 11
-92.7337875366211
 21
68.34825897216797
 31
0.0
  0
LINE
  8
0
 62
0
 10
-88.0668716430664
 20
74.26483917236328
 30
0.0
 11
-85.59078216552734
 21
77.10549926757812
 31
0.0
  0
LINE
  8
0
 62
0
 10
-92.7337875366211
 20
68.34825897216797
 30
0.0
 11
-90.44872283935547
 21
71.34471893310547
 31
0.0
  0
LINE
  8
0
 62
0
 10
-90.44872283935547
 20
71.34471893310547
 30
0.0
 11
-88.0668716430664
 21
74.26483917236328
 31
0.0
  0
CIRCLE
  8
0
 62
0
 10
1.885485142947619e-16
 20
-9.615974229032858e-16
 30
0.0
 40
14.99433568824998
  0
ENDBLK
  0
ENDSEC
  0
SECTION
  2
ENTITIES
  0
INSERT
  2
FACEFEAT
  8
0
 62
0
 10
0.0
 20
0.0
 30
0.0
  0
ENDSEC
  0
EOF
