  0
SECTION
  2
HEADER
  9
$ACADVER
  1
AC1009
  9
$INSBASE
 10
0.0
 20
0.0
 30
0.0
  9
$EXTMIN
 10
0.0
 20
0.0
 30
0.0
  9
$EXTMAX
 10
0.0
 20
0.0
 30
0.0
  0
ENDSEC
  0
SECTION
  2
TABLES
  0
TABLE
  2
VPORT
 70
0
  0
ENDTAB
  0
TABLE
  2
LTYPE
 70
1
  0
LTYPE
  2
CONTINUOUS
 70
0
  3
Solid line
 72
65
 73
0
 40
0.0
  0
ENDTAB
  0
TABLE
  2
LAYER
 70
1
  0
LAYER
  2
0
 70
64
 62
7
  6
continuous
  0
ENDTAB
  0
TABLE
  2
STYLE
 70
1
  0
STYLE
  2
STANDARD
 70
0
 40
0
 41
1.0
 50
0.0
 71
0
 42
1
 3
ARIAL.TTF
 4

  0
ENDTAB
  0
TABLE
  2
VIEW
 70
0
  0
ENDTAB
  0
ENDSEC
  0
SECTION
  2
BLOCKS
  0
BLOCK
  8
0
  2
FACEFEAT
 70
0
 10
0.0
 20
0.0
 30
0.0
  3
FACEFEAT
  0
LINE
  8
0
 62
0
 10
-89.99861907958984
 20
-3.3954930305480957
 30
0.0
 11
-93.45523834228516
 21
-2.312485456466675
 31
0.0
  0
LINE
  8
0
 62
0
 10
-62.400001525878906
 20
-30.994112014770508
 30
0.0
 11
-89.99861907958984
 21
-3.3954930305480957
 31
0.0
  0
LINE
  8
0
 62
0
 10
-120.0
 20
120.0
 30
0.0
 11
-120.0
 21
-120.0
 31
0.0
  0
LINE
  8
0
 62
0
 10
120.0
 20
120.0
 30
0.0
 11
-120.0
 21
120.0
 31
0.0
  0
LINE
  8
0
 62
0
 10
-120.0
 20
-120.0
 30
0.0
 11
120.0
 21
-120.0
 31
0.0
  0
LINE
  8
0
 62
0
 10
120.0
 20
-120.0
 30
0.0
 11
120.0
 21
120.0
 31
0.0
  0
LINE
  8
0
 62
0
 10
62.400001525878906
 20
54.20588684082031
 30
0.0
 11
62.400001525878906
 21
30.994112014770508
 31
0.0
  0
LINE
  8
0
 62
0
 10
116.60588836669922
 20
-3.4231877298469783e-15
 30
0.0
 11
62.400001525878906
 21
54.20588684082031
 31
0.0
  0
LINE
  8
0
 62
0
 10
62.400001525878906
 20
30.994112014770508
 30
0.0
 11
89.99861907958984
 21
3.3954930305480957
 31
0.0
  0
LINE
  8
0
 62
0
 10
62.400001525878906
 20
-54.20588684082031
 30
0.0
 11
116.60588836669922
 21
0.0
 31
0.0
  0
LINE
  8
0
 62
0
 10
89.99861907958984
 20
3.3954930305480957
 30
0.0
 11
93.45523834228516
 21
2.312485456466675
 31
0.0
  0
LINE
  8
0
 62
0
 10
62.400001525878906
 20
-30.994112014770508
 30
0.0
 11
62.400001525878906
 21
-54.20588684082031
 31
0.0
  0
LINE
  8
0
 62
0
 10
93.45523834228516
 20
2.312485456466675
 30
0.0
 11
96.2115249633789
 21
1.5619791746139526
 31
0.0
  0
LINE
  8
0
 62
0
 10
89.99861907958984
 20
-3.3954930305480957
 30
0.0
 11
62.400001525878906
 21
-30.994112014770508
 31
0.0
  0
LINE
  8
0
 62
0
 10
96.2115249633789
 20
1.5619791746139526
 30
0.0
 11
98.19966125488281
 21
1.0891443490982056
 31
0.0
  0
LINE
  8
0
 62
0
 10
93.73612976074219
 20
-2.2305338382720947
 30
0.0
 11
89.99861907958984
 21
-3.3954930305480957
 31
0.0
  0
LINE
  8
0
 62
0
 10
98.19966125488281
 20
1.0891443490982056
 30
0.0
 11
99.77033996582031
 21
0.7586551308631897
 31
0.0
  0
LINE
  8
0
 62
0
 10
95.23234558105469
 20
-1.8150726556777954
 30
0.0
 11
93.73612976074219
 21
-2.2305338382720947
 31
0.0
  0
LINE
  8
0
 62
0
 10
99.77033996582031
 20
0.7586551308631897
 30
0.0
 11
102.9374008178711
 21
0.2326454073190689
 31
0.0
  0
LINE
  8
0
 62
0
 10
96.44295501708984
 20
-1.5023380517959595
 30
0.0
 11
95.23234558105469
 21
-1.8150726556777954
 31
0.0
  0
LINE
  8
0
 62
0
 10
102.9374008178711
 20
0.2326454073190689
 30
0.0
 11
104.53018188476562
 21
0.05418280884623525
 31
0.0
  0
LINE
  8
0
 62
0
 10
97.33735656738281
 20
-1.2860240936279297
 30
0.0
 11
96.44295501708984
 21
-1.5023380517959595
 31
0.0
  0
LINE
  8
0
 62
0
 10
104.53018188476562
 20
0.054182808846235275
 30
0.0
 11
105.30530548095703
 21
0.009624314494431019
 31
0.0
  0
LINE
  8
0
 62
0
 10
97.96088409423828
 20
-1.1427103281021118
 30
0.0
 11
97.33735656738281
 21
-1.2860240936279297
 31
0.0
  0
LINE
  8
0
 62
0
 10
105.30530548095703
 20
0.009624314494431019
 30
0.0
 11
105.4863510131836
 21
0.0042356569319963455
 31
0.0
  0
LINE
  8
0
 62
0
 10
98.9865951538086
 20
-0.9193729162216187
 30
0.0
 11
97.96088409423828
 21
-1.1427103281021118
 31
0.0
  0
LINE
  8
0
 62
0
 10
105.4863510131836
 20
0.0042356569319963455
 30
0.0
 11
105.56484985351562
 21
0.0020009155850857496
 31
0.0
  0
LINE
  8
0
 62
0
 10
100.81172943115234
 20
-0.5642258524894714
 30
0.0
 11
98.9865951538086
 21
-0.9193729162216187
 31
0.0
  0
LINE
  8
0
 62
0
 10
105.56484985351562
 20
0.0020009155850857496
 30
0.0
 11
105.58685302734375
 21
0.0011712642153725028
 31
0.0
  0
LINE
  8
0
 62
0
 10
102.3354263305664
 20
-0.315406858921051
 30
0.0
 11
100.81172943115234
 21
-0.5642258524894714
 31
0.0
  0
LINE
  8
0
 62
0
 10
105.58685302734375
 20
0.0011712642153725028
 30
0.0
 11
105.59969329833984
 21
0.00017389307322446257
 31
0.0
  0
LINE
  8
0
 62
0
 10
103.55803680419922
 20
-0.15406538546085358
 30
0.0
 11
102.3354263305664
 21
-0.315406858921051
 31
0.0
  0
LINE
  8
0
 62
0
 10
105.59969329833984
 20
0.00017389307322446257
 30
0.0
 11
105.59255981445312
 21
-0.0008703419007360937
 31
0.0
  0
LINE
  8
0
 62
0
 10
104.47990417480469
 20
-0.061350852251052856
 30
0.0
 11
103.55803680419922
 21
-0.15406538546085358
 31
0.0
  0
LINE
  8
0
 62
0
 10
105.59255981445312
 20
-0.0008703419007360935
 30
0.0
 11
105.43666076660156
 21
-0.005582249257713557
 31
0.0
  0
LINE
  8
0
 62
0
 10
105.10137176513672
 20
-0.018412675708532333
 30
0.0
 11
104.47990417480469
 21
-0.061350852251052856
 31
0.0
  0
LINE
  8
0
 62
0
 10
105.43666076660156
 20
-0.005582249257713556
 30
0.0
 11
105.10137176513672
 21
-0.018412675708532333
 31
0.0
  0
LINE
  8
0
 62
0
 10
62.400001525878906
 20
-16.990875244140625
 30
0.0
 11
62.400001525878906
 21
-25.902944564819336
 31
0.0
  0
LINE
  8
0
 62
0
 10
71.86013793945312
 20
-11.371334075927734
 30
0.0
 11
62.400001525878906
 21
-16.990875244140625
 31
0.0
  0
LINE
  8
0
 62
0
 10
81.73249053955078
 20
-6.570455551147461
 30
0.0
 11
62.400001525878906
 21
-25.902944564819336
 31
0.0
  0
LINE
  8
0
 62
0
 10
81.73249053955078
 20
-6.570455551147461
 30
0.0
 11
71.86013793945312
 21
-11.371334075927734
 31
0.0
  0
LINE
  8
0
 62
0
 10
62.400001525878906
 20
25.902944564819336
 30
0.0
 11
62.400001525878906
 21
16.990875244140625
 31
0.0
  0
LINE
  8
0
 62
0
 10
62.400001525878906
 20
25.902944564819336
 30
0.0
 11
81.73249053955078
 21
6.570455551147461
 31
0.0
  0
LINE
  8
0
 62
0
 10
62.400001525878906
 20
16.990875244140625
 30
0.0
 11
71.86013793945312
 21
11.371334075927734
 31
0.0
  0
LINE
  8
0
 62
0
 10
71.86013793945312
 20
11.371334075927734
 30
0.0
 11
81.73249053955078
 21
6.570455551147461
 31
0.0
  0
LINE
  8
0
 62
0
 10
117.5999984741211
 20
2.4000000953674316
 30
0.0
 11
62.400001525878906
 21
57.599998474121094
 31
0.0
  0
LINE
  8
0
 62
0
 10
117.5999984741211
 20
114.20588684082031
 30
0.0
 11
117.5999984741211
 21
2.4000000953674316
 31
0.0
  0
LINE
  8
0
 62
0
 10
62.400001525878906
 20
59.00588607788086
 30
0.0
 11
62.400001525878906
 21
57.599998474121094
 31
0.0
  0
LINE
  8
0
 62
0
 10
117.5999984741211
 20
114.20588684082031
 30
0.0
 11
62.400001525878906
 21
59.00588607788086
 31
0.0
  0
LINE
  8
0
 62
0
 10
114.20588684082031
 20
117.5999984741211
 30
0.0
 11
2.4000000953674316
 21
117.5999984741211
 31
0.0
  0
LINE
  8
0
 62
0
 10
59.00588607788086
 20
62.400001525878906
 30
0.0
 11
114.20588684082031
 21
117.5999984741211
 31
0.0
  0
LINE
  8
0
 62
0
 10
57.599998474121094
 20
62.400001525878906
 30
0.0
 11
2.4000000953674316
 21
117.5999984741211
 31
0.0
  0
LINE
  8
0
 62
0
 10
57.599998474121094
 20
62.400001525878906
 30
0.0
 11
59.00588607788086
 21
62.400001525878906
 31
0.0
  0
LINE
  8
0
 62
0
 10
-54.20588684082031
 20
62.400001525878906
 30
0.0
 11
-30.994112014770508
 21
62.400001525878906
 31
0.0
  0
LINE
  8
0
 62
0
 10
3.3306690738754696e-15
 20
116.60588836669922
 30
0.0
 11
-54.20588684082031
 21
62.400001525878906
 31
0.0
  0
LINE
  8
0
 62
0
 10
-30.994112014770508
 20
62.400001525878906
 30
0.0
 11
-3.3954930305480957
 21
89.99861907958984
 31
0.0
  0
LINE
  8
0
 62
0
 10
54.20588684082031
 20
62.400001525878906
 30
0.0
 11
0.0
 21
116.60588836669922
 31
0.0
  0
LINE
  8
0
 62
0
 10
-2.312485456466675
 20
93.45523834228516
 30
0.0
 11
-3.3954930305480957
 21
89.99861907958984
 31
0.0
  0
LINE
  8
0
 62
0
 10
30.994112014770508
 20
62.400001525878906
 30
0.0
 11
54.20588684082031
 21
62.400001525878906
 31
0.0
  0
LINE
  8
0
 62
0
 10
-1.561979055404663
 20
96.2115249633789
 30
0.0
 11
-2.312485456466675
 21
93.45523834228516
 31
0.0
  0
LINE
  8
0
 62
0
 10
3.3954930305480957
 20
89.99861907958984
 30
0.0
 11
30.994112014770508
 21
62.400001525878906
 31
0.0
  0
LINE
  8
0
 62
0
 10
-1.0891443490982056
 20
98.19966125488281
 30
0.0
 11
-1.561979055404663
 21
96.2115249633789
 31
0.0
  0
LINE
  8
0
 62
0
 10
3.3954930305480957
 20
89.99861907958984
 30
0.0
 11
2.230534076690674
 21
93.73612976074219
 31
0.0
  0
LINE
  8
0
 62
0
 10
-0.7586551308631897
 20
99.77033996582031
 30
0.0
 11
-1.0891443490982056
 21
98.19966125488281
 31
0.0
  0
LINE
  8
0
 62
0
 10
2.230534076690674
 20
93.73612976074219
 30
0.0
 11
1.8150731325149536
 21
95.23234558105469
 31
0.0
  0
LINE
  8
0
 62
0
 10
-0.23264539241790771
 20
102.9374008178711
 30
0.0
 11
-0.7586551308631897
 21
99.77033996582031
 31
0.0
  0
LINE
  8
0
 62
0
 10
1.8150731325149536
 20
95.23234558105469
 30
0.0
 11
1.5023385286331177
 21
96.44295501708984
 31
0.0
  0
LINE
  8
0
 62
0
 10
-0.05418279394507408
 20
104.53018188476562
 30
0.0
 11
-0.23264539241790774
 21
102.9374008178711
 31
0.0
  0
LINE
  8
0
 62
0
 10
1.5023385286331177
 20
96.44295501708984
 30
0.0
 11
1.286024570465088
 21
97.33735656738281
 31
0.0
  0
LINE
  8
0
 62
0
 10
-0.009624307975172997
 20
105.30530548095703
 30
0.0
 11
-0.05418279394507408
 21
104.53018188476562
 31
0.0
  0
LINE
  8
0
 62
0
 10
1.286024570465088
 20
97.33735656738281
 30
0.0
 11
1.1427106857299805
 21
97.96088409423828
 31
0.0
  0
LINE
  8
0
 62
0
 10
-0.004235655069351196
 20
105.48635864257812
 30
0.0
 11
-0.009624307975172997
 21
105.30530548095703
 31
0.0
  0
LINE
  8
0
 62
0
 10
1.1427106857299805
 20
97.96088409423828
 30
0.0
 11
0.9193733334541321
 21
98.9865951538086
 31
0.0
  0
LINE
  8
0
 62
0
 10
-0.002000909298658371
 20
105.56484985351562
 30
0.0
 11
-0.004235655069351196
 21
105.48635864257812
 31
0.0
  0
LINE
  8
0
 62
0
 10
0.9193733334541321
 20
98.9865951538086
 30
0.0
 11
0.5642262697219849
 21
100.81172943115234
 31
0.0
  0
LINE
  8
0
 62
0
 10
-0.001171256648376584
 20
105.58685302734375
 30
0.0
 11
-0.002000909298658371
 21
105.56484985351562
 31
0.0
  0
LINE
  8
0
 62
0
 10
0.5642262697219849
 20
100.81172943115234
 30
0.0
 11
0.3154072165489197
 21
102.3354263305664
 31
0.0
  0
LINE
  8
0
 62
0
 10
-0.00017384940292686224
 20
105.59969329833984
 30
0.0
 11
-0.0011712566483765843
 21
105.58685302734375
 31
0.0
  0
LINE
  8
0
 62
0
 10
0.3154072165489197
 20
102.3354263305664
 30
0.0
 11
0.15406566858291626
 21
103.55802917480469
 31
0.0
  0
LINE
  8
0
 62
0
 10
0.0008703547646291554
 20
105.59255981445312
 30
0.0
 11
-0.00017384940292686224
 21
105.59969329833984
 31
0.0
  0
LINE
  8
0
 62
0
 10
0.15406566858291626
 20
103.55802917480469
 30
0.0
 11
0.06135101988911629
 21
104.47989654541016
 31
0.0
  0
LINE
  8
0
 62
0
 10
0.005582271609455347
 20
105.43666076660156
 30
0.0
 11
0.0008703547646291554
 21
105.59255981445312
 31
0.0
  0
LINE
  8
0
 62
0
 10
0.06135101988911629
 20
104.47989654541016
 30
0.0
 11
0.018412750214338303
 21
105.10137176513672
 31
0.0
  0
LINE
  8
0
 62
0
 10
0.018412750214338303
 20
105.10137176513672
 30
0.0
 11
0.005582271609455347
 21
105.43666076660156
 31
0.0
  0
LINE
  8
0
 62
0
 10
20.238954544067383
 20
57.599998474121094
 30
0.0
 11
24.18022346496582
 21
52.267581939697266
 31
0.0
  0
LINE
  8
0
 62
0
 10
20.238954544067383
 20
57.599998474121094
 30
0.0
 11
30.702943801879883
 21
57.599998474121094
 31
0.0
  0
LINE
  8
0
 62
0
 10
24.18022346496582
 20
52.267581939697266
 30
0.0
 11
28.35483169555664
 21
47.10337448120117
 31
0.0
  0
LINE
  8
0
 62
0
 10
30.702943801879883
 20
57.599998474121094
 30
0.0
 11
57.599998474121094
 21
30.70294380187988
 31
0.0
  0
LINE
  8
0
 62
0
 10
28.35483169555664
 20
47.10337448120117
 30
0.0
 11
32.745574951171875
 21
42.12128448486328
 31
0.0
  0
LINE
  8
0
 62
0
 10
57.599998474121094
 20
30.702943801879883
 30
0.0
 11
57.599998474121094
 21
20.238954544067383
 31
0.0
  0
LINE
  8
0
 62
0
 10
32.745574951171875
 20
42.12128448486328
 30
0.0
 11
37.33523941040039
 21
37.33523941040039
 31
0.0
  0
LINE
  8
0
 62
0
 10
52.267581939697266
 20
24.18022346496582
 30
0.0
 11
57.599998474121094
 21
20.238954544067383
 31
0.0
  0
LINE
  8
0
 62
0
 10
37.33523941040039
 20
37.33523941040039
 30
0.0
 11
42.12128448486328
 21
32.745574951171875
 31
0.0
  0
LINE
  8
0
 62
0
 10
47.103370666503906
 20
28.35483169555664
 30
0.0
 11
52.267581939697266
 21
24.18022346496582
 31
0.0
  0
LINE
  8
0
 62
0
 10
42.12128448486328
 20
32.745574951171875
 30
0.0
 11
47.103370666503906
 21
28.35483169555664
 31
0.0
  0
LINE
  8
0
 62
0
 10
35.79411315917969
 20
57.599998474121094
 30
0.0
 11
57.599998474121094
 21
35.79411315917969
 31
0.0
  0
LINE
  8
0
 62
0
 10
35.79411315917969
 20
57.599998474121094
 30
0.0
 11
57.599998474121094
 21
57.599998474121094
 31
0.0
  0
LINE
  8
0
 62
0
 10
57.599998474121094
 20
57.599998474121094
 30
0.0
 11
57.599998474121094
 21
35.79411315917969
 31
0.0
  0
LINE
  8
0
 62
0
 10
57.599998474121094
 20
-20.238954544067383
 30
0.0
 11
52.267581939697266
 21
-24.18022346496582
 31
0.0
  0
LINE
  8
0
 62
0
 10
57.599998474121094
 20
-20.238954544067383
 30
0.0
 11
57.599998474121094
 21
-30.702943801879883
 31
0.0
  0
LINE
  8
0
 62
0
 10
52.267581939697266
 20
-24.18022346496582
 30
0.0
 11
47.10337448120117
 21
-28.35483169555664
 31
0.0
  0
LINE
  8
0
 62
0
 10
57.599998474121094
 20
-30.702943801879883
 30
0.0
 11
30.70294380187988
 21
-57.599998474121094
 31
0.0
  0
LINE
  8
0
 62
0
 10
47.10337448120117
 20
-28.35483169555664
 30
0.0
 11
42.12128448486328
 21
-32.745574951171875
 31
0.0
  0
LINE
  8
0
 62
0
 10
30.702943801879883
 20
-57.599998474121094
 30
0.0
 11
20.238954544067383
 21
-57.599998474121094
 31
0.0
  0
LINE
  8
0
 62
0
 10
42.12128448486328
 20
-32.745574951171875
 30
0.0
 11
37.33523941040039
 21
-37.33523941040039
 31
0.0
  0
LINE
  8
0
 62
0
 10
24.18022346496582
 20
-52.267581939697266
 30
0.0
 11
20.238954544067383
 21
-57.599998474121094
 31
0.0
  0
LINE
  8
0
 62
0
 10
37.33523941040039
 20
-37.33523941040039
 30
0.0
 11
32.745574951171875
 21
-42.12128448486328
 31
0.0
  0
LINE
  8
0
 62
0
 10
28.35483169555664
 20
-47.103370666503906
 30
0.0
 11
24.18022346496582
 21
-52.267581939697266
 31
0.0
  0
LINE
  8
0
 62
0
 10
32.745574951171875
 20
-42.12128448486328
 30
0.0
 11
28.35483169555664
 21
-47.103370666503906
 31
0.0
  0
LINE
  8
0
 62
0
 10
59.00588607788086
 20
-62.400001525878906
 30
0.0
 11
57.599998474121094
 21
-62.400001525878906
 31
0.0
  0
LINE
  8
0
 62
0
 10
114.20588684082031
 20
-117.5999984741211
 30
0.0
 11
59.00588607788086
 21
-62.400001525878906
 31
0.0
  0
LINE
  8
0
 62
0
 10
2.4000000953674316
 20
-117.5999984741211
 30
0.0
 11
57.599998474121094
 21
-62.400001525878906
 31
0.0
  0
LINE
  8
0
 62
0
 10
114.20588684082031
 20
-117.5999984741211
 30
0.0
 11
2.4000000953674316
 21
-117.5999984741211
 31
0.0
  0
LINE
  8
0
 62
0
 10
57.599998474121094
 20
-35.79411315917969
 30
0.0
 11
35.79411315917969
 21
-57.599998474121094
 31
0.0
  0
LINE
  8
0
 62
0
 10
57.599998474121094
 20
-35.79411315917969
 30
0.0
 11
57.599998474121094
 21
-57.599998474121094
 31
0.0
  0
LINE
  8
0
 62
0
 10
57.599998474121094
 20
-57.599998474121094
 30
0.0
 11
35.79411315917969
 21
-57.599998474121094
 31
0.0
  0
LINE
  8
0
 62
0
 10
62.400001525878906
 20
-57.599998474121094
 30
0.0
 11
117.5999984741211
 21
-2.4000000953674316
 31
0.0
  0
LINE
  8
0
 62
0
 10
62.400001525878906
 20
-57.599998474121094
 30
0.0
 11
62.400001525878906
 21
-59.00588607788086
 31
0.0
  0
LINE
  8
0
 62
0
 10
117.5999984741211
 20
-2.4000000953674316
 30
0.0
 11
117.5999984741211
 21
-114.20588684082031
 31
0.0
  0
LINE
  8
0
 62
0
 10
62.400001525878906
 20
-59.00588607788086
 30
0.0
 11
117.5999984741211
 21
-114.20588684082031
 31
0.0
  0
LINE
  8
0
 62
0
 10
54.20588684082031
 20
-62.400001525878906
 30
0.0
 11
30.994112014770508
 21
-62.400001525878906
 31
0.0
  0
LINE
  8
0
 62
0
 10
-3.3306690738754696e-15
 20
-116.60588836669922
 30
0.0
 11
54.20588684082031
 21
-62.400001525878906
 31
0.0
  0
LINE
  8
0
 62
0
 10
30.994112014770508
 20
-62.400001525878906
 30
0.0
 11
3.3954930305480957
 21
-89.99861907958984
 31
0.0
  0
LINE
  8
0
 62
0
 10
-54.20588684082031
 20
-62.400001525878906
 30
0.0
 11
0.0
 21
-116.60588836669922
 31
0.0
  0
LINE
  8
0
 62
0
 10
2.312485456466675
 20
-93.45523834228516
 30
0.0
 11
3.3954930305480957
 21
-89.99861907958984
 31
0.0
  0
LINE
  8
0
 62
0
 10
-30.994112014770508
 20
-62.400001525878906
 30
0.0
 11
-54.20588684082031
 21
-62.400001525878906
 31
0.0
  0
LINE
  8
0
 62
0
 10
1.561979055404663
 20
-96.2115249633789
 30
0.0
 11
2.312485456466675
 21
-93.45523834228516
 31
0.0
  0
LINE
  8
0
 62
0
 10
-3.3954930305480957
 20
-89.99861907958984
 30
0.0
 11
-30.994112014770508
 21
-62.400001525878906
 31
0.0
  0
LINE
  8
0
 62
0
 10
1.0891443490982056
 20
-98.19966125488281
 30
0.0
 11
1.561979055404663
 21
-96.2115249633789
 31
0.0
  0
LINE
  8
0
 62
0
 10
-3.3954930305480957
 20
-89.99861907958984
 30
0.0
 11
-2.230534076690674
 21
-93.73612976074219
 31
0.0
  0
LINE
  8
0
 62
0
 10
0.7586551308631897
 20
-99.77033996582031
 30
0.0
 11
1.0891443490982056
 21
-98.19966125488281
 31
0.0
  0
LINE
  8
0
 62
0
 10
-2.230534076690674
 20
-93.73612976074219
 30
0.0
 11
-1.815073013305664
 21
-95.23234558105469
 31
0.0
  0
LINE
  8
0
 62
0
 10
0.23264539241790771
 20
-102.9374008178711
 30
0.0
 11
0.7586551308631897
 21
-99.77033996582031
 31
0.0
  0
LINE
  8
0
 62
0
 10
-1.815073013305664
 20
-95.23234558105469
 30
0.0
 11
-1.5023382902145386
 21
-96.44295501708984
 31
0.0
  0
LINE
  8
0
 62
0
 10
0.05418279767036438
 20
-104.53018188476562
 30
0.0
 11
0.23264539241790771
 21
-102.9374008178711
 31
0.0
  0
LINE
  8
0
 62
0
 10
-1.5023382902145386
 20
-96.44295501708984
 30
0.0
 11
-1.2860244512557983
 21
-97.33735656738281
 31
0.0
  0
LINE
  8
0
 62
0
 10
0.009624309837818146
 20
-105.30530548095703
 30
0.0
 11
0.05418279767036438
 21
-104.53018188476562
 31
0.0
  0
LINE
  8
0
 62
0
 10
-1.2860244512557983
 20
-97.33735656738281
 30
0.0
 11
-1.142710566520691
 21
-97.96088409423828
 31
0.0
  0
LINE
  8
0
 62
0
 10
0.004235655535012484
 20
-105.48635864257812
 30
0.0
 11
0.009624309837818146
 21
-105.30530548095703
 31
0.0
  0
LINE
  8
0
 62
0
 10
-1.142710566520691
 20
-97.96088409423828
 30
0.0
 11
-0.9193732142448425
 21
-98.9865951538086
 31
0.0
  0
LINE
  8
0
 62
0
 10
0.002000911394134164
 20
-105.56484985351562
 30
0.0
 11
0.004235655535012484
 21
-105.48635864257812
 31
0.0
  0
LINE
  8
0
 62
0
 10
-0.9193732142448425
 20
-98.9865951538086
 30
0.0
 11
-0.5642261505126953
 21
-100.81172943115234
 31
0.0
  0
LINE
  8
0
 62
0
 10
0.0011712590930983424
 20
-105.58685302734375
 30
0.0
 11
0.002000911394134164
 21
-105.56484985351562
 31
0.0
  0
LINE
  8
0
 62
0
 10
-0.5642261505126953
 20
-100.81172943115234
 30
0.0
 11
-0.31540712714195246
 21
-102.3354263305664
 31
0.0
  0
LINE
  8
0
 62
0
 10
0.0001738636929076165
 20
-105.59969329833984
 30
0.0
 11
0.0011712590930983426
 21
-105.58685302734375
 31
0.0
  0
LINE
  8
0
 62
0
 10
-0.3154071271419525
 20
-102.3354263305664
 30
0.0
 11
-0.1540655791759491
 21
-103.55802917480469
 31
0.0
  0
LINE
  8
0
 62
0
 10
-0.0008703505736775696
 20
-105.59255981445312
 30
0.0
 11
0.0001738636929076167
 21
-105.59969329833984
 31
0.0
  0
LINE
  8
0
 62
0
 10
-0.1540655791759491
 20
-103.55802917480469
 30
0.0
 11
-0.06135097146034241
 21
-104.47989654541016
 31
0.0
  0
LINE
  8
0
 62
0
 10
-0.0055822646245360374
 20
-105.43666076660156
 30
0.0
 11
-0.0008703505736775696
 21
-105.59255981445312
 31
0.0
  0
LINE
  8
0
 62
0
 10
-0.06135097146034241
 20
-104.47989654541016
 30
0.0
 11
-0.018412727862596505
 21
-105.10137176513672
 31
0.0
  0
LINE
  8
0
 62
0
 10
-0.018412727862596512
 20
-105.10137176513672
 30
0.0
 11
-0.0055822646245360374
 21
-105.43666076660156
 31
0.0
  0
LINE
  8
0
 62
0
 10
-114.20588684082031
 20
117.5999984741211
 30
0.0
 11
-59.00588607788086
 21
62.400001525878906
 31
0.0
  0
LINE
  8
0
 62
0
 10
-114.20588684082031
 20
117.5999984741211
 30
0.0
 11
-2.4000000953674316
 21
117.5999984741211
 31
0.0
  0
LINE
  8
0
 62
0
 10
-59.00588607788086
 20
62.400001525878906
 30
0.0
 11
-57.599998474121094
 21
62.400001525878906
 31
0.0
  0
LINE
  8
0
 62
0
 10
-2.4000000953674316
 20
117.5999984741211
 30
0.0
 11
-57.599998474121094
 21
62.400001525878906
 31
0.0
  0
LINE
  8
0
 62
0
 10
-62.400001525878906
 20
57.599998474121094
 30
0.0
 11
-117.5999984741211
 21
2.4000000953674316
 31
0.0
  0
LINE
  8
0
 62
0
 10
-62.400001525878906
 20
57.599998474121094
 30
0.0
 11
-62.400001525878906
 21
59.00588607788086
 31
0.0
  0
LINE
  8
0
 62
0
 10
-117.5999984741211
 20
2.4000000953674316
 30
0.0
 11
-117.5999984741211
 21
114.20588684082031
 31
0.0
  0
LINE
  8
0
 62
0
 10
-62.400001525878906
 20
59.00588607788086
 30
0.0
 11
-117.5999984741211
 21
114.20588684082031
 31
0.0
  0
LINE
  8
0
 62
0
 10
-93.45523834228516
 20
-2.312485456466675
 30
0.0
 11
-96.2115249633789
 21
-1.561979055404663
 31
0.0
  0
LINE
  8
0
 62
0
 10
-62.400001525878906
 20
-54.20588684082031
 30
0.0
 11
-62.400001525878906
 21
-30.994112014770508
 31
0.0
  0
LINE
  8
0
 62
0
 10
-96.2115249633789
 20
-1.561979055404663
 30
0.0
 11
-98.19966125488281
 21
-1.0891443490982056
 31
0.0
  0
LINE
  8
0
 62
0
 10
-116.60588836669922
 20
3.4231877298469783e-15
 30
0.0
 11
-62.400001525878906
 21
-54.20588684082031
 31
0.0
  0
LINE
  8
0
 62
0
 10
-98.19966125488281
 20
-1.0891443490982056
 30
0.0
 11
-99.77033996582031
 21
-0.7586551308631897
 31
0.0
  0
LINE
  8
0
 62
0
 10
-62.400001525878906
 20
54.20588684082031
 30
0.0
 11
-116.60588836669922
 21
0.0
 31
0.0
  0
LINE
  8
0
 62
0
 10
-99.77033996582031
 20
-0.7586551308631897
 30
0.0
 11
-102.9374008178711
 21
-0.23264539241790771
 31
0.0
  0
LINE
  8
0
 62
0
 10
-62.400001525878906
 20
30.994112014770508
 30
0.0
 11
-62.400001525878906
 21
54.20588684082031
 31
0.0
  0
LINE
  8
0
 62
0
 10
-102.9374008178711
 20
-0.23264539241790771
 30
0.0
 11
-104.53018188476562
 21
-0.05418280512094498
 31
0.0
  0
LINE
  8
0
 62
0
 10
-89.99861907958984
 20
3.3954930305480957
 30
0.0
 11
-62.400001525878906
 21
30.994112014770508
 31
0.0
  0
LINE
  8
0
 62
0
 10
-104.53018188476562
 20
-0.05418280512094498
 30
0.0
 11
-105.30530548095703
 21
-0.009624312631785856
 31
0.0
  0
LINE
  8
0
 62
0
 10
-93.73612976074219
 20
2.2305338382720947
 30
0.0
 11
-89.99861907958984
 21
3.3954930305480957
 31
0.0
  0
LINE
  8
0
 62
0
 10
-105.30530548095703
 20
-0.00962431263178587
 30
0.0
 11
-105.4863510131836
 21
-0.004235656466335058
 31
0.0
  0
LINE
  8
0
 62
0
 10
-95.23234558105469
 20
1.815072774887085
 30
0.0
 11
-93.73612976074219
 21
2.2305338382720947
 31
0.0
  0
LINE
  8
0
 62
0
 10
-105.4863510131836
 20
-0.004235656466335058
 30
0.0
 11
-105.56484985351562
 21
-0.0020009137224406004
 31
0.0
  0
LINE
  8
0
 62
0
 10
-96.44295501708984
 20
1.502338171005249
 30
0.0
 11
-95.23234558105469
 21
1.815072774887085
 31
0.0
  0
LINE
  8
0
 62
0
 10
-105.56484985351562
 20
-0.0020009137224406004
 30
0.0
 11
-105.58685302734375
 21
-0.0011712618870660663
 31
0.0
  0
LINE
  8
0
 62
0
 10
-97.33735656738281
 20
1.2860242128372192
 30
0.0
 11
-96.44295501708984
 21
1.502338171005249
 31
0.0
  0
LINE
  8
0
 62
0
 10
-105.58685302734375
 20
-0.0011712618870660663
 30
0.0
 11
-105.59969329833984
 21
-0.0001738794380798936
 31
0.0
  0
LINE
  8
0
 62
0
 10
-97.96088409423828
 20
1.1427104473114014
 30
0.0
 11
-97.33735656738281
 21
1.2860242128372192
 31
0.0
  0
LINE
  8
0
 62
0
 10
-105.59969329833984
 20
-0.0001738794380798936
 30
0.0
 11
-105.59255981445312
 21
0.0008703459170646966
 31
0.0
  0
LINE
  8
0
 62
0
 10
-98.9865951538086
 20
0.919373095035553
 30
0.0
 11
-97.96088409423828
 21
1.1427104473114014
 31
0.0
  0
LINE
  8
0
 62
0
 10
-105.59255981445312
 20
0.0008703459170646966
 30
0.0
 11
-105.43666076660156
 21
0.0055822571739554405
 31
0.0
  0
LINE
  8
0
 62
0
 10
-100.81172943115234
 20
0.5642260313034058
 30
0.0
 11
-98.9865951538086
 21
0.919373095035553
 31
0.0
  0
LINE
  8
0
 62
0
 10
-105.43666076660156
 20
0.0055822571739554405
 30
0.0
 11
-105.10137176513672
 21
0.018412703648209575
 31
0.0
  0
LINE
  8
0
 62
0
 10
-102.3354263305664
 20
0.31540700793266296
 30
0.0
 11
-100.81172943115234
 21
0.5642260313034058
 31
0.0
  0
LINE
  8
0
 62
0
 10
-105.10137176513672
 20
0.018412703648209572
 30
0.0
 11
-104.47989654541016
 21
0.061350911855697646
 31
0.0
  0
LINE
  8
0
 62
0
 10
-103.55802917480469
 20
0.15406548976898193
 30
0.0
 11
-102.3354263305664
 21
0.31540700793266296
 31
0.0
  0
LINE
  8
0
 62
0
 10
-104.47989654541016
 20
0.06135091185569763
 30
0.0
 11
-103.55802917480469
 21
0.15406548976898193
 31
0.0
  0
LINE
  8
0
 62
0
 10
-71.86013793945312
 20
11.371334075927734
 30
0.0
 11
-62.400001525878906
 21
16.990875244140625
 31
0.0
  0
LINE
  8
0
 62
0
 10
-81.73249053955078
 20
6.570455551147461
 30
0.0
 11
-71.86013793945312
 21
11.371334075927734
 31
0.0
  0
LINE
  8
0
 62
0
 10
-62.400001525878906
 20
16.990875244140625
 30
0.0
 11
-62.400001525878906
 21
25.902944564819336
 31
0.0
  0
LINE
  8
0
 62
0
 10
-81.73249053955078
 20
6.570455551147461
 30
0.0
 11
-62.400001525878906
 21
25.902944564819336
 31
0.0
  0
LINE
  8
0
 62
0
 10
-25.902944564819336
 20
62.400001525878906
 30
0.0
 11
-6.570455551147461
 21
81.73249053955078
 31
0.0
  0
LINE
  8
0
 62
0
 10
-25.902944564819336
 20
62.400001525878906
 30
0.0
 11
-16.990875244140625
 21
62.400001525878906
 31
0.0
  0
LINE
  8
0
 62
0
 10
-11.371334075927734
 20
71.86013793945312
 30
0.0
 11
-6.570455551147461
 21
81.73249053955078
 31
0.0
  0
LINE
  8
0
 62
0
 10
-16.990875244140625
 20
62.400001525878906
 30
0.0
 11
-11.371334075927734
 21
71.86013793945312
 31
0.0
  0
CIRCLE
  8
0
 62
0
 10
3.02426626468449e-16
 20
6.04853252936898e-16
 30
0.0
 40
14.957200031599236
  0
LINE
  8
0
 62
0
 10
-57.599998474121094
 20
35.79411315917969
 30
0.0
 11
-57.599998474121094
 21
57.599998474121094
 31
0.0
  0
LINE
  8
0
 62
0
 10
-57.599998474121094
 20
35.79411315917969
 30
0.0
 11
-35.79411315917969
 21
57.599998474121094
 31
0.0
  0
LINE
  8
0
 62
0
 10
-57.599998474121094
 20
57.599998474121094
 30
0.0
 11
-35.79411315917969
 21
57.599998474121094
 31
0.0
  0
LINE
  8
0
 62
0
 10
-57.599998474121094
 20
20.238954544067383
 30
0.0
 11
-57.599998474121094
 21
30.702943801879883
 31
0.0
  0
LINE
  8
0
 62
0
 10
-57.599998474121094
 20
20.238954544067383
 30
0.0
 11
-52.267581939697266
 21
24.18022346496582
 31
0.0
  0
LINE
  8
0
 62
0
 10
-57.599998474121094
 20
30.702943801879883
 30
0.0
 11
-30.70294380187988
 21
57.599998474121094
 31
0.0
  0
LINE
  8
0
 62
0
 10
-52.267581939697266
 20
24.18022346496582
 30
0.0
 11
-47.10337448120117
 21
28.35483169555664
 31
0.0
  0
LINE
  8
0
 62
0
 10
-20.238954544067383
 20
57.599998474121094
 30
0.0
 11
-30.702943801879883
 21
57.599998474121094
 31
0.0
  0
LINE
  8
0
 62
0
 10
-47.10337448120117
 20
28.35483169555664
 30
0.0
 11
-42.12128448486328
 21
32.745574951171875
 31
0.0
  0
LINE
  8
0
 62
0
 10
-24.18022346496582
 20
52.267581939697266
 30
0.0
 11
-20.238954544067383
 21
57.599998474121094
 31
0.0
  0
LINE
  8
0
 62
0
 10
-42.12128448486328
 20
32.745574951171875
 30
0.0
 11
-37.33523941040039
 21
37.33523941040039
 31
0.0
  0
LINE
  8
0
 62
0
 10
-28.35483169555664
 20
47.103370666503906
 30
0.0
 11
-24.18022346496582
 21
52.267581939697266
 31
0.0
  0
LINE
  8
0
 62
0
 10
-37.33523941040039
 20
37.33523941040039
 30
0.0
 11
-32.745574951171875
 21
42.12128448486328
 31
0.0
  0
LINE
  8
0
 62
0
 10
-32.745574951171875
 20
42.12128448486328
 30
0.0
 11
-28.35483169555664
 21
47.103370666503906
 31
0.0
  0
LINE
  8
0
 62
0
 10
6.570455551147461
 20
81.73249053955078
 30
0.0
 11
11.371334075927734
 21
71.86013793945312
 31
0.0
  0
LINE
  8
0
 62
0
 10
6.570455551147461
 20
81.73249053955078
 30
0.0
 11
25.902944564819336
 21
62.400001525878906
 31
0.0
  0
LINE
  8
0
 62
0
 10
11.371334075927734
 20
71.86013793945312
 30
0.0
 11
16.990875244140625
 21
62.400001525878906
 31
0.0
  0
LINE
  8
0
 62
0
 10
16.990875244140625
 20
62.400001525878906
 30
0.0
 11
25.902944564819336
 21
62.400001525878906
 31
0.0
  0
LINE
  8
0
 62
0
 10
-35.79411315917969
 20
-57.599998474121094
 30
0.0
 11
-57.599998474121094
 21
-57.599998474121094
 31
0.0
  0
LINE
  8
0
 62
0
 10
-35.79411315917969
 20
-57.599998474121094
 30
0.0
 11
-57.599998474121094
 21
-35.79411315917969
 31
0.0
  0
LINE
  8
0
 62
0
 10
-57.599998474121094
 20
-57.599998474121094
 30
0.0
 11
-57.599998474121094
 21
-35.79411315917969
 31
0.0
  0
LINE
  8
0
 62
0
 10
-20.238954544067383
 20
-57.599998474121094
 30
0.0
 11
-24.18022346496582
 21
-52.267581939697266
 31
0.0
  0
LINE
  8
0
 62
0
 10
-20.238954544067383
 20
-57.599998474121094
 30
0.0
 11
-30.702943801879883
 21
-57.599998474121094
 31
0.0
  0
LINE
  8
0
 62
0
 10
-24.18022346496582
 20
-52.267581939697266
 30
0.0
 11
-28.35483169555664
 21
-47.103370666503906
 31
0.0
  0
LINE
  8
0
 62
0
 10
-30.702943801879883
 20
-57.599998474121094
 30
0.0
 11
-57.599998474121094
 21
-30.70294380187988
 31
0.0
  0
LINE
  8
0
 62
0
 10
-28.35483169555664
 20
-47.103370666503906
 30
0.0
 11
-32.745574951171875
 21
-42.12128448486328
 31
0.0
  0
LINE
  8
0
 62
0
 10
-57.599998474121094
 20
-30.702943801879883
 30
0.0
 11
-57.599998474121094
 21
-20.238954544067383
 31
0.0
  0
LINE
  8
0
 62
0
 10
-32.745574951171875
 20
-42.12128448486328
 30
0.0
 11
-37.33523941040039
 21
-37.33523941040039
 31
0.0
  0
LINE
  8
0
 62
0
 10
-52.267581939697266
 20
-24.18022346496582
 30
0.0
 11
-57.599998474121094
 21
-20.238954544067383
 31
0.0
  0
LINE
  8
0
 62
0
 10
-37.33523941040039
 20
-37.33523941040039
 30
0.0
 11
-42.12128448486328
 21
-32.745574951171875
 31
0.0
  0
LINE
  8
0
 62
0
 10
-47.10337448120117
 20
-28.35483169555664
 30
0.0
 11
-52.267581939697266
 21
-24.18022346496582
 31
0.0
  0
LINE
  8
0
 62
0
 10
-42.12128448486328
 20
-32.745574951171875
 30
0.0
 11
-47.10337448120117
 21
-28.35483169555664
 31
0.0
  0
LINE
  8
0
 62
0
 10
-117.5999984741211
 20
-2.4000000953674316
 30
0.0
 11
-62.400001525878906
 21
-57.599998474121094
 31
0.0
  0
LINE
  8
0
 62
0
 10
-117.5999984741211
 20
-114.20588684082031
 30
0.0
 11
-117.5999984741211
 21
-2.4000000953674316
 31
0.0
  0
LINE
  8
0
 62
0
 10
-62.400001525878906
 20
-59.00588607788086
 30
0.0
 11
-62.400001525878906
 21
-57.599998474121094
 31
0.0
  0
LINE
  8
0
 62
0
 10
-117.5999984741211
 20
-114.20588684082031
 30
0.0
 11
-62.400001525878906
 21
-59.00588607788086
 31
0.0
  0
LINE
  8
0
 62
0
 10
-62.400001525878906
 20
-16.990875244140625
 30
0.0
 11
-71.86013793945312
 21
-11.371334075927734
 31
0.0
  0
LINE
  8
0
 62
0
 10
-62.400001525878906
 20
-25.902944564819336
 30
0.0
 11
-62.400001525878906
 21
-16.990875244140625
 31
0.0
  0
LINE
  8
0
 62
0
 10
-71.86013793945312
 20
-11.371334075927734
 30
0.0
 11
-81.73249053955078
 21
-6.570455551147461
 31
0.0
  0
LINE
  8
0
 62
0
 10
-62.400001525878906
 20
-25.902944564819336
 30
0.0
 11
-81.73249053955078
 21
-6.570455551147461
 31
0.0
  0
LINE
  8
0
 62
0
 10
-59.00588607788086
 20
-62.400001525878906
 30
0.0
 11
-114.20588684082031
 21
-117.5999984741211
 31
0.0
  0
LINE
  8
0
 62
0
 10
-57.599998474121094
 20
-62.400001525878906
 30
0.0
 11
-59.00588607788086
 21
-62.400001525878906
 31
0.0
  0
LINE
  8
0
 62
0
 10
-2.4000000953674316
 20
-117.5999984741211
 30
0.0
 11
-114.20588684082031
 21
-117.5999984741211
 31
0.0
  0
LINE
  8
0
 62
0
 10
-57.599998474121094
 20
-62.400001525878906
 30
0.0
 11
-2.4000000953674316
 21
-117.5999984741211
 31
0.0
  0
LINE
  8
0
 62
0
 10
-6.570455551147461
 20
-81.73249053955078
 30
0.0
 11
-25.902944564819336
 21
-62.400001525878906
 31
0.0
  0
LINE
  8
0
 62
0
 10
-6.570455551147461
 20
-81.73249053955078
 30
0.0
 11
-11.371334075927734
 21
-71.86013793945312
 31
0.0
  0
LINE
  8
0
 62
0
 10
-16.990875244140625
 20
-62.400001525878906
 30
0.0
 11
-25.902944564819336
 21
-62.400001525878906
 31
0.0
  0
LINE
  8
0
 62
0
 10
-11.371334075927734
 20
-71.86013793945312
 30
0.0
 11
-16.990875244140625
 21
-62.400001525878906
 31
0.0
  0
LINE
  8
0
 62
0
 10
25.902944564819336
 20
-62.400001525878906
 30
0.0
 11
16.990875244140625
 21
-62.400001525878906
 31
0.0
  0
LINE
  8
0
 62
0
 10
25.902944564819336
 20
-62.400001525878906
 30
0.0
 11
6.570455551147461
 21
-81.73249053955078
 31
0.0
  0
LINE
  8
0
 62
0
 10
16.990875244140625
 20
-62.400001525878906
 30
0.0
 11
11.371334075927734
 21
-71.86013793945312
 31
0.0
  0
LINE
  8
0
 62
0
 10
11.371334075927734
 20
-71.86013793945312
 30
0.0
 11
6.570455551147461
 21
-81.73249053955078
 31
0.0
  0
LINE
  8
0
 62
0
 10
-94.30682185331077
 20
-2.080608672981085
 30
0.0
 11
-89.99861907958984
 21
-3.3954930305480957
 31
0.0
  0
LINE
  8
0
 62
0
 10
89.99861907958984
 20
-3.3954930305480957
 30
0.0
 11
94.61708297538358
 21
-1.9859154754688468
 31
0.0
  0
LINE
  8
0
 62
0
 10
95.01582436259169
 20
-1.8751951061011618
 30
0.0
 11
99.16068683811619
 21
-0.8854969700682147
 31
0.0
  0
LINE
  8
0
 62
0
 10
99.55248643160905
 20
-0.8092579355337539
 30
0.0
 11
103.15213012695312
 21
-0.2095312625169753
 31
0.0
  0
LINE
  8
0
 62
0
 10
103.15213012695312
 20
-0.2095312625169754
 30
0.0
 11
104.48310909947585
 21
-0.06112941894788984
 31
0.0
  0
LINE
  8
0
 62
0
 10
104.99848613240347
 20
-0.025521206435981273
 30
0.0
 11
105.1641604186406
 21
-0.016009956868343916
 31
0.0
  0
LINE
  8
0
 62
0
 10
94.3068207343708
 20
2.0806090144869835
 30
0.0
 11
89.99861907958984
 21
3.3954930305480957
 31
0.0
  0
LINE
  8
0
 62
0
 10
99.11005014239907
 20
0.897587852132947
 30
0.0
 11
95.38465174075264
 21
1.7871275837552907
 31
0.0
  0
LINE
  8
0
 62
0
 10
103.15213012695312
 20
0.2095312625169754
 30
0.0
 11
99.44373351205361
 21
0.8273769584554411
 31
0.0
  0
LINE
  8
0
 62
0
 10
104.56162040699418
 20
0.05237554453118535
 30
0.0
 11
103.15213012695312
 21
0.2095312625169754
 31
0.0
  0
LINE
  8
0
 62
0
 10
105.59828186035156
 20
-0.000412883295211941
 30
0.0
 11
105.59957122802734
 21
-0.00020593663793988523
 31
0.0
  0
LINE
  8
0
 62
0
 10
105.59957122802734
 20
-0.00020593663793988526
 30
0.0
 11
105.59989166259766
 21
-0.00010290517820976675
 31
0.0
  0
LINE
  8
0
 62
0
 10
105.59989166259766
 20
-0.00010290517820976675
 30
0.0
 11
105.5999755859375
 21
-5.1444694690871984e-05
 31
0.0
  0
LINE
  8
0
 62
0
 10
105.5999755859375
 20
-5.1444694690871984e-05
 30
0.0
 11
105.59999084472656
 21
-2.572136145317927e-05
 31
0.0
  0
LINE
  8
0
 62
0
 10
105.59999084472656
 20
-2.572136145317927e-05
 30
0.0
 11
105.5999984741211
 21
0.0
 31
0.0
  0
LINE
  8
0
 62
0
 10
-21.733437723639852
 20
55.57800835441267
 30
0.0
 11
-27.444174126510376
 21
48.229902265235985
 31
0.0
  0
LINE
  8
0
 62
0
 10
-28.062448812196024
 20
47.465063764140034
 30
0.0
 11
-34.679515281581885
 21
40.104595536272946
 31
0.0
  0
LINE
  8
0
 62
0
 10
-37.27489060082167
 20
37.39817039923405
 30
0.0
 11
-37.442793234283585
 21
37.23209872633857
 31
0.0
  0
LINE
  8
0
 62
0
 10
-50.318279401242286
 20
25.755987894715425
 30
0.0
 11
-55.25591109579402
 21
21.97150463133641
 31
0.0
  0
LINE
  8
0
 62
0
 10
-42.01866772704301
 20
32.84398114646702
 30
0.0
 11
-42.18239552172267
 21
32.6917174590087
 31
0.0
  0
LINE
  8
0
 62
0
 10
-42.85244706548554
 20
32.10119735622975
 30
0.0
 11
-48.45138394220177
 21
27.265136628882033
 31
0.0
  0
LINE
  8
0
 62
0
 10
55.25591109579404
 20
21.971504631336394
 30
0.0
 11
50.31825163156303
 21
25.756009178985465
 31
0.0
  0
LINE
  8
0
 62
0
 10
27.44411407407311
 20
48.22997953577499
 30
0.0
 11
21.733437723639828
 21
55.5780083544127
 31
0.0
  0
LINE
  8
0
 62
0
 10
48.451425094861065
 20
27.26510108342692
 30
0.0
 11
42.85241896803597
 21
32.10122162529643
 31
0.0
  0
LINE
  8
0
 62
0
 10
34.679515281581885
 20
40.10459553627295
 30
0.0
 11
28.062477259307343
 21
47.46503212110607
 31
0.0
  0
LINE
  8
0
 62
0
 10
42.182396368936864
 20
32.691716671115856
 30
0.0
 11
42.018667727043
 21
32.84398114646703
 31
0.0
  0
LINE
  8
0
 62
0
 10
37.442793234283585
 20
37.23209872633857
 30
0.0
 11
37.274890600821685
 21
37.39817039923403
 31
0.0
  0
LINE
  8
0
 62
0
 10
72.3410236249934
 20
11.137481634255252
 30
0.0
 11
71.16686144107197
 21
11.783156448596404
 31
0.0
  0
LINE
  8
0
 62
0
 10
21.733437723639852
 20
-55.57800835441267
 30
0.0
 11
27.444174126510376
 21
-48.229902265235985
 31
0.0
  0
LINE
  8
0
 62
0
 10
28.062448812196024
 20
-47.465063764140034
 30
0.0
 11
34.679515281581885
 21
-40.104595536272946
 31
0.0
  0
LINE
  8
0
 62
0
 10
50.318279401242286
 20
-25.755987894715425
 30
0.0
 11
55.25591109579402
 21
-21.97150463133641
 31
0.0
  0
LINE
  8
0
 62
0
 10
37.27489060082167
 20
-37.39817039923405
 30
0.0
 11
37.442793234283585
 21
-37.23209872633857
 31
0.0
  0
LINE
  8
0
 62
0
 10
42.85244706548554
 20
-32.10119735622975
 30
0.0
 11
48.45138394220177
 21
-27.265136628882033
 31
0.0
  0
LINE
  8
0
 62
0
 10
42.01866772704301
 20
-32.84398114646702
 30
0.0
 11
42.18239552172267
 21
-32.6917174590087
 31
0.0
  0
LINE
  8
0
 62
0
 10
71.16686144107194
 20
-11.783156448596412
 30
0.0
 11
72.3410236249934
 21
-11.137481634255249
 31
0.0
  0
LINE
  8
0
 62
0
 10
-71.16686144107194
 20
11.783156448596412
 30
0.0
 11
-72.3410236249934
 21
11.137481634255249
 31
0.0
  0
LINE
  8
0
 62
0
 10
-3.3954930305480957
 20
89.99861907958984
 30
0.0
 11
-2.080608672981085
 21
94.30682185331077
 31
0.0
  0
LINE
  8
0
 62
0
 10
-1.7871281783278392
 20
95.3846492506788
 30
0.0
 11
-0.8975878521329475
 21
99.11005014239907
 31
0.0
  0
LINE
  8
0
 62
0
 10
1.9859196748502375
 20
94.61706921616098
 30
0.0
 11
3.3954930305480957
 21
89.99861907958984
 31
0.0
  0
LINE
  8
0
 62
0
 10
-0.8273769584554409
 20
99.44373351205361
 30
0.0
 11
-0.2095312625169753
 21
103.15213012695312
 31
0.0
  0
LINE
  8
0
 62
0
 10
0.8854992245368998
 20
99.16067739638612
 30
0.0
 11
1.8751923907666772
 21
95.01583573443085
 31
0.0
  0
LINE
  8
0
 62
0
 10
-0.2095312625169754
 20
103.15213012695312
 30
0.0
 11
-0.05237551447249883
 21
104.561620676583
 31
0.0
  0
LINE
  8
0
 62
0
 10
0.2095312625169754
 20
103.15213012695312
 30
0.0
 11
0.8092554510807942
 21
99.55250134364455
 31
0.0
  0
LINE
  8
0
 62
0
 10
0.061128479671731066
 20
104.48311752360851
 30
0.0
 11
0.2095312625169754
 21
103.15213012695312
 31
0.0
  0
LINE
  8
0
 62
0
 10
0.01601015102502293
 20
105.1641570366697
 30
0.0
 11
0.025521193374610274
 21
104.99848635991651
 31
0.0
  0
LINE
  8
0
 62
0
 10
0.00020593663793988526
 20
105.59957122802734
 30
0.0
 11
0.000412883295211941
 21
105.59828186035156
 31
0.0
  0
LINE
  8
0
 62
0
 10
0.00010290517820976675
 20
105.59989166259766
 30
0.0
 11
0.00020593663793988526
 21
105.59957122802734
 31
0.0
  0
LINE
  8
0
 62
0
 10
5.1444694690871984e-05
 20
105.5999755859375
 30
0.0
 11
0.00010290517820976675
 21
105.59989166259766
 31
0.0
  0
LINE
  8
0
 62
0
 10
2.572136145317927e-05
 20
105.59999084472656
 30
0.0
 11
5.1444694690871984e-05
 21
105.5999755859375
 31
0.0
  0
LINE
  8
0
 62
0
 10
-5.998912982032104e-14
 20
105.5999984741211
 30
0.0
 11
2.572136145317927e-05
 21
105.59999084472656
 31
0.0
  0
LINE
  8
0
 62
0
 10
12.495558582804428
 20
69.96757823107413
 30
0.0
 11
10.90341098746399
 21
72.82235801963151
 31
0.0
  0
LINE
  8
0
 62
0
 10
-10.903410987463987
 20
72.82235801963152
 30
0.0
 11
-12.495558582804424
 21
69.96757823107414
 31
0.0
  0
LINE
  8
0
 62
0
 10
-72.3410236249934
 20
-11.137481634255252
 30
0.0
 11
-71.16686144107197
 21
-11.783156448596404
 31
0.0
  0
LINE
  8
0
 62
0
 10
-99.11005014239907
 20
-0.897587852132947
 30
0.0
 11
-95.3846492506788
 21
-1.7871281783278392
 31
0.0
  0
LINE
  8
0
 62
0
 10
-103.15213012695312
 20
-0.2095312625169754
 30
0.0
 11
-99.44373351205361
 21
-0.8273769584554411
 31
0.0
  0
LINE
  8
0
 62
0
 10
-104.56162047456623
 20
-0.05237553699701839
 30
0.0
 11
-103.15213012695312
 21
-0.2095312625169754
 31
0.0
  0
LINE
  8
0
 62
0
 10
-89.99861907958984
 20
3.3954930305480957
 30
0.0
 11
-94.61708042586642
 21
1.9859162535938362
 31
0.0
  0
LINE
  8
0
 62
0
 10
-95.01582698379504
 20
1.8751944802178955
 30
0.0
 11
-99.16068279166045
 21
0.8854979362690794
 31
0.0
  0
LINE
  8
0
 62
0
 10
-99.55249282248141
 20
0.8092568707681993
 30
0.0
 11
-103.15213012695312
 21
0.2095312625169753
 31
0.0
  0
LINE
  8
0
 62
0
 10
-103.15213012695312
 20
0.2095312625169754
 30
0.0
 11
-104.48312006360477
 21
0.06112819646655951
 31
0.0
  0
LINE
  8
0
 62
0
 10
-104.99848150246761
 20
0.025521472237491707
 30
0.0
 11
-105.16415915496334
 21
0.016010029415207516
 31
0.0
  0
LINE
  8
0
 62
0
 10
-105.59999084472656
 20
2.572136145317927e-05
 30
0.0
 11
-105.5999984741211
 21
-3.586109477405307e-14
 31
0.0
  0
LINE
  8
0
 62
0
 10
-105.59828186035156
 20
0.000412883295211941
 30
0.0
 11
-105.59957122802734
 21
0.00020593663793988523
 31
0.0
  0
LINE
  8
0
 62
0
 10
-105.5999755859375
 20
5.1444694690871984e-05
 30
0.0
 11
-105.59999084472656
 21
2.572136145317927e-05
 31
0.0
  0
LINE
  8
0
 62
0
 10
-105.59957122802734
 20
0.00020593663793988526
 30
0.0
 11
-105.59989166259766
 21
0.00010290517820976675
 31
0.0
  0
LINE
  8
0
 62
0
 10
-105.59989166259766
 20
0.00010290517820976675
 30
0.0
 11
-105.5999755859375
 21
5.1444694690871984e-05
 31
0.0
  0
LINE
  8
0
 62
0
 10
-27.444174126510365
 20
-48.229902265236
 30
0.0
 11
-21.733437723639828
 21
-55.5780083544127
 31
0.0
  0
LINE
  8
0
 62
0
 10
-34.679515281581885
 20
-40.10459553627295
 30
0.0
 11
-28.062448812196017
 21
-47.46506376414004
 31
0.0
  0
LINE
  8
0
 62
0
 10
-37.442793234283585
 20
-37.23209872633857
 30
0.0
 11
-37.274890600821685
 21
-37.39817039923403
 31
0.0
  0
LINE
  8
0
 62
0
 10
-42.18239552172266
 20
-32.69171745900871
 30
0.0
 11
-42.018667727043
 21
-32.84398114646703
 31
0.0
  0
LINE
  8
0
 62
0
 10
-55.25591109579404
 20
-21.971504631336394
 30
0.0
 11
-50.318279401242265
 21
-25.75598789471544
 31
0.0
  0
LINE
  8
0
 62
0
 10
-48.45138394220178
 20
-27.26513662888203
 30
0.0
 11
-42.8524470654856
 21
-32.101197356229704
 31
0.0
  0
LINE
  8
0
 62
0
 10
-12.495558582804428
 20
-69.96757823107413
 30
0.0
 11
-10.90341098746399
 21
-72.82235801963151
 31
0.0
  0
LINE
  8
0
 62
0
 10
10.903410987463987
 20
-72.82235801963152
 30
0.0
 11
12.495558582804424
 21
-69.96757823107414
 31
0.0
  0
LINE
  8
0
 62
0
 10
-1.9859188967374055
 20
-94.61707176563831
 30
0.0
 11
-3.3954930305480957
 21
-89.99861907958984
 31
0.0
  0
LINE
  8
0
 62
0
 10
-0.8854985804029898
 20
-99.16068009402329
 30
0.0
 11
-1.8751930166555044
 21
-95.01583311320421
 31
0.0
  0
LINE
  8
0
 62
0
 10
-0.2095312625169754
 20
-103.15213012695312
 30
0.0
 11
-0.8092561609244974
 21
-99.55249708306297
 31
0.0
  0
LINE
  8
0
 62
0
 10
-0.06112835269738785
 20
-104.4831186624096
 30
0.0
 11
-0.2095312625169754
 21
-103.15213012695312
 31
0.0
  0
LINE
  8
0
 62
0
 10
-0.016010092620777485
 20
-105.16415805399994
 30
0.0
 11
-0.0255213244397001
 21
-104.99848407692362
 31
0.0
  0
LINE
  8
0
 62
0
 10
3.3954930305480957
 20
-89.99861907958984
 30
0.0
 11
2.080608672981085
 21
-94.30682185331077
 31
0.0
  0
LINE
  8
0
 62
0
 10
1.7871281783278392
 20
-95.3846492506788
 30
0.0
 11
0.8975878521329475
 21
-99.11005014239907
 31
0.0
  0
LINE
  8
0
 62
0
 10
0.8273769584554409
 20
-99.44373351205361
 30
0.0
 11
0.2095312625169753
 21
-103.15213012695312
 31
0.0
  0
LINE
  8
0
 62
0
 10
0.2095312625169754
 20
-103.15213012695312
 30
0.0
 11
0.052375522006663594
 21
-104.56162060901097
 31
0.0
  0
LINE
  8
0
 62
0
 10
-0.00020593663793988526
 20
-105.59957122802734
 30
0.0
 11
-0.000412883295211941
 21
-105.59828186035156
 31
0.0
  0
LINE
  8
0
 62
0
 10
-0.00010290517820976675
 20
-105.59989166259766
 30
0.0
 11
-0.00020593663793988526
 21
-105.59957122802734
 31
0.0
  0
LINE
  8
0
 62
0
 10
-5.1444694690871984e-05
 20
-105.5999755859375
 30
0.0
 11
-0.00010290517820976675
 21
-105.59989166259766
 31
0.0
  0
LINE
  8
0
 62
0
 10
-2.572136145317927e-05
 20
-105.59999084472656
 30
0.0
 11
-5.1444694690871984e-05
 21
-105.5999755859375
 31
0.0
  0
LINE
  8
0
 62
0
 10
5.4770373485038895e-14
 20
-105.5999984741211
 30
0.0
 11
-2.572136145317927e-05
 21
-105.59999084472656
 31
0.0
  0
LINE
  8
0
 62
0
 10
96.2115249633789
 20
1.5619791746139526
 30
0.0
 11
99.01690526271824
 21
0.9171866270153936
 31
0.0
  0
LINE
  8
0
 62
0
 10
102.9374008178711
 20
0.2326454073190689
 30
0.0
 11
103.15213012695312
 21
0.2095312625169754
 31
0.0
  0
LINE
  8
0
 62
0
 10
99.77033996582031
 20
0.7586551308631897
 30
0.0
 11
103.15213012695312
 21
0.2095312625169754
 31
0.0
  0
LINE
  8
0
 62
0
 10
96.44295501708984
 20
-1.5023380517959595
 30
0.0
 11
95.19349094761448
 21
-1.8258616018573413
 31
0.0
  0
LINE
  8
0
 62
0
 10
104.53018188476562
 20
0.054182808846235275
 30
0.0
 11
103.15213012695312
 21
0.20953126251697538
 31
0.0
  0
LINE
  8
0
 62
0
 10
97.33735656738281
 20
-1.2860240936279297
 30
0.0
 11
95.1088612442754
 21
-1.849361123887871
 31
0.0
  0
LINE
  8
0
 62
0
 10
97.96088409423828
 20
-1.1427103281021118
 30
0.0
 11
99.01471358018512
 21
-0.9139014412247621
 31
0.0
  0
LINE
  8
0
 62
0
 10
97.33735656738281
 20
-1.2860240936279297
 30
0.0
 11
99.05976958776336
 21
-0.9051341362688821
 31
0.0
  0
LINE
  8
0
 62
0
 10
100.81172943115234
 20
-0.5642258524894714
 30
0.0
 11
103.15213012695312
 21
-0.2095312625169754
 31
0.0
  0
LINE
  8
0
 62
0
 10
102.3354263305664
 20
-0.315406858921051
 30
0.0
 11
103.15213012695312
 21
-0.2095312625169754
 31
0.0
  0
LINE
  8
0
 62
0
 10
103.55803680419922
 20
-0.15406538546085358
 30
0.0
 11
103.15213012695312
 21
-0.2095312625169754
 31
0.0
  0
LINE
  8
0
 62
0
 10
105.59255981445312
 20
-0.0008703419007360935
 30
0.0
 11
105.59828186035156
 21
-0.00041288329521194106
 31
0.0
  0
LINE
  8
0
 62
0
 10
105.59969329833984
 20
0.00017389307322446257
 30
0.0
 11
105.59828186035156
 21
-0.000412883295211941
 31
0.0
  0
LINE
  8
0
 62
0
 10
-1.561979055404663
 20
96.2115249633789
 30
0.0
 11
-0.9171867501060921
 21
99.016904677719
 31
0.0
  0
LINE
  8
0
 62
0
 10
-0.23264539241790771
 20
102.9374008178711
 30
0.0
 11
-0.2095312625169754
 21
103.15213012695312
 31
0.0
  0
LINE
  8
0
 62
0
 10
-0.7586551308631897
 20
99.77033996582031
 30
0.0
 11
-0.2095312625169754
 21
103.15213012695312
 31
0.0
  0
LINE
  8
0
 62
0
 10
1.5023385286331177
 20
96.44295501708984
 30
0.0
 11
1.8258566218125039
 21
95.19351057740067
 31
0.0
  0
LINE
  8
0
 62
0
 10
-0.05418279394507408
 20
104.53018188476562
 30
0.0
 11
-0.2095312625169754
 21
103.15213012695312
 31
0.0
  0
LINE
  8
0
 62
0
 10
1.286024570465088
 20
97.33735656738281
 30
0.0
 11
1.8493570328413744
 21
95.1088776239109
 31
0.0
  0
LINE
  8
0
 62
0
 10
1.1427106857299805
 20
97.96088409423828
 30
0.0
 11
0.9139047807216718
 21
99.0146985623926
 31
0.0
  0
LINE
  8
0
 62
0
 10
1.286024570465088
 20
97.33735656738281
 30
0.0
 11
0.9051371640404196
 21
99.05975617195693
 31
0.0
  0
LINE
  8
0
 62
0
 10
0.5642262697219849
 20
100.81172943115234
 30
0.0
 11
0.2095312625169754
 21
103.15213012695312
 31
0.0
  0
LINE
  8
0
 62
0
 10
0.3154072165489197
 20
102.3354263305664
 30
0.0
 11
0.2095312625169754
 21
103.15213012695312
 31
0.0
  0
LINE
  8
0
 62
0
 10
0.15406566858291626
 20
103.55802917480469
 30
0.0
 11
0.2095312625169754
 21
103.15213012695312
 31
0.0
  0
LINE
  8
0
 62
0
 10
0.0008703547646291554
 20
105.59255981445312
 30
0.0
 11
0.000412883295211941
 21
105.59828186035156
 31
0.0
  0
LINE
  8
0
 62
0
 10
-0.00017384940292686224
 20
105.59969329833984
 30
0.0
 11
0.000412883295211941
 21
105.59828186035156
 31
0.0
  0
LINE
  8
0
 62
0
 10
32.745574951171875
 20
42.12128448486328
 30
0.0
 11
28.1127324973235
 21
47.40286377843627
 31
0.0
  0
LINE
  8
0
 62
0
 10
32.745574951171875
 20
-42.12128448486328
 30
0.0
 11
28.112695459992317
 21
-47.402906002104224
 31
0.0
  0
LINE
  8
0
 62
0
 10
1.561979055404663
 20
-96.2115249633789
 30
0.0
 11
0.9171867501060921
 21
-99.016904677719
 31
0.0
  0
LINE
  8
0
 62
0
 10
0.23264539241790771
 20
-102.9374008178711
 30
0.0
 11
0.2095312625169754
 21
-103.15213012695312
 31
0.0
  0
LINE
  8
0
 62
0
 10
0.7586551308631897
 20
-99.77033996582031
 30
0.0
 11
0.2095312625169754
 21
-103.15213012695312
 31
0.0
  0
LINE
  8
0
 62
0
 10
-1.5023382902145386
 20
-96.44295501708984
 30
0.0
 11
-1.825857465141008
 21
-95.19350712211951
 31
0.0
  0
LINE
  8
0
 62
0
 10
0.05418279767036438
 20
-104.53018188476562
 30
0.0
 11
0.20953126251697538
 21
-103.15213012695312
 31
0.0
  0
LINE
  8
0
 62
0
 10
-1.2860244512557983
 20
-97.33735656738281
 30
0.0
 11
-1.8493580056388286
 21
-95.1088737266522
 31
0.0
  0
LINE
  8
0
 62
0
 10
-1.142710566520691
 20
-97.96088409423828
 30
0.0
 11
-0.913903858993486
 21
-99.01470268661295
 31
0.0
  0
LINE
  8
0
 62
0
 10
-1.2860244512557983
 20
-97.33735656738281
 30
0.0
 11
-0.9051362829923728
 21
-99.0597600871182
 31
0.0
  0
LINE
  8
0
 62
0
 10
-0.5642261505126953
 20
-100.81172943115234
 30
0.0
 11
-0.2095312625169754
 21
-103.15213012695312
 31
0.0
  0
LINE
  8
0
 62
0
 10
-0.3154071271419525
 20
-102.3354263305664
 30
0.0
 11
-0.2095312625169754
 21
-103.15213012695312
 31
0.0
  0
LINE
  8
0
 62
0
 10
-0.1540655791759491
 20
-103.55802917480469
 30
0.0
 11
-0.2095312625169754
 21
-103.15213012695312
 31
0.0
  0
LINE
  8
0
 62
0
 10
-0.0008703505736775696
 20
-105.59255981445312
 30
0.0
 11
-0.000412883295211941
 21
-105.59828186035156
 31
0.0
  0
LINE
  8
0
 62
0
 10
0.0001738636929076165
 20
-105.59969329833984
 30
0.0
 11
-0.000412883295211941
 21
-105.59828186035156
 31
0.0
  0
LINE
  8
0
 62
0
 10
-96.2115249633789
 20
-1.561979055404663
 30
0.0
 11
-99.016904677719
 21
-0.9171867501060927
 31
0.0
  0
LINE
  8
0
 62
0
 10
-102.9374008178711
 20
-0.23264539241790771
 30
0.0
 11
-103.15213012695312
 21
-0.2095312625169754
 31
0.0
  0
LINE
  8
0
 62
0
 10
-99.77033996582031
 20
-0.7586551308631897
 30
0.0
 11
-103.15213012695312
 21
-0.2095312625169754
 31
0.0
  0
LINE
  8
0
 62
0
 10
-104.53018188476562
 20
-0.05418280512094498
 30
0.0
 11
-103.15213012695312
 21
-0.2095312625169754
 31
0.0
  0
LINE
  8
0
 62
0
 10
-96.44295501708984
 20
1.502338171005249
 30
0.0
 11
-95.19349577252399
 21
1.825860378216326
 31
0.0
  0
LINE
  8
0
 62
0
 10
-97.33735656738281
 20
1.2860242128372192
 30
0.0
 11
-95.10886514152821
 21
1.8493601510907427
 31
0.0
  0
LINE
  8
0
 62
0
 10
-97.96088409423828
 20
1.1427104473114014
 30
0.0
 11
-99.01470681086556
 21
0.9139029372590197
 31
0.0
  0
LINE
  8
0
 62
0
 10
-97.33735656738281
 20
1.2860242128372192
 30
0.0
 11
-99.05976342761342
 21
0.9051355137667645
 31
0.0
  0
LINE
  8
0
 62
0
 10
-105.59255981445312
 20
0.0008703459170646966
 30
0.0
 11
-105.59828186035156
 21
0.000412883295211941
 31
0.0
  0
LINE
  8
0
 62
0
 10
-105.59969329833984
 20
-0.0001738794380798936
 30
0.0
 11
-105.59828186035156
 21
0.0004128832952119411
 31
0.0
  0
LINE
  8
0
 62
0
 10
-100.81172943115234
 20
0.5642260313034058
 30
0.0
 11
-103.15213012695312
 21
0.2095312625169754
 31
0.0
  0
LINE
  8
0
 62
0
 10
-102.3354263305664
 20
0.31540700793266296
 30
0.0
 11
-103.15213012695312
 21
0.2095312625169754
 31
0.0
  0
LINE
  8
0
 62
0
 10
-103.55802917480469
 20
0.15406548976898193
 30
0.0
 11
-103.15213012695312
 21
0.2095312625169754
 31
0.0
  0
LINE
  8
0
 62
0
 10
-32.745574951171875
 20
42.12128448486328
 30
0.0
 11
-28.112695459992317
 21
47.402906002104224
 31
0.0
  0
LINE
  8
0
 62
0
 10
-32.745574951171875
 20
-42.12128448486328
 30
0.0
 11
-28.112695459992324
 21
-47.40290600210422
 31
0.0
  0
LINE
  8
0
 62
0
 10
105.59969329833984
 20
0.00017389307322446257
 30
0.0
 11
105.59957122802734
 21
-0.00020593663793988526
 31
0.0
  0
LINE
  8
0
 62
0
 10
105.59969329833984
 20
0.00017389307322446257
 30
0.0
 11
105.59989166259766
 21
-0.0001029051782097668
 31
0.0
  0
LINE
  8
0
 62
0
 10
105.59969329833984
 20
0.00017389307322446257
 30
0.0
 11
105.5999755859375
 21
-5.1444694690871984e-05
 31
0.0
  0
LINE
  8
0
 62
0
 10
105.59969329833984
 20
0.00017389307322446257
 30
0.0
 11
105.59999084472656
 21
-2.5721361453179297e-05
 31
0.0
  0
LINE
  8
0
 62
0
 10
105.59969329833984
 20
0.00017389307322446257
 30
0.0
 11
105.5999984741211
 21
-2.710505431213761e-20
 31
0.0
  0
LINE
  8
0
 62
0
 10
-0.00017384940292686224
 20
105.59969329833984
 30
0.0
 11
0.00020593663793988526
 21
105.59957122802734
 31
0.0
  0
LINE
  8
0
 62
0
 10
-0.00017384940292686224
 20
105.59969329833984
 30
0.0
 11
0.00010290517820976675
 21
105.59989166259766
 31
0.0
  0
LINE
  8
0
 62
0
 10
-0.00017384940292686224
 20
105.59969329833984
 30
0.0
 11
5.1444694690871984e-05
 21
105.5999755859375
 31
0.0
  0
LINE
  8
0
 62
0
 10
-0.00017384940292686224
 20
105.59969329833984
 30
0.0
 11
-5.998912304405746e-14
 21
105.5999984741211
 31
0.0
  0
LINE
  8
0
 62
0
 10
-0.00017384940292686224
 20
105.59969329833984
 30
0.0
 11
2.572136145317927e-05
 21
105.59999084472656
 31
0.0
  0
LINE
  8
0
 62
0
 10
-105.59969329833984
 20
-0.0001738794380798936
 30
0.0
 11
-105.5999984741211
 21
-3.586104395207623e-14
 31
0.0
  0
LINE
  8
0
 62
0
 10
-105.59969329833984
 20
-0.0001738794380798936
 30
0.0
 11
-105.59999084472656
 21
2.5721361453179243e-05
 31
0.0
  0
LINE
  8
0
 62
0
 10
-105.59969329833984
 20
-0.0001738794380798936
 30
0.0
 11
-105.59957122802734
 21
0.0002059366379398853
 31
0.0
  0
LINE
  8
0
 62
0
 10
-105.59969329833984
 20
-0.0001738794380798936
 30
0.0
 11
-105.5999755859375
 21
5.1444694690871984e-05
 31
0.0
  0
LINE
  8
0
 62
0
 10
-105.59969329833984
 20
-0.0001738794380798936
 30
0.0
 11
-105.59989166259766
 21
0.00010290517820976675
 31
0.0
  0
LINE
  8
0
 62
0
 10
0.0001738636929076165
 20
-105.59969329833984
 30
0.0
 11
-0.00020593663793988526
 21
-105.59957122802734
 31
0.0
  0
LINE
  8
0
 62
0
 10
0.0001738636929076165
 20
-105.59969329833984
 30
0.0
 11
-0.0001029051782097668
 21
-105.59989166259766
 31
0.0
  0
LINE
  8
0
 62
0
 10
0.0001738636929076165
 20
-105.59969329833984
 30
0.0
 11
-5.144469469087201e-05
 21
-105.5999755859375
 31
0.0
  0
LINE
  8
0
 62
0
 10
0.0001738636929076165
 20
-105.59969329833984
 30
0.0
 11
-2.5721361453179297e-05
 21
-105.59999084472656
 31
0.0
  0
LINE
  8
0
 62
0
 10
0.0001738636929076165
 20
-105.59969329833984
 30
0.0
 11
5.4770342991852794e-14
 21
-105.5999984741211
 31
0.0
  0
ENDBLK
  0
ENDSEC
  0
SECTION
  2
ENTITIES
  0
INSERT
  2
FACEFEAT
  8
0
 62
0
 10
0.0
 20
0.0
 30
0.0
  0
ENDSEC
  0
EOF
