  0
SECTION
  2
HEADER
  9
$ACADVER
  1
AC1009
  9
$INSBASE
 10
0.0
 20
0.0
 30
0.0
  9
$EXTMIN
 10
0.0
 20
0.0
 30
0.0
  9
$EXTMAX
 10
0.0
 20
0.0
 30
0.0
  0
ENDSEC
  0
SECTION
  2
TABLES
  0
TABLE
  2
VPORT
 70
0
  0
ENDTAB
  0
TABLE
  2
LTYPE
 70
1
  0
LTYPE
  2
CONTINUOUS
 70
0
  3
Solid line
 72
65
 73
0
 40
0.0
  0
ENDTAB
  0
TABLE
  2
LAYER
 70
1
  0
LAYER
  2
0
 70
64
 62
7
  6
continuous
  0
ENDTAB
  0
TABLE
  2
STYLE
 70
1
  0
STYLE
  2
STANDARD
 70
0
 40
0
 41
1.0
 50
0.0
 71
0
 42
1
 3
ARIAL.TTF
 4

  0
ENDTAB
  0
TABLE
  2
VIEW
 70
0
  0
ENDTAB
  0
ENDSEC
  0
SECTION
  2
BLOCKS
  0
BLOCK
  8
0
  2
FACEFEAT
 70
0
 10
0.0
 20
0.0
 30
0.0
  3
FACEFEAT
  0
LINE
  8
0
 62
0
 10
-109.6472396850586
 20
0.029783396050333977
 30
0.0
 11
-102.30073547363281
 21
3.2295877933502197
 31
0.0
  0
LINE
  8
0
 62
0
 10
16.792499452660586
 20
-66.76464747895575
 30
0.0
 11
17.665725491977156
 21
-65.39721111987608
 31
0.0
  0
LINE
  8
0
 62
0
 10
38.02303346764696
 20
-40.05514199995502
 30
0.0
 11
38.88293099923527
 21
-39.186664517248154
 31
0.0
  0
LINE
  8
0
 62
0
 10
39.750575986724485
 20
-38.323135905516146
 30
0.0
 11
40.623360893553226
 21
-37.467303146903404
 31
0.0
  0
LINE
  8
0
 62
0
 10
41.50277372001462
 20
-36.61755725457087
 30
0.0
 11
42.38889648176862
 21
-35.773966217575996
 31
0.0
  0
LINE
  8
0
 62
0
 10
110.36627960205078
 20
-0.002000041538849473
 30
0.0
 11
110.37015997528414
 21
-0.0017950144283851084
 31
0.0
  0
LINE
  8
0
 62
0
 10
110.39930368306422
 20
-0.0002551496176997083
 30
0.0
 11
110.39939880371094
 21
-0.0002501237322576342
 31
0.0
  0
LINE
  8
0
 62
0
 10
110.39939880371094
 20
-0.0002501237322576344
 30
0.0
 11
110.39971035580189
 21
-0.00017127486469298119
 31
0.0
  0
LINE
  8
0
 62
0
 10
110.39973187240159
 20
-0.00016582935631956504
 30
0.0
 11
110.39974975585938
 21
-0.0001613033382454887
 31
0.0
  0
LINE
  8
0
 62
0
 10
110.39974975585938
 20
-0.0001613033382454887
 30
0.0
 11
110.3997759835409
 21
-0.00014784904765774795
 31
0.0
  0
LINE
  8
0
 62
0
 10
110.32221984863281
 20
0.0033134897239506245
 30
0.0
 11
109.6472396850586
 21
0.02978339605033398
 31
0.0
  0
LINE
  8
0
 62
0
 10
70.57129982857434
 20
-14.468247366817428
 30
0.0
 11
71.60744723235283
 21
-13.887083097651788
 31
0.0
  0
LINE
  8
0
 62
0
 10
42.38889648176864
 20
35.77396621757598
 30
0.0
 11
41.50277372001459
 21
36.617557254570904
 31
0.0
  0
LINE
  8
0
 62
0
 10
40.62336089355325
 20
37.46730314690338
 30
0.0
 11
39.75057598672452
 21
38.32313590551611
 31
0.0
  0
LINE
  8
0
 62
0
 10
38.882930999235285
 20
39.18666451724814
 30
0.0
 11
38.02303346764697
 21
40.05514199995502
 31
0.0
  0
LINE
  8
0
 62
0
 10
71.60744723235281
 20
13.887083097651802
 30
0.0
 11
70.57129982857434
 21
14.468247366817431
 31
0.0
  0
LINE
  8
0
 62
0
 10
17.665725491977156
 20
65.39721111987608
 30
0.0
 11
16.792499452660607
 21
66.76464747895571
 31
0.0
  0
LINE
  8
0
 62
0
 10
-17.665725491977156
 20
-65.39721111987608
 30
0.0
 11
-16.7924994526606
 21
-66.76464747895572
 31
0.0
  0
LINE
  8
0
 62
0
 10
-38.882930999235285
 20
-39.18666451724814
 30
0.0
 11
-38.023033467646954
 21
-40.055141999955026
 31
0.0
  0
LINE
  8
0
 62
0
 10
-40.623360893553226
 20
-37.467303146903404
 30
0.0
 11
-39.7505759867245
 21
-38.32313590551613
 31
0.0
  0
LINE
  8
0
 62
0
 10
-42.38889648176865
 20
-35.77396621757597
 30
0.0
 11
-41.50277372001461
 21
-36.61755725457088
 31
0.0
  0
LINE
  8
0
 62
0
 10
-38.02303346764696
 20
40.05514199995502
 30
0.0
 11
-38.88293099923527
 21
39.186664517248154
 31
0.0
  0
LINE
  8
0
 62
0
 10
-39.750575986724485
 20
38.323135905516146
 30
0.0
 11
-40.623360893553226
 21
37.467303146903404
 31
0.0
  0
LINE
  8
0
 62
0
 10
-41.50277372001462
 20
36.61755725457087
 30
0.0
 11
-42.38889648176862
 21
35.773966217575996
 31
0.0
  0
LINE
  8
0
 62
0
 10
-70.57129982857434
 20
14.468247366817428
 30
0.0
 11
-71.60744723235283
 21
13.887083097651788
 31
0.0
  0
LINE
  8
0
 62
0
 10
-110.32221984863281
 20
-0.0033134904224425554
 30
0.0
 11
-109.6472396850586
 21
-0.029783396050333977
 31
0.0
  0
LINE
  8
0
 62
0
 10
-110.39974975585938
 20
0.0001613007189007476
 30
0.0
 11
-110.39977595614575
 21
0.00014786021430336746
 31
0.0
  0
LINE
  8
0
 62
0
 10
-110.39939880371094
 20
0.0002501215785741806
 30
0.0
 11
-110.39971030099579
 21
0.00017128616824857554
 31
0.0
  0
LINE
  8
0
 62
0
 10
-110.3997318891986
 20
0.00016582250962429278
 30
0.0
 11
-110.39974975585938
 21
0.0001613007189007476
 31
0.0
  0
LINE
  8
0
 62
0
 10
-110.36627960205078
 20
0.0020000403746962547
 30
0.0
 11
-110.37015991177908
 21
0.00179501650371001
 31
0.0
  0
LINE
  8
0
 62
0
 10
-110.39930369708449
 20
0.00025514672606900975
 30
0.0
 11
-110.39939880371094
 21
0.0002501215785741804
 31
0.0
  0
LINE
  8
0
 62
0
 10
-71.60744723235281
 20
-13.887083097651802
 30
0.0
 11
-70.57129982857434
 21
-14.468247366817431
 31
0.0
  0
LINE
  8
0
 62
0
 10
-16.792499452660586
 20
66.76464747895575
 30
0.0
 11
-17.665725491977156
 21
65.39721111987608
 31
0.0
  0
LINE
  8
0
 62
0
 10
-110.36627960205078
 20
0.0020000403746962547
 30
0.0
 11
-109.6472396850586
 21
0.029783396050333973
 31
0.0
  0
LINE
  8
0
 62
0
 10
-120.0
 20
-120.0
 30
0.0
 11
120.0
 21
-120.0
 31
0.0
  0
LINE
  8
0
 62
0
 10
-120.0
 20
120.0
 30
0.0
 11
-120.0
 21
-120.0
 31
0.0
  0
LINE
  8
0
 62
0
 10
120.0
 20
-120.0
 30
0.0
 11
120.0
 21
120.0
 31
0.0
  0
LINE
  8
0
 62
0
 10
120.0
 20
120.0
 30
0.0
 11
-120.0
 21
120.0
 31
0.0
  0
LINE
  8
0
 62
0
 10
-4.604910850524902
 20
-110.30391693115234
 30
0.0
 11
8.881784197001252e-16
 21
-114.90882873535156
 31
0.0
  0
LINE
  8
0
 62
0
 10
-1.5353662967681885
 20
-110.38932037353516
 30
0.0
 11
-4.604910850524902
 21
-110.30391693115234
 31
0.0
  0
LINE
  8
0
 62
0
 10
7.40148665436918e-16
 20
-114.90882873535156
 30
0.0
 11
4.604910850524902
 21
-110.30391693115234
 31
0.0
  0
LINE
  8
0
 62
0
 10
1.5353662967681885
 20
-110.38932037353516
 30
0.0
 11
-1.5353662967681885
 21
-110.38932037353516
 31
0.0
  0
LINE
  8
0
 62
0
 10
4.604910850524902
 20
-110.30391693115234
 30
0.0
 11
1.5353662967681885
 21
-110.38932037353516
 31
0.0
  0
LINE
  8
0
 62
0
 10
29.172590255737305
 20
-116.4000015258789
 30
0.0
 11
3.5999999046325684
 21
-116.4000015258789
 31
0.0
  0
LINE
  8
0
 62
0
 10
38.06016159057617
 20
-113.8043212890625
 30
0.0
 11
29.172590255737305
 21
-116.4000015258789
 31
0.0
  0
LINE
  8
0
 62
0
 10
3.5999999046325684
 20
-116.4000015258789
 30
0.0
 11
10.059234619140625
 21
-109.94076538085938
 31
0.0
  0
LINE
  8
0
 62
0
 10
46.72114944458008
 20
-110.53114318847656
 30
0.0
 11
38.06016159057617
 21
-113.8043212890625
 31
0.0
  0
LINE
  8
0
 62
0
 10
19.286441802978516
 20
-108.70231628417969
 30
0.0
 11
10.059234619140625
 21
-109.94076538085938
 31
0.0
  0
LINE
  8
0
 62
0
 10
55.104000091552734
 20
-106.5999526977539
 30
0.0
 11
46.72114944458008
 21
-110.53114318847656
 31
0.0
  0
LINE
  8
0
 62
0
 10
28.376493453979492
 20
-106.69083404541016
 30
0.0
 11
19.286441802978516
 21
-108.70231628417969
 31
0.0
  0
LINE
  8
0
 62
0
 10
55.104000091552734
 20
-106.5999526977539
 30
0.0
 11
55.12532424926758
 21
-106.61293029785156
 31
0.0
  0
LINE
  8
0
 62
0
 10
37.26475143432617
 20
-103.92063903808594
 30
0.0
 11
28.376493453979492
 21
-106.69083404541016
 31
0.0
  0
LINE
  8
0
 62
0
 10
55.12532424926758
 20
-106.61293029785156
 30
0.0
 11
55.14665222167969
 21
-106.62590026855469
 31
0.0
  0
LINE
  8
0
 62
0
 10
45.88800048828125
 20
-100.41140747070312
 30
0.0
 11
37.26475143432617
 21
-103.92063903808594
 31
0.0
  0
LINE
  8
0
 62
0
 10
55.14665222167969
 20
-106.62590026855469
 30
0.0
 11
55.16798400878906
 21
-106.63887786865234
 31
0.0
  0
LINE
  8
0
 62
0
 10
40.976070404052734
 20
-96.59326171875
 30
0.0
 11
45.88800048828125
 21
-100.41140747070312
 31
0.0
  0
LINE
  8
0
 62
0
 10
55.16798400878906
 20
-106.63887786865234
 30
0.0
 11
55.0449333190918
 21
-109.89823913574219
 31
0.0
  0
LINE
  8
0
 62
0
 10
36.260520935058594
 20
-92.53507232666016
 30
0.0
 11
40.976070404052734
 21
-96.59326171875
 31
0.0
  0
LINE
  8
0
 62
0
 10
55.0449333190918
 20
-109.89823913574219
 30
0.0
 11
54.82966232299805
 21
-113.15282440185547
 31
0.0
  0
LINE
  8
0
 62
0
 10
31.753074645996094
 20
-88.2469253540039
 30
0.0
 11
36.260520935058594
 21
-92.53507232666016
 31
0.0
  0
LINE
  8
0
 62
0
 10
54.82966232299805
 20
-113.15282440185547
 30
0.0
 11
54.5223388671875
 21
-116.4000015258789
 31
0.0
  0
LINE
  8
0
 62
0
 10
31.753074645996094
 20
-88.2469253540039
 30
0.0
 11
38.541297912597656
 21
-81.45870208740234
 31
0.0
  0
LINE
  8
0
 62
0
 10
64.17473602294922
 20
-116.4000015258789
 30
0.0
 11
54.5223388671875
 21
-116.4000015258789
 31
0.0
  0
LINE
  8
0
 62
0
 10
43.69790267944336
 20
-86.3077621459961
 30
0.0
 11
38.541297912597656
 21
-81.45870208740234
 31
0.0
  0
LINE
  8
0
 62
0
 10
64.17473602294922
 20
-116.4000015258789
 30
0.0
 11
64.31896209716797
 21
-114.87002563476562
 31
0.0
  0
LINE
  8
0
 62
0
 10
49.142581939697266
 20
-90.83097839355469
 30
0.0
 11
43.69790267944336
 21
-86.3077621459961
 31
0.0
  0
LINE
  8
0
 62
0
 10
64.31896209716797
 20
-114.87002563476562
 30
0.0
 11
64.44432830810547
 21
-113.33838653564453
 31
0.0
  0
LINE
  8
0
 62
0
 10
54.85477828979492
 20
-95.01126098632812
 30
0.0
 11
49.142581939697266
 21
-90.83097839355469
 31
0.0
  0
LINE
  8
0
 62
0
 10
64.44432830810547
 20
-113.33838653564453
 30
0.0
 11
64.55083465576172
 21
-111.8053207397461
 31
0.0
  0
LINE
  8
0
 62
0
 10
53.88097381591797
 20
-86.5401840209961
 30
0.0
 11
54.85477828979492
 21
-95.01126098632812
 31
0.0
  0
LINE
  8
0
 62
0
 10
64.55083465576172
 20
-111.8053207397461
 30
0.0
 11
67.98267364501953
 21
-113.44266510009766
 31
0.0
  0
LINE
  8
0
 62
0
 10
52.28325271606445
 20
-78.16434478759766
 30
0.0
 11
53.88097381591797
 21
-86.5401840209961
 31
0.0
  0
LINE
  8
0
 62
0
 10
67.98267364501953
 20
-113.44266510009766
 30
0.0
 11
71.46281433105469
 21
-114.97470092773438
 31
0.0
  0
LINE
  8
0
 62
0
 10
50.07037353515625
 20
-69.92962646484375
 30
0.0
 11
52.28325271606445
 21
-78.16434478759766
 31
0.0
  0
LINE
  8
0
 62
0
 10
71.46281433105469
 20
-114.97470092773438
 30
0.0
 11
74.98799896240234
 21
-116.4000015258789
 31
0.0
  0
LINE
  8
0
 62
0
 10
50.07037353515625
 20
-69.92962646484375
 30
0.0
 11
56.400001525878906
 21
-63.599998474121094
 31
0.0
  0
LINE
  8
0
 62
0
 10
111.30883026123047
 20
-116.4000015258789
 30
0.0
 11
74.98799896240234
 21
-116.4000015258789
 31
0.0
  0
LINE
  8
0
 62
0
 10
56.400001525878906
 20
-63.599998474121094
 30
0.0
 11
58.10627365112305
 21
-63.599998474121094
 31
0.0
  0
LINE
  8
0
 62
0
 10
109.64225006103516
 20
-114.73341369628906
 30
0.0
 11
111.30883026123047
 21
-116.4000015258789
 31
0.0
  0
LINE
  8
0
 62
0
 10
60.70919418334961
 20
-72.23187255859375
 30
0.0
 11
58.10627365112305
 21
-63.599998474121094
 31
0.0
  0
LINE
  8
0
 62
0
 10
109.64225006103516
 20
-114.73341369628906
 30
0.0
 11
100.27970123291016
 21
-113.49955749511719
 31
0.0
  0
LINE
  8
0
 62
0
 10
62.68214416503906
 20
-81.02913665771484
 30
0.0
 11
60.70919418334961
 21
-72.23187255859375
 31
0.0
  0
LINE
  8
0
 62
0
 10
100.27970123291016
 20
-113.49955749511719
 30
0.0
 11
91.04966735839844
 21
-111.50299835205078
 31
0.0
  0
LINE
  8
0
 62
0
 10
64.01483154296875
 20
-89.94587707519531
 30
0.0
 11
62.68214416503906
 21
-81.02913665771484
 31
0.0
  0
LINE
  8
0
 62
0
 10
91.04966735839844
 20
-111.50299835205078
 30
0.0
 11
82.01417541503906
 21
-108.75714874267578
 31
0.0
  0
LINE
  8
0
 62
0
 10
67.974365234375
 20
-86.99221801757812
 30
0.0
 11
64.01483154296875
 21
-89.94587707519531
 31
0.0
  0
LINE
  8
0
 62
0
 10
82.01417541503906
 20
-108.75714874267578
 30
0.0
 11
73.23394775390625
 21
-105.28046417236328
 31
0.0
  0
LINE
  8
0
 62
0
 10
71.79779815673828
 20
-83.86438751220703
 30
0.0
 11
67.974365234375
 21
-86.99221801757812
 31
0.0
  0
LINE
  8
0
 62
0
 10
73.23394775390625
 20
-105.28046417236328
 30
0.0
 11
64.76798248291016
 21
-101.0963134765625
 31
0.0
  0
LINE
  8
0
 62
0
 10
75.47748565673828
 20
-80.56865692138672
 30
0.0
 11
71.79779815673828
 21
-83.86438751220703
 31
0.0
  0
LINE
  8
0
 62
0
 10
64.76798248291016
 20
-101.0963134765625
 30
0.0
 11
64.76741790771484
 21
-101.07135772705078
 31
0.0
  0
LINE
  8
0
 62
0
 10
75.47748565673828
 20
-80.56865692138672
 30
0.0
 11
82.26903533935547
 21
-87.3602066040039
 31
0.0
  0
LINE
  8
0
 62
0
 10
64.76741790771484
 20
-101.07135772705078
 30
0.0
 11
64.766845703125
 21
-101.04639434814453
 31
0.0
  0
LINE
  8
0
 62
0
 10
76.71992492675781
 20
-92.2716293334961
 30
0.0
 11
82.26903533935547
 21
-87.3602066040039
 31
0.0
  0
LINE
  8
0
 62
0
 10
64.766845703125
 20
-101.04639434814453
 30
0.0
 11
64.76626586914062
 21
-101.02143859863281
 31
0.0
  0
LINE
  8
0
 62
0
 10
70.87824249267578
 20
-96.83116912841797
 30
0.0
 11
76.71992492675781
 21
-92.2716293334961
 31
0.0
  0
LINE
  8
0
 62
0
 10
64.76626586914062
 20
-101.02143859863281
 30
0.0
 11
70.87824249267578
 21
-96.83116912841797
 31
0.0
  0
LINE
  8
0
 62
0
 10
-58.10627365112305
 20
-63.599998474121094
 30
0.0
 11
-60.70919418334961
 21
-72.23187255859375
 31
0.0
  0
LINE
  8
0
 62
0
 10
-58.10627365112305
 20
-63.599998474121094
 30
0.0
 11
-56.400001525878906
 21
-63.599998474121094
 31
0.0
  0
LINE
  8
0
 62
0
 10
-60.70919418334961
 20
-72.23187255859375
 30
0.0
 11
-62.68214416503906
 21
-81.02913665771484
 31
0.0
  0
LINE
  8
0
 62
0
 10
-56.400001525878906
 20
-63.599998474121094
 30
0.0
 11
-50.07037353515625
 21
-69.92962646484375
 31
0.0
  0
LINE
  8
0
 62
0
 10
-62.68214416503906
 20
-81.02913665771484
 30
0.0
 11
-64.01483154296875
 21
-89.94587707519531
 31
0.0
  0
LINE
  8
0
 62
0
 10
-52.28325271606445
 20
-78.16434478759766
 30
0.0
 11
-50.07037353515625
 21
-69.92962646484375
 31
0.0
  0
LINE
  8
0
 62
0
 10
-64.01483154296875
 20
-89.94587707519531
 30
0.0
 11
-67.974365234375
 21
-86.99221801757812
 31
0.0
  0
LINE
  8
0
 62
0
 10
-53.88097381591797
 20
-86.5401840209961
 30
0.0
 11
-52.28325271606445
 21
-78.16434478759766
 31
0.0
  0
LINE
  8
0
 62
0
 10
-67.974365234375
 20
-86.99221801757812
 30
0.0
 11
-71.79779815673828
 21
-83.86438751220703
 31
0.0
  0
LINE
  8
0
 62
0
 10
-54.85477828979492
 20
-95.01126098632812
 30
0.0
 11
-53.88097381591797
 21
-86.5401840209961
 31
0.0
  0
LINE
  8
0
 62
0
 10
-71.79779815673828
 20
-83.86438751220703
 30
0.0
 11
-75.47748565673828
 21
-80.56865692138672
 31
0.0
  0
LINE
  8
0
 62
0
 10
-49.142581939697266
 20
-90.83097839355469
 30
0.0
 11
-54.85477828979492
 21
-95.01126098632812
 31
0.0
  0
LINE
  8
0
 62
0
 10
-82.26903533935547
 20
-87.3602066040039
 30
0.0
 11
-75.47748565673828
 21
-80.56865692138672
 31
0.0
  0
LINE
  8
0
 62
0
 10
-43.69790267944336
 20
-86.3077621459961
 30
0.0
 11
-49.142581939697266
 21
-90.83097839355469
 31
0.0
  0
LINE
  8
0
 62
0
 10
-82.26903533935547
 20
-87.3602066040039
 30
0.0
 11
-76.71992492675781
 21
-92.2716293334961
 31
0.0
  0
LINE
  8
0
 62
0
 10
-38.541297912597656
 20
-81.45870208740234
 30
0.0
 11
-43.69790267944336
 21
-86.3077621459961
 31
0.0
  0
LINE
  8
0
 62
0
 10
-76.71992492675781
 20
-92.2716293334961
 30
0.0
 11
-70.87824249267578
 21
-96.83116912841797
 31
0.0
  0
LINE
  8
0
 62
0
 10
-38.541297912597656
 20
-81.45870208740234
 30
0.0
 11
-31.753074645996094
 21
-88.2469253540039
 31
0.0
  0
LINE
  8
0
 62
0
 10
-70.87824249267578
 20
-96.83116912841797
 30
0.0
 11
-64.76626586914062
 21
-101.02143859863281
 31
0.0
  0
LINE
  8
0
 62
0
 10
-36.260520935058594
 20
-92.53507232666016
 30
0.0
 11
-31.753074645996094
 21
-88.2469253540039
 31
0.0
  0
LINE
  8
0
 62
0
 10
-64.76626586914062
 20
-101.02143859863281
 30
0.0
 11
-64.766845703125
 21
-101.04639434814453
 31
0.0
  0
LINE
  8
0
 62
0
 10
-40.976070404052734
 20
-96.59326171875
 30
0.0
 11
-36.260520935058594
 21
-92.53507232666016
 31
0.0
  0
LINE
  8
0
 62
0
 10
-64.766845703125
 20
-101.04639434814453
 30
0.0
 11
-64.76741790771484
 21
-101.07135772705078
 31
0.0
  0
LINE
  8
0
 62
0
 10
-45.88800048828125
 20
-100.41140747070312
 30
0.0
 11
-40.976070404052734
 21
-96.59326171875
 31
0.0
  0
LINE
  8
0
 62
0
 10
-64.76741790771484
 20
-101.07135772705078
 30
0.0
 11
-64.76798248291016
 21
-101.0963134765625
 31
0.0
  0
LINE
  8
0
 62
0
 10
-37.26475143432617
 20
-103.92063903808594
 30
0.0
 11
-45.88800048828125
 21
-100.41140747070312
 31
0.0
  0
LINE
  8
0
 62
0
 10
-64.76798248291016
 20
-101.0963134765625
 30
0.0
 11
-73.23394775390625
 21
-105.28046417236328
 31
0.0
  0
LINE
  8
0
 62
0
 10
-28.376493453979492
 20
-106.69083404541016
 30
0.0
 11
-37.26475143432617
 21
-103.92063903808594
 31
0.0
  0
LINE
  8
0
 62
0
 10
-73.23394775390625
 20
-105.28046417236328
 30
0.0
 11
-82.01417541503906
 21
-108.75714874267578
 31
0.0
  0
LINE
  8
0
 62
0
 10
-19.286441802978516
 20
-108.70231628417969
 30
0.0
 11
-28.376493453979492
 21
-106.69083404541016
 31
0.0
  0
LINE
  8
0
 62
0
 10
-82.01417541503906
 20
-108.75714874267578
 30
0.0
 11
-91.04966735839844
 21
-111.50299835205078
 31
0.0
  0
LINE
  8
0
 62
0
 10
-10.059234619140625
 20
-109.94076538085938
 30
0.0
 11
-19.286441802978516
 21
-108.70231628417969
 31
0.0
  0
LINE
  8
0
 62
0
 10
-91.04966735839844
 20
-111.50299835205078
 30
0.0
 11
-100.27970123291016
 21
-113.49955749511719
 31
0.0
  0
LINE
  8
0
 62
0
 10
-10.059234619140625
 20
-109.94076538085938
 30
0.0
 11
-3.5999999046325684
 21
-116.4000015258789
 31
0.0
  0
LINE
  8
0
 62
0
 10
-100.27970123291016
 20
-113.49955749511719
 30
0.0
 11
-109.64225006103516
 21
-114.73341369628906
 31
0.0
  0
LINE
  8
0
 62
0
 10
-3.5999999046325684
 20
-116.4000015258789
 30
0.0
 11
-29.172590255737305
 21
-116.4000015258789
 31
0.0
  0
LINE
  8
0
 62
0
 10
-111.30883026123047
 20
-116.4000015258789
 30
0.0
 11
-109.64225006103516
 21
-114.73341369628906
 31
0.0
  0
LINE
  8
0
 62
0
 10
-29.172590255737305
 20
-116.4000015258789
 30
0.0
 11
-38.06016159057617
 21
-113.8043212890625
 31
0.0
  0
LINE
  8
0
 62
0
 10
-74.98799896240234
 20
-116.4000015258789
 30
0.0
 11
-111.30883026123047
 21
-116.4000015258789
 31
0.0
  0
LINE
  8
0
 62
0
 10
-38.06016159057617
 20
-113.8043212890625
 30
0.0
 11
-46.72114944458008
 21
-110.53114318847656
 31
0.0
  0
LINE
  8
0
 62
0
 10
-74.98799896240234
 20
-116.4000015258789
 30
0.0
 11
-71.46281433105469
 21
-114.97470092773438
 31
0.0
  0
LINE
  8
0
 62
0
 10
-46.72114944458008
 20
-110.53114318847656
 30
0.0
 11
-55.104000091552734
 21
-106.5999526977539
 31
0.0
  0
LINE
  8
0
 62
0
 10
-71.46281433105469
 20
-114.97470092773438
 30
0.0
 11
-67.98267364501953
 21
-113.44266510009766
 31
0.0
  0
LINE
  8
0
 62
0
 10
-55.12532424926758
 20
-106.61293029785156
 30
0.0
 11
-55.104000091552734
 21
-106.5999526977539
 31
0.0
  0
LINE
  8
0
 62
0
 10
-67.98267364501953
 20
-113.44266510009766
 30
0.0
 11
-64.55083465576172
 21
-111.8053207397461
 31
0.0
  0
LINE
  8
0
 62
0
 10
-55.14665222167969
 20
-106.62590026855469
 30
0.0
 11
-55.12532424926758
 21
-106.61293029785156
 31
0.0
  0
LINE
  8
0
 62
0
 10
-64.55083465576172
 20
-111.8053207397461
 30
0.0
 11
-64.44432830810547
 21
-113.33838653564453
 31
0.0
  0
LINE
  8
0
 62
0
 10
-55.16798400878906
 20
-106.63887786865234
 30
0.0
 11
-55.14665222167969
 21
-106.62590026855469
 31
0.0
  0
LINE
  8
0
 62
0
 10
-64.44432830810547
 20
-113.33838653564453
 30
0.0
 11
-64.31896209716797
 21
-114.87002563476562
 31
0.0
  0
LINE
  8
0
 62
0
 10
-55.0449333190918
 20
-109.89823913574219
 30
0.0
 11
-55.16798400878906
 21
-106.63887786865234
 31
0.0
  0
LINE
  8
0
 62
0
 10
-64.31896209716797
 20
-114.87002563476562
 30
0.0
 11
-64.17473602294922
 21
-116.4000015258789
 31
0.0
  0
LINE
  8
0
 62
0
 10
-54.82966232299805
 20
-113.15282440185547
 30
0.0
 11
-55.0449333190918
 21
-109.89823913574219
 31
0.0
  0
LINE
  8
0
 62
0
 10
-54.5223388671875
 20
-116.4000015258789
 30
0.0
 11
-64.17473602294922
 21
-116.4000015258789
 31
0.0
  0
LINE
  8
0
 62
0
 10
-54.5223388671875
 20
-116.4000015258789
 30
0.0
 11
-54.82966232299805
 21
-113.15282440185547
 31
0.0
  0
LINE
  8
0
 62
0
 10
-23.947513580322266
 20
-63.599998474121094
 30
0.0
 11
-18.838899612426758
 21
-63.599998474121094
 31
0.0
  0
LINE
  8
0
 62
0
 10
-23.947513580322266
 20
-63.599998474121094
 30
0.0
 11
-24.047897338867188
 21
-63.751346588134766
 31
0.0
  0
LINE
  8
0
 62
0
 10
-18.838899612426758
 20
-63.599998474121094
 30
0.0
 11
-17.235261917114258
 21
-66.05664825439453
 31
0.0
  0
LINE
  8
0
 62
0
 10
-24.047897338867188
 20
-63.751346588134766
 30
0.0
 11
-24.14851951599121
 21
-63.90253448486328
 31
0.0
  0
LINE
  8
0
 62
0
 10
-17.235261917114258
 20
-66.05664825439453
 30
0.0
 11
-15.693666458129883
 21
-68.52173614501953
 31
0.0
  0
LINE
  8
0
 62
0
 10
-24.14851951599121
 20
-63.90253448486328
 30
0.0
 11
-24.249380111694336
 21
-64.0535659790039
 31
0.0
  0
LINE
  8
0
 62
0
 10
-16.235820770263672
 20
-69.33999633789062
 30
0.0
 11
-15.693666458129883
 21
-68.52173614501953
 31
0.0
  0
LINE
  8
0
 62
0
 10
-17.339351654052734
 20
-70.96359252929688
 30
0.0
 11
-24.249380111694336
 21
-64.0535659790039
 31
0.0
  0
LINE
  8
0
 62
0
 10
-16.784393310546875
 20
-70.15396118164062
 30
0.0
 11
-16.235820770263672
 21
-69.33999633789062
 31
0.0
  0
LINE
  8
0
 62
0
 10
-17.339351654052734
 20
-70.96359252929688
 30
0.0
 11
-16.784393310546875
 21
-70.15396118164062
 31
0.0
  0
LINE
  8
0
 62
0
 10
-116.4000015258789
 20
-3.5999999046325684
 30
0.0
 11
-109.25328826904297
 21
-10.746709823608398
 31
0.0
  0
LINE
  8
0
 62
0
 10
-116.4000015258789
 20
-29.172590255737305
 30
0.0
 11
-116.4000015258789
 21
-3.5999999046325684
 31
0.0
  0
LINE
  8
0
 62
0
 10
-109.46997833251953
 20
-10.653392791748047
 30
0.0
 11
-109.25328826904297
 21
-10.746709823608398
 31
0.0
  0
LINE
  8
0
 62
0
 10
-116.4000015258789
 20
-29.172590255737305
 30
0.0
 11
-113.50418853759766
 21
-38.94610595703125
 31
0.0
  0
LINE
  8
0
 62
0
 10
-109.68649291992188
 20
-10.559666633605957
 30
0.0
 11
-109.46997833251953
 21
-10.653392791748047
 31
0.0
  0
LINE
  8
0
 62
0
 10
-113.50418853759766
 20
-38.94610595703125
 30
0.0
 11
-109.78935241699219
 21
-48.438594818115234
 31
0.0
  0
LINE
  8
0
 62
0
 10
-109.90283203125
 20
-10.465531349182129
 30
0.0
 11
-109.68649291992188
 21
-10.559666633605957
 31
0.0
  0
LINE
  8
0
 62
0
 10
-109.78935241699219
 20
-48.438594818115234
 30
0.0
 11
-105.28230285644531
 21
-57.58156204223633
 31
0.0
  0
LINE
  8
0
 62
0
 10
-108.435791015625
 20
-20.732582092285156
 30
0.0
 11
-109.90283203125
 21
-10.465531349182129
 31
0.0
  0
LINE
  8
0
 62
0
 10
-105.28230285644531
 20
-57.58156204223633
 30
0.0
 11
-100.01555633544922
 21
-66.30903625488281
 31
0.0
  0
LINE
  8
0
 62
0
 10
-106.01176452636719
 20
-30.816659927368164
 30
0.0
 11
-108.435791015625
 21
-20.732582092285156
 31
0.0
  0
LINE
  8
0
 62
0
 10
-100.01555633544922
 20
-66.30903625488281
 30
0.0
 11
-94.0271224975586
 21
-74.55803680419922
 31
0.0
  0
LINE
  8
0
 62
0
 10
-102.65214538574219
 20
-40.62876892089844
 30
0.0
 11
-106.01176452636719
 21
-30.816659927368164
 31
0.0
  0
LINE
  8
0
 62
0
 10
-94.0271224975586
 20
-74.55803680419922
 30
0.0
 11
-87.3602066040039
 21
-82.26903533935547
 31
0.0
  0
LINE
  8
0
 62
0
 10
-98.38658905029297
 20
-50.08231735229492
 30
0.0
 11
-102.65214538574219
 21
-40.62876892089844
 31
0.0
  0
LINE
  8
0
 62
0
 10
-80.56865692138672
 20
-75.47748565673828
 30
0.0
 11
-87.3602066040039
 21
-82.26903533935547
 31
0.0
  0
LINE
  8
0
 62
0
 10
-93.25273895263672
 20
-59.093875885009766
 30
0.0
 11
-98.38658905029297
 21
-50.08231735229492
 31
0.0
  0
LINE
  8
0
 62
0
 10
-80.56865692138672
 20
-75.47748565673828
 30
0.0
 11
-87.29590606689453
 21
-67.58390808105469
 31
0.0
  0
LINE
  8
0
 62
0
 10
-87.29590606689453
 20
-67.58390808105469
 30
0.0
 11
-93.25273895263672
 21
-59.093875885009766
 31
0.0
  0
LINE
  8
0
 62
0
 10
-63.599998474121094
 20
-18.838899612426758
 30
0.0
 11
-63.599998474121094
 21
-20.82501792907715
 31
0.0
  0
LINE
  8
0
 62
0
 10
-70.71856689453125
 20
-14.3759183883667
 30
0.0
 11
-63.599998474121094
 21
-18.838899612426758
 31
0.0
  0
LINE
  8
0
 62
0
 10
-63.599998474121094
 20
-20.82501792907715
 30
0.0
 11
-64.95442962646484
 21
-20.7785701751709
 31
0.0
  0
LINE
  8
0
 62
0
 10
-77.84761047363281
 20
-10.455336570739746
 30
0.0
 11
-70.71856689453125
 21
-14.3759183883667
 31
0.0
  0
LINE
  8
0
 62
0
 10
-64.95442962646484
 20
-20.7785701751709
 30
0.0
 11
-66.30827331542969
 21
-20.717416763305664
 31
0.0
  0
LINE
  8
0
 62
0
 10
-67.661376953125
 20
-20.64156723022461
 30
0.0
 11
-77.84761047363281
 21
-10.455336570739744
 31
0.0
  0
LINE
  8
0
 62
0
 10
-66.30827331542969
 20
-20.717416763305664
 30
0.0
 11
-67.661376953125
 21
-20.64156723022461
 31
0.0
  0
LINE
  8
0
 62
0
 10
-38.060630798339844
 20
-43.46519088745117
 30
0.0
 11
-36.738685607910156
 21
-41.37173843383789
 31
0.0
  0
LINE
  8
0
 62
0
 10
-39.3372802734375
 20
-45.586570739746094
 30
0.0
 11
-38.060630798339844
 21
-43.46519088745117
 31
0.0
  0
LINE
  8
0
 62
0
 10
-38.44709396362305
 20
-39.62043380737305
 30
0.0
 11
-36.738685607910156
 21
-41.37173843383789
 31
0.0
  0
LINE
  8
0
 62
0
 10
-40.56804656982422
 20
-47.73489761352539
 30
0.0
 11
-39.3372802734375
 21
-45.586570739746094
 31
0.0
  0
LINE
  8
0
 62
0
 10
-40.18144607543945
 20
-37.894309997558594
 30
0.0
 11
-38.44709396362305
 21
-39.62043380737305
 31
0.0
  0
LINE
  8
0
 62
0
 10
-40.56804656982422
 20
-47.73489761352539
 30
0.0
 11
-47.60145950317383
 21
-40.70148468017578
 31
0.0
  0
LINE
  8
0
 62
0
 10
-41.940608978271484
 20
-36.19449234008789
 30
0.0
 11
-40.18144607543945
 21
-37.894309997558594
 31
0.0
  0
LINE
  8
0
 62
0
 10
-46.34900665283203
 20
-38.61662292480469
 30
0.0
 11
-47.60145950317383
 21
-40.70148468017578
 31
0.0
  0
LINE
  8
0
 62
0
 10
-43.72341537475586
 20
-34.522090911865234
 30
0.0
 11
-41.940608978271484
 21
-36.19449234008789
 31
0.0
  0
LINE
  8
0
 62
0
 10
-45.05615997314453
 20
-36.55656433105469
 30
0.0
 11
-46.34900665283203
 21
-38.61662292480469
 31
0.0
  0
LINE
  8
0
 62
0
 10
-43.72341537475586
 20
-34.522090911865234
 30
0.0
 11
-45.05615997314453
 21
-36.55656433105469
 31
0.0
  0
LINE
  8
0
 62
0
 10
-42.92082977294922
 20
-52.17033767700195
 30
0.0
 11
-50.04100799560547
 21
-45.05016326904297
 31
0.0
  0
LINE
  8
0
 62
0
 10
-43.61330032348633
 20
-53.571048736572266
 30
0.0
 11
-42.92082977294922
 21
-52.17033767700195
 31
0.0
  0
LINE
  8
0
 62
0
 10
-50.04100799560547
 20
-45.05016326904297
 30
0.0
 11
-51.95309066772461
 21
-48.77284240722656
 31
0.0
  0
LINE
  8
0
 62
0
 10
-44.286712646484375
 20
-54.981021881103516
 30
0.0
 11
-43.61330032348633
 21
-53.571048736572266
 31
0.0
  0
LINE
  8
0
 62
0
 10
-51.95309066772461
 20
-48.77284240722656
 30
0.0
 11
-53.73928451538086
 21
-52.55754089355469
 31
0.0
  0
LINE
  8
0
 62
0
 10
-44.94093322753906
 20
-56.400001525878906
 30
0.0
 11
-44.286712646484375
 21
-54.981021881103516
 31
0.0
  0
LINE
  8
0
 62
0
 10
-53.73928451538086
 20
-52.55754089355469
 30
0.0
 11
-55.3975715637207
 21
-56.400001525878906
 31
0.0
  0
LINE
  8
0
 62
0
 10
-44.94093322753906
 20
-56.400001525878906
 30
0.0
 11
-55.3975715637207
 21
-56.400001525878906
 31
0.0
  0
LINE
  8
0
 62
0
 10
-51.30883026123047
 20
-63.599998474121094
 30
0.0
 11
-48.812564849853516
 21
-66.09626770019531
 31
0.0
  0
LINE
  8
0
 62
0
 10
-51.30883026123047
 20
-63.599998474121094
 30
0.0
 11
-47.91242599487305
 21
-63.599998474121094
 31
0.0
  0
LINE
  8
0
 62
0
 10
-48.812564849853516
 20
-66.09626770019531
 30
0.0
 11
-48.51891326904297
 21
-65.26187896728516
 31
0.0
  0
LINE
  8
0
 62
0
 10
-48.2188606262207
 20
-64.42977905273438
 30
0.0
 11
-47.91242599487305
 21
-63.599998474121094
 31
0.0
  0
LINE
  8
0
 62
0
 10
-48.51891326904297
 20
-65.26187896728516
 30
0.0
 11
-48.2188606262207
 21
-64.42977905273438
 31
0.0
  0
LINE
  8
0
 62
0
 10
53.73928451538086
 20
-52.55754089355469
 30
0.0
 11
51.95309066772461
 21
-48.77284240722656
 31
0.0
  0
LINE
  8
0
 62
0
 10
55.3975715637207
 20
-56.400001525878906
 30
0.0
 11
53.73928451538086
 21
-52.55754089355469
 31
0.0
  0
LINE
  8
0
 62
0
 10
51.95309066772461
 20
-48.77284240722656
 30
0.0
 11
50.04100799560547
 21
-45.05016326904297
 31
0.0
  0
LINE
  8
0
 62
0
 10
55.3975715637207
 20
-56.400001525878906
 30
0.0
 11
44.94093322753906
 21
-56.400001525878906
 31
0.0
  0
LINE
  8
0
 62
0
 10
50.04100799560547
 20
-45.05016326904297
 30
0.0
 11
42.92082977294922
 21
-52.17033767700195
 31
0.0
  0
LINE
  8
0
 62
0
 10
44.286712646484375
 20
-54.981021881103516
 30
0.0
 11
44.94093322753906
 21
-56.400001525878906
 31
0.0
  0
LINE
  8
0
 62
0
 10
42.92082977294922
 20
-52.17033767700195
 30
0.0
 11
43.61330032348633
 21
-53.571048736572266
 31
0.0
  0
LINE
  8
0
 62
0
 10
43.61330032348633
 20
-53.571048736572266
 30
0.0
 11
44.286712646484375
 21
-54.981021881103516
 31
0.0
  0
LINE
  8
0
 62
0
 10
93.25273895263672
 20
59.093875885009766
 30
0.0
 11
98.38658905029297
 21
50.08231735229492
 31
0.0
  0
LINE
  8
0
 62
0
 10
87.29590606689453
 20
67.58390808105469
 30
0.0
 11
93.25273895263672
 21
59.093875885009766
 31
0.0
  0
LINE
  8
0
 62
0
 10
98.38658905029297
 20
50.08231735229492
 30
0.0
 11
102.65214538574219
 21
40.62876892089844
 31
0.0
  0
LINE
  8
0
 62
0
 10
80.56865692138672
 20
75.47748565673828
 30
0.0
 11
87.29590606689453
 21
67.58390808105469
 31
0.0
  0
LINE
  8
0
 62
0
 10
102.65214538574219
 20
40.62876892089844
 30
0.0
 11
106.01176452636719
 21
30.816659927368164
 31
0.0
  0
LINE
  8
0
 62
0
 10
80.56865692138672
 20
75.47748565673828
 30
0.0
 11
87.3602066040039
 21
82.26903533935547
 31
0.0
  0
LINE
  8
0
 62
0
 10
106.01176452636719
 20
30.816659927368164
 30
0.0
 11
108.435791015625
 21
20.732582092285156
 31
0.0
  0
LINE
  8
0
 62
0
 10
94.0271224975586
 20
74.55803680419922
 30
0.0
 11
87.3602066040039
 21
82.26903533935547
 31
0.0
  0
LINE
  8
0
 62
0
 10
108.435791015625
 20
20.732582092285156
 30
0.0
 11
109.90283203125
 21
10.465531349182129
 31
0.0
  0
LINE
  8
0
 62
0
 10
100.01555633544922
 20
66.30903625488281
 30
0.0
 11
94.0271224975586
 21
74.55803680419922
 31
0.0
  0
LINE
  8
0
 62
0
 10
109.90283203125
 20
10.465531349182129
 30
0.0
 11
109.68649291992188
 21
10.559666633605957
 31
0.0
  0
LINE
  8
0
 62
0
 10
105.28230285644531
 20
57.58156204223633
 30
0.0
 11
100.01555633544922
 21
66.30903625488281
 31
0.0
  0
LINE
  8
0
 62
0
 10
109.68649291992188
 20
10.559666633605957
 30
0.0
 11
109.46997833251953
 21
10.653392791748047
 31
0.0
  0
LINE
  8
0
 62
0
 10
109.78935241699219
 20
48.438594818115234
 30
0.0
 11
105.28230285644531
 21
57.58156204223633
 31
0.0
  0
LINE
  8
0
 62
0
 10
109.46997833251953
 20
10.653392791748047
 30
0.0
 11
109.25328826904297
 21
10.746709823608398
 31
0.0
  0
LINE
  8
0
 62
0
 10
113.50418853759766
 20
38.94610595703125
 30
0.0
 11
109.78935241699219
 21
48.438594818115234
 31
0.0
  0
LINE
  8
0
 62
0
 10
116.4000015258789
 20
3.5999999046325684
 30
0.0
 11
109.25328826904297
 21
10.746709823608398
 31
0.0
  0
LINE
  8
0
 62
0
 10
116.4000015258789
 20
29.172590255737305
 30
0.0
 11
113.50418853759766
 21
38.94610595703125
 31
0.0
  0
LINE
  8
0
 62
0
 10
116.4000015258789
 20
29.172590255737305
 30
0.0
 11
116.4000015258789
 21
3.5999999046325684
 31
0.0
  0
LINE
  8
0
 62
0
 10
70.71856689453125
 20
14.3759183883667
 30
0.0
 11
63.599998474121094
 21
18.838899612426758
 31
0.0
  0
LINE
  8
0
 62
0
 10
77.84761047363281
 20
10.455336570739746
 30
0.0
 11
70.71856689453125
 21
14.3759183883667
 31
0.0
  0
LINE
  8
0
 62
0
 10
63.599998474121094
 20
18.838899612426758
 30
0.0
 11
63.599998474121094
 21
20.82501792907715
 31
0.0
  0
LINE
  8
0
 62
0
 10
67.661376953125
 20
20.64156723022461
 30
0.0
 11
77.84761047363281
 21
10.455336570739744
 31
0.0
  0
LINE
  8
0
 62
0
 10
63.599998474121094
 20
20.82501792907715
 30
0.0
 11
64.95442962646484
 21
20.7785701751709
 31
0.0
  0
LINE
  8
0
 62
0
 10
66.30827331542969
 20
20.717416763305664
 30
0.0
 11
67.661376953125
 21
20.64156723022461
 31
0.0
  0
LINE
  8
0
 62
0
 10
64.95442962646484
 20
20.7785701751709
 30
0.0
 11
66.30827331542969
 21
20.717416763305664
 31
0.0
  0
LINE
  8
0
 62
0
 10
100.93700408935547
 20
-13.971827507019043
 30
0.0
 11
114.90882873535156
 21
0.0
 31
0.0
  0
LINE
  8
0
 62
0
 10
92.48517608642578
 20
-16.57489013671875
 30
0.0
 11
100.93700408935547
 21
-13.971827507019043
 31
0.0
  0
LINE
  8
0
 62
0
 10
114.90882873535156
 20
5.551115123125783e-16
 30
0.0
 11
100.93700408935547
 21
13.971827507019043
 31
0.0
  0
LINE
  8
0
 62
0
 10
83.87022399902344
 20
-18.572879791259766
 30
0.0
 11
92.48517608642578
 21
-16.57489013671875
 31
0.0
  0
LINE
  8
0
 62
0
 10
100.93700408935547
 20
13.971827507019043
 30
0.0
 11
92.48517608642578
 21
16.57489013671875
 31
0.0
  0
LINE
  8
0
 62
0
 10
75.13540649414062
 20
-19.955760955810547
 30
0.0
 11
83.87022399902344
 21
-18.572879791259766
 31
0.0
  0
LINE
  8
0
 62
0
 10
92.48517608642578
 20
16.57489013671875
 30
0.0
 11
83.87022399902344
 21
18.572879791259766
 31
0.0
  0
LINE
  8
0
 62
0
 10
87.0302734375
 20
-8.060898780822754
 30
0.0
 11
75.13540649414062
 21
-19.955760955810547
 31
0.0
  0
LINE
  8
0
 62
0
 10
83.87022399902344
 20
18.572879791259766
 30
0.0
 11
75.13540649414062
 21
19.955760955810547
 31
0.0
  0
LINE
  8
0
 62
0
 10
94.74957275390625
 20
-5.910950660705566
 30
0.0
 11
87.0302734375
 21
-8.060898780822754
 31
0.0
  0
LINE
  8
0
 62
0
 10
75.13540649414062
 20
19.955760955810547
 30
0.0
 11
87.0302734375
 21
8.060898780822754
 31
0.0
  0
LINE
  8
0
 62
0
 10
102.30073547363281
 20
-3.2295877933502197
 30
0.0
 11
94.74957275390625
 21
-5.910950660705566
 31
0.0
  0
LINE
  8
0
 62
0
 10
87.0302734375
 20
8.060898780822754
 30
0.0
 11
94.74957275390625
 21
5.910950660705566
 31
0.0
  0
LINE
  8
0
 62
0
 10
109.6472396850586
 20
-0.029783396050333977
 30
0.0
 11
102.30073547363281
 21
-3.2295877933502197
 31
0.0
  0
LINE
  8
0
 62
0
 10
94.74957275390625
 20
5.910950660705566
 30
0.0
 11
102.30073547363281
 21
3.2295877933502197
 31
0.0
  0
LINE
  8
0
 62
0
 10
110.15371704101562
 20
-0.00800368469208479
 30
0.0
 11
109.6472396850586
 21
-0.029783396050333977
 31
0.0
  0
LINE
  8
0
 62
0
 10
102.30073547363281
 20
3.2295877933502197
 30
0.0
 11
109.6472396850586
 21
0.029783396050333977
 31
0.0
  0
LINE
  8
0
 62
0
 10
110.33260345458984
 20
-0.0030223496723920107
 30
0.0
 11
110.15371704101562
 21
-0.00800368469208479
 31
0.0
  0
LINE
  8
0
 62
0
 10
109.6472396850586
 20
0.029783396050333977
 30
0.0
 11
110.15371704101562
 21
0.00800368469208479
 31
0.0
  0
LINE
  8
0
 62
0
 10
110.3827133178711
 20
-0.0013847751542925835
 30
0.0
 11
110.33260345458984
 21
-0.003022349672392011
 31
0.0
  0
LINE
  8
0
 62
0
 10
110.15371704101562
 20
0.00800368469208479
 30
0.0
 11
110.33260345458984
 21
0.0030223496723920107
 31
0.0
  0
LINE
  8
0
 62
0
 10
110.39564514160156
 20
-0.0006764637655578554
 30
0.0
 11
110.3827133178711
 21
-0.0013847751542925835
 31
0.0
  0
LINE
  8
0
 62
0
 10
110.33260345458984
 20
0.0030223496723920107
 30
0.0
 11
110.3827133178711
 21
0.001384775154292583
 31
0.0
  0
LINE
  8
0
 62
0
 10
110.39891052246094
 20
-0.00033623754279688
 30
0.0
 11
110.39564514160156
 21
-0.0006764637655578554
 31
0.0
  0
LINE
  8
0
 62
0
 10
110.3827133178711
 20
0.0013847751542925835
 30
0.0
 11
110.39564514160156
 21
0.0006764637655578554
 31
0.0
  0
LINE
  8
0
 62
0
 10
110.39972686767578
 20
-0.0001678693515714258
 30
0.0
 11
110.39891052246094
 21
-0.00033623754279688
 31
0.0
  0
LINE
  8
0
 62
0
 10
110.39564514160156
 20
0.0006764637655578554
 30
0.0
 11
110.39891052246094
 21
0.00033623754279688
 31
0.0
  0
LINE
  8
0
 62
0
 10
110.39993286132812
 20
-8.390349830733612e-05
 30
0.0
 11
110.39972686767578
 21
-0.0001678693515714258
 31
0.0
  0
LINE
  8
0
 62
0
 10
110.39891052246094
 20
0.00033623754279688
 30
0.0
 11
110.39972686767578
 21
0.0001678693515714258
 31
0.0
  0
LINE
  8
0
 62
0
 10
110.39998626708984
 20
-4.1947852878365666e-05
 30
0.0
 11
110.39993286132812
 21
-8.390349830733612e-05
 31
0.0
  0
LINE
  8
0
 62
0
 10
110.39972686767578
 20
0.0001678693515714258
 30
0.0
 11
110.39993286132812
 21
8.390349830733612e-05
 31
0.0
  0
LINE
  8
0
 62
0
 10
110.39999389648438
 20
-2.0973438950022683e-05
 30
0.0
 11
110.39998626708984
 21
-4.1947852878365666e-05
 31
0.0
  0
LINE
  8
0
 62
0
 10
110.39993286132812
 20
8.390349830733612e-05
 30
0.0
 11
110.39998626708984
 21
4.1947852878365666e-05
 31
0.0
  0
LINE
  8
0
 62
0
 10
110.4000015258789
 20
0.0
 30
0.0
 11
110.39999389648438
 21
-2.0973438950022686e-05
 31
0.0
  0
LINE
  8
0
 62
0
 10
110.39998626708984
 20
4.1947852878365666e-05
 30
0.0
 11
110.39999389648438
 21
2.0973438950022683e-05
 31
0.0
  0
LINE
  8
0
 62
0
 10
110.39999389648438
 20
2.0973438950022683e-05
 30
0.0
 11
110.4000015258789
 21
-3.3881317890172014e-21
 31
0.0
  0
LINE
  8
0
 62
0
 10
67.661376953125
 20
-20.64156723022461
 30
0.0
 11
66.30827331542969
 21
-20.717416763305664
 31
0.0
  0
LINE
  8
0
 62
0
 10
77.84761047363281
 20
-10.455336570739746
 30
0.0
 11
67.661376953125
 21
-20.64156723022461
 31
0.0
  0
LINE
  8
0
 62
0
 10
66.30827331542969
 20
-20.717416763305664
 30
0.0
 11
64.95442962646484
 21
-20.7785701751709
 31
0.0
  0
LINE
  8
0
 62
0
 10
70.71856689453125
 20
-14.3759183883667
 30
0.0
 11
77.84761047363281
 21
-10.455336570739746
 31
0.0
  0
LINE
  8
0
 62
0
 10
64.95442962646484
 20
-20.7785701751709
 30
0.0
 11
63.599998474121094
 21
-20.82501792907715
 31
0.0
  0
LINE
  8
0
 62
0
 10
63.599998474121094
 20
-18.838899612426758
 30
0.0
 11
70.71856689453125
 21
-14.3759183883667
 31
0.0
  0
LINE
  8
0
 62
0
 10
63.599998474121094
 20
-20.82501792907715
 30
0.0
 11
63.599998474121094
 21
-18.838899612426758
 31
0.0
  0
LINE
  8
0
 62
0
 10
100.01555633544922
 20
-66.30903625488281
 30
0.0
 11
105.28230285644531
 21
-57.58156204223633
 31
0.0
  0
LINE
  8
0
 62
0
 10
94.0271224975586
 20
-74.55803680419922
 30
0.0
 11
100.01555633544922
 21
-66.30903625488281
 31
0.0
  0
LINE
  8
0
 62
0
 10
105.28230285644531
 20
-57.58156204223633
 30
0.0
 11
109.78935241699219
 21
-48.438594818115234
 31
0.0
  0
LINE
  8
0
 62
0
 10
87.3602066040039
 20
-82.26903533935547
 30
0.0
 11
94.0271224975586
 21
-74.55803680419922
 31
0.0
  0
LINE
  8
0
 62
0
 10
109.78935241699219
 20
-48.438594818115234
 30
0.0
 11
113.50418853759766
 21
-38.94610595703125
 31
0.0
  0
LINE
  8
0
 62
0
 10
87.3602066040039
 20
-82.26903533935547
 30
0.0
 11
80.56865692138672
 21
-75.47748565673828
 31
0.0
  0
LINE
  8
0
 62
0
 10
113.50418853759766
 20
-38.94610595703125
 30
0.0
 11
116.4000015258789
 21
-29.172590255737305
 31
0.0
  0
LINE
  8
0
 62
0
 10
87.29590606689453
 20
-67.58390808105469
 30
0.0
 11
80.56865692138672
 21
-75.47748565673828
 31
0.0
  0
LINE
  8
0
 62
0
 10
116.4000015258789
 20
-3.5999999046325684
 30
0.0
 11
116.4000015258789
 21
-29.172590255737305
 31
0.0
  0
LINE
  8
0
 62
0
 10
93.25273895263672
 20
-59.093875885009766
 30
0.0
 11
87.29590606689453
 21
-67.58390808105469
 31
0.0
  0
LINE
  8
0
 62
0
 10
116.4000015258789
 20
-3.5999999046325684
 30
0.0
 11
109.25328826904297
 21
-10.746709823608398
 31
0.0
  0
LINE
  8
0
 62
0
 10
98.38658905029297
 20
-50.08231735229492
 30
0.0
 11
93.25273895263672
 21
-59.093875885009766
 31
0.0
  0
LINE
  8
0
 62
0
 10
109.25328826904297
 20
-10.746709823608398
 30
0.0
 11
109.46997833251953
 21
-10.653392791748047
 31
0.0
  0
LINE
  8
0
 62
0
 10
102.65214538574219
 20
-40.62876892089844
 30
0.0
 11
98.38658905029297
 21
-50.08231735229492
 31
0.0
  0
LINE
  8
0
 62
0
 10
109.46997833251953
 20
-10.653392791748047
 30
0.0
 11
109.68649291992188
 21
-10.559666633605957
 31
0.0
  0
LINE
  8
0
 62
0
 10
106.01176452636719
 20
-30.816659927368164
 30
0.0
 11
102.65214538574219
 21
-40.62876892089844
 31
0.0
  0
LINE
  8
0
 62
0
 10
109.68649291992188
 20
-10.559666633605957
 30
0.0
 11
109.90283203125
 21
-10.465531349182129
 31
0.0
  0
LINE
  8
0
 62
0
 10
108.435791015625
 20
-20.732582092285156
 30
0.0
 11
106.01176452636719
 21
-30.816659927368164
 31
0.0
  0
LINE
  8
0
 62
0
 10
109.90283203125
 20
-10.465531349182129
 30
0.0
 11
108.435791015625
 21
-20.732582092285156
 31
0.0
  0
LINE
  8
0
 62
0
 10
17.339351654052734
 20
70.96359252929688
 30
0.0
 11
16.784393310546875
 21
70.15396118164062
 31
0.0
  0
LINE
  8
0
 62
0
 10
17.339351654052734
 20
70.96359252929688
 30
0.0
 11
24.249380111694336
 21
64.0535659790039
 31
0.0
  0
LINE
  8
0
 62
0
 10
16.784393310546875
 20
70.15396118164062
 30
0.0
 11
16.235820770263672
 21
69.33999633789062
 31
0.0
  0
LINE
  8
0
 62
0
 10
24.14851951599121
 20
63.90253448486328
 30
0.0
 11
24.249380111694336
 21
64.0535659790039
 31
0.0
  0
LINE
  8
0
 62
0
 10
16.235820770263672
 20
69.33999633789062
 30
0.0
 11
15.693666458129883
 21
68.52173614501953
 31
0.0
  0
LINE
  8
0
 62
0
 10
24.047897338867188
 20
63.751346588134766
 30
0.0
 11
24.14851951599121
 21
63.90253448486328
 31
0.0
  0
LINE
  8
0
 62
0
 10
15.693666458129883
 20
68.52173614501953
 30
0.0
 11
17.235261917114258
 21
66.05664825439453
 31
0.0
  0
LINE
  8
0
 62
0
 10
23.947513580322266
 20
63.599998474121094
 30
0.0
 11
24.047897338867188
 21
63.751346588134766
 31
0.0
  0
LINE
  8
0
 62
0
 10
17.235261917114258
 20
66.05664825439453
 30
0.0
 11
18.838899612426758
 21
63.599998474121094
 31
0.0
  0
LINE
  8
0
 62
0
 10
23.947513580322266
 20
63.599998474121094
 30
0.0
 11
18.838899612426758
 21
63.599998474121094
 31
0.0
  0
LINE
  8
0
 62
0
 10
23.067203521728516
 20
78.6070785522461
 30
0.0
 11
20.18193244934082
 21
74.90923309326172
 31
0.0
  0
LINE
  8
0
 62
0
 10
26.089385986328125
 20
82.19389343261719
 30
0.0
 11
23.067203521728516
 21
78.6070785522461
 31
0.0
  0
LINE
  8
0
 62
0
 10
20.18193244934082
 20
74.90923309326172
 30
0.0
 11
27.044605255126953
 21
68.04656219482422
 31
0.0
  0
LINE
  8
0
 62
0
 10
29.244211196899414
 20
85.66461944580078
 30
0.0
 11
26.089385986328125
 21
82.19389343261719
 31
0.0
  0
LINE
  8
0
 62
0
 10
27.044605255126953
 20
68.04656219482422
 30
0.0
 11
29.89365005493164
 21
71.7766342163086
 31
0.0
  0
LINE
  8
0
 62
0
 10
36.035499572753906
 20
78.87332916259766
 30
0.0
 11
29.244211196899414
 21
85.66461944580078
 31
0.0
  0
LINE
  8
0
 62
0
 10
29.89365005493164
 20
71.7766342163086
 30
0.0
 11
32.89227294921875
 21
75.38755798339844
 31
0.0
  0
LINE
  8
0
 62
0
 10
32.89227294921875
 20
75.38755798339844
 30
0.0
 11
36.035499572753906
 21
78.87332916259766
 31
0.0
  0
LINE
  8
0
 62
0
 10
51.30883026123047
 20
63.599998474121094
 30
0.0
 11
48.812564849853516
 21
66.09626770019531
 31
0.0
  0
LINE
  8
0
 62
0
 10
51.30883026123047
 20
63.599998474121094
 30
0.0
 11
47.91242599487305
 21
63.599998474121094
 31
0.0
  0
LINE
  8
0
 62
0
 10
48.812564849853516
 20
66.09626770019531
 30
0.0
 11
48.51891326904297
 21
65.26187896728516
 31
0.0
  0
LINE
  8
0
 62
0
 10
48.2188606262207
 20
64.42977905273438
 30
0.0
 11
47.91242599487305
 21
63.599998474121094
 31
0.0
  0
LINE
  8
0
 62
0
 10
48.51891326904297
 20
65.26187896728516
 30
0.0
 11
48.2188606262207
 21
64.42977905273438
 31
0.0
  0
LINE
  8
0
 62
0
 10
53.73928451538086
 20
52.55754089355469
 30
0.0
 11
55.3975715637207
 21
56.400001525878906
 31
0.0
  0
LINE
  8
0
 62
0
 10
51.95309066772461
 20
48.77284240722656
 30
0.0
 11
53.73928451538086
 21
52.55754089355469
 31
0.0
  0
LINE
  8
0
 62
0
 10
44.94093322753906
 20
56.400001525878906
 30
0.0
 11
55.3975715637207
 21
56.400001525878906
 31
0.0
  0
LINE
  8
0
 62
0
 10
50.04100799560547
 20
45.05016326904297
 30
0.0
 11
51.95309066772461
 21
48.77284240722656
 31
0.0
  0
LINE
  8
0
 62
0
 10
44.94093322753906
 20
56.400001525878906
 30
0.0
 11
44.286712646484375
 21
54.981021881103516
 31
0.0
  0
LINE
  8
0
 62
0
 10
42.92082977294922
 20
52.17033767700195
 30
0.0
 11
50.04100799560547
 21
45.05016326904297
 31
0.0
  0
LINE
  8
0
 62
0
 10
44.286712646484375
 20
54.981021881103516
 30
0.0
 11
43.61330032348633
 21
53.571048736572266
 31
0.0
  0
LINE
  8
0
 62
0
 10
43.61330032348633
 20
53.571048736572266
 30
0.0
 11
42.92082977294922
 21
52.17033767700195
 31
0.0
  0
LINE
  8
0
 62
0
 10
36.738685607910156
 20
41.37173843383789
 30
0.0
 11
38.44709396362305
 21
39.62043380737305
 31
0.0
  0
LINE
  8
0
 62
0
 10
38.060630798339844
 20
43.46519088745117
 30
0.0
 11
36.738685607910156
 21
41.37173843383789
 31
0.0
  0
LINE
  8
0
 62
0
 10
38.44709396362305
 20
39.62043380737305
 30
0.0
 11
40.18144607543945
 21
37.894309997558594
 31
0.0
  0
LINE
  8
0
 62
0
 10
39.3372802734375
 20
45.586570739746094
 30
0.0
 11
38.060630798339844
 21
43.46519088745117
 31
0.0
  0
LINE
  8
0
 62
0
 10
40.18144607543945
 20
37.894309997558594
 30
0.0
 11
41.940608978271484
 21
36.19449234008789
 31
0.0
  0
LINE
  8
0
 62
0
 10
40.56804656982422
 20
47.73489761352539
 30
0.0
 11
39.3372802734375
 21
45.586570739746094
 31
0.0
  0
LINE
  8
0
 62
0
 10
41.940608978271484
 20
36.19449234008789
 30
0.0
 11
43.72341537475586
 21
34.522090911865234
 31
0.0
  0
LINE
  8
0
 62
0
 10
40.56804656982422
 20
47.73489761352539
 30
0.0
 11
47.60145950317383
 21
40.70148468017578
 31
0.0
  0
LINE
  8
0
 62
0
 10
43.72341537475586
 20
34.522090911865234
 30
0.0
 11
45.05615997314453
 21
36.55656433105469
 31
0.0
  0
LINE
  8
0
 62
0
 10
46.34900665283203
 20
38.61662292480469
 30
0.0
 11
47.60145950317383
 21
40.70148468017578
 31
0.0
  0
LINE
  8
0
 62
0
 10
45.05615997314453
 20
36.55656433105469
 30
0.0
 11
46.34900665283203
 21
38.61662292480469
 31
0.0
  0
LINE
  8
0
 62
0
 10
47.60145950317383
 20
-40.70148468017578
 30
0.0
 11
46.34900665283203
 21
-38.61662292480469
 31
0.0
  0
LINE
  8
0
 62
0
 10
47.60145950317383
 20
-40.70148468017578
 30
0.0
 11
40.56804656982422
 21
-47.73489761352539
 31
0.0
  0
LINE
  8
0
 62
0
 10
46.34900665283203
 20
-38.61662292480469
 30
0.0
 11
45.05615997314453
 21
-36.55656433105469
 31
0.0
  0
LINE
  8
0
 62
0
 10
39.3372802734375
 20
-45.586570739746094
 30
0.0
 11
40.56804656982422
 21
-47.73489761352539
 31
0.0
  0
LINE
  8
0
 62
0
 10
45.05615997314453
 20
-36.55656433105469
 30
0.0
 11
43.72341537475586
 21
-34.522090911865234
 31
0.0
  0
LINE
  8
0
 62
0
 10
38.060630798339844
 20
-43.46519088745117
 30
0.0
 11
39.3372802734375
 21
-45.586570739746094
 31
0.0
  0
LINE
  8
0
 62
0
 10
43.72341537475586
 20
-34.522090911865234
 30
0.0
 11
41.940608978271484
 21
-36.19449234008789
 31
0.0
  0
LINE
  8
0
 62
0
 10
36.738685607910156
 20
-41.37173843383789
 30
0.0
 11
38.060630798339844
 21
-43.46519088745117
 31
0.0
  0
LINE
  8
0
 62
0
 10
41.940608978271484
 20
-36.19449234008789
 30
0.0
 11
40.18144607543945
 21
-37.894309997558594
 31
0.0
  0
LINE
  8
0
 62
0
 10
38.44709396362305
 20
-39.62043380737305
 30
0.0
 11
36.738685607910156
 21
-41.37173843383789
 31
0.0
  0
LINE
  8
0
 62
0
 10
40.18144607543945
 20
-37.894309997558594
 30
0.0
 11
38.44709396362305
 21
-39.62043380737305
 31
0.0
  0
LINE
  8
0
 62
0
 10
23.067203521728516
 20
-78.6070785522461
 30
0.0
 11
26.089385986328125
 21
-82.19389343261719
 31
0.0
  0
LINE
  8
0
 62
0
 10
20.18193244934082
 20
-74.90923309326172
 30
0.0
 11
23.067203521728516
 21
-78.6070785522461
 31
0.0
  0
LINE
  8
0
 62
0
 10
26.089385986328125
 20
-82.19389343261719
 30
0.0
 11
29.244211196899414
 21
-85.66461944580078
 31
0.0
  0
LINE
  8
0
 62
0
 10
27.044605255126953
 20
-68.04656219482422
 30
0.0
 11
20.18193244934082
 21
-74.90923309326172
 31
0.0
  0
LINE
  8
0
 62
0
 10
29.244211196899414
 20
-85.66461944580078
 30
0.0
 11
36.035499572753906
 21
-78.87332916259766
 31
0.0
  0
LINE
  8
0
 62
0
 10
29.89365005493164
 20
-71.7766342163086
 30
0.0
 11
27.044605255126953
 21
-68.04656219482422
 31
0.0
  0
LINE
  8
0
 62
0
 10
36.035499572753906
 20
-78.87332916259766
 30
0.0
 11
32.89227294921875
 21
-75.38755798339844
 31
0.0
  0
LINE
  8
0
 62
0
 10
32.89227294921875
 20
-75.38755798339844
 30
0.0
 11
29.89365005493164
 21
-71.7766342163086
 31
0.0
  0
LINE
  8
0
 62
0
 10
24.249380111694336
 20
-64.0535659790039
 30
0.0
 11
24.14851951599121
 21
-63.90253448486328
 31
0.0
  0
LINE
  8
0
 62
0
 10
24.249380111694336
 20
-64.0535659790039
 30
0.0
 11
17.339351654052734
 21
-70.96359252929688
 31
0.0
  0
LINE
  8
0
 62
0
 10
24.14851951599121
 20
-63.90253448486328
 30
0.0
 11
24.047897338867188
 21
-63.751346588134766
 31
0.0
  0
LINE
  8
0
 62
0
 10
16.784393310546875
 20
-70.15396118164062
 30
0.0
 11
17.339351654052734
 21
-70.96359252929688
 31
0.0
  0
LINE
  8
0
 62
0
 10
24.047897338867188
 20
-63.751346588134766
 30
0.0
 11
23.947513580322266
 21
-63.599998474121094
 31
0.0
  0
LINE
  8
0
 62
0
 10
16.235820770263672
 20
-69.33999633789062
 30
0.0
 11
16.784393310546875
 21
-70.15396118164062
 31
0.0
  0
LINE
  8
0
 62
0
 10
18.838899612426758
 20
-63.599998474121094
 30
0.0
 11
23.947513580322266
 21
-63.599998474121094
 31
0.0
  0
LINE
  8
0
 62
0
 10
15.693666458129883
 20
-68.52173614501953
 30
0.0
 11
16.235820770263672
 21
-69.33999633789062
 31
0.0
  0
LINE
  8
0
 62
0
 10
18.838899612426758
 20
-63.599998474121094
 30
0.0
 11
17.235261917114258
 21
-66.05664825439453
 31
0.0
  0
LINE
  8
0
 62
0
 10
17.235261917114258
 20
-66.05664825439453
 30
0.0
 11
15.693666458129883
 21
-68.52173614501953
 31
0.0
  0
LINE
  8
0
 62
0
 10
48.812564849853516
 20
-66.09626770019531
 30
0.0
 11
51.30883026123047
 21
-63.599998474121094
 31
0.0
  0
LINE
  8
0
 62
0
 10
48.51891326904297
 20
-65.26187896728516
 30
0.0
 11
48.812564849853516
 21
-66.09626770019531
 31
0.0
  0
LINE
  8
0
 62
0
 10
47.91242599487305
 20
-63.599998474121094
 30
0.0
 11
51.30883026123047
 21
-63.599998474121094
 31
0.0
  0
LINE
  8
0
 62
0
 10
48.2188606262207
 20
-64.42977905273438
 30
0.0
 11
48.51891326904297
 21
-65.26187896728516
 31
0.0
  0
LINE
  8
0
 62
0
 10
47.91242599487305
 20
-63.599998474121094
 30
0.0
 11
48.2188606262207
 21
-64.42977905273438
 31
0.0
  0
LINE
  8
0
 62
0
 10
-27.044605255126953
 20
68.04656219482422
 30
0.0
 11
-20.18193244934082
 21
74.90923309326172
 31
0.0
  0
LINE
  8
0
 62
0
 10
-29.89365005493164
 20
71.7766342163086
 30
0.0
 11
-27.044605255126953
 21
68.04656219482422
 31
0.0
  0
LINE
  8
0
 62
0
 10
-20.18193244934082
 20
74.90923309326172
 30
0.0
 11
-23.067203521728516
 21
78.6070785522461
 31
0.0
  0
LINE
  8
0
 62
0
 10
-32.89227294921875
 20
75.38755798339844
 30
0.0
 11
-29.89365005493164
 21
71.7766342163086
 31
0.0
  0
LINE
  8
0
 62
0
 10
-23.067203521728516
 20
78.6070785522461
 30
0.0
 11
-26.089385986328125
 21
82.19389343261719
 31
0.0
  0
LINE
  8
0
 62
0
 10
-36.035499572753906
 20
78.87332916259766
 30
0.0
 11
-32.89227294921875
 21
75.38755798339844
 31
0.0
  0
LINE
  8
0
 62
0
 10
-26.089385986328125
 20
82.19389343261719
 30
0.0
 11
-29.244211196899414
 21
85.66461944580078
 31
0.0
  0
LINE
  8
0
 62
0
 10
-29.244211196899414
 20
85.66461944580078
 30
0.0
 11
-36.035499572753906
 21
78.87332916259766
 31
0.0
  0
CIRCLE
  8
0
 62
0
 10
-3.02426626468449e-16
 20
-1.512133132342245e-16
 30
0.0
 40
14.957200031599234
  0
LINE
  8
0
 62
0
 10
-32.89227294921875
 20
-75.38755798339844
 30
0.0
 11
-36.035499572753906
 21
-78.87332916259766
 31
0.0
  0
LINE
  8
0
 62
0
 10
-29.89365005493164
 20
-71.7766342163086
 30
0.0
 11
-32.89227294921875
 21
-75.38755798339844
 31
0.0
  0
LINE
  8
0
 62
0
 10
-36.035499572753906
 20
-78.87332916259766
 30
0.0
 11
-29.244211196899414
 21
-85.66461944580078
 31
0.0
  0
LINE
  8
0
 62
0
 10
-27.044605255126953
 20
-68.04656219482422
 30
0.0
 11
-29.89365005493164
 21
-71.7766342163086
 31
0.0
  0
LINE
  8
0
 62
0
 10
-29.244211196899414
 20
-85.66461944580078
 30
0.0
 11
-26.089385986328125
 21
-82.19389343261719
 31
0.0
  0
LINE
  8
0
 62
0
 10
-20.18193244934082
 20
-74.90923309326172
 30
0.0
 11
-27.044605255126953
 21
-68.04656219482422
 31
0.0
  0
LINE
  8
0
 62
0
 10
-26.089385986328125
 20
-82.19389343261719
 30
0.0
 11
-23.067203521728516
 21
-78.6070785522461
 31
0.0
  0
LINE
  8
0
 62
0
 10
-23.067203521728516
 20
-78.6070785522461
 30
0.0
 11
-20.18193244934082
 21
-74.90923309326172
 31
0.0
  0
LINE
  8
0
 62
0
 10
-53.73928451538086
 20
52.55754089355469
 30
0.0
 11
-51.95309066772461
 21
48.77284240722656
 31
0.0
  0
LINE
  8
0
 62
0
 10
-55.3975715637207
 20
56.400001525878906
 30
0.0
 11
-53.73928451538086
 21
52.55754089355469
 31
0.0
  0
LINE
  8
0
 62
0
 10
-51.95309066772461
 20
48.77284240722656
 30
0.0
 11
-50.04100799560547
 21
45.05016326904297
 31
0.0
  0
LINE
  8
0
 62
0
 10
-55.3975715637207
 20
56.400001525878906
 30
0.0
 11
-44.94093322753906
 21
56.400001525878906
 31
0.0
  0
LINE
  8
0
 62
0
 10
-50.04100799560547
 20
45.05016326904297
 30
0.0
 11
-42.92082977294922
 21
52.17033767700195
 31
0.0
  0
LINE
  8
0
 62
0
 10
-44.286712646484375
 20
54.981021881103516
 30
0.0
 11
-44.94093322753906
 21
56.400001525878906
 31
0.0
  0
LINE
  8
0
 62
0
 10
-42.92082977294922
 20
52.17033767700195
 30
0.0
 11
-43.61330032348633
 21
53.571048736572266
 31
0.0
  0
LINE
  8
0
 62
0
 10
-43.61330032348633
 20
53.571048736572266
 30
0.0
 11
-44.286712646484375
 21
54.981021881103516
 31
0.0
  0
LINE
  8
0
 62
0
 10
-43.72341537475586
 20
34.522090911865234
 30
0.0
 11
-41.940608978271484
 21
36.19449234008789
 31
0.0
  0
LINE
  8
0
 62
0
 10
-45.05615997314453
 20
36.55656433105469
 30
0.0
 11
-43.72341537475586
 21
34.522090911865234
 31
0.0
  0
LINE
  8
0
 62
0
 10
-41.940608978271484
 20
36.19449234008789
 30
0.0
 11
-40.18144607543945
 21
37.894309997558594
 31
0.0
  0
LINE
  8
0
 62
0
 10
-46.34900665283203
 20
38.61662292480469
 30
0.0
 11
-45.05615997314453
 21
36.55656433105469
 31
0.0
  0
LINE
  8
0
 62
0
 10
-40.18144607543945
 20
37.894309997558594
 30
0.0
 11
-38.44709396362305
 21
39.62043380737305
 31
0.0
  0
LINE
  8
0
 62
0
 10
-47.60145950317383
 20
40.70148468017578
 30
0.0
 11
-46.34900665283203
 21
38.61662292480469
 31
0.0
  0
LINE
  8
0
 62
0
 10
-38.44709396362305
 20
39.62043380737305
 30
0.0
 11
-36.738685607910156
 21
41.37173843383789
 31
0.0
  0
LINE
  8
0
 62
0
 10
-47.60145950317383
 20
40.70148468017578
 30
0.0
 11
-40.56804656982422
 21
47.73489761352539
 31
0.0
  0
LINE
  8
0
 62
0
 10
-36.738685607910156
 20
41.37173843383789
 30
0.0
 11
-38.060630798339844
 21
43.46519088745117
 31
0.0
  0
LINE
  8
0
 62
0
 10
-39.3372802734375
 20
45.586570739746094
 30
0.0
 11
-40.56804656982422
 21
47.73489761352539
 31
0.0
  0
LINE
  8
0
 62
0
 10
-38.060630798339844
 20
43.46519088745117
 30
0.0
 11
-39.3372802734375
 21
45.586570739746094
 31
0.0
  0
LINE
  8
0
 62
0
 10
-48.812564849853516
 20
66.09626770019531
 30
0.0
 11
-51.30883026123047
 21
63.599998474121094
 31
0.0
  0
LINE
  8
0
 62
0
 10
-48.51891326904297
 20
65.26187896728516
 30
0.0
 11
-48.812564849853516
 21
66.09626770019531
 31
0.0
  0
LINE
  8
0
 62
0
 10
-47.91242599487305
 20
63.599998474121094
 30
0.0
 11
-51.30883026123047
 21
63.599998474121094
 31
0.0
  0
LINE
  8
0
 62
0
 10
-48.2188606262207
 20
64.42977905273438
 30
0.0
 11
-48.51891326904297
 21
65.26187896728516
 31
0.0
  0
LINE
  8
0
 62
0
 10
-47.91242599487305
 20
63.599998474121094
 30
0.0
 11
-48.2188606262207
 21
64.42977905273438
 31
0.0
  0
LINE
  8
0
 62
0
 10
-105.28230285644531
 20
57.58156204223633
 30
0.0
 11
-100.01555633544922
 21
66.30903625488281
 31
0.0
  0
LINE
  8
0
 62
0
 10
-109.78935241699219
 20
48.438594818115234
 30
0.0
 11
-105.28230285644531
 21
57.58156204223633
 31
0.0
  0
LINE
  8
0
 62
0
 10
-100.01555633544922
 20
66.30903625488281
 30
0.0
 11
-94.0271224975586
 21
74.55803680419922
 31
0.0
  0
LINE
  8
0
 62
0
 10
-113.50418853759766
 20
38.94610595703125
 30
0.0
 11
-109.78935241699219
 21
48.438594818115234
 31
0.0
  0
LINE
  8
0
 62
0
 10
-94.0271224975586
 20
74.55803680419922
 30
0.0
 11
-87.3602066040039
 21
82.26903533935547
 31
0.0
  0
LINE
  8
0
 62
0
 10
-116.4000015258789
 20
29.172590255737305
 30
0.0
 11
-113.50418853759766
 21
38.94610595703125
 31
0.0
  0
LINE
  8
0
 62
0
 10
-87.3602066040039
 20
82.26903533935547
 30
0.0
 11
-80.56865692138672
 21
75.47748565673828
 31
0.0
  0
LINE
  8
0
 62
0
 10
-116.4000015258789
 20
3.5999999046325684
 30
0.0
 11
-116.4000015258789
 21
29.172590255737305
 31
0.0
  0
LINE
  8
0
 62
0
 10
-87.29590606689453
 20
67.58390808105469
 30
0.0
 11
-80.56865692138672
 21
75.47748565673828
 31
0.0
  0
LINE
  8
0
 62
0
 10
-109.25328826904297
 20
10.746709823608398
 30
0.0
 11
-116.4000015258789
 21
3.5999999046325684
 31
0.0
  0
LINE
  8
0
 62
0
 10
-93.25273895263672
 20
59.093875885009766
 30
0.0
 11
-87.29590606689453
 21
67.58390808105469
 31
0.0
  0
LINE
  8
0
 62
0
 10
-109.25328826904297
 20
10.746709823608398
 30
0.0
 11
-109.46997833251953
 21
10.653392791748047
 31
0.0
  0
LINE
  8
0
 62
0
 10
-98.38658905029297
 20
50.08231735229492
 30
0.0
 11
-93.25273895263672
 21
59.093875885009766
 31
0.0
  0
LINE
  8
0
 62
0
 10
-109.46997833251953
 20
10.653392791748047
 30
0.0
 11
-109.68649291992188
 21
10.559666633605957
 31
0.0
  0
LINE
  8
0
 62
0
 10
-102.65214538574219
 20
40.62876892089844
 30
0.0
 11
-98.38658905029297
 21
50.08231735229492
 31
0.0
  0
LINE
  8
0
 62
0
 10
-109.68649291992188
 20
10.559666633605957
 30
0.0
 11
-109.90283203125
 21
10.465531349182129
 31
0.0
  0
LINE
  8
0
 62
0
 10
-106.01176452636719
 20
30.816659927368164
 30
0.0
 11
-102.65214538574219
 21
40.62876892089844
 31
0.0
  0
LINE
  8
0
 62
0
 10
-109.90283203125
 20
10.465531349182129
 30
0.0
 11
-108.435791015625
 21
20.732582092285156
 31
0.0
  0
LINE
  8
0
 62
0
 10
-108.435791015625
 20
20.732582092285156
 30
0.0
 11
-106.01176452636719
 21
30.816659927368164
 31
0.0
  0
LINE
  8
0
 62
0
 10
-114.90882873535156
 20
-5.551115123125783e-16
 30
0.0
 11
-100.93700408935547
 21
-13.971827507019043
 31
0.0
  0
LINE
  8
0
 62
0
 10
-100.93700408935547
 20
13.971827507019043
 30
0.0
 11
-114.90882873535156
 21
0.0
 31
0.0
  0
LINE
  8
0
 62
0
 10
-100.93700408935547
 20
-13.971827507019043
 30
0.0
 11
-92.48517608642578
 21
-16.57489013671875
 31
0.0
  0
LINE
  8
0
 62
0
 10
-92.48517608642578
 20
16.57489013671875
 30
0.0
 11
-100.93700408935547
 21
13.971827507019043
 31
0.0
  0
LINE
  8
0
 62
0
 10
-92.48517608642578
 20
-16.57489013671875
 30
0.0
 11
-83.87022399902344
 21
-18.572879791259766
 31
0.0
  0
LINE
  8
0
 62
0
 10
-83.87022399902344
 20
18.572879791259766
 30
0.0
 11
-92.48517608642578
 21
16.57489013671875
 31
0.0
  0
LINE
  8
0
 62
0
 10
-83.87022399902344
 20
-18.572879791259766
 30
0.0
 11
-75.13540649414062
 21
-19.955760955810547
 31
0.0
  0
LINE
  8
0
 62
0
 10
-75.13540649414062
 20
19.955760955810547
 30
0.0
 11
-83.87022399902344
 21
18.572879791259766
 31
0.0
  0
LINE
  8
0
 62
0
 10
-75.13540649414062
 20
-19.955760955810547
 30
0.0
 11
-87.0302734375
 21
-8.060898780822754
 31
0.0
  0
LINE
  8
0
 62
0
 10
-87.0302734375
 20
8.060898780822754
 30
0.0
 11
-75.13540649414062
 21
19.955760955810547
 31
0.0
  0
LINE
  8
0
 62
0
 10
-87.0302734375
 20
-8.060898780822754
 30
0.0
 11
-94.74957275390625
 21
-5.910950660705566
 31
0.0
  0
LINE
  8
0
 62
0
 10
-94.74957275390625
 20
5.910950660705566
 30
0.0
 11
-87.0302734375
 21
8.060898780822754
 31
0.0
  0
LINE
  8
0
 62
0
 10
-94.74957275390625
 20
-5.910950660705566
 30
0.0
 11
-102.30073547363281
 21
-3.2295877933502197
 31
0.0
  0
LINE
  8
0
 62
0
 10
-102.30073547363281
 20
3.2295877933502197
 30
0.0
 11
-94.74957275390625
 21
5.910950660705566
 31
0.0
  0
LINE
  8
0
 62
0
 10
-102.30073547363281
 20
-3.2295877933502197
 30
0.0
 11
-109.6472396850586
 21
-0.029783396050333977
 31
0.0
  0
LINE
  8
0
 62
0
 10
-109.6472396850586
 20
-0.029783396050333977
 30
0.0
 11
-110.15371704101562
 21
-0.00800368469208479
 31
0.0
  0
LINE
  8
0
 62
0
 10
-110.15371704101562
 20
0.00800368469208479
 30
0.0
 11
-109.6472396850586
 21
0.029783396050333977
 31
0.0
  0
LINE
  8
0
 62
0
 10
-110.15371704101562
 20
-0.00800368469208479
 30
0.0
 11
-110.33260345458984
 21
-0.0030223496723920107
 31
0.0
  0
LINE
  8
0
 62
0
 10
-110.33260345458984
 20
0.0030223496723920107
 30
0.0
 11
-110.15371704101562
 21
0.00800368469208479
 31
0.0
  0
LINE
  8
0
 62
0
 10
-110.33260345458984
 20
-0.0030223496723920107
 30
0.0
 11
-110.3827133178711
 21
-0.001384775154292583
 31
0.0
  0
LINE
  8
0
 62
0
 10
-110.3827133178711
 20
0.0013847751542925835
 30
0.0
 11
-110.33260345458984
 21
0.003022349672392011
 31
0.0
  0
LINE
  8
0
 62
0
 10
-110.3827133178711
 20
-0.0013847751542925835
 30
0.0
 11
-110.39564514160156
 21
-0.0006764637655578554
 31
0.0
  0
LINE
  8
0
 62
0
 10
-110.39564514160156
 20
0.0006764637655578554
 30
0.0
 11
-110.3827133178711
 21
0.0013847751542925835
 31
0.0
  0
LINE
  8
0
 62
0
 10
-110.39564514160156
 20
-0.0006764637655578554
 30
0.0
 11
-110.39891052246094
 21
-0.00033623754279688
 31
0.0
  0
LINE
  8
0
 62
0
 10
-110.39891052246094
 20
0.00033623754279688
 30
0.0
 11
-110.39564514160156
 21
0.0006764637655578554
 31
0.0
  0
LINE
  8
0
 62
0
 10
-110.39891052246094
 20
-0.00033623754279688
 30
0.0
 11
-110.39972686767578
 21
-0.0001678693515714258
 31
0.0
  0
LINE
  8
0
 62
0
 10
-110.39972686767578
 20
0.0001678693515714258
 30
0.0
 11
-110.39891052246094
 21
0.00033623754279688
 31
0.0
  0
LINE
  8
0
 62
0
 10
-110.39972686767578
 20
-0.0001678693515714258
 30
0.0
 11
-110.39993286132812
 21
-8.390349830733612e-05
 31
0.0
  0
LINE
  8
0
 62
0
 10
-110.39993286132812
 20
8.390349830733612e-05
 30
0.0
 11
-110.39972686767578
 21
0.0001678693515714258
 31
0.0
  0
LINE
  8
0
 62
0
 10
-110.39993286132812
 20
-8.390349830733612e-05
 30
0.0
 11
-110.39998626708984
 21
-4.1947852878365666e-05
 31
0.0
  0
LINE
  8
0
 62
0
 10
-110.39998626708984
 20
4.1947852878365666e-05
 30
0.0
 11
-110.39993286132812
 21
8.390349830733612e-05
 31
0.0
  0
LINE
  8
0
 62
0
 10
-110.39998626708984
 20
-4.1947852878365666e-05
 30
0.0
 11
-110.39999389648438
 21
-2.0973438950022683e-05
 31
0.0
  0
LINE
  8
0
 62
0
 10
-110.39999389648438
 20
2.0973438950022683e-05
 30
0.0
 11
-110.39998626708984
 21
4.1947852878365666e-05
 31
0.0
  0
LINE
  8
0
 62
0
 10
-110.39999389648438
 20
-2.0973438950022683e-05
 30
0.0
 11
-110.4000015258789
 21
-2.0500975591621062e-15
 31
0.0
  0
LINE
  8
0
 62
0
 10
-110.4000015258789
 20
-2.0500960768544485e-15
 30
0.0
 11
-110.39999389648438
 21
2.0973438950022683e-05
 31
0.0
  0
LINE
  8
0
 62
0
 10
-70.71856689453125
 20
14.3759183883667
 30
0.0
 11
-77.84761047363281
 21
10.455336570739746
 31
0.0
  0
LINE
  8
0
 62
0
 10
-63.599998474121094
 20
18.838899612426758
 30
0.0
 11
-70.71856689453125
 21
14.3759183883667
 31
0.0
  0
LINE
  8
0
 62
0
 10
-77.84761047363281
 20
10.455336570739746
 30
0.0
 11
-67.661376953125
 21
20.64156723022461
 31
0.0
  0
LINE
  8
0
 62
0
 10
-63.599998474121094
 20
20.82501792907715
 30
0.0
 11
-63.599998474121094
 21
18.838899612426758
 31
0.0
  0
LINE
  8
0
 62
0
 10
-67.661376953125
 20
20.64156723022461
 30
0.0
 11
-66.30827331542969
 21
20.717416763305664
 31
0.0
  0
LINE
  8
0
 62
0
 10
-64.95442962646484
 20
20.7785701751709
 30
0.0
 11
-63.599998474121094
 21
20.82501792907715
 31
0.0
  0
LINE
  8
0
 62
0
 10
-66.30827331542969
 20
20.717416763305664
 30
0.0
 11
-64.95442962646484
 21
20.7785701751709
 31
0.0
  0
LINE
  8
0
 62
0
 10
-4.604910850524902
 20
110.30391693115234
 30
0.0
 11
-1.5353662967681885
 21
110.38932037353516
 31
0.0
  0
LINE
  8
0
 62
0
 10
-7.40148665436918e-16
 20
114.90882873535156
 30
0.0
 11
-4.604910850524902
 21
110.30391693115234
 31
0.0
  0
LINE
  8
0
 62
0
 10
-1.5353662967681885
 20
110.38932037353516
 30
0.0
 11
1.5353662967681885
 21
110.38932037353516
 31
0.0
  0
LINE
  8
0
 62
0
 10
4.604910850524902
 20
110.30391693115234
 30
0.0
 11
-8.881784197001252e-16
 21
114.90882873535156
 31
0.0
  0
LINE
  8
0
 62
0
 10
1.5353662967681885
 20
110.38932037353516
 30
0.0
 11
4.604910850524902
 21
110.30391693115234
 31
0.0
  0
LINE
  8
0
 62
0
 10
58.10627365112305
 20
63.599998474121094
 30
0.0
 11
60.70919418334961
 21
72.23187255859375
 31
0.0
  0
LINE
  8
0
 62
0
 10
58.10627365112305
 20
63.599998474121094
 30
0.0
 11
56.400001525878906
 21
63.599998474121094
 31
0.0
  0
LINE
  8
0
 62
0
 10
60.70919418334961
 20
72.23187255859375
 30
0.0
 11
62.68214416503906
 21
81.02913665771484
 31
0.0
  0
LINE
  8
0
 62
0
 10
56.400001525878906
 20
63.599998474121094
 30
0.0
 11
50.07037353515625
 21
69.92962646484375
 31
0.0
  0
LINE
  8
0
 62
0
 10
62.68214416503906
 20
81.02913665771484
 30
0.0
 11
64.01483154296875
 21
89.94587707519531
 31
0.0
  0
LINE
  8
0
 62
0
 10
52.28325271606445
 20
78.16434478759766
 30
0.0
 11
50.07037353515625
 21
69.92962646484375
 31
0.0
  0
LINE
  8
0
 62
0
 10
64.01483154296875
 20
89.94587707519531
 30
0.0
 11
67.974365234375
 21
86.99221801757812
 31
0.0
  0
LINE
  8
0
 62
0
 10
53.88097381591797
 20
86.5401840209961
 30
0.0
 11
52.28325271606445
 21
78.16434478759766
 31
0.0
  0
LINE
  8
0
 62
0
 10
67.974365234375
 20
86.99221801757812
 30
0.0
 11
71.79779815673828
 21
83.86438751220703
 31
0.0
  0
LINE
  8
0
 62
0
 10
54.85477828979492
 20
95.01126098632812
 30
0.0
 11
53.88097381591797
 21
86.5401840209961
 31
0.0
  0
LINE
  8
0
 62
0
 10
71.79779815673828
 20
83.86438751220703
 30
0.0
 11
75.47748565673828
 21
80.56865692138672
 31
0.0
  0
LINE
  8
0
 62
0
 10
49.142581939697266
 20
90.83097839355469
 30
0.0
 11
54.85477828979492
 21
95.01126098632812
 31
0.0
  0
LINE
  8
0
 62
0
 10
82.26903533935547
 20
87.3602066040039
 30
0.0
 11
75.47748565673828
 21
80.56865692138672
 31
0.0
  0
LINE
  8
0
 62
0
 10
43.69790267944336
 20
86.3077621459961
 30
0.0
 11
49.142581939697266
 21
90.83097839355469
 31
0.0
  0
LINE
  8
0
 62
0
 10
82.26903533935547
 20
87.3602066040039
 30
0.0
 11
76.71992492675781
 21
92.2716293334961
 31
0.0
  0
LINE
  8
0
 62
0
 10
38.541297912597656
 20
81.45870208740234
 30
0.0
 11
43.69790267944336
 21
86.3077621459961
 31
0.0
  0
LINE
  8
0
 62
0
 10
76.71992492675781
 20
92.2716293334961
 30
0.0
 11
70.87824249267578
 21
96.83116912841797
 31
0.0
  0
LINE
  8
0
 62
0
 10
38.541297912597656
 20
81.45870208740234
 30
0.0
 11
31.753074645996094
 21
88.2469253540039
 31
0.0
  0
LINE
  8
0
 62
0
 10
70.87824249267578
 20
96.83116912841797
 30
0.0
 11
64.76626586914062
 21
101.02143859863281
 31
0.0
  0
LINE
  8
0
 62
0
 10
36.260520935058594
 20
92.53507232666016
 30
0.0
 11
31.753074645996094
 21
88.2469253540039
 31
0.0
  0
LINE
  8
0
 62
0
 10
64.76626586914062
 20
101.02143859863281
 30
0.0
 11
64.766845703125
 21
101.04639434814453
 31
0.0
  0
LINE
  8
0
 62
0
 10
40.976070404052734
 20
96.59326171875
 30
0.0
 11
36.260520935058594
 21
92.53507232666016
 31
0.0
  0
LINE
  8
0
 62
0
 10
64.766845703125
 20
101.04639434814453
 30
0.0
 11
64.76741790771484
 21
101.07135772705078
 31
0.0
  0
LINE
  8
0
 62
0
 10
45.88800048828125
 20
100.41140747070312
 30
0.0
 11
40.976070404052734
 21
96.59326171875
 31
0.0
  0
LINE
  8
0
 62
0
 10
64.76741790771484
 20
101.07135772705078
 30
0.0
 11
64.76798248291016
 21
101.0963134765625
 31
0.0
  0
LINE
  8
0
 62
0
 10
37.26475143432617
 20
103.92063903808594
 30
0.0
 11
45.88800048828125
 21
100.41140747070312
 31
0.0
  0
LINE
  8
0
 62
0
 10
64.76798248291016
 20
101.0963134765625
 30
0.0
 11
73.23394775390625
 21
105.28046417236328
 31
0.0
  0
LINE
  8
0
 62
0
 10
28.376493453979492
 20
106.69083404541016
 30
0.0
 11
37.26475143432617
 21
103.92063903808594
 31
0.0
  0
LINE
  8
0
 62
0
 10
73.23394775390625
 20
105.28046417236328
 30
0.0
 11
82.01417541503906
 21
108.75714874267578
 31
0.0
  0
LINE
  8
0
 62
0
 10
19.286441802978516
 20
108.70231628417969
 30
0.0
 11
28.376493453979492
 21
106.69083404541016
 31
0.0
  0
LINE
  8
0
 62
0
 10
82.01417541503906
 20
108.75714874267578
 30
0.0
 11
91.04966735839844
 21
111.50299835205078
 31
0.0
  0
LINE
  8
0
 62
0
 10
10.059234619140625
 20
109.94076538085938
 30
0.0
 11
19.286441802978516
 21
108.70231628417969
 31
0.0
  0
LINE
  8
0
 62
0
 10
91.04966735839844
 20
111.50299835205078
 30
0.0
 11
100.27970123291016
 21
113.49955749511719
 31
0.0
  0
LINE
  8
0
 62
0
 10
10.059234619140625
 20
109.94076538085938
 30
0.0
 11
3.5999999046325684
 21
116.4000015258789
 31
0.0
  0
LINE
  8
0
 62
0
 10
100.27970123291016
 20
113.49955749511719
 30
0.0
 11
109.64225006103516
 21
114.73341369628906
 31
0.0
  0
LINE
  8
0
 62
0
 10
3.5999999046325684
 20
116.4000015258789
 30
0.0
 11
29.172590255737305
 21
116.4000015258789
 31
0.0
  0
LINE
  8
0
 62
0
 10
111.30883026123047
 20
116.4000015258789
 30
0.0
 11
109.64225006103516
 21
114.73341369628906
 31
0.0
  0
LINE
  8
0
 62
0
 10
29.172590255737305
 20
116.4000015258789
 30
0.0
 11
38.06016159057617
 21
113.8043212890625
 31
0.0
  0
LINE
  8
0
 62
0
 10
74.98799896240234
 20
116.4000015258789
 30
0.0
 11
111.30883026123047
 21
116.4000015258789
 31
0.0
  0
LINE
  8
0
 62
0
 10
38.06016159057617
 20
113.8043212890625
 30
0.0
 11
46.72114944458008
 21
110.53114318847656
 31
0.0
  0
LINE
  8
0
 62
0
 10
71.46281433105469
 20
114.97470092773438
 30
0.0
 11
74.98799896240234
 21
116.4000015258789
 31
0.0
  0
LINE
  8
0
 62
0
 10
46.72114944458008
 20
110.53114318847656
 30
0.0
 11
55.104000091552734
 21
106.5999526977539
 31
0.0
  0
LINE
  8
0
 62
0
 10
67.98267364501953
 20
113.44266510009766
 30
0.0
 11
71.46281433105469
 21
114.97470092773438
 31
0.0
  0
LINE
  8
0
 62
0
 10
55.12532424926758
 20
106.61293029785156
 30
0.0
 11
55.104000091552734
 21
106.5999526977539
 31
0.0
  0
LINE
  8
0
 62
0
 10
64.55083465576172
 20
111.8053207397461
 30
0.0
 11
67.98267364501953
 21
113.44266510009766
 31
0.0
  0
LINE
  8
0
 62
0
 10
55.14665222167969
 20
106.62590026855469
 30
0.0
 11
55.12532424926758
 21
106.61293029785156
 31
0.0
  0
LINE
  8
0
 62
0
 10
64.44432830810547
 20
113.33838653564453
 30
0.0
 11
64.55083465576172
 21
111.8053207397461
 31
0.0
  0
LINE
  8
0
 62
0
 10
55.16798400878906
 20
106.63887786865234
 30
0.0
 11
55.14665222167969
 21
106.62590026855469
 31
0.0
  0
LINE
  8
0
 62
0
 10
64.31896209716797
 20
114.87002563476562
 30
0.0
 11
64.44432830810547
 21
113.33838653564453
 31
0.0
  0
LINE
  8
0
 62
0
 10
55.0449333190918
 20
109.89823913574219
 30
0.0
 11
55.16798400878906
 21
106.63887786865234
 31
0.0
  0
LINE
  8
0
 62
0
 10
64.17473602294922
 20
116.4000015258789
 30
0.0
 11
64.31896209716797
 21
114.87002563476562
 31
0.0
  0
LINE
  8
0
 62
0
 10
54.82966232299805
 20
113.15282440185547
 30
0.0
 11
55.0449333190918
 21
109.89823913574219
 31
0.0
  0
LINE
  8
0
 62
0
 10
54.5223388671875
 20
116.4000015258789
 30
0.0
 11
64.17473602294922
 21
116.4000015258789
 31
0.0
  0
LINE
  8
0
 62
0
 10
54.5223388671875
 20
116.4000015258789
 30
0.0
 11
54.82966232299805
 21
113.15282440185547
 31
0.0
  0
LINE
  8
0
 62
0
 10
-29.172590255737305
 20
116.4000015258789
 30
0.0
 11
-3.5999999046325684
 21
116.4000015258789
 31
0.0
  0
LINE
  8
0
 62
0
 10
-38.06016159057617
 20
113.8043212890625
 30
0.0
 11
-29.172590255737305
 21
116.4000015258789
 31
0.0
  0
LINE
  8
0
 62
0
 10
-3.5999999046325684
 20
116.4000015258789
 30
0.0
 11
-10.059234619140625
 21
109.94076538085938
 31
0.0
  0
LINE
  8
0
 62
0
 10
-46.72114944458008
 20
110.53114318847656
 30
0.0
 11
-38.06016159057617
 21
113.8043212890625
 31
0.0
  0
LINE
  8
0
 62
0
 10
-19.286441802978516
 20
108.70231628417969
 30
0.0
 11
-10.059234619140625
 21
109.94076538085938
 31
0.0
  0
LINE
  8
0
 62
0
 10
-55.104000091552734
 20
106.5999526977539
 30
0.0
 11
-46.72114944458008
 21
110.53114318847656
 31
0.0
  0
LINE
  8
0
 62
0
 10
-28.376493453979492
 20
106.69083404541016
 30
0.0
 11
-19.286441802978516
 21
108.70231628417969
 31
0.0
  0
LINE
  8
0
 62
0
 10
-55.104000091552734
 20
106.5999526977539
 30
0.0
 11
-55.12532424926758
 21
106.61293029785156
 31
0.0
  0
LINE
  8
0
 62
0
 10
-37.26475143432617
 20
103.92063903808594
 30
0.0
 11
-28.376493453979492
 21
106.69083404541016
 31
0.0
  0
LINE
  8
0
 62
0
 10
-55.12532424926758
 20
106.61293029785156
 30
0.0
 11
-55.14665222167969
 21
106.62590026855469
 31
0.0
  0
LINE
  8
0
 62
0
 10
-45.88800048828125
 20
100.41140747070312
 30
0.0
 11
-37.26475143432617
 21
103.92063903808594
 31
0.0
  0
LINE
  8
0
 62
0
 10
-55.14665222167969
 20
106.62590026855469
 30
0.0
 11
-55.16798400878906
 21
106.63887786865234
 31
0.0
  0
LINE
  8
0
 62
0
 10
-40.976070404052734
 20
96.59326171875
 30
0.0
 11
-45.88800048828125
 21
100.41140747070312
 31
0.0
  0
LINE
  8
0
 62
0
 10
-55.16798400878906
 20
106.63887786865234
 30
0.0
 11
-55.0449333190918
 21
109.89823913574219
 31
0.0
  0
LINE
  8
0
 62
0
 10
-36.260520935058594
 20
92.53507232666016
 30
0.0
 11
-40.976070404052734
 21
96.59326171875
 31
0.0
  0
LINE
  8
0
 62
0
 10
-55.0449333190918
 20
109.89823913574219
 30
0.0
 11
-54.82966232299805
 21
113.15282440185547
 31
0.0
  0
LINE
  8
0
 62
0
 10
-31.753074645996094
 20
88.2469253540039
 30
0.0
 11
-36.260520935058594
 21
92.53507232666016
 31
0.0
  0
LINE
  8
0
 62
0
 10
-54.82966232299805
 20
113.15282440185547
 30
0.0
 11
-54.5223388671875
 21
116.4000015258789
 31
0.0
  0
LINE
  8
0
 62
0
 10
-31.753074645996094
 20
88.2469253540039
 30
0.0
 11
-38.541297912597656
 21
81.45870208740234
 31
0.0
  0
LINE
  8
0
 62
0
 10
-64.17473602294922
 20
116.4000015258789
 30
0.0
 11
-54.5223388671875
 21
116.4000015258789
 31
0.0
  0
LINE
  8
0
 62
0
 10
-43.69790267944336
 20
86.3077621459961
 30
0.0
 11
-38.541297912597656
 21
81.45870208740234
 31
0.0
  0
LINE
  8
0
 62
0
 10
-64.31896209716797
 20
114.87002563476562
 30
0.0
 11
-64.17473602294922
 21
116.4000015258789
 31
0.0
  0
LINE
  8
0
 62
0
 10
-49.142581939697266
 20
90.83097839355469
 30
0.0
 11
-43.69790267944336
 21
86.3077621459961
 31
0.0
  0
LINE
  8
0
 62
0
 10
-64.44432830810547
 20
113.33838653564453
 30
0.0
 11
-64.31896209716797
 21
114.87002563476562
 31
0.0
  0
LINE
  8
0
 62
0
 10
-54.85477828979492
 20
95.01126098632812
 30
0.0
 11
-49.142581939697266
 21
90.83097839355469
 31
0.0
  0
LINE
  8
0
 62
0
 10
-64.55083465576172
 20
111.8053207397461
 30
0.0
 11
-64.44432830810547
 21
113.33838653564453
 31
0.0
  0
LINE
  8
0
 62
0
 10
-53.88097381591797
 20
86.5401840209961
 30
0.0
 11
-54.85477828979492
 21
95.01126098632812
 31
0.0
  0
LINE
  8
0
 62
0
 10
-67.98267364501953
 20
113.44266510009766
 30
0.0
 11
-64.55083465576172
 21
111.8053207397461
 31
0.0
  0
LINE
  8
0
 62
0
 10
-52.28325271606445
 20
78.16434478759766
 30
0.0
 11
-53.88097381591797
 21
86.5401840209961
 31
0.0
  0
LINE
  8
0
 62
0
 10
-71.46281433105469
 20
114.97470092773438
 30
0.0
 11
-67.98267364501953
 21
113.44266510009766
 31
0.0
  0
LINE
  8
0
 62
0
 10
-50.07037353515625
 20
69.92962646484375
 30
0.0
 11
-52.28325271606445
 21
78.16434478759766
 31
0.0
  0
LINE
  8
0
 62
0
 10
-74.98799896240234
 20
116.4000015258789
 30
0.0
 11
-71.46281433105469
 21
114.97470092773438
 31
0.0
  0
LINE
  8
0
 62
0
 10
-50.07037353515625
 20
69.92962646484375
 30
0.0
 11
-56.400001525878906
 21
63.599998474121094
 31
0.0
  0
LINE
  8
0
 62
0
 10
-111.30883026123047
 20
116.4000015258789
 30
0.0
 11
-74.98799896240234
 21
116.4000015258789
 31
0.0
  0
LINE
  8
0
 62
0
 10
-56.400001525878906
 20
63.599998474121094
 30
0.0
 11
-58.10627365112305
 21
63.599998474121094
 31
0.0
  0
LINE
  8
0
 62
0
 10
-109.64225006103516
 20
114.73341369628906
 30
0.0
 11
-111.30883026123047
 21
116.4000015258789
 31
0.0
  0
LINE
  8
0
 62
0
 10
-60.70919418334961
 20
72.23187255859375
 30
0.0
 11
-58.10627365112305
 21
63.599998474121094
 31
0.0
  0
LINE
  8
0
 62
0
 10
-100.27970123291016
 20
113.49955749511719
 30
0.0
 11
-109.64225006103516
 21
114.73341369628906
 31
0.0
  0
LINE
  8
0
 62
0
 10
-62.68214416503906
 20
81.02913665771484
 30
0.0
 11
-60.70919418334961
 21
72.23187255859375
 31
0.0
  0
LINE
  8
0
 62
0
 10
-91.04966735839844
 20
111.50299835205078
 30
0.0
 11
-100.27970123291016
 21
113.49955749511719
 31
0.0
  0
LINE
  8
0
 62
0
 10
-64.01483154296875
 20
89.94587707519531
 30
0.0
 11
-62.68214416503906
 21
81.02913665771484
 31
0.0
  0
LINE
  8
0
 62
0
 10
-82.01417541503906
 20
108.75714874267578
 30
0.0
 11
-91.04966735839844
 21
111.50299835205078
 31
0.0
  0
LINE
  8
0
 62
0
 10
-67.974365234375
 20
86.99221801757812
 30
0.0
 11
-64.01483154296875
 21
89.94587707519531
 31
0.0
  0
LINE
  8
0
 62
0
 10
-73.23394775390625
 20
105.28046417236328
 30
0.0
 11
-82.01417541503906
 21
108.75714874267578
 31
0.0
  0
LINE
  8
0
 62
0
 10
-71.79779815673828
 20
83.86438751220703
 30
0.0
 11
-67.974365234375
 21
86.99221801757812
 31
0.0
  0
LINE
  8
0
 62
0
 10
-64.76798248291016
 20
101.0963134765625
 30
0.0
 11
-73.23394775390625
 21
105.28046417236328
 31
0.0
  0
LINE
  8
0
 62
0
 10
-75.47748565673828
 20
80.56865692138672
 30
0.0
 11
-71.79779815673828
 21
83.86438751220703
 31
0.0
  0
LINE
  8
0
 62
0
 10
-64.76741790771484
 20
101.07135772705078
 30
0.0
 11
-64.76798248291016
 21
101.0963134765625
 31
0.0
  0
LINE
  8
0
 62
0
 10
-75.47748565673828
 20
80.56865692138672
 30
0.0
 11
-82.26903533935547
 21
87.3602066040039
 31
0.0
  0
LINE
  8
0
 62
0
 10
-64.766845703125
 20
101.04639434814453
 30
0.0
 11
-64.76741790771484
 21
101.07135772705078
 31
0.0
  0
LINE
  8
0
 62
0
 10
-82.26903533935547
 20
87.3602066040039
 30
0.0
 11
-76.71992492675781
 21
92.2716293334961
 31
0.0
  0
LINE
  8
0
 62
0
 10
-64.76626586914062
 20
101.02143859863281
 30
0.0
 11
-64.766845703125
 21
101.04639434814453
 31
0.0
  0
LINE
  8
0
 62
0
 10
-76.71992492675781
 20
92.2716293334961
 30
0.0
 11
-70.87824249267578
 21
96.83116912841797
 31
0.0
  0
LINE
  8
0
 62
0
 10
-70.87824249267578
 20
96.83116912841797
 30
0.0
 11
-64.76626586914062
 21
101.02143859863281
 31
0.0
  0
LINE
  8
0
 62
0
 10
-18.838899612426758
 20
63.599998474121094
 30
0.0
 11
-23.947513580322266
 21
63.599998474121094
 31
0.0
  0
LINE
  8
0
 62
0
 10
-18.838899612426758
 20
63.599998474121094
 30
0.0
 11
-17.235261917114258
 21
66.05664825439453
 31
0.0
  0
LINE
  8
0
 62
0
 10
-24.047897338867188
 20
63.751346588134766
 30
0.0
 11
-23.947513580322266
 21
63.599998474121094
 31
0.0
  0
LINE
  8
0
 62
0
 10
-17.235261917114258
 20
66.05664825439453
 30
0.0
 11
-15.693666458129883
 21
68.52173614501953
 31
0.0
  0
LINE
  8
0
 62
0
 10
-24.14851951599121
 20
63.90253448486328
 30
0.0
 11
-24.047897338867188
 21
63.751346588134766
 31
0.0
  0
LINE
  8
0
 62
0
 10
-15.693666458129883
 20
68.52173614501953
 30
0.0
 11
-16.235820770263672
 21
69.33999633789062
 31
0.0
  0
LINE
  8
0
 62
0
 10
-24.249380111694336
 20
64.0535659790039
 30
0.0
 11
-24.14851951599121
 21
63.90253448486328
 31
0.0
  0
LINE
  8
0
 62
0
 10
-16.235820770263672
 20
69.33999633789062
 30
0.0
 11
-16.784393310546875
 21
70.15396118164062
 31
0.0
  0
LINE
  8
0
 62
0
 10
-24.249380111694336
 20
64.0535659790039
 30
0.0
 11
-17.339351654052734
 21
70.96359252929688
 31
0.0
  0
LINE
  8
0
 62
0
 10
-16.784393310546875
 20
70.15396118164062
 30
0.0
 11
-17.339351654052734
 21
70.96359252929688
 31
0.0
  0
LINE
  8
0
 62
0
 10
110.36627960205078
 20
-0.002000041538849473
 30
0.0
 11
109.6472396850586
 21
-0.029783396050333973
 31
0.0
  0
LINE
  8
0
 62
0
 10
110.39939880371094
 20
-0.0002501237322576344
 30
0.0
 11
110.3993114144858
 21
-0.0002535550405008251
 31
0.0
  0
LINE
  8
0
 62
0
 10
110.31950787934625
 20
-0.003387013741957342
 30
0.0
 11
109.6472396850586
 21
-0.029783396050333977
 31
0.0
  0
LINE
  8
0
 62
0
 10
110.39974975585938
 20
-0.0001613033382454887
 30
0.0
 11
110.39974225136417
 21
-0.0001615987480497919
 31
0.0
  0
LINE
  8
0
 62
0
 10
110.31368755327016
 20
-0.0035490886224897023
 30
0.0
 11
109.6472396850586
 21
-0.029783396050333973
 31
0.0
  0
LINE
  8
0
 62
0
 10
110.30518708724495
 20
-0.003785795638126093
 30
0.0
 11
109.6472396850586
 21
-0.02978339605033397
 31
0.0
  0
LINE
  8
0
 62
0
 10
110.32221984863281
 20
0.0033134897239506245
 30
0.0
 11
110.15371704101562
 21
0.00800368469208479
 31
0.0
  0
LINE
  8
0
 62
0
 10
-110.32221984863281
 20
-0.0033134904224425554
 30
0.0
 11
-110.15371704101562
 21
-0.00800368469208479
 31
0.0
  0
LINE
  8
0
 62
0
 10
-110.30518671030555
 20
0.0037858061345153377
 30
0.0
 11
-109.6472396850586
 21
0.029783396050333977
 31
0.0
  0
LINE
  8
0
 62
0
 10
-110.39974975585938
 20
0.0001613007189007476
 30
0.0
 11
-110.39974225847706
 21
0.00016159584873652174
 31
0.0
  0
LINE
  8
0
 62
0
 10
-110.31368735186598
 20
0.0035490942308621935
 30
0.0
 11
-109.6472396850586
 21
0.029783396050333977
 31
0.0
  0
LINE
  8
0
 62
0
 10
-110.39939880371094
 20
0.0002501215785741806
 30
0.0
 11
-110.39931142738202
 21
0.00025355238070159545
 31
0.0
  0
LINE
  8
0
 62
0
 10
-110.31950771076353
 20
0.00338701843637189
 30
0.0
 11
-109.6472396850586
 21
0.029783396050333977
 31
0.0
  0
ENDBLK
  0
ENDSEC
  0
SECTION
  2
ENTITIES
  0
INSERT
  2
FACEFEAT
  8
0
 62
0
 10
0.0
 20
0.0
 30
0.0
  0
ENDSEC
  0
EOF
