  0
SECTION
  2
HEADER
  9
$ACADVER
  1
AC1009
  9
$INSBASE
 10
0.0
 20
0.0
 30
0.0
  9
$EXTMIN
 10
0.0
 20
0.0
 30
0.0
  9
$EXTMAX
 10
0.0
 20
0.0
 30
0.0
  0
ENDSEC
  0
SECTION
  2
TABLES
  0
TABLE
  2
VPORT
 70
0
  0
ENDTAB
  0
TABLE
  2
LTYPE
 70
1
  0
LTYPE
  2
CONTINUOUS
 70
0
  3
Solid line
 72
65
 73
0
 40
0.0
  0
ENDTAB
  0
TABLE
  2
LAYER
 70
1
  0
LAYER
  2
0
 70
64
 62
7
  6
continuous
  0
ENDTAB
  0
TABLE
  2
STYLE
 70
1
  0
STYLE
  2
STANDARD
 70
0
 40
0
 41
1.0
 50
0.0
 71
0
 42
1
 3
ARIAL.TTF
 4

  0
ENDTAB
  0
TABLE
  2
VIEW
 70
0
  0
ENDTAB
  0
ENDSEC
  0
SECTION
  2
BLOCKS
  0
BLOCK
  8
0
  2
FACEFEAT
 70
0
 10
0.0
 20
0.0
 30
0.0
  3
FACEFEAT
  0
LINE
  8
0
 62
0
 10
-70.09954073357856
 20
14.750125203709064
 30
0.0
 11
-70.98638760095422
 21
14.235428965695114
 31
0.0
  0
LINE
  8
0
 62
0
 10
38.88790386424538
 20
39.18164203360659
 30
0.0
 11
39.75478997058889
 21
38.31900377008712
 31
0.0
  0
LINE
  8
0
 62
0
 10
40.62795885521572
 20
37.462794491697736
 30
0.0
 11
41.50672369074755
 21
36.61379687276994
 31
0.0
  0
LINE
  8
0
 62
0
 10
39.75478997058887
 20
-38.31900377008715
 30
0.0
 11
38.887903864245374
 21
-39.1816420336066
 31
0.0
  0
LINE
  8
0
 62
0
 10
41.506723690747556
 20
-36.61379687276993
 30
0.0
 11
40.62795885521574
 21
-37.462794491697714
 31
0.0
  0
LINE
  8
0
 62
0
 10
70.98638760095423
 20
-14.23542896569511
 30
0.0
 11
70.09954073357858
 21
-14.75012520370906
 31
0.0
  0
LINE
  8
0
 62
0
 10
70.09954073357856
 20
14.750125203709064
 30
0.0
 11
70.98638760095422
 21
14.235428965695114
 31
0.0
  0
LINE
  8
0
 62
0
 10
-41.506723690747556
 20
36.61379687276993
 30
0.0
 11
-40.62795885521574
 21
37.462794491697714
 31
0.0
  0
LINE
  8
0
 62
0
 10
-39.75478997058887
 20
38.31900377008715
 30
0.0
 11
-38.887903864245374
 21
39.1816420336066
 31
0.0
  0
LINE
  8
0
 62
0
 10
-39.75478997058887
 20
-38.31900377008715
 30
0.0
 11
-38.887903864245374
 21
-39.1816420336066
 31
0.0
  0
LINE
  8
0
 62
0
 10
-41.506723690747556
 20
-36.61379687276993
 30
0.0
 11
-40.62795885521574
 21
-37.462794491697714
 31
0.0
  0
LINE
  8
0
 62
0
 10
-70.09954073357856
 20
-14.750125203709064
 30
0.0
 11
-70.98638760095422
 21
-14.235428965695114
 31
0.0
  0
LINE
  8
0
 62
0
 10
76.44356536865234
 20
-11.309625625610352
 30
0.0
 11
76.12167358398438
 21
-11.355100631713867
 31
0.0
  0
LINE
  8
0
 62
0
 10
70.38162231445312
 20
-14.57463550567627
 30
0.0
 11
76.12167358398438
 21
-11.355100631713867
 31
0.0
  0
LINE
  8
0
 62
0
 10
-120.0
 20
120.0
 30
0.0
 11
-120.0
 21
-120.0
 31
0.0
  0
LINE
  8
0
 62
0
 10
-120.0
 20
-120.0
 30
0.0
 11
120.0
 21
-120.0
 31
0.0
  0
LINE
  8
0
 62
0
 10
120.0
 20
120.0
 30
0.0
 11
-120.0
 21
120.0
 31
0.0
  0
LINE
  8
0
 62
0
 10
120.0
 20
-120.0
 30
0.0
 11
120.0
 21
120.0
 31
0.0
  0
LINE
  8
0
 62
0
 10
-76.44356536865234
 20
11.309625625610352
 30
0.0
 11
-76.12167358398438
 21
11.355100631713867
 31
0.0
  0
LINE
  8
0
 62
0
 10
-76.76532745361328
 20
11.263251304626465
 30
0.0
 11
-76.44356536865234
 21
11.309625625610352
 31
0.0
  0
LINE
  8
0
 62
0
 10
-77.08696746826172
 20
11.215978622436523
 30
0.0
 11
-76.76532745361328
 21
11.263251304626465
 31
0.0
  0
LINE
  8
0
 62
0
 10
-77.08696746826172
 20
11.215978622436523
 30
0.0
 11
-68.95049285888672
 21
19.35245132446289
 31
0.0
  0
LINE
  8
0
 62
0
 10
-67.56788635253906
 20
19.44504737854004
 30
0.0
 11
-68.95049285888672
 21
19.35245132446289
 31
0.0
  0
LINE
  8
0
 62
0
 10
-64.80000305175781
 20
19.583711624145508
 30
0.0
 11
-64.80000305175781
 21
18.047094345092773
 31
0.0
  0
LINE
  8
0
 62
0
 10
-66.18433380126953
 20
19.522138595581055
 30
0.0
 11
-67.56788635253906
 21
19.44504737854004
 31
0.0
  0
LINE
  8
0
 62
0
 10
-64.80000305175781
 20
19.583711624145508
 30
0.0
 11
-66.18433380126953
 21
19.522138595581055
 31
0.0
  0
LINE
  8
0
 62
0
 10
-49.738040924072266
 20
47.05018615722656
 30
0.0
 11
-44.37999725341797
 21
52.40822982788086
 31
0.0
  0
LINE
  8
0
 62
0
 10
-44.37999725341797
 20
52.40822982788086
 30
0.0
 11
-44.83222961425781
 21
53.33487319946289
 31
0.0
  0
LINE
  8
0
 62
0
 10
-51.088462829589844
 20
49.73528289794922
 30
0.0
 11
-49.738040924072266
 21
47.05018615722656
 31
0.0
  0
LINE
  8
0
 62
0
 10
-44.83222961425781
 20
53.33487319946289
 30
0.0
 11
-45.276241302490234
 21
54.26548767089844
 31
0.0
  0
LINE
  8
0
 62
0
 10
-52.37319564819336
 20
52.452423095703125
 30
0.0
 11
-51.088462829589844
 21
49.73528289794922
 31
0.0
  0
LINE
  8
0
 62
0
 10
-45.276241302490234
 20
54.26548767089844
 30
0.0
 11
-45.71199035644531
 21
55.20000076293945
 31
0.0
  0
LINE
  8
0
 62
0
 10
-53.59148025512695
 20
55.20000076293945
 30
0.0
 11
-52.37319564819336
 21
52.452423095703125
 31
0.0
  0
LINE
  8
0
 62
0
 10
-53.59148025512695
 20
55.20000076293945
 30
0.0
 11
-45.71199035644531
 21
55.20000076293945
 31
0.0
  0
LINE
  8
0
 62
0
 10
44.37999725341797
 20
52.40822982788086
 30
0.0
 11
49.738040924072266
 21
47.05018615722656
 31
0.0
  0
LINE
  8
0
 62
0
 10
49.738040924072266
 20
47.05018615722656
 30
0.0
 11
51.088462829589844
 21
49.73528289794922
 31
0.0
  0
LINE
  8
0
 62
0
 10
44.83222961425781
 20
53.33487319946289
 30
0.0
 11
44.37999725341797
 21
52.40822982788086
 31
0.0
  0
LINE
  8
0
 62
0
 10
51.088462829589844
 20
49.73528289794922
 30
0.0
 11
52.37319564819336
 21
52.452423095703125
 31
0.0
  0
LINE
  8
0
 62
0
 10
45.276241302490234
 20
54.26548767089844
 30
0.0
 11
44.83222961425781
 21
53.33487319946289
 31
0.0
  0
LINE
  8
0
 62
0
 10
52.37319564819336
 20
52.452423095703125
 30
0.0
 11
53.59148025512695
 21
55.20000076293945
 31
0.0
  0
LINE
  8
0
 62
0
 10
45.71199035644531
 20
55.20000076293945
 30
0.0
 11
45.276241302490234
 21
54.26548767089844
 31
0.0
  0
LINE
  8
0
 62
0
 10
45.71199035644531
 20
55.20000076293945
 30
0.0
 11
53.59148025512695
 21
55.20000076293945
 31
0.0
  0
LINE
  8
0
 62
0
 10
38.925201416015625
 20
42.581668853759766
 30
0.0
 11
37.59531021118164
 21
40.48713302612305
 31
0.0
  0
LINE
  8
0
 62
0
 10
40.21014404296875
 20
44.70407485961914
 30
0.0
 11
38.925201416015625
 21
42.581668853759766
 31
0.0
  0
LINE
  8
0
 62
0
 10
41.449562072753906
 20
46.8533821105957
 30
0.0
 11
40.21014404296875
 21
44.70407485961914
 31
0.0
  0
LINE
  8
0
 62
0
 10
41.449562072753906
 20
46.8533821105957
 30
0.0
 11
46.7244758605957
 21
41.578468322753906
 31
0.0
  0
LINE
  8
0
 62
0
 10
45.468753814697266
 20
39.476932525634766
 30
0.0
 11
46.7244758605957
 21
41.578468322753906
 31
0.0
  0
LINE
  8
0
 62
0
 10
42.83369064331055
 20
35.350521087646484
 30
0.0
 11
44.17165756225586
 21
37.40067672729492
 31
0.0
  0
LINE
  8
0
 62
0
 10
44.17165756225586
 20
37.40067672729492
 30
0.0
 11
45.468753814697266
 21
39.476932525634766
 31
0.0
  0
LINE
  8
0
 62
0
 10
-18.202043533325195
 20
-70.10089874267578
 30
0.0
 11
-23.384496688842773
 21
-64.91844940185547
 31
0.0
  0
LINE
  8
0
 62
0
 10
-23.357986450195312
 20
-64.87897491455078
 30
0.0
 11
-23.384496688842773
 21
-64.91844940185547
 31
0.0
  0
LINE
  8
0
 62
0
 10
-18.202043533325195
 20
-70.10089874267578
 30
0.0
 11
-17.590232849121094
 21
-69.20404052734375
 31
0.0
  0
LINE
  8
0
 62
0
 10
-23.331493377685547
 20
-64.83949279785156
 30
0.0
 11
-23.357986450195312
 21
-64.87897491455078
 31
0.0
  0
LINE
  8
0
 62
0
 10
-17.590232849121094
 20
-69.20404052734375
 30
0.0
 11
-16.9863224029541
 21
-68.30184936523438
 31
0.0
  0
LINE
  8
0
 62
0
 10
-23.305015563964844
 20
-64.80000305175781
 30
0.0
 11
-23.331493377685547
 21
-64.83949279785156
 31
0.0
  0
LINE
  8
0
 62
0
 10
-16.9863224029541
 20
-68.30184936523438
 30
0.0
 11
-16.390361785888672
 21
-67.39437866210938
 31
0.0
  0
LINE
  8
0
 62
0
 10
-23.305015563964844
 20
-64.80000305175781
 30
0.0
 11
-18.047094345092773
 21
-64.80000305175781
 31
0.0
  0
LINE
  8
0
 62
0
 10
17.590232849121094
 20
-69.20404052734375
 30
0.0
 11
18.202043533325195
 21
-70.10089874267578
 31
0.0
  0
LINE
  8
0
 62
0
 10
23.384496688842773
 20
-64.91844940185547
 30
0.0
 11
18.202043533325195
 21
-70.10089874267578
 31
0.0
  0
LINE
  8
0
 62
0
 10
16.9863224029541
 20
-68.30184936523438
 30
0.0
 11
17.590232849121094
 21
-69.20404052734375
 31
0.0
  0
LINE
  8
0
 62
0
 10
23.384496688842773
 20
-64.91844940185547
 30
0.0
 11
23.357986450195312
 21
-64.87897491455078
 31
0.0
  0
LINE
  8
0
 62
0
 10
16.390361785888672
 20
-67.39437866210938
 30
0.0
 11
16.9863224029541
 21
-68.30184936523438
 31
0.0
  0
LINE
  8
0
 62
0
 10
23.357986450195312
 20
-64.87897491455078
 30
0.0
 11
23.331493377685547
 21
-64.83949279785156
 31
0.0
  0
LINE
  8
0
 62
0
 10
23.331493377685547
 20
-64.83949279785156
 30
0.0
 11
23.305015563964844
 21
-64.80000305175781
 31
0.0
  0
LINE
  8
0
 62
0
 10
18.047094345092773
 20
-64.80000305175781
 30
0.0
 11
23.305015563964844
 21
-64.80000305175781
 31
0.0
  0
LINE
  8
0
 62
0
 10
21.769731521606445
 20
-75.01849365234375
 30
0.0
 11
24.177030563354492
 21
-78.06996154785156
 31
0.0
  0
LINE
  8
0
 62
0
 10
24.177030563354492
 20
-78.06996154785156
 30
0.0
 11
26.67908477783203
 21
-81.04422760009766
 31
0.0
  0
LINE
  8
0
 62
0
 10
26.90924644470215
 20
-69.87897491455078
 30
0.0
 11
21.769731521606445
 21
-75.01849365234375
 31
0.0
  0
LINE
  8
0
 62
0
 10
26.67908477783203
 20
-81.04422760009766
 30
0.0
 11
29.273418426513672
 21
-83.9383544921875
 31
0.0
  0
LINE
  8
0
 62
0
 10
29.29541015625
 20
-72.94955444335938
 30
0.0
 11
26.90924644470215
 21
-69.87897491455078
 31
0.0
  0
LINE
  8
0
 62
0
 10
29.273418426513672
 20
-83.9383544921875
 30
0.0
 11
34.36867141723633
 21
-78.84310150146484
 31
0.0
  0
LINE
  8
0
 62
0
 10
31.78281021118164
 20
-75.93870544433594
 30
0.0
 11
29.29541015625
 21
-72.94955444335938
 31
0.0
  0
LINE
  8
0
 62
0
 10
34.36867141723633
 20
-78.84310150146484
 30
0.0
 11
31.78281021118164
 21
-75.93870544433594
 31
0.0
  0
LINE
  8
0
 62
0
 10
46.7244758605957
 20
-41.578468322753906
 30
0.0
 11
41.449562072753906
 21
-46.8533821105957
 31
0.0
  0
LINE
  8
0
 62
0
 10
40.21014404296875
 20
-44.70407485961914
 30
0.0
 11
41.449562072753906
 21
-46.8533821105957
 31
0.0
  0
LINE
  8
0
 62
0
 10
46.7244758605957
 20
-41.578468322753906
 30
0.0
 11
45.468753814697266
 21
-39.476932525634766
 31
0.0
  0
LINE
  8
0
 62
0
 10
38.925201416015625
 20
-42.581668853759766
 30
0.0
 11
40.21014404296875
 21
-44.70407485961914
 31
0.0
  0
LINE
  8
0
 62
0
 10
45.468753814697266
 20
-39.476932525634766
 30
0.0
 11
44.17165756225586
 21
-37.40067672729492
 31
0.0
  0
LINE
  8
0
 62
0
 10
37.59531021118164
 20
-40.48713302612305
 30
0.0
 11
38.925201416015625
 21
-42.581668853759766
 31
0.0
  0
LINE
  8
0
 62
0
 10
44.17165756225586
 20
-37.40067672729492
 30
0.0
 11
42.83369064331055
 21
-35.350521087646484
 31
0.0
  0
LINE
  8
0
 62
0
 10
45.71199035644531
 20
-55.20000076293945
 30
0.0
 11
53.59148025512695
 21
-55.20000076293945
 31
0.0
  0
LINE
  8
0
 62
0
 10
53.59148025512695
 20
-55.20000076293945
 30
0.0
 11
52.37319564819336
 21
-52.452423095703125
 31
0.0
  0
LINE
  8
0
 62
0
 10
45.276241302490234
 20
-54.26548767089844
 30
0.0
 11
45.71199035644531
 21
-55.20000076293945
 31
0.0
  0
LINE
  8
0
 62
0
 10
52.37319564819336
 20
-52.452423095703125
 30
0.0
 11
51.088462829589844
 21
-49.73528289794922
 31
0.0
  0
LINE
  8
0
 62
0
 10
44.83222961425781
 20
-53.33487319946289
 30
0.0
 11
45.276241302490234
 21
-54.26548767089844
 31
0.0
  0
LINE
  8
0
 62
0
 10
51.088462829589844
 20
-49.73528289794922
 30
0.0
 11
49.738040924072266
 21
-47.05018615722656
 31
0.0
  0
LINE
  8
0
 62
0
 10
44.37999725341797
 20
-52.40822982788086
 30
0.0
 11
44.83222961425781
 21
-53.33487319946289
 31
0.0
  0
LINE
  8
0
 62
0
 10
49.738040924072266
 20
-47.05018615722656
 30
0.0
 11
44.37999725341797
 21
-52.40822982788086
 31
0.0
  0
LINE
  8
0
 62
0
 10
-0.41252925992012024
 20
-112.79924774169922
 30
0.0
 11
-7.216449660063518e-16
 21
-113.21177673339844
 31
0.0
  0
LINE
  8
0
 62
0
 10
-7.40148665436918e-16
 20
-113.21177673339844
 30
0.0
 11
0.41252925992012024
 21
-112.79924774169922
 31
0.0
  0
LINE
  8
0
 62
0
 10
-0.1375100165605545
 20
-112.79991912841797
 30
0.0
 11
-0.41252925992012024
 21
-112.79924774169922
 31
0.0
  0
LINE
  8
0
 62
0
 10
0.41252925992012024
 20
-112.79924774169922
 30
0.0
 11
0.1375100165605545
 21
-112.79991912841797
 31
0.0
  0
LINE
  8
0
 62
0
 10
0.1375100165605545
 20
-112.79991912841797
 30
0.0
 11
-0.1375100165605545
 21
-112.79991912841797
 31
0.0
  0
LINE
  8
0
 62
0
 10
115.19999694824219
 20
-33.599998474121094
 30
0.0
 11
115.19999694824219
 21
-4.800000190734863
 31
0.0
  0
LINE
  8
0
 62
0
 10
111.61702728271484
 20
-8.382973670959473
 30
0.0
 11
115.19999694824219
 21
-4.800000190734863
 31
0.0
  0
LINE
  8
0
 62
0
 10
115.19999694824219
 20
-33.599998474121094
 30
0.0
 11
113.0706787109375
 21
-40.18734359741211
 31
0.0
  0
LINE
  8
0
 62
0
 10
111.61702728271484
 20
-8.382973670959473
 30
0.0
 11
111.91788482666016
 21
-8.244205474853516
 31
0.0
  0
LINE
  8
0
 62
0
 10
113.0706787109375
 20
-40.18734359741211
 30
0.0
 11
110.56501770019531
 21
-46.64093017578125
 31
0.0
  0
LINE
  8
0
 62
0
 10
111.91788482666016
 20
-8.244205474853516
 30
0.0
 11
112.21837615966797
 21
-8.104631423950195
 31
0.0
  0
LINE
  8
0
 62
0
 10
110.56501770019531
 20
-46.64093017578125
 30
0.0
 11
107.69137573242188
 21
-52.93928527832031
 31
0.0
  0
LINE
  8
0
 62
0
 10
112.21837615966797
 20
-8.104631423950195
 30
0.0
 11
112.51849365234375
 21
-7.964252948760986
 31
0.0
  0
LINE
  8
0
 62
0
 10
107.69137573242188
 20
-52.93928527832031
 30
0.0
 11
104.45930480957031
 21
-59.06144332885742
 31
0.0
  0
LINE
  8
0
 62
0
 10
112.51849365234375
 20
-7.964252948760986
 30
0.0
 11
111.8221206665039
 21
-14.820688247680664
 31
0.0
  0
LINE
  8
0
 62
0
 10
104.45930480957031
 20
-59.06144332885742
 30
0.0
 11
100.87956237792969
 21
-64.98703002929688
 31
0.0
  0
LINE
  8
0
 62
0
 10
111.8221206665039
 20
-14.820688247680664
 30
0.0
 11
110.70834350585938
 21
-21.621801376342773
 31
0.0
  0
LINE
  8
0
 62
0
 10
100.87956237792969
 20
-64.98703002929688
 30
0.0
 11
96.96406555175781
 21
-70.69631958007812
 31
0.0
  0
LINE
  8
0
 62
0
 10
110.70834350585938
 20
-21.621801376342773
 30
0.0
 11
109.18131256103516
 21
-28.34220314025879
 31
0.0
  0
LINE
  8
0
 62
0
 10
96.96406555175781
 20
-70.69631958007812
 30
0.0
 11
92.7258529663086
 21
-76.1703109741211
 31
0.0
  0
LINE
  8
0
 62
0
 10
109.18131256103516
 20
-28.34220314025879
 30
0.0
 11
107.24673461914062
 21
-34.956809997558594
 31
0.0
  0
LINE
  8
0
 62
0
 10
92.7258529663086
 20
-76.1703109741211
 30
0.0
 11
88.17901611328125
 21
-81.39079284667969
 31
0.0
  0
LINE
  8
0
 62
0
 10
107.24673461914062
 20
-34.956809997558594
 30
0.0
 11
104.91181945800781
 21
-41.4409294128418
 31
0.0
  0
LINE
  8
0
 62
0
 10
88.17901611328125
 20
-81.39079284667969
 30
0.0
 11
83.08351135253906
 21
-76.2952880859375
 31
0.0
  0
LINE
  8
0
 62
0
 10
104.91181945800781
 20
-41.4409294128418
 30
0.0
 11
102.18528747558594
 21
-47.77035903930664
 31
0.0
  0
LINE
  8
0
 62
0
 10
87.58765411376953
 20
-71.0791244506836
 30
0.0
 11
83.08351135253906
 21
-76.2952880859375
 31
0.0
  0
LINE
  8
0
 62
0
 10
102.18528747558594
 20
-47.77035903930664
 30
0.0
 11
99.07731628417969
 21
-53.921470642089844
 31
0.0
  0
LINE
  8
0
 62
0
 10
91.76485443115234
 20
-65.59764862060547
 30
0.0
 11
87.58765411376953
 21
-71.0791244506836
 31
0.0
  0
LINE
  8
0
 62
0
 10
99.07731628417969
 20
-53.921470642089844
 30
0.0
 11
95.59951782226562
 21
-59.871299743652344
 31
0.0
  0
LINE
  8
0
 62
0
 10
95.59951782226562
 20
-59.871299743652344
 30
0.0
 11
91.76485443115234
 21
-65.59764862060547
 31
0.0
  0
LINE
  8
0
 62
0
 10
64.80000305175781
 20
-19.583711624145508
 30
0.0
 11
64.80000305175781
 21
-18.047094345092773
 31
0.0
  0
LINE
  8
0
 62
0
 10
64.80000305175781
 20
-19.583711624145508
 30
0.0
 11
66.18433380126953
 21
-19.522138595581055
 31
0.0
  0
LINE
  8
0
 62
0
 10
66.18433380126953
 20
-19.522138595581055
 30
0.0
 11
67.56788635253906
 21
-19.44504737854004
 31
0.0
  0
LINE
  8
0
 62
0
 10
67.56788635253906
 20
-19.44504737854004
 30
0.0
 11
68.95049285888672
 21
-19.35245132446289
 31
0.0
  0
LINE
  8
0
 62
0
 10
76.76532745361328
 20
-11.263251304626465
 30
0.0
 11
76.44356536865234
 21
-11.309625625610352
 31
0.0
  0
LINE
  8
0
 62
0
 10
68.95049285888672
 20
-19.35245132446289
 30
0.0
 11
77.08696746826172
 21
-11.215978622436523
 31
0.0
  0
LINE
  8
0
 62
0
 10
77.08696746826172
 20
-11.215978622436523
 30
0.0
 11
76.76532745361328
 21
-11.263251304626465
 31
0.0
  0
LINE
  8
0
 62
0
 10
103.32906341552734
 20
-115.19999694824219
 30
0.0
 11
75.2125015258789
 21
-115.19999694824219
 31
0.0
  0
LINE
  8
0
 62
0
 10
103.32906341552734
 20
-115.19999694824219
 30
0.0
 11
96.40762329101562
 21
-113.9840316772461
 31
0.0
  0
LINE
  8
0
 62
0
 10
71.23274993896484
 20
-113.572509765625
 30
0.0
 11
75.2125015258789
 21
-115.19999694824219
 31
0.0
  0
LINE
  8
0
 62
0
 10
96.40762329101562
 20
-113.9840316772461
 30
0.0
 11
89.57217407226562
 21
-112.35260009765625
 31
0.0
  0
LINE
  8
0
 62
0
 10
67.31201934814453
 20
-111.80758666992188
 30
0.0
 11
71.23274993896484
 21
-113.572509765625
 31
0.0
  0
LINE
  8
0
 62
0
 10
89.57217407226562
 20
-112.35260009765625
 30
0.0
 11
82.8476333618164
 21
-110.31165313720703
 31
0.0
  0
LINE
  8
0
 62
0
 10
63.45504379272461
 20
-109.90736389160156
 30
0.0
 11
67.31201934814453
 21
-111.80758666992188
 31
0.0
  0
LINE
  8
0
 62
0
 10
82.8476333618164
 20
-110.31165313720703
 30
0.0
 11
76.25850677490234
 21
-107.8686294555664
 31
0.0
  0
LINE
  8
0
 62
0
 10
63.356773376464844
 20
-111.67327880859375
 30
0.0
 11
63.45504379272461
 21
-109.90736389160156
 31
0.0
  0
LINE
  8
0
 62
0
 10
76.25850677490234
 20
-107.8686294555664
 30
0.0
 11
69.82881164550781
 21
-105.03243255615234
 31
0.0
  0
LINE
  8
0
 62
0
 10
63.233245849609375
 20
-113.43761444091797
 30
0.0
 11
63.356773376464844
 21
-111.67327880859375
 31
0.0
  0
LINE
  8
0
 62
0
 10
69.82881164550781
 20
-105.03243255615234
 30
0.0
 11
63.581993103027344
 21
-101.81340026855469
 31
0.0
  0
LINE
  8
0
 62
0
 10
63.0844841003418
 20
-115.19999694824219
 30
0.0
 11
63.233245849609375
 21
-113.43761444091797
 31
0.0
  0
LINE
  8
0
 62
0
 10
63.581993103027344
 20
-101.81340026855469
 30
0.0
 11
63.581756591796875
 21
-101.79940795898438
 31
0.0
  0
LINE
  8
0
 62
0
 10
63.0844841003418
 20
-115.19999694824219
 30
0.0
 11
55.85245132446289
 21
-115.19999694824219
 31
0.0
  0
LINE
  8
0
 62
0
 10
63.581756591796875
 20
-101.79940795898438
 30
0.0
 11
63.581512451171875
 21
-101.78541564941406
 31
0.0
  0
LINE
  8
0
 62
0
 10
56.11042404174805
 20
-112.12847900390625
 30
0.0
 11
55.85245132446289
 21
-115.19999694824219
 31
0.0
  0
LINE
  8
0
 62
0
 10
63.581512451171875
 20
-101.78541564941406
 30
0.0
 11
63.58127212524414
 21
-101.77142333984375
 31
0.0
  0
LINE
  8
0
 62
0
 10
56.286983489990234
 20
-109.05120086669922
 30
0.0
 11
56.11042404174805
 21
-112.12847900390625
 31
0.0
  0
LINE
  8
0
 62
0
 10
68.26716613769531
 20
-98.68937683105469
 30
0.0
 11
63.58127212524414
 21
-101.77142333984375
 31
0.0
  0
LINE
  8
0
 62
0
 10
56.381996154785156
 20
-105.97032165527344
 30
0.0
 11
56.286983489990234
 21
-109.05120086669922
 31
0.0
  0
LINE
  8
0
 62
0
 10
72.8039321899414
 20
-95.39175415039062
 30
0.0
 11
68.26716613769531
 21
-98.68937683105469
 31
0.0
  0
LINE
  8
0
 62
0
 10
56.3699951171875
 20
-105.96311950683594
 30
0.0
 11
56.381996154785156
 21
-105.97032165527344
 31
0.0
  0
LINE
  8
0
 62
0
 10
77.1816635131836
 20
-91.88574981689453
 30
0.0
 11
72.8039321899414
 21
-95.39175415039062
 31
0.0
  0
LINE
  8
0
 62
0
 10
56.35799789428711
 20
-105.9559097290039
 30
0.0
 11
56.3699951171875
 21
-105.96311950683594
 31
0.0
  0
LINE
  8
0
 62
0
 10
81.39079284667969
 20
-88.17901611328125
 30
0.0
 11
77.1816635131836
 21
-91.88574981689453
 31
0.0
  0
LINE
  8
0
 62
0
 10
56.34600067138672
 20
-105.9487075805664
 30
0.0
 11
56.35799789428711
 21
-105.9559097290039
 31
0.0
  0
LINE
  8
0
 62
0
 10
81.39079284667969
 20
-88.17901611328125
 30
0.0
 11
76.2952880859375
 21
-83.08351135253906
 31
0.0
  0
LINE
  8
0
 62
0
 10
56.34600067138672
 20
-105.9487075805664
 30
0.0
 11
50.844879150390625
 21
-108.6958999633789
 31
0.0
  0
LINE
  8
0
 62
0
 10
76.2952880859375
 20
-83.08351135253906
 30
0.0
 11
72.0888671875
 21
-86.75848388671875
 31
0.0
  0
LINE
  8
0
 62
0
 10
50.844879150390625
 20
-108.6958999633789
 30
0.0
 11
45.21025848388672
 21
-111.1576919555664
 31
0.0
  0
LINE
  8
0
 62
0
 10
72.0888671875
 20
-86.75848388671875
 30
0.0
 11
67.7056884765625
 21
-90.2207260131836
 31
0.0
  0
LINE
  8
0
 62
0
 10
45.21025848388672
 20
-111.1576919555664
 30
0.0
 11
39.45692825317383
 21
-113.32762908935547
 31
0.0
  0
LINE
  8
0
 62
0
 10
67.7056884765625
 20
-90.2207260131836
 30
0.0
 11
63.156490325927734
 21
-93.46174621582031
 31
0.0
  0
LINE
  8
0
 62
0
 10
39.45692825317383
 20
-113.32762908935547
 30
0.0
 11
33.599998474121094
 21
-115.19999694824219
 31
0.0
  0
LINE
  8
0
 62
0
 10
63.156490325927734
 20
-93.46174621582031
 30
0.0
 11
62.52141189575195
 21
-87.6300048828125
 31
0.0
  0
LINE
  8
0
 62
0
 10
33.599998474121094
 20
-115.19999694824219
 30
0.0
 11
4.800000190734863
 21
-115.19999694824219
 31
0.0
  0
LINE
  8
0
 62
0
 10
62.52141189575195
 20
-87.6300048828125
 30
0.0
 11
61.610347747802734
 21
-81.8349609375
 31
0.0
  0
LINE
  8
0
 62
0
 10
4.800000190734863
 20
-115.19999694824219
 30
0.0
 11
7.446027755737305
 21
-112.55397033691406
 31
0.0
  0
LINE
  8
0
 62
0
 10
61.610347747802734
 20
-81.8349609375
 30
0.0
 11
60.42534255981445
 21
-76.08967590332031
 31
0.0
  0
LINE
  8
0
 62
0
 10
13.652124404907227
 20
-111.97079467773438
 30
0.0
 11
7.446027755737305
 21
-112.55397033691406
 31
0.0
  0
LINE
  8
0
 62
0
 10
60.42534255981445
 20
-76.08967590332031
 30
0.0
 11
58.96907424926758
 21
-70.40708923339844
 31
0.0
  0
LINE
  8
0
 62
0
 10
19.816532135009766
 20
-111.04569244384766
 30
0.0
 11
13.652124404907227
 21
-111.97079467773438
 31
0.0
  0
LINE
  8
0
 62
0
 10
58.96907424926758
 20
-70.40708923339844
 30
0.0
 11
57.244815826416016
 21
-64.80000305175781
 31
0.0
  0
LINE
  8
0
 62
0
 10
25.92042350769043
 20
-109.7814712524414
 30
0.0
 11
19.816532135009766
 21
-111.04569244384766
 31
0.0
  0
LINE
  8
0
 62
0
 10
55.20000076293945
 20
-64.80000305175781
 30
0.0
 11
57.244815826416016
 21
-64.80000305175781
 31
0.0
  0
LINE
  8
0
 62
0
 10
31.945159912109375
 20
-108.1820068359375
 30
0.0
 11
25.92042350769043
 21
-109.7814712524414
 31
0.0
  0
LINE
  8
0
 62
0
 10
51.02857208251953
 20
-68.97142791748047
 30
0.0
 11
55.20000076293945
 21
-64.80000305175781
 31
0.0
  0
LINE
  8
0
 62
0
 10
37.87234115600586
 20
-106.25218200683594
 30
0.0
 11
31.945159912109375
 21
-108.1820068359375
 31
0.0
  0
LINE
  8
0
 62
0
 10
51.02857208251953
 20
-68.97142791748047
 30
0.0
 11
52.62862014770508
 21
-74.53336334228516
 31
0.0
  0
LINE
  8
0
 62
0
 10
43.68387222290039
 20
-103.99787902832031
 30
0.0
 11
37.87234115600586
 21
-106.25218200683594
 31
0.0
  0
LINE
  8
0
 62
0
 10
52.62862014770508
 20
-74.53336334228516
 30
0.0
 11
53.950233459472656
 21
-80.16796112060547
 31
0.0
  0
LINE
  8
0
 62
0
 10
49.36199951171875
 20
-101.42599487304688
 30
0.0
 11
43.68387222290039
 21
-103.99787902832031
 31
0.0
  0
LINE
  8
0
 62
0
 10
53.950233459472656
 20
-80.16796112060547
 30
0.0
 11
54.99013900756836
 21
-85.86128234863281
 31
0.0
  0
LINE
  8
0
 62
0
 10
43.5023193359375
 20
-97.08277130126953
 30
0.0
 11
49.36199951171875
 21
-101.42599487304688
 31
0.0
  0
LINE
  8
0
 62
0
 10
54.99013900756836
 20
-85.86128234863281
 30
0.0
 11
55.74577331542969
 21
-91.59925079345703
 31
0.0
  0
LINE
  8
0
 62
0
 10
37.909027099609375
 20
-92.40147399902344
 30
0.0
 11
43.5023193359375
 21
-97.08277130126953
 31
0.0
  0
LINE
  8
0
 62
0
 10
55.74577331542969
 20
-91.59925079345703
 30
0.0
 11
56.21526336669922
 21
-97.36769104003906
 31
0.0
  0
LINE
  8
0
 62
0
 10
32.601600646972656
 20
-87.39839935302734
 30
0.0
 11
37.909027099609375
 21
-92.40147399902344
 31
0.0
  0
LINE
  8
0
 62
0
 10
56.21526336669922
 20
-97.36769104003906
 30
0.0
 11
51.300479888916016
 21
-93.96454620361328
 31
0.0
  0
LINE
  8
0
 62
0
 10
32.601600646972656
 20
-87.39839935302734
 30
0.0
 11
37.692771911621094
 21
-82.3072280883789
 31
0.0
  0
LINE
  8
0
 62
0
 10
51.300479888916016
 20
-93.96454620361328
 30
0.0
 11
46.56690216064453
 21
-90.31356811523438
 31
0.0
  0
LINE
  8
0
 62
0
 10
42.02700424194336
 20
-86.42436981201172
 30
0.0
 11
37.692771911621094
 21
-82.3072280883789
 31
0.0
  0
LINE
  8
0
 62
0
 10
46.56690216064453
 20
-90.31356811523438
 30
0.0
 11
42.02700424194336
 21
-86.42436981201172
 31
0.0
  0
LINE
  8
0
 62
0
 10
64.80000305175781
 20
19.583711624145508
 30
0.0
 11
64.80000305175781
 21
18.047094345092773
 31
0.0
  0
LINE
  8
0
 62
0
 10
66.18433380126953
 20
19.522138595581055
 30
0.0
 11
64.80000305175781
 21
19.583711624145508
 31
0.0
  0
LINE
  8
0
 62
0
 10
67.56788635253906
 20
19.44504737854004
 30
0.0
 11
66.18433380126953
 21
19.522138595581055
 31
0.0
  0
LINE
  8
0
 62
0
 10
68.95049285888672
 20
19.35245132446289
 30
0.0
 11
67.56788635253906
 21
19.44504737854004
 31
0.0
  0
LINE
  8
0
 62
0
 10
68.95049285888672
 20
19.35245132446289
 30
0.0
 11
77.08696746826172
 21
11.215978622436523
 31
0.0
  0
LINE
  8
0
 62
0
 10
76.12167358398438
 20
11.355100631713867
 30
0.0
 11
76.44356536865234
 21
11.309625625610352
 31
0.0
  0
LINE
  8
0
 62
0
 10
76.76532745361328
 20
11.263251304626465
 30
0.0
 11
77.08696746826172
 21
11.215978622436523
 31
0.0
  0
LINE
  8
0
 62
0
 10
76.44356536865234
 20
11.309625625610352
 30
0.0
 11
76.76532745361328
 21
11.263251304626465
 31
0.0
  0
LINE
  8
0
 62
0
 10
95.59951782226562
 20
59.871299743652344
 30
0.0
 11
99.07731628417969
 21
53.921470642089844
 31
0.0
  0
LINE
  8
0
 62
0
 10
99.07731628417969
 20
53.921470642089844
 30
0.0
 11
102.18528747558594
 21
47.77035903930664
 31
0.0
  0
LINE
  8
0
 62
0
 10
91.76485443115234
 20
65.59764862060547
 30
0.0
 11
95.59951782226562
 21
59.871299743652344
 31
0.0
  0
LINE
  8
0
 62
0
 10
102.18528747558594
 20
47.77035903930664
 30
0.0
 11
104.91181945800781
 21
41.4409294128418
 31
0.0
  0
LINE
  8
0
 62
0
 10
87.58765411376953
 20
71.0791244506836
 30
0.0
 11
91.76485443115234
 21
65.59764862060547
 31
0.0
  0
LINE
  8
0
 62
0
 10
104.91181945800781
 20
41.4409294128418
 30
0.0
 11
107.24673461914062
 21
34.956809997558594
 31
0.0
  0
LINE
  8
0
 62
0
 10
83.08351135253906
 20
76.2952880859375
 30
0.0
 11
87.58765411376953
 21
71.0791244506836
 31
0.0
  0
LINE
  8
0
 62
0
 10
107.24673461914062
 20
34.956809997558594
 30
0.0
 11
109.18131256103516
 21
28.34220314025879
 31
0.0
  0
LINE
  8
0
 62
0
 10
88.17901611328125
 20
81.39079284667969
 30
0.0
 11
83.08351135253906
 21
76.2952880859375
 31
0.0
  0
LINE
  8
0
 62
0
 10
109.18131256103516
 20
28.34220314025879
 30
0.0
 11
110.70834350585938
 21
21.621801376342773
 31
0.0
  0
LINE
  8
0
 62
0
 10
88.17901611328125
 20
81.39079284667969
 30
0.0
 11
92.7258529663086
 21
76.1703109741211
 31
0.0
  0
LINE
  8
0
 62
0
 10
110.70834350585938
 20
21.621801376342773
 30
0.0
 11
111.8221206665039
 21
14.820688247680664
 31
0.0
  0
LINE
  8
0
 62
0
 10
92.7258529663086
 20
76.1703109741211
 30
0.0
 11
96.96406555175781
 21
70.69631958007812
 31
0.0
  0
LINE
  8
0
 62
0
 10
111.8221206665039
 20
14.820688247680664
 30
0.0
 11
112.51849365234375
 21
7.964252948760986
 31
0.0
  0
LINE
  8
0
 62
0
 10
96.96406555175781
 20
70.69631958007812
 30
0.0
 11
100.87956237792969
 21
64.98703002929688
 31
0.0
  0
LINE
  8
0
 62
0
 10
112.51849365234375
 20
7.964252948760986
 30
0.0
 11
112.21837615966797
 21
8.104631423950195
 31
0.0
  0
LINE
  8
0
 62
0
 10
100.87956237792969
 20
64.98703002929688
 30
0.0
 11
104.45930480957031
 21
59.06144332885742
 31
0.0
  0
LINE
  8
0
 62
0
 10
112.21837615966797
 20
8.104631423950195
 30
0.0
 11
111.91788482666016
 21
8.244205474853516
 31
0.0
  0
LINE
  8
0
 62
0
 10
104.45930480957031
 20
59.06144332885742
 30
0.0
 11
107.69137573242188
 21
52.93928527832031
 31
0.0
  0
LINE
  8
0
 62
0
 10
111.91788482666016
 20
8.244205474853516
 30
0.0
 11
111.61702728271484
 21
8.382973670959473
 31
0.0
  0
LINE
  8
0
 62
0
 10
107.69137573242188
 20
52.93928527832031
 30
0.0
 11
110.56501770019531
 21
46.64093017578125
 31
0.0
  0
LINE
  8
0
 62
0
 10
111.61702728271484
 20
8.382973670959473
 30
0.0
 11
115.19999694824219
 21
4.800000190734863
 31
0.0
  0
LINE
  8
0
 62
0
 10
110.56501770019531
 20
46.64093017578125
 30
0.0
 11
113.0706787109375
 21
40.18734359741211
 31
0.0
  0
LINE
  8
0
 62
0
 10
115.19999694824219
 20
33.599998474121094
 30
0.0
 11
115.19999694824219
 21
4.800000190734863
 31
0.0
  0
LINE
  8
0
 62
0
 10
113.0706787109375
 20
40.18734359741211
 30
0.0
 11
115.19999694824219
 21
33.599998474121094
 31
0.0
  0
LINE
  8
0
 62
0
 10
78.5042724609375
 20
18.28395652770996
 30
0.0
 11
87.64071655273438
 21
9.147507667541502
 31
0.0
  0
LINE
  8
0
 62
0
 10
87.64071655273438
 20
9.147507667541504
 30
0.0
 11
94.02338409423828
 21
7.3934783935546875
 31
0.0
  0
LINE
  8
0
 62
0
 10
84.0347900390625
 20
17.317575454711914
 30
0.0
 11
78.5042724609375
 21
18.28395652770996
 31
0.0
  0
LINE
  8
0
 62
0
 10
94.02338409423828
 20
7.3934783935546875
 30
0.0
 11
100.29603576660156
 21
5.279469013214111
 31
0.0
  0
LINE
  8
0
 62
0
 10
89.5157241821289
 20
16.10103988647461
 30
0.0
 11
84.0347900390625
 21
17.317575454711914
 31
0.0
  0
LINE
  8
0
 62
0
 10
100.29603576660156
 20
5.279469013214111
 30
0.0
 11
106.43836212158203
 21
2.812316656112671
 31
0.0
  0
LINE
  8
0
 62
0
 10
94.93576049804688
 20
14.636863708496094
 30
0.0
 11
89.5157241821289
 21
16.10103988647461
 31
0.0
  0
LINE
  8
0
 62
0
 10
106.43836212158203
 20
2.812316656112671
 30
0.0
 11
112.43052673339844
 21
1.2878587085651816e-14
 31
0.0
  0
LINE
  8
0
 62
0
 10
100.28370666503906
 20
12.928065299987793
 30
0.0
 11
94.93576049804688
 21
14.636863708496094
 31
0.0
  0
LINE
  8
0
 62
0
 10
112.43052673339844
 20
1.328259300237191e-14
 30
0.0
 11
106.43836212158203
 21
-2.812316656112671
 31
0.0
  0
LINE
  8
0
 62
0
 10
113.21177673339844
 20
-9.251858185612576e-16
 30
0.0
 11
100.28370666503906
 21
12.928065299987795
 31
0.0
  0
LINE
  8
0
 62
0
 10
106.43836212158203
 20
-2.812316656112671
 30
0.0
 11
100.29603576660156
 21
-5.279469013214111
 31
0.0
  0
LINE
  8
0
 62
0
 10
100.28370666503906
 20
-12.928065299987793
 30
0.0
 11
113.21177673339844
 21
0.0
 31
0.0
  0
LINE
  8
0
 62
0
 10
100.29603576660156
 20
-5.279469013214111
 30
0.0
 11
94.02338409423828
 21
-7.3934783935546875
 31
0.0
  0
LINE
  8
0
 62
0
 10
94.93576049804688
 20
-14.636863708496094
 30
0.0
 11
100.28370666503906
 21
-12.928065299987793
 31
0.0
  0
LINE
  8
0
 62
0
 10
94.02338409423828
 20
-7.3934783935546875
 30
0.0
 11
87.64071655273438
 21
-9.147507667541504
 31
0.0
  0
LINE
  8
0
 62
0
 10
89.5157241821289
 20
-16.10103988647461
 30
0.0
 11
94.93576049804688
 21
-14.636863708496094
 31
0.0
  0
LINE
  8
0
 62
0
 10
87.64071655273438
 20
-9.147507667541504
 30
0.0
 11
78.5042724609375
 21
-18.28395652770996
 31
0.0
  0
LINE
  8
0
 62
0
 10
84.0347900390625
 20
-17.317575454711914
 30
0.0
 11
89.5157241821289
 21
-16.10103988647461
 31
0.0
  0
LINE
  8
0
 62
0
 10
78.5042724609375
 20
-18.28395652770996
 30
0.0
 11
84.0347900390625
 21
-17.317575454711914
 31
0.0
  0
LINE
  8
0
 62
0
 10
23.384496688842773
 20
64.91844940185547
 30
0.0
 11
18.202043533325195
 21
70.10089874267578
 31
0.0
  0
LINE
  8
0
 62
0
 10
18.202043533325195
 20
70.10089874267578
 30
0.0
 11
17.590232849121094
 21
69.20404052734375
 31
0.0
  0
LINE
  8
0
 62
0
 10
23.357986450195312
 20
64.87897491455078
 30
0.0
 11
23.384496688842773
 21
64.91844940185547
 31
0.0
  0
LINE
  8
0
 62
0
 10
17.590232849121094
 20
69.20404052734375
 30
0.0
 11
16.9863224029541
 21
68.30184936523438
 31
0.0
  0
LINE
  8
0
 62
0
 10
23.331493377685547
 20
64.83949279785156
 30
0.0
 11
23.357986450195312
 21
64.87897491455078
 31
0.0
  0
LINE
  8
0
 62
0
 10
16.9863224029541
 20
68.30184936523438
 30
0.0
 11
16.390361785888672
 21
67.39437866210938
 31
0.0
  0
LINE
  8
0
 62
0
 10
23.305015563964844
 20
64.80000305175781
 30
0.0
 11
23.331493377685547
 21
64.83949279785156
 31
0.0
  0
LINE
  8
0
 62
0
 10
18.047094345092773
 20
64.80000305175781
 30
0.0
 11
23.305015563964844
 21
64.80000305175781
 31
0.0
  0
LINE
  8
0
 62
0
 10
24.177030563354492
 20
78.06996154785156
 30
0.0
 11
21.769731521606445
 21
75.01849365234375
 31
0.0
  0
LINE
  8
0
 62
0
 10
21.769731521606445
 20
75.01849365234375
 30
0.0
 11
26.90924644470215
 21
69.87897491455078
 31
0.0
  0
LINE
  8
0
 62
0
 10
26.67908477783203
 20
81.04422760009766
 30
0.0
 11
24.177030563354492
 21
78.06996154785156
 31
0.0
  0
LINE
  8
0
 62
0
 10
26.90924644470215
 20
69.87897491455078
 30
0.0
 11
29.29541015625
 21
72.94955444335938
 31
0.0
  0
LINE
  8
0
 62
0
 10
29.273418426513672
 20
83.9383544921875
 30
0.0
 11
26.67908477783203
 21
81.04422760009766
 31
0.0
  0
LINE
  8
0
 62
0
 10
29.29541015625
 20
72.94955444335938
 30
0.0
 11
31.78281021118164
 21
75.93870544433594
 31
0.0
  0
LINE
  8
0
 62
0
 10
34.36867141723633
 20
78.84310150146484
 30
0.0
 11
29.273418426513672
 21
83.9383544921875
 31
0.0
  0
LINE
  8
0
 62
0
 10
31.78281021118164
 20
75.93870544433594
 30
0.0
 11
34.36867141723633
 21
78.84310150146484
 31
0.0
  0
LINE
  8
0
 62
0
 10
4.800000190734863
 20
115.19999694824219
 30
0.0
 11
7.446027755737305
 21
112.55397033691406
 31
0.0
  0
LINE
  8
0
 62
0
 10
7.446027755737305
 20
112.55397033691406
 30
0.0
 11
13.652124404907227
 21
111.97079467773438
 31
0.0
  0
LINE
  8
0
 62
0
 10
33.599998474121094
 20
115.19999694824219
 30
0.0
 11
4.800000190734863
 21
115.19999694824219
 31
0.0
  0
LINE
  8
0
 62
0
 10
13.652124404907227
 20
111.97079467773438
 30
0.0
 11
19.816532135009766
 21
111.04569244384766
 31
0.0
  0
LINE
  8
0
 62
0
 10
33.599998474121094
 20
115.19999694824219
 30
0.0
 11
39.45692825317383
 21
113.32762908935547
 31
0.0
  0
LINE
  8
0
 62
0
 10
19.816532135009766
 20
111.04569244384766
 30
0.0
 11
25.92042350769043
 21
109.7814712524414
 31
0.0
  0
LINE
  8
0
 62
0
 10
39.45692825317383
 20
113.32762908935547
 30
0.0
 11
45.21025848388672
 21
111.1576919555664
 31
0.0
  0
LINE
  8
0
 62
0
 10
25.92042350769043
 20
109.7814712524414
 30
0.0
 11
31.945159912109375
 21
108.1820068359375
 31
0.0
  0
LINE
  8
0
 62
0
 10
45.21025848388672
 20
111.1576919555664
 30
0.0
 11
50.844879150390625
 21
108.6958999633789
 31
0.0
  0
LINE
  8
0
 62
0
 10
31.945159912109375
 20
108.1820068359375
 30
0.0
 11
37.87234115600586
 21
106.25218200683594
 31
0.0
  0
LINE
  8
0
 62
0
 10
50.844879150390625
 20
108.6958999633789
 30
0.0
 11
56.34600067138672
 21
105.9487075805664
 31
0.0
  0
LINE
  8
0
 62
0
 10
37.87234115600586
 20
106.25218200683594
 30
0.0
 11
43.68387222290039
 21
103.99787902832031
 31
0.0
  0
LINE
  8
0
 62
0
 10
56.35799789428711
 20
105.9559097290039
 30
0.0
 11
56.34600067138672
 21
105.9487075805664
 31
0.0
  0
LINE
  8
0
 62
0
 10
43.68387222290039
 20
103.99787902832031
 30
0.0
 11
49.36199951171875
 21
101.42599487304688
 31
0.0
  0
LINE
  8
0
 62
0
 10
56.3699951171875
 20
105.96311950683594
 30
0.0
 11
56.35799789428711
 21
105.9559097290039
 31
0.0
  0
LINE
  8
0
 62
0
 10
49.36199951171875
 20
101.42599487304688
 30
0.0
 11
43.5023193359375
 21
97.08277130126953
 31
0.0
  0
LINE
  8
0
 62
0
 10
56.381996154785156
 20
105.97032165527344
 30
0.0
 11
56.3699951171875
 21
105.96311950683594
 31
0.0
  0
LINE
  8
0
 62
0
 10
43.5023193359375
 20
97.08277130126953
 30
0.0
 11
37.909027099609375
 21
92.40147399902344
 31
0.0
  0
LINE
  8
0
 62
0
 10
56.286983489990234
 20
109.05120086669922
 30
0.0
 11
56.381996154785156
 21
105.97032165527344
 31
0.0
  0
LINE
  8
0
 62
0
 10
37.909027099609375
 20
92.40147399902344
 30
0.0
 11
32.601600646972656
 21
87.39839935302734
 31
0.0
  0
LINE
  8
0
 62
0
 10
56.11042404174805
 20
112.12847900390625
 30
0.0
 11
56.286983489990234
 21
109.05120086669922
 31
0.0
  0
LINE
  8
0
 62
0
 10
37.692771911621094
 20
82.3072280883789
 30
0.0
 11
32.601600646972656
 21
87.39839935302734
 31
0.0
  0
LINE
  8
0
 62
0
 10
55.85245132446289
 20
115.19999694824219
 30
0.0
 11
56.11042404174805
 21
112.12847900390625
 31
0.0
  0
LINE
  8
0
 62
0
 10
37.692771911621094
 20
82.3072280883789
 30
0.0
 11
42.02700424194336
 21
86.42436981201172
 31
0.0
  0
LINE
  8
0
 62
0
 10
63.0844841003418
 20
115.19999694824219
 30
0.0
 11
55.85245132446289
 21
115.19999694824219
 31
0.0
  0
LINE
  8
0
 62
0
 10
42.02700424194336
 20
86.42436981201172
 30
0.0
 11
46.56690216064453
 21
90.31356811523438
 31
0.0
  0
LINE
  8
0
 62
0
 10
63.233245849609375
 20
113.43761444091797
 30
0.0
 11
63.0844841003418
 21
115.19999694824219
 31
0.0
  0
LINE
  8
0
 62
0
 10
46.56690216064453
 20
90.31356811523438
 30
0.0
 11
51.300479888916016
 21
93.96454620361328
 31
0.0
  0
LINE
  8
0
 62
0
 10
63.356773376464844
 20
111.67327880859375
 30
0.0
 11
63.233245849609375
 21
113.43761444091797
 31
0.0
  0
LINE
  8
0
 62
0
 10
51.300479888916016
 20
93.96454620361328
 30
0.0
 11
56.21526336669922
 21
97.36769104003906
 31
0.0
  0
LINE
  8
0
 62
0
 10
63.45504379272461
 20
109.90736389160156
 30
0.0
 11
63.356773376464844
 21
111.67327880859375
 31
0.0
  0
LINE
  8
0
 62
0
 10
56.21526336669922
 20
97.36769104003906
 30
0.0
 11
55.74577331542969
 21
91.59925079345703
 31
0.0
  0
LINE
  8
0
 62
0
 10
67.31201934814453
 20
111.80758666992188
 30
0.0
 11
63.45504379272461
 21
109.90736389160156
 31
0.0
  0
LINE
  8
0
 62
0
 10
55.74577331542969
 20
91.59925079345703
 30
0.0
 11
54.99013900756836
 21
85.86128234863281
 31
0.0
  0
LINE
  8
0
 62
0
 10
71.23274993896484
 20
113.572509765625
 30
0.0
 11
67.31201934814453
 21
111.80758666992188
 31
0.0
  0
LINE
  8
0
 62
0
 10
54.99013900756836
 20
85.86128234863281
 30
0.0
 11
53.950233459472656
 21
80.16796112060547
 31
0.0
  0
LINE
  8
0
 62
0
 10
75.2125015258789
 20
115.19999694824219
 30
0.0
 11
71.23274993896484
 21
113.572509765625
 31
0.0
  0
LINE
  8
0
 62
0
 10
53.950233459472656
 20
80.16796112060547
 30
0.0
 11
52.62862014770508
 21
74.53336334228516
 31
0.0
  0
LINE
  8
0
 62
0
 10
103.32906341552734
 20
115.19999694824219
 30
0.0
 11
75.2125015258789
 21
115.19999694824219
 31
0.0
  0
LINE
  8
0
 62
0
 10
52.62862014770508
 20
74.53336334228516
 30
0.0
 11
51.02857208251953
 21
68.97142791748047
 31
0.0
  0
LINE
  8
0
 62
0
 10
96.40762329101562
 20
113.9840316772461
 30
0.0
 11
103.32906341552734
 21
115.19999694824219
 31
0.0
  0
LINE
  8
0
 62
0
 10
55.20000076293945
 20
64.80000305175781
 30
0.0
 11
51.02857208251953
 21
68.97142791748047
 31
0.0
  0
LINE
  8
0
 62
0
 10
89.57217407226562
 20
112.35260009765625
 30
0.0
 11
96.40762329101562
 21
113.9840316772461
 31
0.0
  0
LINE
  8
0
 62
0
 10
55.20000076293945
 20
64.80000305175781
 30
0.0
 11
57.244815826416016
 21
64.80000305175781
 31
0.0
  0
LINE
  8
0
 62
0
 10
82.8476333618164
 20
110.31165313720703
 30
0.0
 11
89.57217407226562
 21
112.35260009765625
 31
0.0
  0
LINE
  8
0
 62
0
 10
57.244815826416016
 20
64.80000305175781
 30
0.0
 11
58.96907424926758
 21
70.40708923339844
 31
0.0
  0
LINE
  8
0
 62
0
 10
76.25850677490234
 20
107.8686294555664
 30
0.0
 11
82.8476333618164
 21
110.31165313720703
 31
0.0
  0
LINE
  8
0
 62
0
 10
58.96907424926758
 20
70.40708923339844
 30
0.0
 11
60.42534255981445
 21
76.08967590332031
 31
0.0
  0
LINE
  8
0
 62
0
 10
69.82881164550781
 20
105.03243255615234
 30
0.0
 11
76.25850677490234
 21
107.8686294555664
 31
0.0
  0
LINE
  8
0
 62
0
 10
60.42534255981445
 20
76.08967590332031
 30
0.0
 11
61.610347747802734
 21
81.8349609375
 31
0.0
  0
LINE
  8
0
 62
0
 10
63.581993103027344
 20
101.81340026855469
 30
0.0
 11
69.82881164550781
 21
105.03243255615234
 31
0.0
  0
LINE
  8
0
 62
0
 10
61.610347747802734
 20
81.8349609375
 30
0.0
 11
62.52141189575195
 21
87.6300048828125
 31
0.0
  0
LINE
  8
0
 62
0
 10
63.581756591796875
 20
101.79940795898438
 30
0.0
 11
63.581993103027344
 21
101.81340026855469
 31
0.0
  0
LINE
  8
0
 62
0
 10
62.52141189575195
 20
87.6300048828125
 30
0.0
 11
63.156490325927734
 21
93.46174621582031
 31
0.0
  0
LINE
  8
0
 62
0
 10
63.581512451171875
 20
101.78541564941406
 30
0.0
 11
63.581756591796875
 21
101.79940795898438
 31
0.0
  0
LINE
  8
0
 62
0
 10
63.156490325927734
 20
93.46174621582031
 30
0.0
 11
67.7056884765625
 21
90.2207260131836
 31
0.0
  0
LINE
  8
0
 62
0
 10
63.58127212524414
 20
101.77142333984375
 30
0.0
 11
63.581512451171875
 21
101.78541564941406
 31
0.0
  0
LINE
  8
0
 62
0
 10
67.7056884765625
 20
90.2207260131836
 30
0.0
 11
72.0888671875
 21
86.75848388671875
 31
0.0
  0
LINE
  8
0
 62
0
 10
63.58127212524414
 20
101.77142333984375
 30
0.0
 11
68.26716613769531
 21
98.68937683105469
 31
0.0
  0
LINE
  8
0
 62
0
 10
72.0888671875
 20
86.75848388671875
 30
0.0
 11
76.2952880859375
 21
83.08351135253906
 31
0.0
  0
LINE
  8
0
 62
0
 10
68.26716613769531
 20
98.68937683105469
 30
0.0
 11
72.8039321899414
 21
95.39175415039062
 31
0.0
  0
LINE
  8
0
 62
0
 10
76.2952880859375
 20
83.08351135253906
 30
0.0
 11
81.39079284667969
 21
88.17901611328125
 31
0.0
  0
LINE
  8
0
 62
0
 10
72.8039321899414
 20
95.39175415039062
 30
0.0
 11
77.1816635131836
 21
91.88574981689453
 31
0.0
  0
LINE
  8
0
 62
0
 10
77.1816635131836
 20
91.88574981689453
 30
0.0
 11
81.39079284667969
 21
88.17901611328125
 31
0.0
  0
LINE
  8
0
 62
0
 10
-23.305015563964844
 20
64.80000305175781
 30
0.0
 11
-18.047094345092773
 21
64.80000305175781
 31
0.0
  0
LINE
  8
0
 62
0
 10
-23.331493377685547
 20
64.83949279785156
 30
0.0
 11
-23.305015563964844
 21
64.80000305175781
 31
0.0
  0
LINE
  8
0
 62
0
 10
-23.357986450195312
 20
64.87897491455078
 30
0.0
 11
-23.331493377685547
 21
64.83949279785156
 31
0.0
  0
LINE
  8
0
 62
0
 10
-23.384496688842773
 20
64.91844940185547
 30
0.0
 11
-23.357986450195312
 21
64.87897491455078
 31
0.0
  0
LINE
  8
0
 62
0
 10
-16.390361785888672
 20
67.39437866210938
 30
0.0
 11
-16.9863224029541
 21
68.30184936523438
 31
0.0
  0
LINE
  8
0
 62
0
 10
-23.384496688842773
 20
64.91844940185547
 30
0.0
 11
-18.202043533325195
 21
70.10089874267578
 31
0.0
  0
LINE
  8
0
 62
0
 10
-16.9863224029541
 20
68.30184936523438
 30
0.0
 11
-17.590232849121094
 21
69.20404052734375
 31
0.0
  0
LINE
  8
0
 62
0
 10
-17.590232849121094
 20
69.20404052734375
 30
0.0
 11
-18.202043533325195
 21
70.10089874267578
 31
0.0
  0
LINE
  8
0
 62
0
 10
-21.769731521606445
 20
75.01849365234375
 30
0.0
 11
-24.177030563354492
 21
78.06996154785156
 31
0.0
  0
LINE
  8
0
 62
0
 10
-24.177030563354492
 20
78.06996154785156
 30
0.0
 11
-26.67908477783203
 21
81.04422760009766
 31
0.0
  0
LINE
  8
0
 62
0
 10
-26.90924644470215
 20
69.87897491455078
 30
0.0
 11
-21.769731521606445
 21
75.01849365234375
 31
0.0
  0
LINE
  8
0
 62
0
 10
-26.67908477783203
 20
81.04422760009766
 30
0.0
 11
-29.273418426513672
 21
83.9383544921875
 31
0.0
  0
LINE
  8
0
 62
0
 10
-29.29541015625
 20
72.94955444335938
 30
0.0
 11
-26.90924644470215
 21
69.87897491455078
 31
0.0
  0
LINE
  8
0
 62
0
 10
-29.273418426513672
 20
83.9383544921875
 30
0.0
 11
-34.36867141723633
 21
78.84310150146484
 31
0.0
  0
LINE
  8
0
 62
0
 10
-31.78281021118164
 20
75.93870544433594
 30
0.0
 11
-29.29541015625
 21
72.94955444335938
 31
0.0
  0
LINE
  8
0
 62
0
 10
-34.36867141723633
 20
78.84310150146484
 30
0.0
 11
-31.78281021118164
 21
75.93870544433594
 31
0.0
  0
LINE
  8
0
 62
0
 10
-75.2125015258789
 20
115.19999694824219
 30
0.0
 11
-103.32906341552734
 21
115.19999694824219
 31
0.0
  0
LINE
  8
0
 62
0
 10
-103.32906341552734
 20
115.19999694824219
 30
0.0
 11
-96.40762329101562
 21
113.9840316772461
 31
0.0
  0
LINE
  8
0
 62
0
 10
-71.23274993896484
 20
113.572509765625
 30
0.0
 11
-75.2125015258789
 21
115.19999694824219
 31
0.0
  0
LINE
  8
0
 62
0
 10
-96.40762329101562
 20
113.9840316772461
 30
0.0
 11
-89.57217407226562
 21
112.35260009765625
 31
0.0
  0
LINE
  8
0
 62
0
 10
-67.31201934814453
 20
111.80758666992188
 30
0.0
 11
-71.23274993896484
 21
113.572509765625
 31
0.0
  0
LINE
  8
0
 62
0
 10
-89.57217407226562
 20
112.35260009765625
 30
0.0
 11
-82.8476333618164
 21
110.31165313720703
 31
0.0
  0
LINE
  8
0
 62
0
 10
-63.45504379272461
 20
109.90736389160156
 30
0.0
 11
-67.31201934814453
 21
111.80758666992188
 31
0.0
  0
LINE
  8
0
 62
0
 10
-82.8476333618164
 20
110.31165313720703
 30
0.0
 11
-76.25850677490234
 21
107.8686294555664
 31
0.0
  0
LINE
  8
0
 62
0
 10
-63.356773376464844
 20
111.67327880859375
 30
0.0
 11
-63.45504379272461
 21
109.90736389160156
 31
0.0
  0
LINE
  8
0
 62
0
 10
-76.25850677490234
 20
107.8686294555664
 30
0.0
 11
-69.82881164550781
 21
105.03243255615234
 31
0.0
  0
LINE
  8
0
 62
0
 10
-63.233245849609375
 20
113.43761444091797
 30
0.0
 11
-63.356773376464844
 21
111.67327880859375
 31
0.0
  0
LINE
  8
0
 62
0
 10
-69.82881164550781
 20
105.03243255615234
 30
0.0
 11
-63.581993103027344
 21
101.81340026855469
 31
0.0
  0
LINE
  8
0
 62
0
 10
-63.0844841003418
 20
115.19999694824219
 30
0.0
 11
-63.233245849609375
 21
113.43761444091797
 31
0.0
  0
LINE
  8
0
 62
0
 10
-63.581993103027344
 20
101.81340026855469
 30
0.0
 11
-63.581756591796875
 21
101.79940795898438
 31
0.0
  0
LINE
  8
0
 62
0
 10
-55.85245132446289
 20
115.19999694824219
 30
0.0
 11
-63.0844841003418
 21
115.19999694824219
 31
0.0
  0
LINE
  8
0
 62
0
 10
-63.581756591796875
 20
101.79940795898438
 30
0.0
 11
-63.581512451171875
 21
101.78541564941406
 31
0.0
  0
LINE
  8
0
 62
0
 10
-56.11042404174805
 20
112.12847900390625
 30
0.0
 11
-55.85245132446289
 21
115.19999694824219
 31
0.0
  0
LINE
  8
0
 62
0
 10
-63.581512451171875
 20
101.78541564941406
 30
0.0
 11
-63.58127212524414
 21
101.77142333984375
 31
0.0
  0
LINE
  8
0
 62
0
 10
-56.286983489990234
 20
109.05120086669922
 30
0.0
 11
-56.11042404174805
 21
112.12847900390625
 31
0.0
  0
LINE
  8
0
 62
0
 10
-63.58127212524414
 20
101.77142333984375
 30
0.0
 11
-68.26716613769531
 21
98.68937683105469
 31
0.0
  0
LINE
  8
0
 62
0
 10
-56.381996154785156
 20
105.97032165527344
 30
0.0
 11
-56.286983489990234
 21
109.05120086669922
 31
0.0
  0
LINE
  8
0
 62
0
 10
-68.26716613769531
 20
98.68937683105469
 30
0.0
 11
-72.8039321899414
 21
95.39175415039062
 31
0.0
  0
LINE
  8
0
 62
0
 10
-56.3699951171875
 20
105.96311950683594
 30
0.0
 11
-56.381996154785156
 21
105.97032165527344
 31
0.0
  0
LINE
  8
0
 62
0
 10
-72.8039321899414
 20
95.39175415039062
 30
0.0
 11
-77.1816635131836
 21
91.88574981689453
 31
0.0
  0
LINE
  8
0
 62
0
 10
-56.35799789428711
 20
105.9559097290039
 30
0.0
 11
-56.3699951171875
 21
105.96311950683594
 31
0.0
  0
LINE
  8
0
 62
0
 10
-77.1816635131836
 20
91.88574981689453
 30
0.0
 11
-81.39079284667969
 21
88.17901611328125
 31
0.0
  0
LINE
  8
0
 62
0
 10
-56.34600067138672
 20
105.9487075805664
 30
0.0
 11
-56.35799789428711
 21
105.9559097290039
 31
0.0
  0
LINE
  8
0
 62
0
 10
-81.39079284667969
 20
88.17901611328125
 30
0.0
 11
-76.2952880859375
 21
83.08351135253906
 31
0.0
  0
LINE
  8
0
 62
0
 10
-56.34600067138672
 20
105.9487075805664
 30
0.0
 11
-50.844879150390625
 21
108.6958999633789
 31
0.0
  0
LINE
  8
0
 62
0
 10
-76.2952880859375
 20
83.08351135253906
 30
0.0
 11
-72.0888671875
 21
86.75848388671875
 31
0.0
  0
LINE
  8
0
 62
0
 10
-50.844879150390625
 20
108.6958999633789
 30
0.0
 11
-45.21025848388672
 21
111.1576919555664
 31
0.0
  0
LINE
  8
0
 62
0
 10
-72.0888671875
 20
86.75848388671875
 30
0.0
 11
-67.7056884765625
 21
90.2207260131836
 31
0.0
  0
LINE
  8
0
 62
0
 10
-45.21025848388672
 20
111.1576919555664
 30
0.0
 11
-39.45692825317383
 21
113.32762908935547
 31
0.0
  0
LINE
  8
0
 62
0
 10
-67.7056884765625
 20
90.2207260131836
 30
0.0
 11
-63.156490325927734
 21
93.46174621582031
 31
0.0
  0
LINE
  8
0
 62
0
 10
-39.45692825317383
 20
113.32762908935547
 30
0.0
 11
-33.599998474121094
 21
115.19999694824219
 31
0.0
  0
LINE
  8
0
 62
0
 10
-63.156490325927734
 20
93.46174621582031
 30
0.0
 11
-62.52141189575195
 21
87.6300048828125
 31
0.0
  0
LINE
  8
0
 62
0
 10
-4.800000190734863
 20
115.19999694824219
 30
0.0
 11
-33.599998474121094
 21
115.19999694824219
 31
0.0
  0
LINE
  8
0
 62
0
 10
-62.52141189575195
 20
87.6300048828125
 30
0.0
 11
-61.610347747802734
 21
81.8349609375
 31
0.0
  0
LINE
  8
0
 62
0
 10
-4.800000190734863
 20
115.19999694824219
 30
0.0
 11
-7.446027755737305
 21
112.55397033691406
 31
0.0
  0
LINE
  8
0
 62
0
 10
-61.610347747802734
 20
81.8349609375
 30
0.0
 11
-60.42534255981445
 21
76.08967590332031
 31
0.0
  0
LINE
  8
0
 62
0
 10
-13.652124404907227
 20
111.97079467773438
 30
0.0
 11
-7.446027755737305
 21
112.55397033691406
 31
0.0
  0
LINE
  8
0
 62
0
 10
-60.42534255981445
 20
76.08967590332031
 30
0.0
 11
-58.96907424926758
 21
70.40708923339844
 31
0.0
  0
LINE
  8
0
 62
0
 10
-19.816532135009766
 20
111.04569244384766
 30
0.0
 11
-13.652124404907227
 21
111.97079467773438
 31
0.0
  0
LINE
  8
0
 62
0
 10
-58.96907424926758
 20
70.40708923339844
 30
0.0
 11
-57.244815826416016
 21
64.80000305175781
 31
0.0
  0
LINE
  8
0
 62
0
 10
-25.92042350769043
 20
109.7814712524414
 30
0.0
 11
-19.816532135009766
 21
111.04569244384766
 31
0.0
  0
LINE
  8
0
 62
0
 10
-57.244815826416016
 20
64.80000305175781
 30
0.0
 11
-55.20000076293945
 21
64.80000305175781
 31
0.0
  0
LINE
  8
0
 62
0
 10
-31.945159912109375
 20
108.1820068359375
 30
0.0
 11
-25.92042350769043
 21
109.7814712524414
 31
0.0
  0
LINE
  8
0
 62
0
 10
-51.02857208251953
 20
68.97142791748047
 30
0.0
 11
-55.20000076293945
 21
64.80000305175781
 31
0.0
  0
LINE
  8
0
 62
0
 10
-37.87234115600586
 20
106.25218200683594
 30
0.0
 11
-31.945159912109375
 21
108.1820068359375
 31
0.0
  0
LINE
  8
0
 62
0
 10
-51.02857208251953
 20
68.97142791748047
 30
0.0
 11
-52.62862014770508
 21
74.53336334228516
 31
0.0
  0
LINE
  8
0
 62
0
 10
-43.68387222290039
 20
103.99787902832031
 30
0.0
 11
-37.87234115600586
 21
106.25218200683594
 31
0.0
  0
LINE
  8
0
 62
0
 10
-52.62862014770508
 20
74.53336334228516
 30
0.0
 11
-53.950233459472656
 21
80.16796112060547
 31
0.0
  0
LINE
  8
0
 62
0
 10
-49.36199951171875
 20
101.42599487304688
 30
0.0
 11
-43.68387222290039
 21
103.99787902832031
 31
0.0
  0
LINE
  8
0
 62
0
 10
-53.950233459472656
 20
80.16796112060547
 30
0.0
 11
-54.99013900756836
 21
85.86128234863281
 31
0.0
  0
LINE
  8
0
 62
0
 10
-43.5023193359375
 20
97.08277130126953
 30
0.0
 11
-49.36199951171875
 21
101.42599487304688
 31
0.0
  0
LINE
  8
0
 62
0
 10
-54.99013900756836
 20
85.86128234863281
 30
0.0
 11
-55.74577331542969
 21
91.59925079345703
 31
0.0
  0
LINE
  8
0
 62
0
 10
-37.909027099609375
 20
92.40147399902344
 30
0.0
 11
-43.5023193359375
 21
97.08277130126953
 31
0.0
  0
LINE
  8
0
 62
0
 10
-55.74577331542969
 20
91.59925079345703
 30
0.0
 11
-56.21526336669922
 21
97.36769104003906
 31
0.0
  0
LINE
  8
0
 62
0
 10
-32.601600646972656
 20
87.39839935302734
 30
0.0
 11
-37.909027099609375
 21
92.40147399902344
 31
0.0
  0
LINE
  8
0
 62
0
 10
-56.21526336669922
 20
97.36769104003906
 30
0.0
 11
-51.300479888916016
 21
93.96454620361328
 31
0.0
  0
LINE
  8
0
 62
0
 10
-32.601600646972656
 20
87.39839935302734
 30
0.0
 11
-37.692771911621094
 21
82.3072280883789
 31
0.0
  0
LINE
  8
0
 62
0
 10
-51.300479888916016
 20
93.96454620361328
 30
0.0
 11
-46.56690216064453
 21
90.31356811523438
 31
0.0
  0
LINE
  8
0
 62
0
 10
-42.02700424194336
 20
86.42436981201172
 30
0.0
 11
-37.692771911621094
 21
82.3072280883789
 31
0.0
  0
LINE
  8
0
 62
0
 10
-46.56690216064453
 20
90.31356811523438
 30
0.0
 11
-42.02700424194336
 21
86.42436981201172
 31
0.0
  0
LINE
  8
0
 62
0
 10
-102.18528747558594
 20
47.77035903930664
 30
0.0
 11
-99.07731628417969
 21
53.921470642089844
 31
0.0
  0
LINE
  8
0
 62
0
 10
-99.07731628417969
 20
53.921470642089844
 30
0.0
 11
-95.59951782226562
 21
59.871299743652344
 31
0.0
  0
LINE
  8
0
 62
0
 10
-104.91181945800781
 20
41.4409294128418
 30
0.0
 11
-102.18528747558594
 21
47.77035903930664
 31
0.0
  0
LINE
  8
0
 62
0
 10
-95.59951782226562
 20
59.871299743652344
 30
0.0
 11
-91.76485443115234
 21
65.59764862060547
 31
0.0
  0
LINE
  8
0
 62
0
 10
-107.24673461914062
 20
34.956809997558594
 30
0.0
 11
-104.91181945800781
 21
41.4409294128418
 31
0.0
  0
LINE
  8
0
 62
0
 10
-91.76485443115234
 20
65.59764862060547
 30
0.0
 11
-87.58765411376953
 21
71.0791244506836
 31
0.0
  0
LINE
  8
0
 62
0
 10
-109.18131256103516
 20
28.34220314025879
 30
0.0
 11
-107.24673461914062
 21
34.956809997558594
 31
0.0
  0
LINE
  8
0
 62
0
 10
-87.58765411376953
 20
71.0791244506836
 30
0.0
 11
-83.08351135253906
 21
76.2952880859375
 31
0.0
  0
LINE
  8
0
 62
0
 10
-110.70834350585938
 20
21.621801376342773
 30
0.0
 11
-109.18131256103516
 21
28.34220314025879
 31
0.0
  0
LINE
  8
0
 62
0
 10
-83.08351135253906
 20
76.2952880859375
 30
0.0
 11
-88.17901611328125
 21
81.39079284667969
 31
0.0
  0
LINE
  8
0
 62
0
 10
-111.8221206665039
 20
14.820688247680664
 30
0.0
 11
-110.70834350585938
 21
21.621801376342773
 31
0.0
  0
LINE
  8
0
 62
0
 10
-92.7258529663086
 20
76.1703109741211
 30
0.0
 11
-88.17901611328125
 21
81.39079284667969
 31
0.0
  0
LINE
  8
0
 62
0
 10
-112.51849365234375
 20
7.964252948760986
 30
0.0
 11
-111.8221206665039
 21
14.820688247680664
 31
0.0
  0
LINE
  8
0
 62
0
 10
-96.96406555175781
 20
70.69631958007812
 30
0.0
 11
-92.7258529663086
 21
76.1703109741211
 31
0.0
  0
LINE
  8
0
 62
0
 10
-112.21837615966797
 20
8.104631423950195
 30
0.0
 11
-112.51849365234375
 21
7.964252948760986
 31
0.0
  0
LINE
  8
0
 62
0
 10
-100.87956237792969
 20
64.98703002929688
 30
0.0
 11
-96.96406555175781
 21
70.69631958007812
 31
0.0
  0
LINE
  8
0
 62
0
 10
-111.91788482666016
 20
8.244205474853516
 30
0.0
 11
-112.21837615966797
 21
8.104631423950195
 31
0.0
  0
LINE
  8
0
 62
0
 10
-104.45930480957031
 20
59.06144332885742
 30
0.0
 11
-100.87956237792969
 21
64.98703002929688
 31
0.0
  0
LINE
  8
0
 62
0
 10
-111.61702728271484
 20
8.382973670959473
 30
0.0
 11
-111.91788482666016
 21
8.244205474853516
 31
0.0
  0
LINE
  8
0
 62
0
 10
-107.69137573242188
 20
52.93928527832031
 30
0.0
 11
-104.45930480957031
 21
59.06144332885742
 31
0.0
  0
LINE
  8
0
 62
0
 10
-111.61702728271484
 20
8.382973670959473
 30
0.0
 11
-115.19999694824219
 21
4.800000190734863
 31
0.0
  0
LINE
  8
0
 62
0
 10
-110.56501770019531
 20
46.64093017578125
 30
0.0
 11
-107.69137573242188
 21
52.93928527832031
 31
0.0
  0
LINE
  8
0
 62
0
 10
-115.19999694824219
 20
33.599998474121094
 30
0.0
 11
-115.19999694824219
 21
4.800000190734863
 31
0.0
  0
LINE
  8
0
 62
0
 10
-113.0706787109375
 20
40.18734359741211
 30
0.0
 11
-110.56501770019531
 21
46.64093017578125
 31
0.0
  0
LINE
  8
0
 62
0
 10
-115.19999694824219
 20
33.599998474121094
 30
0.0
 11
-113.0706787109375
 21
40.18734359741211
 31
0.0
  0
CIRCLE
  8
0
 62
0
 10
8.019418012997056e-16
 20
-7.547687541644287e-17
 30
0.0
 40
14.982918682087117
  0
LINE
  8
0
 62
0
 10
-44.17165756225586
 20
37.40067672729492
 30
0.0
 11
-42.83369064331055
 21
35.350521087646484
 31
0.0
  0
LINE
  8
0
 62
0
 10
-45.468753814697266
 20
39.476932525634766
 30
0.0
 11
-44.17165756225586
 21
37.40067672729492
 31
0.0
  0
LINE
  8
0
 62
0
 10
-46.7244758605957
 20
41.578468322753906
 30
0.0
 11
-45.468753814697266
 21
39.476932525634766
 31
0.0
  0
LINE
  8
0
 62
0
 10
-46.7244758605957
 20
41.578468322753906
 30
0.0
 11
-41.449562072753906
 21
46.8533821105957
 31
0.0
  0
LINE
  8
0
 62
0
 10
-37.59531021118164
 20
40.48713302612305
 30
0.0
 11
-38.925201416015625
 21
42.581668853759766
 31
0.0
  0
LINE
  8
0
 62
0
 10
-40.21014404296875
 20
44.70407485961914
 30
0.0
 11
-41.449562072753906
 21
46.8533821105957
 31
0.0
  0
LINE
  8
0
 62
0
 10
-38.925201416015625
 20
42.581668853759766
 30
0.0
 11
-40.21014404296875
 21
44.70407485961914
 31
0.0
  0
LINE
  8
0
 62
0
 10
-95.59951782226562
 20
-59.871299743652344
 30
0.0
 11
-99.07731628417969
 21
-53.921470642089844
 31
0.0
  0
LINE
  8
0
 62
0
 10
-99.07731628417969
 20
-53.921470642089844
 30
0.0
 11
-102.18528747558594
 21
-47.77035903930664
 31
0.0
  0
LINE
  8
0
 62
0
 10
-91.76485443115234
 20
-65.59764862060547
 30
0.0
 11
-95.59951782226562
 21
-59.871299743652344
 31
0.0
  0
LINE
  8
0
 62
0
 10
-102.18528747558594
 20
-47.77035903930664
 30
0.0
 11
-104.91181945800781
 21
-41.4409294128418
 31
0.0
  0
LINE
  8
0
 62
0
 10
-87.58765411376953
 20
-71.0791244506836
 30
0.0
 11
-91.76485443115234
 21
-65.59764862060547
 31
0.0
  0
LINE
  8
0
 62
0
 10
-104.91181945800781
 20
-41.4409294128418
 30
0.0
 11
-107.24673461914062
 21
-34.956809997558594
 31
0.0
  0
LINE
  8
0
 62
0
 10
-83.08351135253906
 20
-76.2952880859375
 30
0.0
 11
-87.58765411376953
 21
-71.0791244506836
 31
0.0
  0
LINE
  8
0
 62
0
 10
-107.24673461914062
 20
-34.956809997558594
 30
0.0
 11
-109.18131256103516
 21
-28.34220314025879
 31
0.0
  0
LINE
  8
0
 62
0
 10
-88.17901611328125
 20
-81.39079284667969
 30
0.0
 11
-83.08351135253906
 21
-76.2952880859375
 31
0.0
  0
LINE
  8
0
 62
0
 10
-109.18131256103516
 20
-28.34220314025879
 30
0.0
 11
-110.70834350585938
 21
-21.621801376342773
 31
0.0
  0
LINE
  8
0
 62
0
 10
-88.17901611328125
 20
-81.39079284667969
 30
0.0
 11
-92.7258529663086
 21
-76.1703109741211
 31
0.0
  0
LINE
  8
0
 62
0
 10
-110.70834350585938
 20
-21.621801376342773
 30
0.0
 11
-111.8221206665039
 21
-14.820688247680664
 31
0.0
  0
LINE
  8
0
 62
0
 10
-92.7258529663086
 20
-76.1703109741211
 30
0.0
 11
-96.96406555175781
 21
-70.69631958007812
 31
0.0
  0
LINE
  8
0
 62
0
 10
-111.8221206665039
 20
-14.820688247680664
 30
0.0
 11
-112.51849365234375
 21
-7.964252948760986
 31
0.0
  0
LINE
  8
0
 62
0
 10
-96.96406555175781
 20
-70.69631958007812
 30
0.0
 11
-100.87956237792969
 21
-64.98703002929688
 31
0.0
  0
LINE
  8
0
 62
0
 10
-112.51849365234375
 20
-7.964252948760986
 30
0.0
 11
-112.21837615966797
 21
-8.104631423950195
 31
0.0
  0
LINE
  8
0
 62
0
 10
-100.87956237792969
 20
-64.98703002929688
 30
0.0
 11
-104.45930480957031
 21
-59.06144332885742
 31
0.0
  0
LINE
  8
0
 62
0
 10
-112.21837615966797
 20
-8.104631423950195
 30
0.0
 11
-111.91788482666016
 21
-8.244205474853516
 31
0.0
  0
LINE
  8
0
 62
0
 10
-104.45930480957031
 20
-59.06144332885742
 30
0.0
 11
-107.69137573242188
 21
-52.93928527832031
 31
0.0
  0
LINE
  8
0
 62
0
 10
-111.91788482666016
 20
-8.244205474853516
 30
0.0
 11
-111.61702728271484
 21
-8.382973670959473
 31
0.0
  0
LINE
  8
0
 62
0
 10
-107.69137573242188
 20
-52.93928527832031
 30
0.0
 11
-110.56501770019531
 21
-46.64093017578125
 31
0.0
  0
LINE
  8
0
 62
0
 10
-111.61702728271484
 20
-8.382973670959473
 30
0.0
 11
-115.19999694824219
 21
-4.800000190734863
 31
0.0
  0
LINE
  8
0
 62
0
 10
-110.56501770019531
 20
-46.64093017578125
 30
0.0
 11
-113.0706787109375
 21
-40.18734359741211
 31
0.0
  0
LINE
  8
0
 62
0
 10
-115.19999694824219
 20
-4.800000190734863
 30
0.0
 11
-115.19999694824219
 21
-33.599998474121094
 31
0.0
  0
LINE
  8
0
 62
0
 10
-113.0706787109375
 20
-40.18734359741211
 30
0.0
 11
-115.19999694824219
 21
-33.599998474121094
 31
0.0
  0
LINE
  8
0
 62
0
 10
-78.5042724609375
 20
-18.28395652770996
 30
0.0
 11
-87.64071655273438
 21
-9.147507667541502
 31
0.0
  0
LINE
  8
0
 62
0
 10
-87.64071655273438
 20
-9.147507667541504
 30
0.0
 11
-94.02338409423828
 21
-7.3934783935546875
 31
0.0
  0
LINE
  8
0
 62
0
 10
-84.0347900390625
 20
-17.317575454711914
 30
0.0
 11
-78.5042724609375
 21
-18.28395652770996
 31
0.0
  0
LINE
  8
0
 62
0
 10
-94.02338409423828
 20
-7.3934783935546875
 30
0.0
 11
-100.29603576660156
 21
-5.279469013214111
 31
0.0
  0
LINE
  8
0
 62
0
 10
-89.5157241821289
 20
-16.10103988647461
 30
0.0
 11
-84.0347900390625
 21
-17.317575454711914
 31
0.0
  0
LINE
  8
0
 62
0
 10
-100.29603576660156
 20
-5.279469013214111
 30
0.0
 11
-106.43836212158203
 21
-2.812316656112671
 31
0.0
  0
LINE
  8
0
 62
0
 10
-94.93576049804688
 20
-14.636863708496094
 30
0.0
 11
-89.5157241821289
 21
-16.10103988647461
 31
0.0
  0
LINE
  8
0
 62
0
 10
-106.43836212158203
 20
-2.812316656112671
 30
0.0
 11
-112.43052673339844
 21
4.6629367034256575e-14
 31
0.0
  0
LINE
  8
0
 62
0
 10
-100.28370666503906
 20
-12.928065299987793
 30
0.0
 11
-94.93576049804688
 21
-14.636863708496094
 31
0.0
  0
LINE
  8
0
 62
0
 10
-112.43052673339844
 20
4.6809741006308483e-14
 30
0.0
 11
-106.43836212158203
 21
2.812316656112671
 31
0.0
  0
LINE
  8
0
 62
0
 10
-113.21177673339844
 20
9.251858185612576e-16
 30
0.0
 11
-100.28370666503906
 21
-12.928065299987795
 31
0.0
  0
LINE
  8
0
 62
0
 10
-106.43836212158203
 20
2.812316656112671
 30
0.0
 11
-100.29603576660156
 21
5.279469013214111
 31
0.0
  0
LINE
  8
0
 62
0
 10
-100.28370666503906
 20
12.928065299987793
 30
0.0
 11
-113.21177673339844
 21
0.0
 31
0.0
  0
LINE
  8
0
 62
0
 10
-100.29603576660156
 20
5.279469013214111
 30
0.0
 11
-94.02338409423828
 21
7.3934783935546875
 31
0.0
  0
LINE
  8
0
 62
0
 10
-94.93576049804688
 20
14.636863708496094
 30
0.0
 11
-100.28370666503906
 21
12.928065299987793
 31
0.0
  0
LINE
  8
0
 62
0
 10
-94.02338409423828
 20
7.3934783935546875
 30
0.0
 11
-87.64071655273438
 21
9.147507667541504
 31
0.0
  0
LINE
  8
0
 62
0
 10
-89.5157241821289
 20
16.10103988647461
 30
0.0
 11
-94.93576049804688
 21
14.636863708496094
 31
0.0
  0
LINE
  8
0
 62
0
 10
-87.64071655273438
 20
9.147507667541504
 30
0.0
 11
-78.5042724609375
 21
18.28395652770996
 31
0.0
  0
LINE
  8
0
 62
0
 10
-84.0347900390625
 20
17.317575454711914
 30
0.0
 11
-89.5157241821289
 21
16.10103988647461
 31
0.0
  0
LINE
  8
0
 62
0
 10
-78.5042724609375
 20
18.28395652770996
 30
0.0
 11
-84.0347900390625
 21
17.317575454711914
 31
0.0
  0
LINE
  8
0
 62
0
 10
-38.925201416015625
 20
-42.581668853759766
 30
0.0
 11
-37.59531021118164
 21
-40.48713302612305
 31
0.0
  0
LINE
  8
0
 62
0
 10
-40.21014404296875
 20
-44.70407485961914
 30
0.0
 11
-38.925201416015625
 21
-42.581668853759766
 31
0.0
  0
LINE
  8
0
 62
0
 10
-41.449562072753906
 20
-46.8533821105957
 30
0.0
 11
-40.21014404296875
 21
-44.70407485961914
 31
0.0
  0
LINE
  8
0
 62
0
 10
-41.449562072753906
 20
-46.8533821105957
 30
0.0
 11
-46.7244758605957
 21
-41.578468322753906
 31
0.0
  0
LINE
  8
0
 62
0
 10
-45.468753814697266
 20
-39.476932525634766
 30
0.0
 11
-46.7244758605957
 21
-41.578468322753906
 31
0.0
  0
LINE
  8
0
 62
0
 10
-42.83369064331055
 20
-35.350521087646484
 30
0.0
 11
-44.17165756225586
 21
-37.40067672729492
 31
0.0
  0
LINE
  8
0
 62
0
 10
-44.17165756225586
 20
-37.40067672729492
 30
0.0
 11
-45.468753814697266
 21
-39.476932525634766
 31
0.0
  0
LINE
  8
0
 62
0
 10
-76.12167358398438
 20
-11.355100631713867
 30
0.0
 11
-76.44356536865234
 21
-11.309625625610352
 31
0.0
  0
LINE
  8
0
 62
0
 10
-76.44356536865234
 20
-11.309625625610352
 30
0.0
 11
-76.76532745361328
 21
-11.263251304626465
 31
0.0
  0
LINE
  8
0
 62
0
 10
-76.76532745361328
 20
-11.263251304626465
 30
0.0
 11
-77.08696746826172
 21
-11.215978622436523
 31
0.0
  0
LINE
  8
0
 62
0
 10
-64.80000305175781
 20
-19.583711624145508
 30
0.0
 11
-64.80000305175781
 21
-18.047094345092773
 31
0.0
  0
LINE
  8
0
 62
0
 10
-77.08696746826172
 20
-11.215978622436523
 30
0.0
 11
-68.95049285888672
 21
-19.35245132446289
 31
0.0
  0
LINE
  8
0
 62
0
 10
-66.18433380126953
 20
-19.522138595581055
 30
0.0
 11
-64.80000305175781
 21
-19.583711624145508
 31
0.0
  0
LINE
  8
0
 62
0
 10
-68.95049285888672
 20
-19.35245132446289
 30
0.0
 11
-67.56788635253906
 21
-19.44504737854004
 31
0.0
  0
LINE
  8
0
 62
0
 10
-67.56788635253906
 20
-19.44504737854004
 30
0.0
 11
-66.18433380126953
 21
-19.522138595581055
 31
0.0
  0
LINE
  8
0
 62
0
 10
-52.37319564819336
 20
-52.452423095703125
 30
0.0
 11
-53.59148025512695
 21
-55.20000076293945
 31
0.0
  0
LINE
  8
0
 62
0
 10
-45.71199035644531
 20
-55.20000076293945
 30
0.0
 11
-53.59148025512695
 21
-55.20000076293945
 31
0.0
  0
LINE
  8
0
 62
0
 10
-51.088462829589844
 20
-49.73528289794922
 30
0.0
 11
-52.37319564819336
 21
-52.452423095703125
 31
0.0
  0
LINE
  8
0
 62
0
 10
-45.71199035644531
 20
-55.20000076293945
 30
0.0
 11
-45.276241302490234
 21
-54.26548767089844
 31
0.0
  0
LINE
  8
0
 62
0
 10
-49.738040924072266
 20
-47.05018615722656
 30
0.0
 11
-51.088462829589844
 21
-49.73528289794922
 31
0.0
  0
LINE
  8
0
 62
0
 10
-45.276241302490234
 20
-54.26548767089844
 30
0.0
 11
-44.83222961425781
 21
-53.33487319946289
 31
0.0
  0
LINE
  8
0
 62
0
 10
-44.37999725341797
 20
-52.40822982788086
 30
0.0
 11
-49.738040924072266
 21
-47.05018615722656
 31
0.0
  0
LINE
  8
0
 62
0
 10
-44.83222961425781
 20
-53.33487319946289
 30
0.0
 11
-44.37999725341797
 21
-52.40822982788086
 31
0.0
  0
LINE
  8
0
 62
0
 10
-57.244815826416016
 20
-64.80000305175781
 30
0.0
 11
-55.20000076293945
 21
-64.80000305175781
 31
0.0
  0
LINE
  8
0
 62
0
 10
-57.244815826416016
 20
-64.80000305175781
 30
0.0
 11
-58.96907424926758
 21
-70.40708923339844
 31
0.0
  0
LINE
  8
0
 62
0
 10
-55.20000076293945
 20
-64.80000305175781
 30
0.0
 11
-51.02857208251953
 21
-68.97142791748047
 31
0.0
  0
LINE
  8
0
 62
0
 10
-58.96907424926758
 20
-70.40708923339844
 30
0.0
 11
-60.42534255981445
 21
-76.08967590332031
 31
0.0
  0
LINE
  8
0
 62
0
 10
-52.62862014770508
 20
-74.53336334228516
 30
0.0
 11
-51.02857208251953
 21
-68.97142791748047
 31
0.0
  0
LINE
  8
0
 62
0
 10
-60.42534255981445
 20
-76.08967590332031
 30
0.0
 11
-61.610347747802734
 21
-81.8349609375
 31
0.0
  0
LINE
  8
0
 62
0
 10
-53.950233459472656
 20
-80.16796112060547
 30
0.0
 11
-52.62862014770508
 21
-74.53336334228516
 31
0.0
  0
LINE
  8
0
 62
0
 10
-61.610347747802734
 20
-81.8349609375
 30
0.0
 11
-62.52141189575195
 21
-87.6300048828125
 31
0.0
  0
LINE
  8
0
 62
0
 10
-54.99013900756836
 20
-85.86128234863281
 30
0.0
 11
-53.950233459472656
 21
-80.16796112060547
 31
0.0
  0
LINE
  8
0
 62
0
 10
-62.52141189575195
 20
-87.6300048828125
 30
0.0
 11
-63.156490325927734
 21
-93.46174621582031
 31
0.0
  0
LINE
  8
0
 62
0
 10
-55.74577331542969
 20
-91.59925079345703
 30
0.0
 11
-54.99013900756836
 21
-85.86128234863281
 31
0.0
  0
LINE
  8
0
 62
0
 10
-63.156490325927734
 20
-93.46174621582031
 30
0.0
 11
-67.7056884765625
 21
-90.2207260131836
 31
0.0
  0
LINE
  8
0
 62
0
 10
-56.21526336669922
 20
-97.36769104003906
 30
0.0
 11
-55.74577331542969
 21
-91.59925079345703
 31
0.0
  0
LINE
  8
0
 62
0
 10
-67.7056884765625
 20
-90.2207260131836
 30
0.0
 11
-72.0888671875
 21
-86.75848388671875
 31
0.0
  0
LINE
  8
0
 62
0
 10
-51.300479888916016
 20
-93.96454620361328
 30
0.0
 11
-56.21526336669922
 21
-97.36769104003906
 31
0.0
  0
LINE
  8
0
 62
0
 10
-72.0888671875
 20
-86.75848388671875
 30
0.0
 11
-76.2952880859375
 21
-83.08351135253906
 31
0.0
  0
LINE
  8
0
 62
0
 10
-46.56690216064453
 20
-90.31356811523438
 30
0.0
 11
-51.300479888916016
 21
-93.96454620361328
 31
0.0
  0
LINE
  8
0
 62
0
 10
-76.2952880859375
 20
-83.08351135253906
 30
0.0
 11
-81.39079284667969
 21
-88.17901611328125
 31
0.0
  0
LINE
  8
0
 62
0
 10
-42.02700424194336
 20
-86.42436981201172
 30
0.0
 11
-46.56690216064453
 21
-90.31356811523438
 31
0.0
  0
LINE
  8
0
 62
0
 10
-77.1816635131836
 20
-91.88574981689453
 30
0.0
 11
-81.39079284667969
 21
-88.17901611328125
 31
0.0
  0
LINE
  8
0
 62
0
 10
-37.692771911621094
 20
-82.3072280883789
 30
0.0
 11
-42.02700424194336
 21
-86.42436981201172
 31
0.0
  0
LINE
  8
0
 62
0
 10
-72.8039321899414
 20
-95.39175415039062
 30
0.0
 11
-77.1816635131836
 21
-91.88574981689453
 31
0.0
  0
LINE
  8
0
 62
0
 10
-37.692771911621094
 20
-82.3072280883789
 30
0.0
 11
-32.601600646972656
 21
-87.39839935302734
 31
0.0
  0
LINE
  8
0
 62
0
 10
-68.26716613769531
 20
-98.68937683105469
 30
0.0
 11
-72.8039321899414
 21
-95.39175415039062
 31
0.0
  0
LINE
  8
0
 62
0
 10
-37.909027099609375
 20
-92.40147399902344
 30
0.0
 11
-32.601600646972656
 21
-87.39839935302734
 31
0.0
  0
LINE
  8
0
 62
0
 10
-63.58127212524414
 20
-101.77142333984375
 30
0.0
 11
-68.26716613769531
 21
-98.68937683105469
 31
0.0
  0
LINE
  8
0
 62
0
 10
-43.5023193359375
 20
-97.08277130126953
 30
0.0
 11
-37.909027099609375
 21
-92.40147399902344
 31
0.0
  0
LINE
  8
0
 62
0
 10
-63.58127212524414
 20
-101.77142333984375
 30
0.0
 11
-63.581512451171875
 21
-101.78541564941406
 31
0.0
  0
LINE
  8
0
 62
0
 10
-49.36199951171875
 20
-101.42599487304688
 30
0.0
 11
-43.5023193359375
 21
-97.08277130126953
 31
0.0
  0
LINE
  8
0
 62
0
 10
-63.581512451171875
 20
-101.78541564941406
 30
0.0
 11
-63.581756591796875
 21
-101.79940795898438
 31
0.0
  0
LINE
  8
0
 62
0
 10
-43.68387222290039
 20
-103.99787902832031
 30
0.0
 11
-49.36199951171875
 21
-101.42599487304688
 31
0.0
  0
LINE
  8
0
 62
0
 10
-63.581756591796875
 20
-101.79940795898438
 30
0.0
 11
-63.581993103027344
 21
-101.81340026855469
 31
0.0
  0
LINE
  8
0
 62
0
 10
-37.87234115600586
 20
-106.25218200683594
 30
0.0
 11
-43.68387222290039
 21
-103.99787902832031
 31
0.0
  0
LINE
  8
0
 62
0
 10
-63.581993103027344
 20
-101.81340026855469
 30
0.0
 11
-69.82881164550781
 21
-105.03243255615234
 31
0.0
  0
LINE
  8
0
 62
0
 10
-31.945159912109375
 20
-108.1820068359375
 30
0.0
 11
-37.87234115600586
 21
-106.25218200683594
 31
0.0
  0
LINE
  8
0
 62
0
 10
-69.82881164550781
 20
-105.03243255615234
 30
0.0
 11
-76.25850677490234
 21
-107.8686294555664
 31
0.0
  0
LINE
  8
0
 62
0
 10
-25.92042350769043
 20
-109.7814712524414
 30
0.0
 11
-31.945159912109375
 21
-108.1820068359375
 31
0.0
  0
LINE
  8
0
 62
0
 10
-76.25850677490234
 20
-107.8686294555664
 30
0.0
 11
-82.8476333618164
 21
-110.31165313720703
 31
0.0
  0
LINE
  8
0
 62
0
 10
-19.816532135009766
 20
-111.04569244384766
 30
0.0
 11
-25.92042350769043
 21
-109.7814712524414
 31
0.0
  0
LINE
  8
0
 62
0
 10
-82.8476333618164
 20
-110.31165313720703
 30
0.0
 11
-89.57217407226562
 21
-112.35260009765625
 31
0.0
  0
LINE
  8
0
 62
0
 10
-13.652124404907227
 20
-111.97079467773438
 30
0.0
 11
-19.816532135009766
 21
-111.04569244384766
 31
0.0
  0
LINE
  8
0
 62
0
 10
-89.57217407226562
 20
-112.35260009765625
 30
0.0
 11
-96.40762329101562
 21
-113.9840316772461
 31
0.0
  0
LINE
  8
0
 62
0
 10
-7.446027755737305
 20
-112.55397033691406
 30
0.0
 11
-13.652124404907227
 21
-111.97079467773438
 31
0.0
  0
LINE
  8
0
 62
0
 10
-96.40762329101562
 20
-113.9840316772461
 30
0.0
 11
-103.32906341552734
 21
-115.19999694824219
 31
0.0
  0
LINE
  8
0
 62
0
 10
-4.800000190734863
 20
-115.19999694824219
 30
0.0
 11
-7.446027755737305
 21
-112.55397033691406
 31
0.0
  0
LINE
  8
0
 62
0
 10
-75.2125015258789
 20
-115.19999694824219
 30
0.0
 11
-103.32906341552734
 21
-115.19999694824219
 31
0.0
  0
LINE
  8
0
 62
0
 10
-4.800000190734863
 20
-115.19999694824219
 30
0.0
 11
-33.599998474121094
 21
-115.19999694824219
 31
0.0
  0
LINE
  8
0
 62
0
 10
-75.2125015258789
 20
-115.19999694824219
 30
0.0
 11
-71.23274993896484
 21
-113.572509765625
 31
0.0
  0
LINE
  8
0
 62
0
 10
-33.599998474121094
 20
-115.19999694824219
 30
0.0
 11
-39.45692825317383
 21
-113.32762908935547
 31
0.0
  0
LINE
  8
0
 62
0
 10
-71.23274993896484
 20
-113.572509765625
 30
0.0
 11
-67.31201934814453
 21
-111.80758666992188
 31
0.0
  0
LINE
  8
0
 62
0
 10
-39.45692825317383
 20
-113.32762908935547
 30
0.0
 11
-45.21025848388672
 21
-111.1576919555664
 31
0.0
  0
LINE
  8
0
 62
0
 10
-67.31201934814453
 20
-111.80758666992188
 30
0.0
 11
-63.45504379272461
 21
-109.90736389160156
 31
0.0
  0
LINE
  8
0
 62
0
 10
-45.21025848388672
 20
-111.1576919555664
 30
0.0
 11
-50.844879150390625
 21
-108.6958999633789
 31
0.0
  0
LINE
  8
0
 62
0
 10
-63.45504379272461
 20
-109.90736389160156
 30
0.0
 11
-63.356773376464844
 21
-111.67327880859375
 31
0.0
  0
LINE
  8
0
 62
0
 10
-50.844879150390625
 20
-108.6958999633789
 30
0.0
 11
-56.34600067138672
 21
-105.9487075805664
 31
0.0
  0
LINE
  8
0
 62
0
 10
-63.356773376464844
 20
-111.67327880859375
 30
0.0
 11
-63.233245849609375
 21
-113.43761444091797
 31
0.0
  0
LINE
  8
0
 62
0
 10
-56.35799789428711
 20
-105.9559097290039
 30
0.0
 11
-56.34600067138672
 21
-105.9487075805664
 31
0.0
  0
LINE
  8
0
 62
0
 10
-63.233245849609375
 20
-113.43761444091797
 30
0.0
 11
-63.0844841003418
 21
-115.19999694824219
 31
0.0
  0
LINE
  8
0
 62
0
 10
-56.3699951171875
 20
-105.96311950683594
 30
0.0
 11
-56.35799789428711
 21
-105.9559097290039
 31
0.0
  0
LINE
  8
0
 62
0
 10
-55.85245132446289
 20
-115.19999694824219
 30
0.0
 11
-63.0844841003418
 21
-115.19999694824219
 31
0.0
  0
LINE
  8
0
 62
0
 10
-56.381996154785156
 20
-105.97032165527344
 30
0.0
 11
-56.3699951171875
 21
-105.96311950683594
 31
0.0
  0
LINE
  8
0
 62
0
 10
-55.85245132446289
 20
-115.19999694824219
 30
0.0
 11
-56.11042404174805
 21
-112.12847900390625
 31
0.0
  0
LINE
  8
0
 62
0
 10
-56.286983489990234
 20
-109.05120086669922
 30
0.0
 11
-56.381996154785156
 21
-105.97032165527344
 31
0.0
  0
LINE
  8
0
 62
0
 10
-56.11042404174805
 20
-112.12847900390625
 30
0.0
 11
-56.286983489990234
 21
-109.05120086669922
 31
0.0
  0
LINE
  8
0
 62
0
 10
-26.90924644470215
 20
-69.87897491455078
 30
0.0
 11
-29.29541015625
 21
-72.94955444335938
 31
0.0
  0
LINE
  8
0
 62
0
 10
-29.29541015625
 20
-72.94955444335938
 30
0.0
 11
-31.78281021118164
 21
-75.93870544433594
 31
0.0
  0
LINE
  8
0
 62
0
 10
-21.769731521606445
 20
-75.01849365234375
 30
0.0
 11
-26.90924644470215
 21
-69.87897491455078
 31
0.0
  0
LINE
  8
0
 62
0
 10
-31.78281021118164
 20
-75.93870544433594
 30
0.0
 11
-34.36867141723633
 21
-78.84310150146484
 31
0.0
  0
LINE
  8
0
 62
0
 10
-24.177030563354492
 20
-78.06996154785156
 30
0.0
 11
-21.769731521606445
 21
-75.01849365234375
 31
0.0
  0
LINE
  8
0
 62
0
 10
-34.36867141723633
 20
-78.84310150146484
 30
0.0
 11
-29.273418426513672
 21
-83.9383544921875
 31
0.0
  0
LINE
  8
0
 62
0
 10
-26.67908477783203
 20
-81.04422760009766
 30
0.0
 11
-24.177030563354492
 21
-78.06996154785156
 31
0.0
  0
LINE
  8
0
 62
0
 10
-29.273418426513672
 20
-83.9383544921875
 30
0.0
 11
-26.67908477783203
 21
-81.04422760009766
 31
0.0
  0
LINE
  8
0
 62
0
 10
0.41252925992012024
 20
112.79924774169922
 30
0.0
 11
7.216449660063518e-16
 21
113.21177673339844
 31
0.0
  0
LINE
  8
0
 62
0
 10
7.40148665436918e-16
 20
113.21177673339844
 30
0.0
 11
-0.41252925992012024
 21
112.79924774169922
 31
0.0
  0
LINE
  8
0
 62
0
 10
0.1375100165605545
 20
112.79991912841797
 30
0.0
 11
0.41252925992012024
 21
112.79924774169922
 31
0.0
  0
LINE
  8
0
 62
0
 10
-0.41252925992012024
 20
112.79924774169922
 30
0.0
 11
-0.1375100165605545
 21
112.79991912841797
 31
0.0
  0
LINE
  8
0
 62
0
 10
-0.1375100165605545
 20
112.79991912841797
 30
0.0
 11
0.1375100165605545
 21
112.79991912841797
 31
0.0
  0
LINE
  8
0
 62
0
 10
64.80000305175781
 20
-18.047094345092773
 30
0.0
 11
70.38162231445312
 21
-14.57463550567627
 31
0.0
  0
LINE
  8
0
 62
0
 10
41.06230926513672
 20
-37.03688049316406
 30
0.0
 11
42.83369064331055
 21
-35.350521087646484
 31
0.0
  0
LINE
  8
0
 62
0
 10
39.31611251831055
 20
-38.74916076660156
 30
0.0
 11
41.06230926513672
 21
-37.03688049316406
 31
0.0
  0
LINE
  8
0
 62
0
 10
37.59531021118164
 20
-40.48713302612305
 30
0.0
 11
39.31611251831055
 21
-38.74916076660156
 31
0.0
  0
LINE
  8
0
 62
0
 10
-37.59531021118164
 20
-40.48713302612305
 30
0.0
 11
-39.31611251831055
 21
-38.74916076660156
 31
0.0
  0
LINE
  8
0
 62
0
 10
-39.31611251831055
 20
-38.74916076660156
 30
0.0
 11
-41.06230926513672
 21
-37.03688049316406
 31
0.0
  0
LINE
  8
0
 62
0
 10
-41.06230926513672
 20
-37.03688049316406
 30
0.0
 11
-42.83369064331055
 21
-35.350521087646484
 31
0.0
  0
LINE
  8
0
 62
0
 10
-16.390361785888672
 20
-67.39437866210938
 30
0.0
 11
-18.047094345092773
 21
-64.80000305175781
 31
0.0
  0
LINE
  8
0
 62
0
 10
16.390361785888672
 20
-67.39437866210938
 30
0.0
 11
18.047094345092773
 21
-64.80000305175781
 31
0.0
  0
LINE
  8
0
 62
0
 10
39.31611251831055
 20
38.74916076660156
 30
0.0
 11
37.59531021118164
 21
40.48713302612305
 31
0.0
  0
LINE
  8
0
 62
0
 10
42.83369064331055
 20
35.350521087646484
 30
0.0
 11
41.06230926513672
 21
37.03688049316406
 31
0.0
  0
LINE
  8
0
 62
0
 10
41.06230926513672
 20
37.03688049316406
 30
0.0
 11
39.31611251831055
 21
38.74916076660156
 31
0.0
  0
LINE
  8
0
 62
0
 10
76.12167358398438
 20
11.355100631713867
 30
0.0
 11
70.38162231445312
 21
14.57463550567627
 31
0.0
  0
LINE
  8
0
 62
0
 10
70.38162231445312
 20
14.57463550567627
 30
0.0
 11
64.80000305175781
 21
18.047094345092773
 31
0.0
  0
LINE
  8
0
 62
0
 10
-16.390361785888672
 20
67.39437866210938
 30
0.0
 11
-18.047094345092773
 21
64.80000305175781
 31
0.0
  0
LINE
  8
0
 62
0
 10
-41.06230926513672
 20
37.03688049316406
 30
0.0
 11
-42.83369064331055
 21
35.350521087646484
 31
0.0
  0
LINE
  8
0
 62
0
 10
-39.31611251831055
 20
38.74916076660156
 30
0.0
 11
-41.06230926513672
 21
37.03688049316406
 31
0.0
  0
LINE
  8
0
 62
0
 10
-37.59531021118164
 20
40.48713302612305
 30
0.0
 11
-39.31611251831055
 21
38.74916076660156
 31
0.0
  0
LINE
  8
0
 62
0
 10
-70.38162231445312
 20
14.57463550567627
 30
0.0
 11
-64.80000305175781
 21
18.047094345092773
 31
0.0
  0
LINE
  8
0
 62
0
 10
-76.12167358398438
 20
11.355100631713867
 30
0.0
 11
-70.38162231445312
 21
14.57463550567627
 31
0.0
  0
LINE
  8
0
 62
0
 10
-70.38162231445312
 20
-14.57463550567627
 30
0.0
 11
-64.80000305175781
 21
-18.047094345092773
 31
0.0
  0
LINE
  8
0
 62
0
 10
-76.12167358398438
 20
-11.355100631713867
 30
0.0
 11
-70.38162231445312
 21
-14.57463550567627
 31
0.0
  0
LINE
  8
0
 62
0
 10
18.047094345092773
 20
64.80000305175781
 30
0.0
 11
16.390361785888672
 21
67.39437866210938
 31
0.0
  0
ENDBLK
  0
ENDSEC
  0
SECTION
  2
ENTITIES
  0
INSERT
  2
FACEFEAT
  8
0
 62
0
 10
0.0
 20
0.0
 30
0.0
  0
ENDSEC
  0
EOF
